M48
;DRILL file {KiCad 4.0.4-stable} date 12/01/16 01:31:55
;FORMAT={3:3/ absolute / metric / suppress trailing zeros}
FMAT,2
METRIC,LZ
T1C0.400
T2C0.500
T3C0.600
T4C0.800
T5C0.800
T6C0.900
T7C1.000
T8C1.016
T9C1.300
%
G90
G05
M71
T1
X165Y-0928
X1661Y-0971
X1717Y-0837
X1717Y-0863
X175162Y-1
X1753Y-1275
X1753Y-135
X1757Y-1018
X175775Y-135725
X1758Y-1283
X1766Y-1024
X1768Y-1053
X1776Y-1047
X1776Y-1257
X1776Y-1332
X1784Y-1053
X1836Y-0842
X1836Y-0863
X1843Y-0825
X1896Y-1262
X1896Y-1283
X1896Y-1337
X1896Y-1358
X1903Y-085
X1908Y-0814
X1908Y-0824
X1909Y-0857
X1915Y-0807
X1916Y-0864
X1922Y-08
X1929Y-0793
X1951Y-0855
X1953Y-0827
X1954Y-0799
X1962Y-0801
X1976Y-0828
T2
X1763Y-1367
X1792Y-1396
X1802Y-139
X1806Y-1324
T3
X167Y-1095
X1685Y-1175
X1686Y-1086
X169Y-0955
X1705Y-1475
X1746Y-1124
X1748Y-1238
X1804Y-1101
X1862Y-1089
X1907Y-12535
X1907Y-13285
T4
X1565Y-0955
X1565Y-0975
X1565Y-0995
X1565Y-1015
X1565Y-1035
X1565Y-1055
X1565Y-1075
X1565Y-1095
X1565Y-1115
X1565Y-1135
X1565Y-1155
X1565Y-1175
X1565Y-1195
X1565Y-1215
X1565Y-1235
X1565Y-1255
X1565Y-1275
X1565Y-1295
X1565Y-1315
X1565Y-1335
X1565Y-1355
X1565Y-1375
X1565Y-1395
X1565Y-1415
X1565Y-1435
X1585Y-0955
X1585Y-0975
X1585Y-0995
X1585Y-1015
X1585Y-1035
X1585Y-1055
X1585Y-1075
X1585Y-1095
X1585Y-1115
X1585Y-1135
X1585Y-1155
X1585Y-1175
X1585Y-1195
X1585Y-1215
X1585Y-1235
X1585Y-1255
X1585Y-1275
X1585Y-1295
X1585Y-1315
X1585Y-1335
X1585Y-1355
X1585Y-1375
X1585Y-1395
X1585Y-1415
X1585Y-1435
X1605Y-0955
X1605Y-0975
X1605Y-0995
X1605Y-1015
X1605Y-1035
X1605Y-1055
X1605Y-1075
X1605Y-1095
X1605Y-1115
X1605Y-1135
X1605Y-1155
X1605Y-1175
X1605Y-1195
X1605Y-1215
X1605Y-1235
X1605Y-1255
X1605Y-1275
X1605Y-1295
X1605Y-1315
X1605Y-1335
X1605Y-1355
X1605Y-1375
X1605Y-1395
X1605Y-1415
X1605Y-1435
X1625Y-0955
X1625Y-0975
X1625Y-0995
X1625Y-1015
X1625Y-1035
X1625Y-1055
X1625Y-1075
X1625Y-1095
X1625Y-1115
X1625Y-1135
X1625Y-1155
X1625Y-1175
X1625Y-1195
X1625Y-1215
X1625Y-1235
X1625Y-1255
X1625Y-1275
X1625Y-1295
X1625Y-1315
X1625Y-1335
X1625Y-1355
X1625Y-1375
X1625Y-1395
X1625Y-1415
X1625Y-1435
X1645Y-0955
X1645Y-0975
X1645Y-0995
X1645Y-1015
X1645Y-1035
X1645Y-1055
X1645Y-1075
X1645Y-1095
X1645Y-1115
X1645Y-1135
X1645Y-1155
X1645Y-1175
X1645Y-1195
X1645Y-1215
X1645Y-1235
X1645Y-1255
X1645Y-1275
X1645Y-1295
X1645Y-1315
X1645Y-1335
X1645Y-1355
X1645Y-1375
X1645Y-1395
X1645Y-1415
X1645Y-1435
T5
X178059Y-09565
X182941Y-09565
T6
X1795Y-146
X182Y-146
X1845Y-146
X187Y-146
X1895Y-146
X192Y-146
X1945Y-1107
X1945Y-1182
X1945Y-1257
X1945Y-1332
X1945Y-146
X197Y-1107
X197Y-1182
X197Y-1257
X197Y-1332
X197Y-146
X1995Y-1107
X1995Y-1182
X1995Y-1257
X1995Y-1332
X1995Y-146
X202Y-1107
X202Y-1182
X202Y-1257
X202Y-1332
X202Y-146
T7
X175Y-06946
X175Y-072
X17754Y-06946
X17754Y-072
X18008Y-06946
X18008Y-072
X18262Y-06946
X18262Y-072
X18516Y-06946
X18516Y-072
X1877Y-06946
X1877Y-072
X19024Y-06946
X19024Y-072
X19278Y-06946
X19278Y-072
X19532Y-06946
X19532Y-072
X19786Y-06946
X19786Y-072
T8
X1929Y-09596
X1929Y-0985
X1929Y-10104
X19646Y-09
X199Y-09
X2017Y-0775
T9
X2002Y-09475
X2002Y-09975
T0
M30
