G04 #@! TF.FileFunction,Soldermask,Bot*
%FSLAX46Y46*%
G04 Gerber Fmt 4.6, Leading zero omitted, Abs format (unit mm)*
G04 Created by KiCad (PCBNEW 4.0.4-stable) date 12/01/16 01:31:52*
%MOMM*%
%LPD*%
G01*
G04 APERTURE LIST*
%ADD10C,0.100000*%
%ADD11R,1.350000X1.350000*%
%ADD12C,1.350000*%
%ADD13R,1.270000X0.965200*%
%ADD14R,0.965200X1.270000*%
%ADD15R,2.235200X2.235200*%
%ADD16R,2.032000X2.032000*%
%ADD17O,2.032000X2.032000*%
%ADD18R,2.032000X1.727200*%
%ADD19O,2.032000X1.727200*%
%ADD20R,1.750000X1.750000*%
%ADD21C,1.750000*%
%ADD22R,2.500000X2.500000*%
%ADD23C,2.500000*%
%ADD24C,1.501140*%
%ADD25R,1.700000X1.700000*%
%ADD26C,1.700000*%
G04 APERTURE END LIST*
D10*
D11*
X162500000Y-95500000D03*
D12*
X162500000Y-97500000D03*
X162500000Y-99500000D03*
X162500000Y-101500000D03*
X162500000Y-103500000D03*
X162500000Y-105500000D03*
X162500000Y-107500000D03*
X162500000Y-109500000D03*
X162500000Y-111500000D03*
X162500000Y-113500000D03*
X162500000Y-115500000D03*
X162500000Y-117500000D03*
X162500000Y-119500000D03*
X162500000Y-121500000D03*
X162500000Y-123500000D03*
X162500000Y-125500000D03*
X162500000Y-127500000D03*
X162500000Y-129500000D03*
X162500000Y-131500000D03*
X162500000Y-133500000D03*
X162500000Y-135500000D03*
X162500000Y-137500000D03*
X162500000Y-139500000D03*
X162500000Y-141500000D03*
X162500000Y-143500000D03*
X164500000Y-95500000D03*
X164500000Y-97500000D03*
X164500000Y-99500000D03*
X164500000Y-101500000D03*
X164500000Y-103500000D03*
X164500000Y-105500000D03*
X164500000Y-107500000D03*
X164500000Y-109500000D03*
X164500000Y-111500000D03*
X164500000Y-113500000D03*
X164500000Y-115500000D03*
X164500000Y-117500000D03*
X164500000Y-119500000D03*
X164500000Y-121500000D03*
X164500000Y-123500000D03*
X164500000Y-125500000D03*
X164500000Y-127500000D03*
X164500000Y-129500000D03*
X164500000Y-131500000D03*
X164500000Y-133500000D03*
X164500000Y-135500000D03*
X164500000Y-137500000D03*
X164500000Y-139500000D03*
X164500000Y-141500000D03*
X164500000Y-143500000D03*
D13*
X175900000Y-111570000D03*
X175900000Y-110300000D03*
X175900000Y-109030000D03*
D14*
X191970000Y-131400000D03*
X190700000Y-131400000D03*
X189430000Y-131400000D03*
X191970000Y-123900000D03*
X190700000Y-123900000D03*
X189430000Y-123900000D03*
X197070000Y-78600000D03*
X195800000Y-78600000D03*
X194530000Y-78600000D03*
X197070000Y-81400000D03*
X195800000Y-81400000D03*
X194530000Y-81400000D03*
X176270000Y-80900000D03*
X175000000Y-80900000D03*
X173730000Y-80900000D03*
X197070000Y-84200000D03*
X195800000Y-84200000D03*
X194530000Y-84200000D03*
X191970000Y-138900000D03*
X190700000Y-138900000D03*
X189430000Y-138900000D03*
D11*
X156500000Y-95500000D03*
D12*
X156500000Y-97500000D03*
X156500000Y-99500000D03*
X156500000Y-101500000D03*
X156500000Y-103500000D03*
X156500000Y-105500000D03*
X156500000Y-107500000D03*
X156500000Y-109500000D03*
X156500000Y-111500000D03*
X156500000Y-113500000D03*
X156500000Y-115500000D03*
X156500000Y-117500000D03*
X156500000Y-119500000D03*
X156500000Y-121500000D03*
X156500000Y-123500000D03*
X156500000Y-125500000D03*
X156500000Y-127500000D03*
X156500000Y-129500000D03*
X156500000Y-131500000D03*
X156500000Y-133500000D03*
X156500000Y-135500000D03*
X156500000Y-137500000D03*
X156500000Y-139500000D03*
X156500000Y-141500000D03*
X156500000Y-143500000D03*
D11*
X158500000Y-95500000D03*
D12*
X158500000Y-97500000D03*
X158500000Y-99500000D03*
X158500000Y-101500000D03*
X158500000Y-103500000D03*
X158500000Y-105500000D03*
X158500000Y-107500000D03*
X158500000Y-109500000D03*
X158500000Y-111500000D03*
X158500000Y-113500000D03*
X158500000Y-115500000D03*
X158500000Y-117500000D03*
X158500000Y-119500000D03*
X158500000Y-121500000D03*
X158500000Y-123500000D03*
X158500000Y-125500000D03*
X158500000Y-127500000D03*
X158500000Y-129500000D03*
X158500000Y-131500000D03*
X158500000Y-133500000D03*
X158500000Y-135500000D03*
X158500000Y-137500000D03*
X158500000Y-139500000D03*
X158500000Y-141500000D03*
X158500000Y-143500000D03*
X160500000Y-95500000D03*
X160500000Y-97500000D03*
X160500000Y-99500000D03*
X160500000Y-101500000D03*
X160500000Y-103500000D03*
X160500000Y-105500000D03*
X160500000Y-107500000D03*
X160500000Y-109500000D03*
X160500000Y-111500000D03*
X160500000Y-113500000D03*
X160500000Y-115500000D03*
X160500000Y-117500000D03*
X160500000Y-119500000D03*
X160500000Y-121500000D03*
X160500000Y-123500000D03*
X160500000Y-125500000D03*
X160500000Y-127500000D03*
X160500000Y-129500000D03*
X160500000Y-131500000D03*
X160500000Y-133500000D03*
X160500000Y-135500000D03*
X160500000Y-137500000D03*
X160500000Y-139500000D03*
X160500000Y-141500000D03*
X160500000Y-143500000D03*
D15*
X201700000Y-77500000D03*
D16*
X199000000Y-90000000D03*
D17*
X196460000Y-90000000D03*
D18*
X192900000Y-95960000D03*
D19*
X192900000Y-98500000D03*
X192900000Y-101040000D03*
D20*
X194500000Y-133200000D03*
D21*
X197000000Y-133200000D03*
X199500000Y-133200000D03*
X202000000Y-133200000D03*
D20*
X194500000Y-125700000D03*
D21*
X197000000Y-125700000D03*
X199500000Y-125700000D03*
X202000000Y-125700000D03*
D20*
X194500000Y-110700000D03*
D21*
X197000000Y-110700000D03*
X199500000Y-110700000D03*
X202000000Y-110700000D03*
D20*
X194500000Y-118200000D03*
D21*
X197000000Y-118200000D03*
X199500000Y-118200000D03*
X202000000Y-118200000D03*
D20*
X202000000Y-146000000D03*
D21*
X199500000Y-146000000D03*
X197000000Y-146000000D03*
X194500000Y-146000000D03*
X192000000Y-146000000D03*
X189500000Y-146000000D03*
X187000000Y-146000000D03*
X184500000Y-146000000D03*
X182000000Y-146000000D03*
X179500000Y-146000000D03*
D22*
X200200000Y-99750000D03*
D23*
X200200000Y-94750000D03*
D24*
X178059060Y-95650000D03*
X182940940Y-95650000D03*
D25*
X175000000Y-72000000D03*
D26*
X175000000Y-69460000D03*
X177540000Y-72000000D03*
X177540000Y-69460000D03*
X180080000Y-72000000D03*
X180080000Y-69460000D03*
X182620000Y-72000000D03*
X182620000Y-69460000D03*
X185160000Y-72000000D03*
X185160000Y-69460000D03*
X187700000Y-72000000D03*
X187700000Y-69460000D03*
X190240000Y-72000000D03*
X190240000Y-69460000D03*
X192780000Y-72000000D03*
X192780000Y-69460000D03*
X195320000Y-72000000D03*
X195320000Y-69460000D03*
X197860000Y-72000000D03*
X197860000Y-69460000D03*
M02*
