G04 #@! TF.FileFunction,Copper,L2,Bot,Signal*
%FSLAX46Y46*%
G04 Gerber Fmt 4.6, Leading zero omitted, Abs format (unit mm)*
G04 Created by KiCad (PCBNEW 4.0.4-stable) date 12/01/16 01:31:51*
%MOMM*%
%LPD*%
G01*
G04 APERTURE LIST*
%ADD10C,0.100000*%
%ADD11R,1.350000X1.350000*%
%ADD12C,1.350000*%
%ADD13R,1.270000X0.965200*%
%ADD14R,0.965200X1.270000*%
%ADD15R,2.235200X2.235200*%
%ADD16R,2.032000X2.032000*%
%ADD17O,2.032000X2.032000*%
%ADD18R,2.032000X1.727200*%
%ADD19O,2.032000X1.727200*%
%ADD20R,1.750000X1.750000*%
%ADD21C,1.750000*%
%ADD22R,2.500000X2.500000*%
%ADD23C,2.500000*%
%ADD24C,1.501140*%
%ADD25R,1.700000X1.700000*%
%ADD26C,1.700000*%
%ADD27C,0.800000*%
%ADD28C,0.600000*%
%ADD29C,0.700000*%
%ADD30C,0.200000*%
%ADD31C,0.400000*%
%ADD32C,0.250000*%
%ADD33C,0.300000*%
%ADD34C,0.254000*%
G04 APERTURE END LIST*
D10*
D11*
X162500000Y-95500000D03*
D12*
X162500000Y-97500000D03*
X162500000Y-99500000D03*
X162500000Y-101500000D03*
X162500000Y-103500000D03*
X162500000Y-105500000D03*
X162500000Y-107500000D03*
X162500000Y-109500000D03*
X162500000Y-111500000D03*
X162500000Y-113500000D03*
X162500000Y-115500000D03*
X162500000Y-117500000D03*
X162500000Y-119500000D03*
X162500000Y-121500000D03*
X162500000Y-123500000D03*
X162500000Y-125500000D03*
X162500000Y-127500000D03*
X162500000Y-129500000D03*
X162500000Y-131500000D03*
X162500000Y-133500000D03*
X162500000Y-135500000D03*
X162500000Y-137500000D03*
X162500000Y-139500000D03*
X162500000Y-141500000D03*
X162500000Y-143500000D03*
X164500000Y-95500000D03*
X164500000Y-97500000D03*
X164500000Y-99500000D03*
X164500000Y-101500000D03*
X164500000Y-103500000D03*
X164500000Y-105500000D03*
X164500000Y-107500000D03*
X164500000Y-109500000D03*
X164500000Y-111500000D03*
X164500000Y-113500000D03*
X164500000Y-115500000D03*
X164500000Y-117500000D03*
X164500000Y-119500000D03*
X164500000Y-121500000D03*
X164500000Y-123500000D03*
X164500000Y-125500000D03*
X164500000Y-127500000D03*
X164500000Y-129500000D03*
X164500000Y-131500000D03*
X164500000Y-133500000D03*
X164500000Y-135500000D03*
X164500000Y-137500000D03*
X164500000Y-139500000D03*
X164500000Y-141500000D03*
X164500000Y-143500000D03*
D13*
X175900000Y-111570000D03*
X175900000Y-110300000D03*
X175900000Y-109030000D03*
D14*
X191970000Y-131400000D03*
X190700000Y-131400000D03*
X189430000Y-131400000D03*
X191970000Y-123900000D03*
X190700000Y-123900000D03*
X189430000Y-123900000D03*
X197070000Y-78600000D03*
X195800000Y-78600000D03*
X194530000Y-78600000D03*
X197070000Y-81400000D03*
X195800000Y-81400000D03*
X194530000Y-81400000D03*
X176270000Y-80900000D03*
X175000000Y-80900000D03*
X173730000Y-80900000D03*
X197070000Y-84200000D03*
X195800000Y-84200000D03*
X194530000Y-84200000D03*
X191970000Y-138900000D03*
X190700000Y-138900000D03*
X189430000Y-138900000D03*
D11*
X156500000Y-95500000D03*
D12*
X156500000Y-97500000D03*
X156500000Y-99500000D03*
X156500000Y-101500000D03*
X156500000Y-103500000D03*
X156500000Y-105500000D03*
X156500000Y-107500000D03*
X156500000Y-109500000D03*
X156500000Y-111500000D03*
X156500000Y-113500000D03*
X156500000Y-115500000D03*
X156500000Y-117500000D03*
X156500000Y-119500000D03*
X156500000Y-121500000D03*
X156500000Y-123500000D03*
X156500000Y-125500000D03*
X156500000Y-127500000D03*
X156500000Y-129500000D03*
X156500000Y-131500000D03*
X156500000Y-133500000D03*
X156500000Y-135500000D03*
X156500000Y-137500000D03*
X156500000Y-139500000D03*
X156500000Y-141500000D03*
X156500000Y-143500000D03*
D11*
X158500000Y-95500000D03*
D12*
X158500000Y-97500000D03*
X158500000Y-99500000D03*
X158500000Y-101500000D03*
X158500000Y-103500000D03*
X158500000Y-105500000D03*
X158500000Y-107500000D03*
X158500000Y-109500000D03*
X158500000Y-111500000D03*
X158500000Y-113500000D03*
X158500000Y-115500000D03*
X158500000Y-117500000D03*
X158500000Y-119500000D03*
X158500000Y-121500000D03*
X158500000Y-123500000D03*
X158500000Y-125500000D03*
X158500000Y-127500000D03*
X158500000Y-129500000D03*
X158500000Y-131500000D03*
X158500000Y-133500000D03*
X158500000Y-135500000D03*
X158500000Y-137500000D03*
X158500000Y-139500000D03*
X158500000Y-141500000D03*
X158500000Y-143500000D03*
X160500000Y-95500000D03*
X160500000Y-97500000D03*
X160500000Y-99500000D03*
X160500000Y-101500000D03*
X160500000Y-103500000D03*
X160500000Y-105500000D03*
X160500000Y-107500000D03*
X160500000Y-109500000D03*
X160500000Y-111500000D03*
X160500000Y-113500000D03*
X160500000Y-115500000D03*
X160500000Y-117500000D03*
X160500000Y-119500000D03*
X160500000Y-121500000D03*
X160500000Y-123500000D03*
X160500000Y-125500000D03*
X160500000Y-127500000D03*
X160500000Y-129500000D03*
X160500000Y-131500000D03*
X160500000Y-133500000D03*
X160500000Y-135500000D03*
X160500000Y-137500000D03*
X160500000Y-139500000D03*
X160500000Y-141500000D03*
X160500000Y-143500000D03*
D15*
X201700000Y-77500000D03*
D16*
X199000000Y-90000000D03*
D17*
X196460000Y-90000000D03*
D18*
X192900000Y-95960000D03*
D19*
X192900000Y-98500000D03*
X192900000Y-101040000D03*
D20*
X194500000Y-133200000D03*
D21*
X197000000Y-133200000D03*
X199500000Y-133200000D03*
X202000000Y-133200000D03*
D20*
X194500000Y-125700000D03*
D21*
X197000000Y-125700000D03*
X199500000Y-125700000D03*
X202000000Y-125700000D03*
D20*
X194500000Y-110700000D03*
D21*
X197000000Y-110700000D03*
X199500000Y-110700000D03*
X202000000Y-110700000D03*
D20*
X194500000Y-118200000D03*
D21*
X197000000Y-118200000D03*
X199500000Y-118200000D03*
X202000000Y-118200000D03*
D20*
X202000000Y-146000000D03*
D21*
X199500000Y-146000000D03*
X197000000Y-146000000D03*
X194500000Y-146000000D03*
X192000000Y-146000000D03*
X189500000Y-146000000D03*
X187000000Y-146000000D03*
X184500000Y-146000000D03*
X182000000Y-146000000D03*
X179500000Y-146000000D03*
D22*
X200200000Y-99750000D03*
D23*
X200200000Y-94750000D03*
D24*
X178059060Y-95650000D03*
X182940940Y-95650000D03*
D25*
X175000000Y-72000000D03*
D26*
X175000000Y-69460000D03*
X177540000Y-72000000D03*
X177540000Y-69460000D03*
X180080000Y-72000000D03*
X180080000Y-69460000D03*
X182620000Y-72000000D03*
X182620000Y-69460000D03*
X185160000Y-72000000D03*
X185160000Y-69460000D03*
X187700000Y-72000000D03*
X187700000Y-69460000D03*
X190240000Y-72000000D03*
X190240000Y-69460000D03*
X192780000Y-72000000D03*
X192780000Y-69460000D03*
X195320000Y-72000000D03*
X195320000Y-69460000D03*
X197860000Y-72000000D03*
X197860000Y-69460000D03*
D27*
X170500000Y-147500000D03*
D28*
X197600000Y-82800000D03*
D29*
X180600000Y-132400000D03*
X176300000Y-136700000D03*
X179200000Y-139600000D03*
D27*
X168600000Y-108600000D03*
X168500000Y-117500000D03*
X174800000Y-123800000D03*
X180400000Y-110100000D03*
D28*
X195100000Y-85500000D03*
X184300000Y-82500000D03*
D29*
X180200000Y-139000000D03*
D27*
X169000000Y-95500000D03*
X186200000Y-108900000D03*
X174600000Y-112400000D03*
X167000000Y-109500000D03*
X190700000Y-132850000D03*
X190700000Y-125350000D03*
D28*
X195400000Y-79900000D03*
X196200000Y-80100000D03*
X195300000Y-82700000D03*
X165000000Y-92800000D03*
X171700000Y-86300000D03*
X171700000Y-83700000D03*
X175300000Y-127500000D03*
X175800000Y-128300000D03*
X177600000Y-125700000D03*
X175300000Y-135000000D03*
X177600000Y-133200000D03*
X175775001Y-135724999D03*
X166100000Y-97100000D03*
X189600000Y-133700000D03*
X189600000Y-135800000D03*
X189600000Y-126200000D03*
X189600000Y-128300000D03*
X191600000Y-86400000D03*
X190900000Y-85700000D03*
X190300000Y-85000000D03*
X190800000Y-82400000D03*
X190800000Y-81400000D03*
X191500000Y-80700000D03*
X192200000Y-80000000D03*
X192900000Y-79300000D03*
X183600000Y-86300000D03*
X183600000Y-84200000D03*
X177600000Y-104700000D03*
X176600000Y-102400000D03*
X175700000Y-101800000D03*
X176800000Y-105300000D03*
X175162002Y-100000000D03*
X178400000Y-105300000D03*
D30*
X160500000Y-101500000D02*
X159943002Y-101500000D01*
X158918003Y-100475001D02*
X157475001Y-100475001D01*
X159943002Y-101500000D02*
X158918003Y-100475001D01*
X157475001Y-100475001D02*
X157174999Y-100174999D01*
X157174999Y-100174999D02*
X156500000Y-99500000D01*
D31*
X197070000Y-78600000D02*
X197070000Y-72790000D01*
X197070000Y-72790000D02*
X197860000Y-72000000D01*
X197070000Y-81400000D02*
X197070000Y-82800000D01*
D32*
X197600000Y-82800000D02*
X197070000Y-82800000D01*
D31*
X197070000Y-82800000D02*
X197070000Y-84200000D01*
X176300000Y-136700000D02*
X180600000Y-132400000D01*
X179200000Y-139600000D02*
X176300000Y-136700000D01*
X179200000Y-139600000D02*
X179200000Y-145700000D01*
X179200000Y-145700000D02*
X179500000Y-146000000D01*
X197070000Y-78600000D02*
X197070000Y-81800000D01*
D30*
X162500000Y-95500000D02*
X162500000Y-96056998D01*
X162500000Y-96056998D02*
X161475001Y-97081997D01*
X161475001Y-97081997D02*
X161475001Y-100524999D01*
X161475001Y-100524999D02*
X161174999Y-100825001D01*
X161174999Y-100825001D02*
X160500000Y-101500000D01*
X162500000Y-131500000D02*
X161524999Y-130524999D01*
X161524999Y-130524999D02*
X157524999Y-130524999D01*
X157524999Y-130524999D02*
X157174999Y-130174999D01*
X157174999Y-130174999D02*
X156500000Y-129500000D01*
X162500000Y-125500000D02*
X161524999Y-124524999D01*
X159174999Y-124825001D02*
X158500000Y-125500000D01*
X161524999Y-124524999D02*
X159475001Y-124524999D01*
X159475001Y-124524999D02*
X159174999Y-124825001D01*
X162500000Y-125500000D02*
X163174999Y-124825001D01*
X163174999Y-124825001D02*
X164500000Y-123500000D01*
X162500000Y-131500000D02*
X163174999Y-130825001D01*
X163174999Y-130825001D02*
X164500000Y-129500000D01*
X164500000Y-141500000D02*
X163475001Y-140475001D01*
X163475001Y-140475001D02*
X163475001Y-138475001D01*
X163475001Y-138475001D02*
X163174999Y-138174999D01*
X163174999Y-138174999D02*
X162500000Y-137500000D01*
X160500000Y-143500000D02*
X161475001Y-142524999D01*
X161475001Y-142524999D02*
X163475001Y-142524999D01*
X163475001Y-142524999D02*
X163825001Y-142174999D01*
X163825001Y-142174999D02*
X164500000Y-141500000D01*
D32*
X164500000Y-135500000D02*
X163825001Y-136174999D01*
X163825001Y-136174999D02*
X162500000Y-137500000D01*
D31*
X164500000Y-113500000D02*
X167300000Y-113500000D01*
X167300000Y-113500000D02*
X168600000Y-112200000D01*
X168600000Y-108600000D02*
X168600000Y-112200000D01*
X164500000Y-113500000D02*
X168500000Y-117500000D01*
X168500000Y-117500000D02*
X174800000Y-123800000D01*
X175900000Y-110300000D02*
X180200000Y-110300000D01*
X180200000Y-110300000D02*
X180400000Y-110100000D01*
X175000000Y-79865000D02*
X175000000Y-79300000D01*
X175000000Y-79300000D02*
X175000000Y-72000000D01*
X181240736Y-79840736D02*
X180700000Y-79300000D01*
X180700000Y-79300000D02*
X175000000Y-79300000D01*
X181240736Y-79865000D02*
X181240736Y-79840736D01*
X195100000Y-85500000D02*
X193499999Y-87100001D01*
X193499999Y-87100001D02*
X188900001Y-87100001D01*
X188900001Y-87100001D02*
X184599999Y-82799999D01*
X184599999Y-82799999D02*
X184300000Y-82500000D01*
D32*
X195100000Y-85500000D02*
X194530000Y-84930000D01*
X194530000Y-84930000D02*
X194530000Y-84200000D01*
D31*
X184300000Y-82500000D02*
X183875736Y-82500000D01*
X183875736Y-82500000D02*
X181240736Y-79865000D01*
X175000000Y-80900000D02*
X175000000Y-79865000D01*
X194530000Y-81400000D02*
X194530000Y-84200000D01*
X194530000Y-78600000D02*
X194530000Y-81800000D01*
X180200000Y-139000000D02*
X181135001Y-139935001D01*
X181135001Y-139935001D02*
X190232601Y-139935001D01*
X190700000Y-138900000D02*
X190700000Y-139467602D01*
X190700000Y-139467602D02*
X190232601Y-139935001D01*
X199775000Y-142500000D02*
X193265000Y-142500000D01*
X193265000Y-142500000D02*
X190700000Y-139935000D01*
X190700000Y-139935000D02*
X190700000Y-138900000D01*
X202000000Y-146000000D02*
X202000000Y-144725000D01*
X202000000Y-144725000D02*
X199775000Y-142500000D01*
X169000000Y-95500000D02*
X169000000Y-103400000D01*
X169000000Y-103400000D02*
X174630000Y-109030000D01*
X174630000Y-109030000D02*
X175900000Y-109030000D01*
X189430000Y-123900000D02*
X189430000Y-112130000D01*
X189430000Y-112130000D02*
X186200000Y-108900000D01*
X175900000Y-109030000D02*
X186070000Y-109030000D01*
X186070000Y-109030000D02*
X186200000Y-108900000D01*
D32*
X175900000Y-109030000D02*
X175747600Y-109030000D01*
D31*
X173730000Y-80900000D02*
X173730000Y-87977120D01*
X173730000Y-87977120D02*
X166207120Y-95500000D01*
X166207120Y-95500000D02*
X165454594Y-95500000D01*
X165454594Y-95500000D02*
X164500000Y-95500000D01*
X160500000Y-95500000D02*
X161575001Y-94424999D01*
X161575001Y-94424999D02*
X163424999Y-94424999D01*
X163424999Y-94424999D02*
X163825001Y-94825001D01*
X163825001Y-94825001D02*
X164500000Y-95500000D01*
X189430000Y-131400000D02*
X189430000Y-132435000D01*
X189430000Y-132435000D02*
X188899999Y-132965001D01*
X188899999Y-132965001D02*
X188899999Y-137334999D01*
X189430000Y-137865000D02*
X189430000Y-138900000D01*
X188899999Y-137334999D02*
X189430000Y-137865000D01*
X189430000Y-123900000D02*
X189430000Y-124935000D01*
X189430000Y-130365000D02*
X189430000Y-131400000D01*
X189430000Y-124935000D02*
X188899999Y-125465001D01*
X188899999Y-125465001D02*
X188899999Y-129834999D01*
X188899999Y-129834999D02*
X189430000Y-130365000D01*
X175900000Y-111570000D02*
X175430000Y-111570000D01*
X175430000Y-111570000D02*
X174600000Y-112400000D01*
X167000000Y-106443002D02*
X167000000Y-109100000D01*
X167000000Y-109100000D02*
X167000000Y-109500000D01*
D30*
X163524999Y-108475001D02*
X165975001Y-108475001D01*
X165975001Y-108475001D02*
X166600000Y-109100000D01*
X166600000Y-109100000D02*
X167000000Y-109100000D01*
X163475001Y-110475001D02*
X166024999Y-110475001D01*
X166024999Y-110475001D02*
X167000000Y-109500000D01*
X162500000Y-109500000D02*
X163475001Y-110475001D01*
D31*
X167000000Y-96000000D02*
X167000000Y-106443002D01*
X194500000Y-110700000D02*
X193225000Y-110700000D01*
X193225000Y-110700000D02*
X192355000Y-111570000D01*
D30*
X162500000Y-109500000D02*
X163524999Y-108475001D01*
D31*
X176270000Y-86730000D02*
X167000000Y-96000000D01*
X176270000Y-80900000D02*
X176270000Y-86730000D01*
X191970000Y-123900000D02*
X191970000Y-111955000D01*
X191970000Y-111955000D02*
X193225000Y-110700000D01*
X191970000Y-131400000D02*
X191970000Y-132435000D01*
X191970000Y-132435000D02*
X191970000Y-138900000D01*
X191970000Y-131400000D02*
X191970000Y-130365000D01*
X191970000Y-130365000D02*
X191970000Y-123900000D01*
D33*
X200200000Y-99750000D02*
X200200000Y-98200000D01*
X200200000Y-98200000D02*
X196460000Y-94460000D01*
X196460000Y-94460000D02*
X196460000Y-91436840D01*
X196460000Y-91436840D02*
X196460000Y-90000000D01*
D31*
X190700000Y-132850000D02*
X190700000Y-131400000D01*
X190700000Y-125350000D02*
X190700000Y-123900000D01*
D32*
X195800000Y-78600000D02*
X195800000Y-79500000D01*
X195800000Y-79500000D02*
X195400000Y-79900000D01*
X195800000Y-81400000D02*
X195800000Y-80500000D01*
X195800000Y-80500000D02*
X196200000Y-80100000D01*
X195800000Y-84200000D02*
X195800000Y-83200000D01*
X195800000Y-83200000D02*
X195300000Y-82700000D01*
D31*
X171700000Y-86300000D02*
X171700000Y-88000000D01*
X171700000Y-88000000D02*
X166900000Y-92800000D01*
X165424264Y-92800000D02*
X166900000Y-92800000D01*
X165000000Y-92800000D02*
X165424264Y-92800000D01*
X171700000Y-86300000D02*
X171700000Y-83700000D01*
D32*
X175300000Y-127500000D02*
X165943002Y-127500000D01*
D30*
X158500000Y-127500000D02*
X159475001Y-126524999D01*
X159475001Y-126524999D02*
X164968001Y-126524999D01*
X164968001Y-126524999D02*
X165943002Y-127500000D01*
X159524999Y-128475001D02*
X165724999Y-128475001D01*
X165724999Y-128475001D02*
X165900000Y-128300000D01*
D32*
X175800000Y-128300000D02*
X165900000Y-128300000D01*
D30*
X158500000Y-129500000D02*
X159524999Y-128475001D01*
D31*
X177600000Y-125700000D02*
X177600000Y-126500000D01*
X177600000Y-126500000D02*
X175800000Y-128300000D01*
D30*
X166567991Y-134124989D02*
X166567991Y-134099989D01*
X166567991Y-134099989D02*
X164968001Y-132524999D01*
D32*
X175300000Y-135000000D02*
X175300000Y-134575736D01*
X175300000Y-134575736D02*
X174824253Y-134099989D01*
X174824253Y-134099989D02*
X174113041Y-134099989D01*
X174113041Y-134099989D02*
X166567991Y-134099989D01*
D30*
X164968001Y-132524999D02*
X159524999Y-132524999D01*
X159524999Y-132524999D02*
X158500000Y-131500000D01*
D32*
X175775001Y-135724999D02*
X175524999Y-135724999D01*
X175425001Y-135625001D02*
X166925001Y-135625001D01*
X175524999Y-135724999D02*
X175425001Y-135625001D01*
X166925001Y-135625001D02*
X165824999Y-134524999D01*
D30*
X159524999Y-134524999D02*
X165824999Y-134524999D01*
D31*
X175775001Y-135724999D02*
X177600000Y-133900000D01*
X177600000Y-133900000D02*
X177600000Y-133200000D01*
D30*
X159524999Y-134524999D02*
X158500000Y-133500000D01*
X162500000Y-99500000D02*
X163524999Y-98475001D01*
X163524999Y-98475001D02*
X165149263Y-98475001D01*
X165149263Y-98475001D02*
X166100000Y-97524264D01*
X166100000Y-97524264D02*
X166100000Y-97100000D01*
D31*
X189600000Y-135800000D02*
X189600000Y-133700000D01*
X189600000Y-126200000D02*
X189600000Y-128300000D01*
D32*
X191600000Y-86400000D02*
X190138588Y-86400000D01*
X190138588Y-86400000D02*
X177540000Y-73801412D01*
X177540000Y-73801412D02*
X177540000Y-73221314D01*
X177540000Y-73221314D02*
X177540000Y-72000000D01*
X190900000Y-85700000D02*
X190825001Y-85625001D01*
X190825001Y-85625001D02*
X189999999Y-85625001D01*
X189999999Y-85625001D02*
X180080000Y-75705002D01*
X180080000Y-75705002D02*
X180080000Y-73221314D01*
X180080000Y-73221314D02*
X180080000Y-72000000D01*
X190300000Y-85000000D02*
X182620000Y-77320000D01*
X182620000Y-77320000D02*
X182620000Y-72000000D01*
X190800000Y-82400000D02*
X190800000Y-82325002D01*
X190800000Y-82325002D02*
X185160000Y-76685002D01*
X185160000Y-76685002D02*
X185160000Y-73221314D01*
X185160000Y-73221314D02*
X185160000Y-72000000D01*
X190800000Y-81400000D02*
X190800000Y-75100000D01*
X190800000Y-75100000D02*
X187700000Y-72000000D01*
X191500000Y-80700000D02*
X191500000Y-73260000D01*
X191500000Y-73260000D02*
X190240000Y-72000000D01*
X192780000Y-72000000D02*
X192780000Y-73202081D01*
X192780000Y-73202081D02*
X192200000Y-73782081D01*
X192200000Y-73782081D02*
X192200000Y-79575736D01*
X192200000Y-79575736D02*
X192200000Y-80000000D01*
X195320000Y-72000000D02*
X195320000Y-73221314D01*
X195320000Y-73221314D02*
X192900000Y-75641314D01*
X192900000Y-75641314D02*
X192900000Y-78875736D01*
X192900000Y-78875736D02*
X192900000Y-79300000D01*
D31*
X183600000Y-86300000D02*
X183600000Y-84200000D01*
D33*
X177600000Y-104700000D02*
X177600000Y-103400000D01*
X177600000Y-103400000D02*
X176600000Y-102400000D01*
X176800000Y-105300000D02*
X175700000Y-104200000D01*
X175700000Y-104200000D02*
X175700000Y-101800000D01*
X178400000Y-105300000D02*
X178400000Y-103237998D01*
X178400000Y-103237998D02*
X175162002Y-100000000D01*
D34*
G36*
X203597197Y-65558233D02*
X204103479Y-65896519D01*
X204441766Y-66402802D01*
X204569000Y-67042452D01*
X204569000Y-147957548D01*
X204441766Y-148597198D01*
X204103479Y-149103481D01*
X203597197Y-149441767D01*
X202957552Y-149569000D01*
X170542448Y-149569000D01*
X169711461Y-149403707D01*
X169042966Y-148957033D01*
X168596294Y-148288541D01*
X168422718Y-147415916D01*
X168352332Y-147062060D01*
X178617545Y-147062060D01*
X178700884Y-147315953D01*
X179265306Y-147521590D01*
X179865458Y-147495579D01*
X180299116Y-147315953D01*
X180382455Y-147062060D01*
X179500000Y-146179605D01*
X178617545Y-147062060D01*
X168352332Y-147062060D01*
X168232417Y-146459207D01*
X168168062Y-146303840D01*
X167808225Y-145765306D01*
X177978410Y-145765306D01*
X178004421Y-146365458D01*
X178184047Y-146799116D01*
X178437940Y-146882455D01*
X179320395Y-146000000D01*
X178437940Y-145117545D01*
X178184047Y-145200884D01*
X177978410Y-145765306D01*
X167808225Y-145765306D01*
X167626130Y-145492782D01*
X167507218Y-145373869D01*
X166854804Y-144937940D01*
X178617545Y-144937940D01*
X179500000Y-145820395D01*
X180382455Y-144937940D01*
X180299116Y-144684047D01*
X179734694Y-144478410D01*
X179134542Y-144504421D01*
X178700884Y-144684047D01*
X178617545Y-144937940D01*
X166854804Y-144937940D01*
X166696160Y-144831938D01*
X166540793Y-144767582D01*
X166540788Y-144767582D01*
X165584084Y-144577282D01*
X165541636Y-144577282D01*
X165500000Y-144569000D01*
X161199275Y-144569000D01*
X161237542Y-144417147D01*
X160500000Y-143679605D01*
X159762458Y-144417147D01*
X159800725Y-144569000D01*
X156542448Y-144569000D01*
X156476993Y-144555980D01*
X156709130Y-144556183D01*
X157097394Y-144395755D01*
X157394711Y-144098957D01*
X157500060Y-143845248D01*
X157604245Y-144097394D01*
X157901043Y-144394711D01*
X158289027Y-144555816D01*
X158709130Y-144556183D01*
X159097394Y-144395755D01*
X159339455Y-144154116D01*
X159349672Y-144178781D01*
X159582853Y-144237542D01*
X160320395Y-143500000D01*
X159582853Y-142762458D01*
X159349672Y-142821219D01*
X159340543Y-142847297D01*
X159098957Y-142605289D01*
X158845248Y-142499940D01*
X159097394Y-142395755D01*
X159394711Y-142098957D01*
X159500060Y-141845248D01*
X159604245Y-142097394D01*
X159845884Y-142339455D01*
X159821219Y-142349672D01*
X159762458Y-142582853D01*
X160500000Y-143320395D01*
X161237542Y-142582853D01*
X161178781Y-142349672D01*
X161152703Y-142340543D01*
X161394711Y-142098957D01*
X161500060Y-141845248D01*
X161604245Y-142097394D01*
X161901043Y-142394711D01*
X162154752Y-142500060D01*
X161902606Y-142604245D01*
X161660545Y-142845884D01*
X161650328Y-142821219D01*
X161417147Y-142762458D01*
X160679605Y-143500000D01*
X161417147Y-144237542D01*
X161650328Y-144178781D01*
X161659457Y-144152703D01*
X161901043Y-144394711D01*
X162289027Y-144555816D01*
X162709130Y-144556183D01*
X163097394Y-144395755D01*
X163394711Y-144098957D01*
X163500060Y-143845248D01*
X163604245Y-144097394D01*
X163901043Y-144394711D01*
X164289027Y-144555816D01*
X164709130Y-144556183D01*
X165097394Y-144395755D01*
X165394711Y-144098957D01*
X165555816Y-143710973D01*
X165556183Y-143290870D01*
X165395755Y-142902606D01*
X165154116Y-142660545D01*
X165178781Y-142650328D01*
X165237542Y-142417147D01*
X164500000Y-141679605D01*
X163762458Y-142417147D01*
X163821219Y-142650328D01*
X163847297Y-142659457D01*
X163605289Y-142901043D01*
X163499940Y-143154752D01*
X163395755Y-142902606D01*
X163098957Y-142605289D01*
X162845248Y-142499940D01*
X163097394Y-142395755D01*
X163339455Y-142154116D01*
X163349672Y-142178781D01*
X163582853Y-142237542D01*
X164320395Y-141500000D01*
X164679605Y-141500000D01*
X165417147Y-142237542D01*
X165650328Y-142178781D01*
X165822522Y-141686900D01*
X165793375Y-141166566D01*
X165650328Y-140821219D01*
X165417147Y-140762458D01*
X164679605Y-141500000D01*
X164320395Y-141500000D01*
X163582853Y-140762458D01*
X163349672Y-140821219D01*
X163340543Y-140847297D01*
X163098957Y-140605289D01*
X162845248Y-140499940D01*
X163097394Y-140395755D01*
X163394711Y-140098957D01*
X163500060Y-139845248D01*
X163604245Y-140097394D01*
X163845884Y-140339455D01*
X163821219Y-140349672D01*
X163762458Y-140582853D01*
X164500000Y-141320395D01*
X165237542Y-140582853D01*
X165178781Y-140349672D01*
X165152703Y-140340543D01*
X165394711Y-140098957D01*
X165555816Y-139710973D01*
X165556183Y-139290870D01*
X165395755Y-138902606D01*
X165098957Y-138605289D01*
X164845248Y-138499940D01*
X165097394Y-138395755D01*
X165394711Y-138098957D01*
X165555816Y-137710973D01*
X165556183Y-137290870D01*
X165395755Y-136902606D01*
X165154116Y-136660545D01*
X165178781Y-136650328D01*
X165237542Y-136417147D01*
X164500000Y-135679605D01*
X163762458Y-136417147D01*
X163821219Y-136650328D01*
X163847297Y-136659457D01*
X163660545Y-136845884D01*
X163650328Y-136821219D01*
X163417147Y-136762458D01*
X162679605Y-137500000D01*
X163417147Y-138237542D01*
X163650328Y-138178781D01*
X163659457Y-138152703D01*
X163901043Y-138394711D01*
X164154752Y-138500060D01*
X163902606Y-138604245D01*
X163605289Y-138901043D01*
X163499940Y-139154752D01*
X163395755Y-138902606D01*
X163154116Y-138660545D01*
X163178781Y-138650328D01*
X163237542Y-138417147D01*
X162500000Y-137679605D01*
X161762458Y-138417147D01*
X161821219Y-138650328D01*
X161847297Y-138659457D01*
X161605289Y-138901043D01*
X161499940Y-139154752D01*
X161395755Y-138902606D01*
X161098957Y-138605289D01*
X160845248Y-138499940D01*
X161097394Y-138395755D01*
X161339455Y-138154116D01*
X161349672Y-138178781D01*
X161582853Y-138237542D01*
X162320395Y-137500000D01*
X161582853Y-136762458D01*
X161349672Y-136821219D01*
X161340543Y-136847297D01*
X161098957Y-136605289D01*
X160845248Y-136499940D01*
X161097394Y-136395755D01*
X161394711Y-136098957D01*
X161500060Y-135845248D01*
X161604245Y-136097394D01*
X161845884Y-136339455D01*
X161821219Y-136349672D01*
X161762458Y-136582853D01*
X162500000Y-137320395D01*
X163237542Y-136582853D01*
X163178781Y-136349672D01*
X163152703Y-136340543D01*
X163339455Y-136154116D01*
X163349672Y-136178781D01*
X163582853Y-136237542D01*
X164320395Y-135500000D01*
X164306253Y-135485858D01*
X164485858Y-135306253D01*
X164500000Y-135320395D01*
X164514143Y-135306253D01*
X164693748Y-135485858D01*
X164679605Y-135500000D01*
X165417147Y-136237542D01*
X165650328Y-136178781D01*
X165822522Y-135686900D01*
X165795891Y-135211483D01*
X166567205Y-135982797D01*
X166731363Y-136092484D01*
X166925001Y-136131001D01*
X175218054Y-136131001D01*
X175388742Y-136301986D01*
X175638947Y-136405881D01*
X175909866Y-136406117D01*
X176160253Y-136302660D01*
X176351988Y-136111258D01*
X176452530Y-135869128D01*
X178010829Y-134310829D01*
X178136774Y-134122339D01*
X178181000Y-133900000D01*
X178181000Y-133576595D01*
X178280882Y-133336054D01*
X178281118Y-133065135D01*
X178177661Y-132814748D01*
X177986259Y-132623013D01*
X177736054Y-132519118D01*
X177465135Y-132518882D01*
X177214748Y-132622339D01*
X177023013Y-132813741D01*
X176919118Y-133063946D01*
X176918882Y-133334865D01*
X177019000Y-133577171D01*
X177019000Y-133659342D01*
X175932024Y-134746318D01*
X175877661Y-134614748D01*
X175797859Y-134534807D01*
X175767483Y-134382098D01*
X175657796Y-134217940D01*
X175182049Y-133742193D01*
X175017891Y-133632506D01*
X174824253Y-133593989D01*
X166739615Y-133593989D01*
X165308391Y-132185127D01*
X165394711Y-132098957D01*
X165555816Y-131710973D01*
X165556183Y-131290870D01*
X165395755Y-130902606D01*
X165154116Y-130660545D01*
X165178781Y-130650328D01*
X165237542Y-130417147D01*
X164500000Y-129679605D01*
X163762458Y-130417147D01*
X163821219Y-130650328D01*
X163847297Y-130659457D01*
X163660545Y-130845884D01*
X163650328Y-130821219D01*
X163417147Y-130762458D01*
X162679605Y-131500000D01*
X162693748Y-131514143D01*
X162514143Y-131693748D01*
X162500000Y-131679605D01*
X162485858Y-131693748D01*
X162306253Y-131514143D01*
X162320395Y-131500000D01*
X161582853Y-130762458D01*
X161349672Y-130821219D01*
X161340543Y-130847297D01*
X161098957Y-130605289D01*
X160845248Y-130499940D01*
X161097394Y-130395755D01*
X161394711Y-130098957D01*
X161500060Y-129845248D01*
X161604245Y-130097394D01*
X161845884Y-130339455D01*
X161821219Y-130349672D01*
X161762458Y-130582853D01*
X162500000Y-131320395D01*
X163237542Y-130582853D01*
X163178781Y-130349672D01*
X163152703Y-130340543D01*
X163339455Y-130154116D01*
X163349672Y-130178781D01*
X163582853Y-130237542D01*
X164320395Y-129500000D01*
X164306253Y-129485858D01*
X164485858Y-129306253D01*
X164500000Y-129320395D01*
X164514143Y-129306253D01*
X164693748Y-129485858D01*
X164679605Y-129500000D01*
X165417147Y-130237542D01*
X165650328Y-130178781D01*
X165822522Y-129686900D01*
X165793375Y-129166566D01*
X165706156Y-128956001D01*
X165724999Y-128956001D01*
X165909070Y-128919387D01*
X166065117Y-128815119D01*
X166074236Y-128806000D01*
X175342877Y-128806000D01*
X175413741Y-128876987D01*
X175663946Y-128980882D01*
X175934865Y-128981118D01*
X176185252Y-128877661D01*
X176376987Y-128686259D01*
X176477529Y-128444129D01*
X178010829Y-126910829D01*
X178136774Y-126722339D01*
X178181000Y-126500000D01*
X178181000Y-126076595D01*
X178280882Y-125836054D01*
X178281118Y-125565135D01*
X178177661Y-125314748D01*
X177986259Y-125123013D01*
X177736054Y-125019118D01*
X177465135Y-125018882D01*
X177214748Y-125122339D01*
X177023013Y-125313741D01*
X176919118Y-125563946D01*
X176918882Y-125834865D01*
X177019000Y-126077171D01*
X177019000Y-126259342D01*
X175961262Y-127317080D01*
X175877661Y-127114748D01*
X175686259Y-126923013D01*
X175436054Y-126819118D01*
X175165135Y-126818882D01*
X174914748Y-126922339D01*
X174842962Y-126994000D01*
X166117239Y-126994000D01*
X165308378Y-126185140D01*
X165394711Y-126098957D01*
X165555816Y-125710973D01*
X165556183Y-125290870D01*
X165395755Y-124902606D01*
X165154116Y-124660545D01*
X165178781Y-124650328D01*
X165237542Y-124417147D01*
X164500000Y-123679605D01*
X163762458Y-124417147D01*
X163821219Y-124650328D01*
X163847297Y-124659457D01*
X163660545Y-124845884D01*
X163650328Y-124821219D01*
X163417147Y-124762458D01*
X162679605Y-125500000D01*
X162693748Y-125514143D01*
X162514143Y-125693748D01*
X162500000Y-125679605D01*
X162485858Y-125693748D01*
X162306253Y-125514143D01*
X162320395Y-125500000D01*
X161582853Y-124762458D01*
X161349672Y-124821219D01*
X161340543Y-124847297D01*
X161098957Y-124605289D01*
X160845248Y-124499940D01*
X161097394Y-124395755D01*
X161394711Y-124098957D01*
X161500060Y-123845248D01*
X161604245Y-124097394D01*
X161845884Y-124339455D01*
X161821219Y-124349672D01*
X161762458Y-124582853D01*
X162500000Y-125320395D01*
X163237542Y-124582853D01*
X163178781Y-124349672D01*
X163152703Y-124340543D01*
X163339455Y-124154116D01*
X163349672Y-124178781D01*
X163582853Y-124237542D01*
X164320395Y-123500000D01*
X164679605Y-123500000D01*
X165417147Y-124237542D01*
X165650328Y-124178781D01*
X165822522Y-123686900D01*
X165793375Y-123166566D01*
X165650328Y-122821219D01*
X165417147Y-122762458D01*
X164679605Y-123500000D01*
X164320395Y-123500000D01*
X163582853Y-122762458D01*
X163349672Y-122821219D01*
X163340543Y-122847297D01*
X163098957Y-122605289D01*
X162845248Y-122499940D01*
X163097394Y-122395755D01*
X163394711Y-122098957D01*
X163500060Y-121845248D01*
X163604245Y-122097394D01*
X163845884Y-122339455D01*
X163821219Y-122349672D01*
X163762458Y-122582853D01*
X164500000Y-123320395D01*
X165237542Y-122582853D01*
X165178781Y-122349672D01*
X165152703Y-122340543D01*
X165394711Y-122098957D01*
X165555816Y-121710973D01*
X165556183Y-121290870D01*
X165395755Y-120902606D01*
X165098957Y-120605289D01*
X164845248Y-120499940D01*
X165097394Y-120395755D01*
X165394711Y-120098957D01*
X165555816Y-119710973D01*
X165556183Y-119290870D01*
X165395755Y-118902606D01*
X165098957Y-118605289D01*
X164845248Y-118499940D01*
X165097394Y-118395755D01*
X165394711Y-118098957D01*
X165555816Y-117710973D01*
X165556183Y-117290870D01*
X165395755Y-116902606D01*
X165098957Y-116605289D01*
X164845248Y-116499940D01*
X165097394Y-116395755D01*
X165394711Y-116098957D01*
X165555816Y-115710973D01*
X165556107Y-115377765D01*
X167718964Y-117540622D01*
X167718864Y-117654669D01*
X167837514Y-117941823D01*
X168057021Y-118161714D01*
X168343968Y-118280864D01*
X168459307Y-118280965D01*
X174018964Y-123840622D01*
X174018864Y-123954669D01*
X174137514Y-124241823D01*
X174357021Y-124461714D01*
X174643968Y-124580864D01*
X174954669Y-124581136D01*
X175241823Y-124462486D01*
X175461714Y-124242979D01*
X175580864Y-123956032D01*
X175581136Y-123645331D01*
X175462486Y-123358177D01*
X175242979Y-123138286D01*
X174956032Y-123019136D01*
X174840693Y-123019035D01*
X169281036Y-117459378D01*
X169281136Y-117345331D01*
X169162486Y-117058177D01*
X168942979Y-116838286D01*
X168656032Y-116719136D01*
X168540693Y-116719035D01*
X165902658Y-114081000D01*
X167300000Y-114081000D01*
X167522339Y-114036774D01*
X167710829Y-113910829D01*
X169010829Y-112610829D01*
X169136774Y-112422339D01*
X169181000Y-112200000D01*
X169181000Y-109123552D01*
X169261714Y-109042979D01*
X169380864Y-108756032D01*
X169381136Y-108445331D01*
X169262486Y-108158177D01*
X169042979Y-107938286D01*
X168756032Y-107819136D01*
X168445331Y-107818864D01*
X168158177Y-107937514D01*
X167938286Y-108157021D01*
X167819136Y-108443968D01*
X167818864Y-108754669D01*
X167937514Y-109041823D01*
X168019000Y-109123452D01*
X168019000Y-111959342D01*
X167059342Y-112919000D01*
X165402529Y-112919000D01*
X165395755Y-112902606D01*
X165098957Y-112605289D01*
X164845248Y-112499940D01*
X165097394Y-112395755D01*
X165394711Y-112098957D01*
X165555816Y-111710973D01*
X165556183Y-111290870D01*
X165417817Y-110956001D01*
X166024999Y-110956001D01*
X166209070Y-110919387D01*
X166365117Y-110815119D01*
X166899324Y-110280912D01*
X167154669Y-110281136D01*
X167441823Y-110162486D01*
X167661714Y-109942979D01*
X167780864Y-109656032D01*
X167781136Y-109345331D01*
X167662486Y-109058177D01*
X167581000Y-108976548D01*
X167581000Y-96240658D01*
X168218909Y-95602749D01*
X168218864Y-95654669D01*
X168337514Y-95941823D01*
X168419000Y-96023452D01*
X168419000Y-103400000D01*
X168463226Y-103622339D01*
X168589171Y-103810829D01*
X174219171Y-109440829D01*
X174407661Y-109566774D01*
X174630000Y-109611000D01*
X174895051Y-109611000D01*
X174903103Y-109653790D01*
X174909196Y-109663259D01*
X174907141Y-109666266D01*
X174876536Y-109817400D01*
X174876536Y-110782600D01*
X174903103Y-110923790D01*
X174909196Y-110933259D01*
X174907141Y-110936266D01*
X174876536Y-111087400D01*
X174876536Y-111301806D01*
X174559378Y-111618964D01*
X174445331Y-111618864D01*
X174158177Y-111737514D01*
X173938286Y-111957021D01*
X173819136Y-112243968D01*
X173818864Y-112554669D01*
X173937514Y-112841823D01*
X174157021Y-113061714D01*
X174443968Y-113180864D01*
X174754669Y-113181136D01*
X175041823Y-113062486D01*
X175261714Y-112842979D01*
X175380864Y-112556032D01*
X175380965Y-112441064D01*
X176535000Y-112441064D01*
X176676190Y-112414497D01*
X176805865Y-112331054D01*
X176892859Y-112203734D01*
X176923464Y-112052600D01*
X176923464Y-111087400D01*
X176896897Y-110946210D01*
X176890804Y-110936741D01*
X176892859Y-110933734D01*
X176903538Y-110881000D01*
X180200000Y-110881000D01*
X180229949Y-110875043D01*
X180243968Y-110880864D01*
X180554669Y-110881136D01*
X180841823Y-110762486D01*
X181061714Y-110542979D01*
X181180864Y-110256032D01*
X181181136Y-109945331D01*
X181062486Y-109658177D01*
X181015391Y-109611000D01*
X185875716Y-109611000D01*
X186043968Y-109680864D01*
X186159307Y-109680965D01*
X188849000Y-112370658D01*
X188849000Y-122895051D01*
X188806210Y-122903103D01*
X188676535Y-122986546D01*
X188589541Y-123113866D01*
X188558936Y-123265000D01*
X188558936Y-124535000D01*
X188585503Y-124676190D01*
X188668946Y-124805865D01*
X188709659Y-124833683D01*
X188489170Y-125054172D01*
X188363225Y-125242662D01*
X188318999Y-125465001D01*
X188318999Y-129834999D01*
X188363225Y-130057338D01*
X188489170Y-130245828D01*
X188708998Y-130465656D01*
X188676535Y-130486546D01*
X188589541Y-130613866D01*
X188558936Y-130765000D01*
X188558936Y-132035000D01*
X188585503Y-132176190D01*
X188668946Y-132305865D01*
X188709659Y-132333683D01*
X188489170Y-132554172D01*
X188363225Y-132742662D01*
X188318999Y-132965001D01*
X188318999Y-137334999D01*
X188363225Y-137557338D01*
X188489170Y-137745828D01*
X188708998Y-137965656D01*
X188676535Y-137986546D01*
X188589541Y-138113866D01*
X188558936Y-138265000D01*
X188558936Y-139354001D01*
X181375659Y-139354001D01*
X180931079Y-138909421D01*
X180931126Y-138855233D01*
X180820073Y-138586463D01*
X180614619Y-138380650D01*
X180346043Y-138269127D01*
X180055233Y-138268874D01*
X179786463Y-138379927D01*
X179580650Y-138585381D01*
X179469127Y-138853957D01*
X179468874Y-139144767D01*
X179579927Y-139413537D01*
X179785381Y-139619350D01*
X180053957Y-139730873D01*
X180109263Y-139730921D01*
X180724172Y-140345830D01*
X180912662Y-140471775D01*
X181135001Y-140516001D01*
X190232601Y-140516001D01*
X190421724Y-140478382D01*
X192854171Y-142910829D01*
X193042661Y-143036774D01*
X193265000Y-143081000D01*
X199534342Y-143081000D01*
X201189878Y-144736536D01*
X201125000Y-144736536D01*
X200983810Y-144763103D01*
X200854135Y-144846546D01*
X200767141Y-144973866D01*
X200736536Y-145125000D01*
X200736536Y-145703630D01*
X200565405Y-145289463D01*
X200212396Y-144935836D01*
X199750930Y-144744219D01*
X199251262Y-144743783D01*
X198789463Y-144934595D01*
X198435836Y-145287604D01*
X198249779Y-145735680D01*
X198065405Y-145289463D01*
X197712396Y-144935836D01*
X197250930Y-144744219D01*
X196751262Y-144743783D01*
X196289463Y-144934595D01*
X195935836Y-145287604D01*
X195749779Y-145735680D01*
X195565405Y-145289463D01*
X195212396Y-144935836D01*
X194750930Y-144744219D01*
X194251262Y-144743783D01*
X193789463Y-144934595D01*
X193435836Y-145287604D01*
X193249779Y-145735680D01*
X193065405Y-145289463D01*
X192712396Y-144935836D01*
X192250930Y-144744219D01*
X191751262Y-144743783D01*
X191289463Y-144934595D01*
X190935836Y-145287604D01*
X190749779Y-145735680D01*
X190565405Y-145289463D01*
X190212396Y-144935836D01*
X189750930Y-144744219D01*
X189251262Y-144743783D01*
X188789463Y-144934595D01*
X188435836Y-145287604D01*
X188249779Y-145735680D01*
X188065405Y-145289463D01*
X187712396Y-144935836D01*
X187250930Y-144744219D01*
X186751262Y-144743783D01*
X186289463Y-144934595D01*
X185935836Y-145287604D01*
X185749779Y-145735680D01*
X185565405Y-145289463D01*
X185212396Y-144935836D01*
X184750930Y-144744219D01*
X184251262Y-144743783D01*
X183789463Y-144934595D01*
X183435836Y-145287604D01*
X183249779Y-145735680D01*
X183065405Y-145289463D01*
X182712396Y-144935836D01*
X182250930Y-144744219D01*
X181751262Y-144743783D01*
X181289463Y-144934595D01*
X180935836Y-145287604D01*
X180893803Y-145388831D01*
X180815953Y-145200884D01*
X180562060Y-145117545D01*
X179679605Y-146000000D01*
X180562060Y-146882455D01*
X180815953Y-146799116D01*
X180888696Y-146599454D01*
X180934595Y-146710537D01*
X181287604Y-147064164D01*
X181749070Y-147255781D01*
X182248738Y-147256217D01*
X182710537Y-147065405D01*
X183064164Y-146712396D01*
X183250221Y-146264320D01*
X183434595Y-146710537D01*
X183787604Y-147064164D01*
X184249070Y-147255781D01*
X184748738Y-147256217D01*
X185210537Y-147065405D01*
X185564164Y-146712396D01*
X185750221Y-146264320D01*
X185934595Y-146710537D01*
X186287604Y-147064164D01*
X186749070Y-147255781D01*
X187248738Y-147256217D01*
X187710537Y-147065405D01*
X188064164Y-146712396D01*
X188250221Y-146264320D01*
X188434595Y-146710537D01*
X188787604Y-147064164D01*
X189249070Y-147255781D01*
X189748738Y-147256217D01*
X190210537Y-147065405D01*
X190564164Y-146712396D01*
X190750221Y-146264320D01*
X190934595Y-146710537D01*
X191287604Y-147064164D01*
X191749070Y-147255781D01*
X192248738Y-147256217D01*
X192710537Y-147065405D01*
X193064164Y-146712396D01*
X193250221Y-146264320D01*
X193434595Y-146710537D01*
X193787604Y-147064164D01*
X194249070Y-147255781D01*
X194748738Y-147256217D01*
X195210537Y-147065405D01*
X195564164Y-146712396D01*
X195750221Y-146264320D01*
X195934595Y-146710537D01*
X196287604Y-147064164D01*
X196749070Y-147255781D01*
X197248738Y-147256217D01*
X197710537Y-147065405D01*
X198064164Y-146712396D01*
X198250221Y-146264320D01*
X198434595Y-146710537D01*
X198787604Y-147064164D01*
X199249070Y-147255781D01*
X199748738Y-147256217D01*
X200210537Y-147065405D01*
X200564164Y-146712396D01*
X200736536Y-146297277D01*
X200736536Y-146875000D01*
X200763103Y-147016190D01*
X200846546Y-147145865D01*
X200973866Y-147232859D01*
X201125000Y-147263464D01*
X202875000Y-147263464D01*
X203016190Y-147236897D01*
X203145865Y-147153454D01*
X203232859Y-147026134D01*
X203263464Y-146875000D01*
X203263464Y-145125000D01*
X203236897Y-144983810D01*
X203153454Y-144854135D01*
X203026134Y-144767141D01*
X202875000Y-144736536D01*
X202581000Y-144736536D01*
X202581000Y-144725000D01*
X202536774Y-144502661D01*
X202410829Y-144314171D01*
X200185829Y-142089171D01*
X199997339Y-141963226D01*
X199775000Y-141919000D01*
X193505658Y-141919000D01*
X191510122Y-139923464D01*
X192452600Y-139923464D01*
X192593790Y-139896897D01*
X192723465Y-139813454D01*
X192810459Y-139686134D01*
X192841064Y-139535000D01*
X192841064Y-138265000D01*
X192814497Y-138123810D01*
X192731054Y-137994135D01*
X192603734Y-137907141D01*
X192551000Y-137896462D01*
X192551000Y-132404949D01*
X192593790Y-132396897D01*
X192705521Y-132325000D01*
X193236536Y-132325000D01*
X193236536Y-134075000D01*
X193263103Y-134216190D01*
X193346546Y-134345865D01*
X193473866Y-134432859D01*
X193625000Y-134463464D01*
X195375000Y-134463464D01*
X195516190Y-134436897D01*
X195645865Y-134353454D01*
X195732859Y-134226134D01*
X195763464Y-134075000D01*
X195763464Y-133496370D01*
X195934595Y-133910537D01*
X196287604Y-134264164D01*
X196749070Y-134455781D01*
X197248738Y-134456217D01*
X197710537Y-134265405D01*
X198064164Y-133912396D01*
X198250221Y-133464320D01*
X198434595Y-133910537D01*
X198787604Y-134264164D01*
X199249070Y-134455781D01*
X199748738Y-134456217D01*
X200210537Y-134265405D01*
X200213887Y-134262060D01*
X201117545Y-134262060D01*
X201200884Y-134515953D01*
X201765306Y-134721590D01*
X202365458Y-134695579D01*
X202799116Y-134515953D01*
X202882455Y-134262060D01*
X202000000Y-133379605D01*
X201117545Y-134262060D01*
X200213887Y-134262060D01*
X200564164Y-133912396D01*
X200606197Y-133811169D01*
X200684047Y-133999116D01*
X200937940Y-134082455D01*
X201820395Y-133200000D01*
X202179605Y-133200000D01*
X203062060Y-134082455D01*
X203315953Y-133999116D01*
X203521590Y-133434694D01*
X203495579Y-132834542D01*
X203315953Y-132400884D01*
X203062060Y-132317545D01*
X202179605Y-133200000D01*
X201820395Y-133200000D01*
X200937940Y-132317545D01*
X200684047Y-132400884D01*
X200611304Y-132600546D01*
X200565405Y-132489463D01*
X200214497Y-132137940D01*
X201117545Y-132137940D01*
X202000000Y-133020395D01*
X202882455Y-132137940D01*
X202799116Y-131884047D01*
X202234694Y-131678410D01*
X201634542Y-131704421D01*
X201200884Y-131884047D01*
X201117545Y-132137940D01*
X200214497Y-132137940D01*
X200212396Y-132135836D01*
X199750930Y-131944219D01*
X199251262Y-131943783D01*
X198789463Y-132134595D01*
X198435836Y-132487604D01*
X198249779Y-132935680D01*
X198065405Y-132489463D01*
X197712396Y-132135836D01*
X197250930Y-131944219D01*
X196751262Y-131943783D01*
X196289463Y-132134595D01*
X195935836Y-132487604D01*
X195763464Y-132902723D01*
X195763464Y-132325000D01*
X195736897Y-132183810D01*
X195653454Y-132054135D01*
X195526134Y-131967141D01*
X195375000Y-131936536D01*
X193625000Y-131936536D01*
X193483810Y-131963103D01*
X193354135Y-132046546D01*
X193267141Y-132173866D01*
X193236536Y-132325000D01*
X192705521Y-132325000D01*
X192723465Y-132313454D01*
X192810459Y-132186134D01*
X192841064Y-132035000D01*
X192841064Y-130765000D01*
X192814497Y-130623810D01*
X192731054Y-130494135D01*
X192603734Y-130407141D01*
X192551000Y-130396462D01*
X192551000Y-124904949D01*
X192593790Y-124896897D01*
X192705521Y-124825000D01*
X193236536Y-124825000D01*
X193236536Y-126575000D01*
X193263103Y-126716190D01*
X193346546Y-126845865D01*
X193473866Y-126932859D01*
X193625000Y-126963464D01*
X195375000Y-126963464D01*
X195516190Y-126936897D01*
X195645865Y-126853454D01*
X195732859Y-126726134D01*
X195763464Y-126575000D01*
X195763464Y-125996370D01*
X195934595Y-126410537D01*
X196287604Y-126764164D01*
X196749070Y-126955781D01*
X197248738Y-126956217D01*
X197710537Y-126765405D01*
X198064164Y-126412396D01*
X198250221Y-125964320D01*
X198434595Y-126410537D01*
X198787604Y-126764164D01*
X199249070Y-126955781D01*
X199748738Y-126956217D01*
X200210537Y-126765405D01*
X200213887Y-126762060D01*
X201117545Y-126762060D01*
X201200884Y-127015953D01*
X201765306Y-127221590D01*
X202365458Y-127195579D01*
X202799116Y-127015953D01*
X202882455Y-126762060D01*
X202000000Y-125879605D01*
X201117545Y-126762060D01*
X200213887Y-126762060D01*
X200564164Y-126412396D01*
X200606197Y-126311169D01*
X200684047Y-126499116D01*
X200937940Y-126582455D01*
X201820395Y-125700000D01*
X202179605Y-125700000D01*
X203062060Y-126582455D01*
X203315953Y-126499116D01*
X203521590Y-125934694D01*
X203495579Y-125334542D01*
X203315953Y-124900884D01*
X203062060Y-124817545D01*
X202179605Y-125700000D01*
X201820395Y-125700000D01*
X200937940Y-124817545D01*
X200684047Y-124900884D01*
X200611304Y-125100546D01*
X200565405Y-124989463D01*
X200214497Y-124637940D01*
X201117545Y-124637940D01*
X202000000Y-125520395D01*
X202882455Y-124637940D01*
X202799116Y-124384047D01*
X202234694Y-124178410D01*
X201634542Y-124204421D01*
X201200884Y-124384047D01*
X201117545Y-124637940D01*
X200214497Y-124637940D01*
X200212396Y-124635836D01*
X199750930Y-124444219D01*
X199251262Y-124443783D01*
X198789463Y-124634595D01*
X198435836Y-124987604D01*
X198249779Y-125435680D01*
X198065405Y-124989463D01*
X197712396Y-124635836D01*
X197250930Y-124444219D01*
X196751262Y-124443783D01*
X196289463Y-124634595D01*
X195935836Y-124987604D01*
X195763464Y-125402723D01*
X195763464Y-124825000D01*
X195736897Y-124683810D01*
X195653454Y-124554135D01*
X195526134Y-124467141D01*
X195375000Y-124436536D01*
X193625000Y-124436536D01*
X193483810Y-124463103D01*
X193354135Y-124546546D01*
X193267141Y-124673866D01*
X193236536Y-124825000D01*
X192705521Y-124825000D01*
X192723465Y-124813454D01*
X192810459Y-124686134D01*
X192841064Y-124535000D01*
X192841064Y-123265000D01*
X192814497Y-123123810D01*
X192731054Y-122994135D01*
X192603734Y-122907141D01*
X192551000Y-122896462D01*
X192551000Y-117325000D01*
X193236536Y-117325000D01*
X193236536Y-119075000D01*
X193263103Y-119216190D01*
X193346546Y-119345865D01*
X193473866Y-119432859D01*
X193625000Y-119463464D01*
X195375000Y-119463464D01*
X195516190Y-119436897D01*
X195645865Y-119353454D01*
X195732859Y-119226134D01*
X195763464Y-119075000D01*
X195763464Y-118496370D01*
X195934595Y-118910537D01*
X196287604Y-119264164D01*
X196749070Y-119455781D01*
X197248738Y-119456217D01*
X197710537Y-119265405D01*
X198064164Y-118912396D01*
X198250221Y-118464320D01*
X198434595Y-118910537D01*
X198787604Y-119264164D01*
X199249070Y-119455781D01*
X199748738Y-119456217D01*
X200210537Y-119265405D01*
X200213887Y-119262060D01*
X201117545Y-119262060D01*
X201200884Y-119515953D01*
X201765306Y-119721590D01*
X202365458Y-119695579D01*
X202799116Y-119515953D01*
X202882455Y-119262060D01*
X202000000Y-118379605D01*
X201117545Y-119262060D01*
X200213887Y-119262060D01*
X200564164Y-118912396D01*
X200606197Y-118811169D01*
X200684047Y-118999116D01*
X200937940Y-119082455D01*
X201820395Y-118200000D01*
X202179605Y-118200000D01*
X203062060Y-119082455D01*
X203315953Y-118999116D01*
X203521590Y-118434694D01*
X203495579Y-117834542D01*
X203315953Y-117400884D01*
X203062060Y-117317545D01*
X202179605Y-118200000D01*
X201820395Y-118200000D01*
X200937940Y-117317545D01*
X200684047Y-117400884D01*
X200611304Y-117600546D01*
X200565405Y-117489463D01*
X200214497Y-117137940D01*
X201117545Y-117137940D01*
X202000000Y-118020395D01*
X202882455Y-117137940D01*
X202799116Y-116884047D01*
X202234694Y-116678410D01*
X201634542Y-116704421D01*
X201200884Y-116884047D01*
X201117545Y-117137940D01*
X200214497Y-117137940D01*
X200212396Y-117135836D01*
X199750930Y-116944219D01*
X199251262Y-116943783D01*
X198789463Y-117134595D01*
X198435836Y-117487604D01*
X198249779Y-117935680D01*
X198065405Y-117489463D01*
X197712396Y-117135836D01*
X197250930Y-116944219D01*
X196751262Y-116943783D01*
X196289463Y-117134595D01*
X195935836Y-117487604D01*
X195763464Y-117902723D01*
X195763464Y-117325000D01*
X195736897Y-117183810D01*
X195653454Y-117054135D01*
X195526134Y-116967141D01*
X195375000Y-116936536D01*
X193625000Y-116936536D01*
X193483810Y-116963103D01*
X193354135Y-117046546D01*
X193267141Y-117173866D01*
X193236536Y-117325000D01*
X192551000Y-117325000D01*
X192551000Y-112195658D01*
X193236536Y-111510122D01*
X193236536Y-111575000D01*
X193263103Y-111716190D01*
X193346546Y-111845865D01*
X193473866Y-111932859D01*
X193625000Y-111963464D01*
X195375000Y-111963464D01*
X195516190Y-111936897D01*
X195645865Y-111853454D01*
X195732859Y-111726134D01*
X195763464Y-111575000D01*
X195763464Y-110996370D01*
X195934595Y-111410537D01*
X196287604Y-111764164D01*
X196749070Y-111955781D01*
X197248738Y-111956217D01*
X197710537Y-111765405D01*
X198064164Y-111412396D01*
X198250221Y-110964320D01*
X198434595Y-111410537D01*
X198787604Y-111764164D01*
X199249070Y-111955781D01*
X199748738Y-111956217D01*
X200210537Y-111765405D01*
X200213887Y-111762060D01*
X201117545Y-111762060D01*
X201200884Y-112015953D01*
X201765306Y-112221590D01*
X202365458Y-112195579D01*
X202799116Y-112015953D01*
X202882455Y-111762060D01*
X202000000Y-110879605D01*
X201117545Y-111762060D01*
X200213887Y-111762060D01*
X200564164Y-111412396D01*
X200606197Y-111311169D01*
X200684047Y-111499116D01*
X200937940Y-111582455D01*
X201820395Y-110700000D01*
X202179605Y-110700000D01*
X203062060Y-111582455D01*
X203315953Y-111499116D01*
X203521590Y-110934694D01*
X203495579Y-110334542D01*
X203315953Y-109900884D01*
X203062060Y-109817545D01*
X202179605Y-110700000D01*
X201820395Y-110700000D01*
X200937940Y-109817545D01*
X200684047Y-109900884D01*
X200611304Y-110100546D01*
X200565405Y-109989463D01*
X200214497Y-109637940D01*
X201117545Y-109637940D01*
X202000000Y-110520395D01*
X202882455Y-109637940D01*
X202799116Y-109384047D01*
X202234694Y-109178410D01*
X201634542Y-109204421D01*
X201200884Y-109384047D01*
X201117545Y-109637940D01*
X200214497Y-109637940D01*
X200212396Y-109635836D01*
X199750930Y-109444219D01*
X199251262Y-109443783D01*
X198789463Y-109634595D01*
X198435836Y-109987604D01*
X198249779Y-110435680D01*
X198065405Y-109989463D01*
X197712396Y-109635836D01*
X197250930Y-109444219D01*
X196751262Y-109443783D01*
X196289463Y-109634595D01*
X195935836Y-109987604D01*
X195763464Y-110402723D01*
X195763464Y-109825000D01*
X195736897Y-109683810D01*
X195653454Y-109554135D01*
X195526134Y-109467141D01*
X195375000Y-109436536D01*
X193625000Y-109436536D01*
X193483810Y-109463103D01*
X193354135Y-109546546D01*
X193267141Y-109673866D01*
X193236536Y-109825000D01*
X193236536Y-110119000D01*
X193225000Y-110119000D01*
X193002661Y-110163226D01*
X192814171Y-110289171D01*
X191559171Y-111544171D01*
X191433226Y-111732661D01*
X191389000Y-111955000D01*
X191389000Y-122895051D01*
X191346210Y-122903103D01*
X191336741Y-122909196D01*
X191333734Y-122907141D01*
X191182600Y-122876536D01*
X190217400Y-122876536D01*
X190076210Y-122903103D01*
X190066741Y-122909196D01*
X190063734Y-122907141D01*
X190011000Y-122896462D01*
X190011000Y-112130000D01*
X189966774Y-111907661D01*
X189840829Y-111719171D01*
X186981036Y-108859378D01*
X186981136Y-108745331D01*
X186862486Y-108458177D01*
X186642979Y-108238286D01*
X186356032Y-108119136D01*
X186045331Y-108118864D01*
X185758177Y-108237514D01*
X185546321Y-108449000D01*
X176904949Y-108449000D01*
X176896897Y-108406210D01*
X176813454Y-108276535D01*
X176686134Y-108189541D01*
X176535000Y-108158936D01*
X175265000Y-108158936D01*
X175123810Y-108185503D01*
X174994135Y-108268946D01*
X174907141Y-108396266D01*
X174896462Y-108449000D01*
X174870658Y-108449000D01*
X169581000Y-103159342D01*
X169581000Y-100134865D01*
X174480884Y-100134865D01*
X174584341Y-100385252D01*
X174775743Y-100576987D01*
X175025948Y-100680882D01*
X175091994Y-100680940D01*
X175540228Y-101129173D01*
X175314748Y-101222339D01*
X175123013Y-101413741D01*
X175019118Y-101663946D01*
X175018882Y-101934865D01*
X175122339Y-102185252D01*
X175169000Y-102231994D01*
X175169000Y-104200000D01*
X175209420Y-104403205D01*
X175324526Y-104575474D01*
X176118939Y-105369887D01*
X176118882Y-105434865D01*
X176222339Y-105685252D01*
X176413741Y-105876987D01*
X176663946Y-105980882D01*
X176934865Y-105981118D01*
X177185252Y-105877661D01*
X177376987Y-105686259D01*
X177480882Y-105436054D01*
X177480930Y-105380897D01*
X177718929Y-105381104D01*
X177718882Y-105434865D01*
X177822339Y-105685252D01*
X178013741Y-105876987D01*
X178263946Y-105980882D01*
X178534865Y-105981118D01*
X178785252Y-105877661D01*
X178976987Y-105686259D01*
X179080882Y-105436054D01*
X179081118Y-105165135D01*
X178977661Y-104914748D01*
X178931000Y-104868006D01*
X178931000Y-103238003D01*
X178931001Y-103237998D01*
X178890580Y-103034793D01*
X178775474Y-102862524D01*
X178775471Y-102862522D01*
X177311976Y-101399026D01*
X191292642Y-101399026D01*
X191295291Y-101414791D01*
X191549268Y-101942036D01*
X191985680Y-102331954D01*
X192538087Y-102525184D01*
X192773000Y-102380924D01*
X192773000Y-101167000D01*
X193027000Y-101167000D01*
X193027000Y-102380924D01*
X193261913Y-102525184D01*
X193814320Y-102331954D01*
X194250732Y-101942036D01*
X194504709Y-101414791D01*
X194507358Y-101399026D01*
X194386217Y-101167000D01*
X193027000Y-101167000D01*
X192773000Y-101167000D01*
X191413783Y-101167000D01*
X191292642Y-101399026D01*
X177311976Y-101399026D01*
X176593924Y-100680974D01*
X191292642Y-100680974D01*
X191413783Y-100913000D01*
X192773000Y-100913000D01*
X192773000Y-100893000D01*
X193027000Y-100893000D01*
X193027000Y-100913000D01*
X194386217Y-100913000D01*
X194507358Y-100680974D01*
X194504709Y-100665209D01*
X194250732Y-100137964D01*
X193814320Y-99748046D01*
X193541757Y-99652704D01*
X193556057Y-99649860D01*
X193959834Y-99380065D01*
X194229629Y-98976288D01*
X194324369Y-98500000D01*
X194229629Y-98023712D01*
X193959834Y-97619935D01*
X193556057Y-97350140D01*
X193079769Y-97255400D01*
X192720231Y-97255400D01*
X192243943Y-97350140D01*
X191840166Y-97619935D01*
X191570371Y-98023712D01*
X191475631Y-98500000D01*
X191570371Y-98976288D01*
X191840166Y-99380065D01*
X192243943Y-99649860D01*
X192258243Y-99652704D01*
X191985680Y-99748046D01*
X191549268Y-100137964D01*
X191295291Y-100665209D01*
X191292642Y-100680974D01*
X176593924Y-100680974D01*
X175843063Y-99930113D01*
X175843120Y-99865135D01*
X175739663Y-99614748D01*
X175548261Y-99423013D01*
X175298056Y-99319118D01*
X175027137Y-99318882D01*
X174776750Y-99422339D01*
X174585015Y-99613741D01*
X174481120Y-99863946D01*
X174480884Y-100134865D01*
X169581000Y-100134865D01*
X169581000Y-96023552D01*
X169661714Y-95942979D01*
X169690316Y-95874096D01*
X176927294Y-95874096D01*
X177099202Y-96290146D01*
X177417240Y-96608739D01*
X177832989Y-96781373D01*
X178283156Y-96781766D01*
X178699206Y-96609858D01*
X179017799Y-96291820D01*
X179190433Y-95876071D01*
X179190434Y-95874096D01*
X181809174Y-95874096D01*
X181981082Y-96290146D01*
X182299120Y-96608739D01*
X182714869Y-96781373D01*
X183165036Y-96781766D01*
X183581086Y-96609858D01*
X183899679Y-96291820D01*
X184072313Y-95876071D01*
X184072706Y-95425904D01*
X183936559Y-95096400D01*
X191495536Y-95096400D01*
X191495536Y-96823600D01*
X191522103Y-96964790D01*
X191605546Y-97094465D01*
X191732866Y-97181459D01*
X191884000Y-97212064D01*
X193916000Y-97212064D01*
X194057190Y-97185497D01*
X194186865Y-97102054D01*
X194273859Y-96974734D01*
X194304464Y-96823600D01*
X194304464Y-95096400D01*
X194277897Y-94955210D01*
X194194454Y-94825535D01*
X194067134Y-94738541D01*
X193916000Y-94707936D01*
X191884000Y-94707936D01*
X191742810Y-94734503D01*
X191613135Y-94817946D01*
X191526141Y-94945266D01*
X191495536Y-95096400D01*
X183936559Y-95096400D01*
X183900798Y-95009854D01*
X183582760Y-94691261D01*
X183167011Y-94518627D01*
X182716844Y-94518234D01*
X182300794Y-94690142D01*
X181982201Y-95008180D01*
X181809567Y-95423929D01*
X181809174Y-95874096D01*
X179190434Y-95874096D01*
X179190826Y-95425904D01*
X179018918Y-95009854D01*
X178700880Y-94691261D01*
X178285131Y-94518627D01*
X177834964Y-94518234D01*
X177418914Y-94690142D01*
X177100321Y-95008180D01*
X176927687Y-95423929D01*
X176927294Y-95874096D01*
X169690316Y-95874096D01*
X169780864Y-95656032D01*
X169781136Y-95345331D01*
X169662486Y-95058177D01*
X169442979Y-94838286D01*
X169156032Y-94719136D01*
X169102569Y-94719089D01*
X173849027Y-89972631D01*
X195063000Y-89972631D01*
X195063000Y-90027369D01*
X195169340Y-90561978D01*
X195472172Y-91015197D01*
X195925391Y-91318029D01*
X195929000Y-91318747D01*
X195929000Y-94460000D01*
X195969420Y-94663205D01*
X196084526Y-94835474D01*
X199360588Y-98111536D01*
X198950000Y-98111536D01*
X198808810Y-98138103D01*
X198679135Y-98221546D01*
X198592141Y-98348866D01*
X198561536Y-98500000D01*
X198561536Y-101000000D01*
X198588103Y-101141190D01*
X198671546Y-101270865D01*
X198798866Y-101357859D01*
X198950000Y-101388464D01*
X201450000Y-101388464D01*
X201591190Y-101361897D01*
X201720865Y-101278454D01*
X201807859Y-101151134D01*
X201838464Y-101000000D01*
X201838464Y-98500000D01*
X201811897Y-98358810D01*
X201728454Y-98229135D01*
X201601134Y-98142141D01*
X201450000Y-98111536D01*
X200713404Y-98111536D01*
X200690580Y-97996795D01*
X200575474Y-97824526D01*
X197823951Y-95073003D01*
X198568718Y-95073003D01*
X198816499Y-95672680D01*
X199274907Y-96131888D01*
X199874151Y-96380716D01*
X200523003Y-96381282D01*
X201122680Y-96133501D01*
X201581888Y-95675093D01*
X201830716Y-95075849D01*
X201831282Y-94426997D01*
X201583501Y-93827320D01*
X201125093Y-93368112D01*
X200525849Y-93119284D01*
X199876997Y-93118718D01*
X199277320Y-93366499D01*
X198818112Y-93824907D01*
X198569284Y-94424151D01*
X198568718Y-95073003D01*
X197823951Y-95073003D01*
X196991000Y-94240052D01*
X196991000Y-91318747D01*
X196994609Y-91318029D01*
X197447828Y-91015197D01*
X197595536Y-90794137D01*
X197595536Y-91016000D01*
X197622103Y-91157190D01*
X197705546Y-91286865D01*
X197832866Y-91373859D01*
X197984000Y-91404464D01*
X200016000Y-91404464D01*
X200157190Y-91377897D01*
X200286865Y-91294454D01*
X200373859Y-91167134D01*
X200404464Y-91016000D01*
X200404464Y-88984000D01*
X200377897Y-88842810D01*
X200294454Y-88713135D01*
X200167134Y-88626141D01*
X200016000Y-88595536D01*
X197984000Y-88595536D01*
X197842810Y-88622103D01*
X197713135Y-88705546D01*
X197626141Y-88832866D01*
X197595536Y-88984000D01*
X197595536Y-89205863D01*
X197447828Y-88984803D01*
X196994609Y-88681971D01*
X196460000Y-88575631D01*
X195925391Y-88681971D01*
X195472172Y-88984803D01*
X195169340Y-89438022D01*
X195063000Y-89972631D01*
X173849027Y-89972631D01*
X176680829Y-87140829D01*
X176806774Y-86952339D01*
X176851000Y-86730000D01*
X176851000Y-84334865D01*
X182918882Y-84334865D01*
X183019000Y-84577171D01*
X183019000Y-85923405D01*
X182919118Y-86163946D01*
X182918882Y-86434865D01*
X183022339Y-86685252D01*
X183213741Y-86876987D01*
X183463946Y-86980882D01*
X183734865Y-86981118D01*
X183985252Y-86877661D01*
X184176987Y-86686259D01*
X184280882Y-86436054D01*
X184281118Y-86165135D01*
X184181000Y-85922829D01*
X184181000Y-84576595D01*
X184280882Y-84336054D01*
X184281118Y-84065135D01*
X184177661Y-83814748D01*
X183986259Y-83623013D01*
X183736054Y-83519118D01*
X183465135Y-83518882D01*
X183214748Y-83622339D01*
X183023013Y-83813741D01*
X182919118Y-84063946D01*
X182918882Y-84334865D01*
X176851000Y-84334865D01*
X176851000Y-81904949D01*
X176893790Y-81896897D01*
X177023465Y-81813454D01*
X177110459Y-81686134D01*
X177141064Y-81535000D01*
X177141064Y-80265000D01*
X177114497Y-80123810D01*
X177031054Y-79994135D01*
X176903734Y-79907141D01*
X176774644Y-79881000D01*
X180459342Y-79881000D01*
X180781047Y-80202705D01*
X180829907Y-80275829D01*
X183464907Y-82910829D01*
X183653397Y-83036774D01*
X183875736Y-83081000D01*
X183923405Y-83081000D01*
X184155871Y-83177529D01*
X188489172Y-87510830D01*
X188677662Y-87636775D01*
X188900001Y-87681001D01*
X193499999Y-87681001D01*
X193722338Y-87636775D01*
X193910828Y-87510830D01*
X195244536Y-86177122D01*
X195485252Y-86077661D01*
X195676987Y-85886259D01*
X195780882Y-85636054D01*
X195781118Y-85365135D01*
X195722581Y-85223464D01*
X196077839Y-85223464D01*
X196227701Y-85373327D01*
X196461090Y-85470000D01*
X196784250Y-85470000D01*
X196943000Y-85311250D01*
X196943000Y-84327000D01*
X197197000Y-84327000D01*
X197197000Y-85311250D01*
X197355750Y-85470000D01*
X197678910Y-85470000D01*
X197912299Y-85373327D01*
X198090927Y-85194698D01*
X198187600Y-84961309D01*
X198187600Y-84485750D01*
X198028850Y-84327000D01*
X197197000Y-84327000D01*
X196943000Y-84327000D01*
X196923000Y-84327000D01*
X196923000Y-84073000D01*
X196943000Y-84073000D01*
X196943000Y-83088750D01*
X197197000Y-83088750D01*
X197197000Y-84073000D01*
X198028850Y-84073000D01*
X198187600Y-83914250D01*
X198187600Y-83438691D01*
X198090927Y-83205302D01*
X197912299Y-83026673D01*
X197678910Y-82930000D01*
X197355750Y-82930000D01*
X197197000Y-83088750D01*
X196943000Y-83088750D01*
X196784250Y-82930000D01*
X196461090Y-82930000D01*
X196268187Y-83009903D01*
X196267483Y-83006362D01*
X196157796Y-82842204D01*
X195981031Y-82665439D01*
X195981118Y-82565135D01*
X195922581Y-82423464D01*
X196077839Y-82423464D01*
X196227701Y-82573327D01*
X196461090Y-82670000D01*
X196784250Y-82670000D01*
X196943000Y-82511250D01*
X196943000Y-81527000D01*
X197197000Y-81527000D01*
X197197000Y-82511250D01*
X197355750Y-82670000D01*
X197678910Y-82670000D01*
X197912299Y-82573327D01*
X198090927Y-82394698D01*
X198187600Y-82161309D01*
X198187600Y-81685750D01*
X198028850Y-81527000D01*
X197197000Y-81527000D01*
X196943000Y-81527000D01*
X196923000Y-81527000D01*
X196923000Y-81273000D01*
X196943000Y-81273000D01*
X196943000Y-80288750D01*
X197197000Y-80288750D01*
X197197000Y-81273000D01*
X198028850Y-81273000D01*
X198187600Y-81114250D01*
X198187600Y-80638691D01*
X198090927Y-80405302D01*
X197912299Y-80226673D01*
X197678910Y-80130000D01*
X197355750Y-80130000D01*
X197197000Y-80288750D01*
X196943000Y-80288750D01*
X196880890Y-80226640D01*
X196881118Y-79965135D01*
X196824980Y-79829270D01*
X196943000Y-79711250D01*
X196943000Y-78727000D01*
X197197000Y-78727000D01*
X197197000Y-79711250D01*
X197355750Y-79870000D01*
X197678910Y-79870000D01*
X197912299Y-79773327D01*
X198090927Y-79594698D01*
X198187600Y-79361309D01*
X198187600Y-78885750D01*
X198028850Y-78727000D01*
X197197000Y-78727000D01*
X196943000Y-78727000D01*
X196923000Y-78727000D01*
X196923000Y-78473000D01*
X196943000Y-78473000D01*
X196943000Y-77488750D01*
X197197000Y-77488750D01*
X197197000Y-78473000D01*
X198028850Y-78473000D01*
X198187600Y-78314250D01*
X198187600Y-77838691D01*
X198090927Y-77605302D01*
X197912299Y-77426673D01*
X197678910Y-77330000D01*
X197355750Y-77330000D01*
X197197000Y-77488750D01*
X196943000Y-77488750D01*
X196784250Y-77330000D01*
X196461090Y-77330000D01*
X196227701Y-77426673D01*
X196077839Y-77576536D01*
X195317400Y-77576536D01*
X195176210Y-77603103D01*
X195166741Y-77609196D01*
X195163734Y-77607141D01*
X195012600Y-77576536D01*
X194047400Y-77576536D01*
X193906210Y-77603103D01*
X193776535Y-77686546D01*
X193689541Y-77813866D01*
X193658936Y-77965000D01*
X193658936Y-79235000D01*
X193685503Y-79376190D01*
X193768946Y-79505865D01*
X193896266Y-79592859D01*
X193949000Y-79603538D01*
X193949000Y-80395051D01*
X193906210Y-80403103D01*
X193776535Y-80486546D01*
X193689541Y-80613866D01*
X193658936Y-80765000D01*
X193658936Y-82035000D01*
X193685503Y-82176190D01*
X193768946Y-82305865D01*
X193896266Y-82392859D01*
X193949000Y-82403538D01*
X193949000Y-83195051D01*
X193906210Y-83203103D01*
X193776535Y-83286546D01*
X193689541Y-83413866D01*
X193658936Y-83565000D01*
X193658936Y-84835000D01*
X193685503Y-84976190D01*
X193768946Y-85105865D01*
X193896266Y-85192859D01*
X194047400Y-85223464D01*
X194129219Y-85223464D01*
X194172204Y-85287796D01*
X194331375Y-85446967D01*
X193259341Y-86519001D01*
X192280897Y-86519001D01*
X192281118Y-86265135D01*
X192177661Y-86014748D01*
X191986259Y-85823013D01*
X191736054Y-85719118D01*
X191580984Y-85718983D01*
X191581118Y-85565135D01*
X191477661Y-85314748D01*
X191286259Y-85123013D01*
X191036054Y-85019118D01*
X190980984Y-85019070D01*
X190981118Y-84865135D01*
X190877661Y-84614748D01*
X190686259Y-84423013D01*
X190436054Y-84319118D01*
X190334622Y-84319030D01*
X183126000Y-77110408D01*
X183126000Y-73122869D01*
X183316395Y-73044200D01*
X183662983Y-72698216D01*
X183850786Y-72245935D01*
X183850787Y-72243787D01*
X183928787Y-72243787D01*
X184115800Y-72696395D01*
X184461784Y-73042983D01*
X184654000Y-73122798D01*
X184654000Y-76685002D01*
X184692517Y-76878640D01*
X184802204Y-77042798D01*
X190119035Y-82359629D01*
X190118882Y-82534865D01*
X190222339Y-82785252D01*
X190413741Y-82976987D01*
X190663946Y-83080882D01*
X190934865Y-83081118D01*
X191185252Y-82977661D01*
X191376987Y-82786259D01*
X191480882Y-82536054D01*
X191481118Y-82265135D01*
X191377661Y-82014748D01*
X191263080Y-81899968D01*
X191376987Y-81786259D01*
X191480882Y-81536054D01*
X191481017Y-81380984D01*
X191634865Y-81381118D01*
X191885252Y-81277661D01*
X192076987Y-81086259D01*
X192180882Y-80836054D01*
X192181017Y-80680984D01*
X192334865Y-80681118D01*
X192585252Y-80577661D01*
X192776987Y-80386259D01*
X192880882Y-80136054D01*
X192881017Y-79980984D01*
X193034865Y-79981118D01*
X193285252Y-79877661D01*
X193476987Y-79686259D01*
X193580882Y-79436054D01*
X193581118Y-79165135D01*
X193477661Y-78914748D01*
X193406000Y-78842962D01*
X193406000Y-76382400D01*
X200193936Y-76382400D01*
X200193936Y-78617600D01*
X200220503Y-78758790D01*
X200303946Y-78888465D01*
X200431266Y-78975459D01*
X200582400Y-79006064D01*
X202817600Y-79006064D01*
X202958790Y-78979497D01*
X203088465Y-78896054D01*
X203175459Y-78768734D01*
X203206064Y-78617600D01*
X203206064Y-76382400D01*
X203179497Y-76241210D01*
X203096054Y-76111535D01*
X202968734Y-76024541D01*
X202817600Y-75993936D01*
X200582400Y-75993936D01*
X200441210Y-76020503D01*
X200311535Y-76103946D01*
X200224541Y-76231266D01*
X200193936Y-76382400D01*
X193406000Y-76382400D01*
X193406000Y-75850906D01*
X195677796Y-73579110D01*
X195787483Y-73414952D01*
X195826000Y-73221314D01*
X195826000Y-73122869D01*
X196016395Y-73044200D01*
X196016637Y-73043958D01*
X196995647Y-73043958D01*
X197075920Y-73295259D01*
X197631279Y-73496718D01*
X198221458Y-73470315D01*
X198644080Y-73295259D01*
X198724353Y-73043958D01*
X197860000Y-72179605D01*
X196995647Y-73043958D01*
X196016637Y-73043958D01*
X196362983Y-72698216D01*
X196446181Y-72497852D01*
X196564741Y-72784080D01*
X196816042Y-72864353D01*
X197680395Y-72000000D01*
X198039605Y-72000000D01*
X198903958Y-72864353D01*
X199155259Y-72784080D01*
X199356718Y-72228721D01*
X199330315Y-71638542D01*
X199155259Y-71215920D01*
X198903958Y-71135647D01*
X198039605Y-72000000D01*
X197680395Y-72000000D01*
X196816042Y-71135647D01*
X196564741Y-71215920D01*
X196454050Y-71521060D01*
X196364200Y-71303605D01*
X196018216Y-70957017D01*
X195565935Y-70769214D01*
X195076213Y-70768787D01*
X194623605Y-70955800D01*
X194277017Y-71301784D01*
X194089214Y-71754065D01*
X194088787Y-72243787D01*
X194275800Y-72696395D01*
X194621784Y-73042983D01*
X194735514Y-73090208D01*
X192706000Y-75119722D01*
X192706000Y-73991673D01*
X193137796Y-73559877D01*
X193247483Y-73395719D01*
X193286000Y-73202081D01*
X193286000Y-73122869D01*
X193476395Y-73044200D01*
X193822983Y-72698216D01*
X194010786Y-72245935D01*
X194011213Y-71756213D01*
X193824200Y-71303605D01*
X193478216Y-70957017D01*
X193025935Y-70769214D01*
X192536213Y-70768787D01*
X192083605Y-70955800D01*
X191737017Y-71301784D01*
X191549214Y-71754065D01*
X191548787Y-72243787D01*
X191735800Y-72696395D01*
X192081784Y-73042983D01*
X192181924Y-73084565D01*
X192006000Y-73260489D01*
X192006000Y-73260000D01*
X191967483Y-73066362D01*
X191857796Y-72902204D01*
X191391784Y-72436192D01*
X191470786Y-72245935D01*
X191471213Y-71756213D01*
X191284200Y-71303605D01*
X190938216Y-70957017D01*
X190485935Y-70769214D01*
X189996213Y-70768787D01*
X189543605Y-70955800D01*
X189197017Y-71301784D01*
X189009214Y-71754065D01*
X189008787Y-72243787D01*
X189195800Y-72696395D01*
X189541784Y-73042983D01*
X189994065Y-73230786D01*
X190483787Y-73231213D01*
X190676142Y-73151734D01*
X190994000Y-73469592D01*
X190994000Y-74578408D01*
X188851784Y-72436192D01*
X188930786Y-72245935D01*
X188931213Y-71756213D01*
X188744200Y-71303605D01*
X188398216Y-70957017D01*
X187945935Y-70769214D01*
X187456213Y-70768787D01*
X187003605Y-70955800D01*
X186657017Y-71301784D01*
X186469214Y-71754065D01*
X186468787Y-72243787D01*
X186655800Y-72696395D01*
X187001784Y-73042983D01*
X187454065Y-73230786D01*
X187943787Y-73231213D01*
X188136142Y-73151734D01*
X190294000Y-75309592D01*
X190294000Y-80942877D01*
X190223013Y-81013741D01*
X190217532Y-81026942D01*
X185666000Y-76475410D01*
X185666000Y-73122869D01*
X185856395Y-73044200D01*
X186202983Y-72698216D01*
X186390786Y-72245935D01*
X186391213Y-71756213D01*
X186204200Y-71303605D01*
X185858216Y-70957017D01*
X185405935Y-70769214D01*
X184916213Y-70768787D01*
X184463605Y-70955800D01*
X184117017Y-71301784D01*
X183929214Y-71754065D01*
X183928787Y-72243787D01*
X183850787Y-72243787D01*
X183851213Y-71756213D01*
X183664200Y-71303605D01*
X183318216Y-70957017D01*
X182865935Y-70769214D01*
X182376213Y-70768787D01*
X181923605Y-70955800D01*
X181577017Y-71301784D01*
X181389214Y-71754065D01*
X181388787Y-72243787D01*
X181575800Y-72696395D01*
X181921784Y-73042983D01*
X182114000Y-73122798D01*
X182114000Y-77023410D01*
X180586000Y-75495410D01*
X180586000Y-73122869D01*
X180776395Y-73044200D01*
X181122983Y-72698216D01*
X181310786Y-72245935D01*
X181311213Y-71756213D01*
X181124200Y-71303605D01*
X180778216Y-70957017D01*
X180325935Y-70769214D01*
X179836213Y-70768787D01*
X179383605Y-70955800D01*
X179037017Y-71301784D01*
X178849214Y-71754065D01*
X178848787Y-72243787D01*
X179035800Y-72696395D01*
X179381784Y-73042983D01*
X179574000Y-73122798D01*
X179574000Y-75119820D01*
X178046000Y-73591820D01*
X178046000Y-73122869D01*
X178236395Y-73044200D01*
X178582983Y-72698216D01*
X178770786Y-72245935D01*
X178771213Y-71756213D01*
X178584200Y-71303605D01*
X178238216Y-70957017D01*
X177785935Y-70769214D01*
X177296213Y-70768787D01*
X176843605Y-70955800D01*
X176497017Y-71301784D01*
X176309214Y-71754065D01*
X176308787Y-72243787D01*
X176495800Y-72696395D01*
X176841784Y-73042983D01*
X177034000Y-73122798D01*
X177034000Y-73801412D01*
X177072517Y-73995050D01*
X177182204Y-74159208D01*
X189541997Y-86519001D01*
X189140659Y-86519001D01*
X184977122Y-82355464D01*
X184877661Y-82114748D01*
X184686259Y-81923013D01*
X184436054Y-81819118D01*
X184165135Y-81818882D01*
X184059799Y-81862405D01*
X181700425Y-79503031D01*
X181651565Y-79429907D01*
X181110829Y-78889171D01*
X180922339Y-78763226D01*
X180700000Y-78719000D01*
X175581000Y-78719000D01*
X175581000Y-73238464D01*
X175850000Y-73238464D01*
X175991190Y-73211897D01*
X176120865Y-73128454D01*
X176207859Y-73001134D01*
X176238464Y-72850000D01*
X176238464Y-71150000D01*
X176211897Y-71008810D01*
X176128454Y-70879135D01*
X176001134Y-70792141D01*
X175850000Y-70761536D01*
X174150000Y-70761536D01*
X174008810Y-70788103D01*
X173879135Y-70871546D01*
X173792141Y-70998866D01*
X173761536Y-71150000D01*
X173761536Y-72850000D01*
X173788103Y-72991190D01*
X173871546Y-73120865D01*
X173998866Y-73207859D01*
X174150000Y-73238464D01*
X174419000Y-73238464D01*
X174419000Y-79895051D01*
X174376210Y-79903103D01*
X174366741Y-79909196D01*
X174363734Y-79907141D01*
X174212600Y-79876536D01*
X173247400Y-79876536D01*
X173106210Y-79903103D01*
X172976535Y-79986546D01*
X172889541Y-80113866D01*
X172858936Y-80265000D01*
X172858936Y-81535000D01*
X172885503Y-81676190D01*
X172968946Y-81805865D01*
X173096266Y-81892859D01*
X173149000Y-81903538D01*
X173149000Y-87736462D01*
X165966462Y-94919000D01*
X165402529Y-94919000D01*
X165395755Y-94902606D01*
X165098957Y-94605289D01*
X164710973Y-94444184D01*
X164290870Y-94443817D01*
X164272900Y-94451242D01*
X163835828Y-94014170D01*
X163647338Y-93888225D01*
X163424999Y-93843999D01*
X161575001Y-93843999D01*
X161352662Y-93888225D01*
X161164172Y-94014170D01*
X160727355Y-94450987D01*
X160710973Y-94444184D01*
X160290870Y-94443817D01*
X159902606Y-94604245D01*
X159605289Y-94901043D01*
X159563464Y-95001769D01*
X159563464Y-94825000D01*
X159536897Y-94683810D01*
X159453454Y-94554135D01*
X159326134Y-94467141D01*
X159175000Y-94436536D01*
X157825000Y-94436536D01*
X157683810Y-94463103D01*
X157554135Y-94546546D01*
X157499770Y-94626112D01*
X157453454Y-94554135D01*
X157326134Y-94467141D01*
X157175000Y-94436536D01*
X155825000Y-94436536D01*
X155683810Y-94463103D01*
X155554135Y-94546546D01*
X155467141Y-94673866D01*
X155436536Y-94825000D01*
X155436536Y-96175000D01*
X155463103Y-96316190D01*
X155546546Y-96445865D01*
X155673866Y-96532859D01*
X155825000Y-96563464D01*
X156001303Y-96563464D01*
X155902606Y-96604245D01*
X155605289Y-96901043D01*
X155444184Y-97289027D01*
X155443817Y-97709130D01*
X155604245Y-98097394D01*
X155845884Y-98339455D01*
X155821219Y-98349672D01*
X155762458Y-98582853D01*
X156500000Y-99320395D01*
X157237542Y-98582853D01*
X157178781Y-98349672D01*
X157152703Y-98340543D01*
X157394711Y-98098957D01*
X157500060Y-97845248D01*
X157604245Y-98097394D01*
X157901043Y-98394711D01*
X158154752Y-98500060D01*
X157902606Y-98604245D01*
X157660545Y-98845884D01*
X157650328Y-98821219D01*
X157417147Y-98762458D01*
X156679605Y-99500000D01*
X157417147Y-100237542D01*
X157650328Y-100178781D01*
X157659457Y-100152703D01*
X157901043Y-100394711D01*
X158154752Y-100500060D01*
X157902606Y-100604245D01*
X157605289Y-100901043D01*
X157499940Y-101154752D01*
X157395755Y-100902606D01*
X157154116Y-100660545D01*
X157178781Y-100650328D01*
X157237542Y-100417147D01*
X156500000Y-99679605D01*
X155762458Y-100417147D01*
X155821219Y-100650328D01*
X155847297Y-100659457D01*
X155605289Y-100901043D01*
X155444184Y-101289027D01*
X155443817Y-101709130D01*
X155604245Y-102097394D01*
X155901043Y-102394711D01*
X156154752Y-102500060D01*
X155902606Y-102604245D01*
X155605289Y-102901043D01*
X155444184Y-103289027D01*
X155443817Y-103709130D01*
X155604245Y-104097394D01*
X155845884Y-104339455D01*
X155821219Y-104349672D01*
X155762458Y-104582853D01*
X156500000Y-105320395D01*
X157237542Y-104582853D01*
X157178781Y-104349672D01*
X157152703Y-104340543D01*
X157339455Y-104154116D01*
X157349672Y-104178781D01*
X157582853Y-104237542D01*
X158320395Y-103500000D01*
X157582853Y-102762458D01*
X157349672Y-102821219D01*
X157340543Y-102847297D01*
X157098957Y-102605289D01*
X156845248Y-102499940D01*
X157097394Y-102395755D01*
X157394711Y-102098957D01*
X157500060Y-101845248D01*
X157604245Y-102097394D01*
X157845884Y-102339455D01*
X157821219Y-102349672D01*
X157762458Y-102582853D01*
X158500000Y-103320395D01*
X159237542Y-102582853D01*
X159178781Y-102349672D01*
X159152703Y-102340543D01*
X159339455Y-102154116D01*
X159349672Y-102178781D01*
X159582853Y-102237542D01*
X160320395Y-101500000D01*
X160679605Y-101500000D01*
X161343510Y-102163905D01*
X161349672Y-102178781D01*
X161361322Y-102181717D01*
X161417147Y-102237542D01*
X161500000Y-102216663D01*
X161582853Y-102237542D01*
X161638678Y-102181717D01*
X161650328Y-102178781D01*
X161655022Y-102165373D01*
X162320395Y-101500000D01*
X161656490Y-100836095D01*
X161650328Y-100821219D01*
X161638678Y-100818283D01*
X161582853Y-100762458D01*
X161500000Y-100783337D01*
X161417147Y-100762458D01*
X161361322Y-100818283D01*
X161349672Y-100821219D01*
X161344978Y-100834627D01*
X160679605Y-101500000D01*
X160320395Y-101500000D01*
X159582853Y-100762458D01*
X159349672Y-100821219D01*
X159340543Y-100847297D01*
X159098957Y-100605289D01*
X158845248Y-100499940D01*
X159097394Y-100395755D01*
X159394711Y-100098957D01*
X159500060Y-99845248D01*
X159604245Y-100097394D01*
X159845884Y-100339455D01*
X159821219Y-100349672D01*
X159762458Y-100582853D01*
X160500000Y-101320395D01*
X161237542Y-100582853D01*
X161178781Y-100349672D01*
X161152703Y-100340543D01*
X161394711Y-100098957D01*
X161500060Y-99845248D01*
X161604245Y-100097394D01*
X161845884Y-100339455D01*
X161821219Y-100349672D01*
X161762458Y-100582853D01*
X162500000Y-101320395D01*
X163237542Y-100582853D01*
X163178781Y-100349672D01*
X163152703Y-100340543D01*
X163394711Y-100098957D01*
X163500060Y-99845248D01*
X163604245Y-100097394D01*
X163901043Y-100394711D01*
X164154752Y-100500060D01*
X163902606Y-100604245D01*
X163660545Y-100845884D01*
X163650328Y-100821219D01*
X163417147Y-100762458D01*
X162679605Y-101500000D01*
X163417147Y-102237542D01*
X163650328Y-102178781D01*
X163659457Y-102152703D01*
X163845884Y-102339455D01*
X163821219Y-102349672D01*
X163762458Y-102582853D01*
X164500000Y-103320395D01*
X165237542Y-102582853D01*
X165178781Y-102349672D01*
X165152703Y-102340543D01*
X165394711Y-102098957D01*
X165555816Y-101710973D01*
X165556183Y-101290870D01*
X165395755Y-100902606D01*
X165098957Y-100605289D01*
X164845248Y-100499940D01*
X165097394Y-100395755D01*
X165394711Y-100098957D01*
X165555816Y-99710973D01*
X165556183Y-99290870D01*
X165395755Y-98902606D01*
X165380828Y-98887653D01*
X165489381Y-98815119D01*
X166419000Y-97885500D01*
X166419000Y-108238764D01*
X166315119Y-108134883D01*
X166159072Y-108030615D01*
X165975001Y-107994001D01*
X165438293Y-107994001D01*
X165555816Y-107710973D01*
X165556183Y-107290870D01*
X165395755Y-106902606D01*
X165098957Y-106605289D01*
X164845248Y-106499940D01*
X165097394Y-106395755D01*
X165394711Y-106098957D01*
X165555816Y-105710973D01*
X165556183Y-105290870D01*
X165395755Y-104902606D01*
X165154116Y-104660545D01*
X165178781Y-104650328D01*
X165237542Y-104417147D01*
X164500000Y-103679605D01*
X163762458Y-104417147D01*
X163821219Y-104650328D01*
X163847297Y-104659457D01*
X163605289Y-104901043D01*
X163499940Y-105154752D01*
X163395755Y-104902606D01*
X163098957Y-104605289D01*
X162845248Y-104499940D01*
X163097394Y-104395755D01*
X163339455Y-104154116D01*
X163349672Y-104178781D01*
X163582853Y-104237542D01*
X164320395Y-103500000D01*
X164679605Y-103500000D01*
X165417147Y-104237542D01*
X165650328Y-104178781D01*
X165822522Y-103686900D01*
X165793375Y-103166566D01*
X165650328Y-102821219D01*
X165417147Y-102762458D01*
X164679605Y-103500000D01*
X164320395Y-103500000D01*
X163582853Y-102762458D01*
X163349672Y-102821219D01*
X163340543Y-102847297D01*
X163154116Y-102660545D01*
X163178781Y-102650328D01*
X163237542Y-102417147D01*
X162500000Y-101679605D01*
X161762458Y-102417147D01*
X161821219Y-102650328D01*
X161847297Y-102659457D01*
X161605289Y-102901043D01*
X161499940Y-103154752D01*
X161395755Y-102902606D01*
X161154116Y-102660545D01*
X161178781Y-102650328D01*
X161237542Y-102417147D01*
X160500000Y-101679605D01*
X159762458Y-102417147D01*
X159821219Y-102650328D01*
X159847297Y-102659457D01*
X159660545Y-102845884D01*
X159650328Y-102821219D01*
X159417147Y-102762458D01*
X158679605Y-103500000D01*
X159417147Y-104237542D01*
X159650328Y-104178781D01*
X159659457Y-104152703D01*
X159901043Y-104394711D01*
X160154752Y-104500060D01*
X159902606Y-104604245D01*
X159605289Y-104901043D01*
X159499940Y-105154752D01*
X159395755Y-104902606D01*
X159154116Y-104660545D01*
X159178781Y-104650328D01*
X159237542Y-104417147D01*
X158500000Y-103679605D01*
X157762458Y-104417147D01*
X157821219Y-104650328D01*
X157847297Y-104659457D01*
X157660545Y-104845884D01*
X157650328Y-104821219D01*
X157417147Y-104762458D01*
X156679605Y-105500000D01*
X157417147Y-106237542D01*
X157650328Y-106178781D01*
X157659457Y-106152703D01*
X157901043Y-106394711D01*
X158154752Y-106500060D01*
X157902606Y-106604245D01*
X157605289Y-106901043D01*
X157499940Y-107154752D01*
X157395755Y-106902606D01*
X157154116Y-106660545D01*
X157178781Y-106650328D01*
X157237542Y-106417147D01*
X156500000Y-105679605D01*
X155762458Y-106417147D01*
X155821219Y-106650328D01*
X155847297Y-106659457D01*
X155605289Y-106901043D01*
X155444184Y-107289027D01*
X155443817Y-107709130D01*
X155604245Y-108097394D01*
X155901043Y-108394711D01*
X156154752Y-108500060D01*
X155902606Y-108604245D01*
X155605289Y-108901043D01*
X155444184Y-109289027D01*
X155443817Y-109709130D01*
X155604245Y-110097394D01*
X155845884Y-110339455D01*
X155821219Y-110349672D01*
X155762458Y-110582853D01*
X156500000Y-111320395D01*
X157237542Y-110582853D01*
X157178781Y-110349672D01*
X157152703Y-110340543D01*
X157339455Y-110154116D01*
X157349672Y-110178781D01*
X157582853Y-110237542D01*
X158320395Y-109500000D01*
X157582853Y-108762458D01*
X157349672Y-108821219D01*
X157340543Y-108847297D01*
X157098957Y-108605289D01*
X156845248Y-108499940D01*
X157097394Y-108395755D01*
X157394711Y-108098957D01*
X157500060Y-107845248D01*
X157604245Y-108097394D01*
X157845884Y-108339455D01*
X157821219Y-108349672D01*
X157762458Y-108582853D01*
X158500000Y-109320395D01*
X159237542Y-108582853D01*
X159178781Y-108349672D01*
X159152703Y-108340543D01*
X159339455Y-108154116D01*
X159349672Y-108178781D01*
X159582853Y-108237542D01*
X160320395Y-107500000D01*
X160679605Y-107500000D01*
X161343510Y-108163905D01*
X161349672Y-108178781D01*
X161361322Y-108181717D01*
X161417147Y-108237542D01*
X161500000Y-108216663D01*
X161582853Y-108237542D01*
X161638678Y-108181717D01*
X161650328Y-108178781D01*
X161655022Y-108165373D01*
X162320395Y-107500000D01*
X161656490Y-106836095D01*
X161650328Y-106821219D01*
X161638678Y-106818283D01*
X161582853Y-106762458D01*
X161500000Y-106783337D01*
X161417147Y-106762458D01*
X161361322Y-106818283D01*
X161349672Y-106821219D01*
X161344978Y-106834627D01*
X160679605Y-107500000D01*
X160320395Y-107500000D01*
X159582853Y-106762458D01*
X159349672Y-106821219D01*
X159340543Y-106847297D01*
X159098957Y-106605289D01*
X158845248Y-106499940D01*
X159097394Y-106395755D01*
X159394711Y-106098957D01*
X159500060Y-105845248D01*
X159604245Y-106097394D01*
X159845884Y-106339455D01*
X159821219Y-106349672D01*
X159762458Y-106582853D01*
X160500000Y-107320395D01*
X161237542Y-106582853D01*
X161178781Y-106349672D01*
X161152703Y-106340543D01*
X161394711Y-106098957D01*
X161500060Y-105845248D01*
X161604245Y-106097394D01*
X161845884Y-106339455D01*
X161821219Y-106349672D01*
X161762458Y-106582853D01*
X162500000Y-107320395D01*
X163237542Y-106582853D01*
X163178781Y-106349672D01*
X163152703Y-106340543D01*
X163394711Y-106098957D01*
X163500060Y-105845248D01*
X163604245Y-106097394D01*
X163901043Y-106394711D01*
X164154752Y-106500060D01*
X163902606Y-106604245D01*
X163660545Y-106845884D01*
X163650328Y-106821219D01*
X163417147Y-106762458D01*
X162679605Y-107500000D01*
X162693748Y-107514143D01*
X162514143Y-107693748D01*
X162500000Y-107679605D01*
X161762458Y-108417147D01*
X161821219Y-108650328D01*
X161847297Y-108659457D01*
X161605289Y-108901043D01*
X161499940Y-109154752D01*
X161395755Y-108902606D01*
X161154116Y-108660545D01*
X161178781Y-108650328D01*
X161237542Y-108417147D01*
X160500000Y-107679605D01*
X159762458Y-108417147D01*
X159821219Y-108650328D01*
X159847297Y-108659457D01*
X159660545Y-108845884D01*
X159650328Y-108821219D01*
X159417147Y-108762458D01*
X158679605Y-109500000D01*
X159417147Y-110237542D01*
X159650328Y-110178781D01*
X159659457Y-110152703D01*
X159901043Y-110394711D01*
X160154752Y-110500060D01*
X159902606Y-110604245D01*
X159605289Y-110901043D01*
X159499940Y-111154752D01*
X159395755Y-110902606D01*
X159154116Y-110660545D01*
X159178781Y-110650328D01*
X159237542Y-110417147D01*
X158500000Y-109679605D01*
X157762458Y-110417147D01*
X157821219Y-110650328D01*
X157847297Y-110659457D01*
X157660545Y-110845884D01*
X157650328Y-110821219D01*
X157417147Y-110762458D01*
X156679605Y-111500000D01*
X157417147Y-112237542D01*
X157650328Y-112178781D01*
X157659457Y-112152703D01*
X157901043Y-112394711D01*
X158154752Y-112500060D01*
X157902606Y-112604245D01*
X157605289Y-112901043D01*
X157499940Y-113154752D01*
X157395755Y-112902606D01*
X157154116Y-112660545D01*
X157178781Y-112650328D01*
X157237542Y-112417147D01*
X156500000Y-111679605D01*
X155762458Y-112417147D01*
X155821219Y-112650328D01*
X155847297Y-112659457D01*
X155605289Y-112901043D01*
X155444184Y-113289027D01*
X155443817Y-113709130D01*
X155604245Y-114097394D01*
X155901043Y-114394711D01*
X156154752Y-114500060D01*
X155902606Y-114604245D01*
X155605289Y-114901043D01*
X155444184Y-115289027D01*
X155443817Y-115709130D01*
X155604245Y-116097394D01*
X155845884Y-116339455D01*
X155821219Y-116349672D01*
X155762458Y-116582853D01*
X156500000Y-117320395D01*
X157237542Y-116582853D01*
X157178781Y-116349672D01*
X157152703Y-116340543D01*
X157339455Y-116154116D01*
X157349672Y-116178781D01*
X157582853Y-116237542D01*
X158320395Y-115500000D01*
X157582853Y-114762458D01*
X157349672Y-114821219D01*
X157340543Y-114847297D01*
X157098957Y-114605289D01*
X156845248Y-114499940D01*
X157097394Y-114395755D01*
X157394711Y-114098957D01*
X157500060Y-113845248D01*
X157604245Y-114097394D01*
X157845884Y-114339455D01*
X157821219Y-114349672D01*
X157762458Y-114582853D01*
X158500000Y-115320395D01*
X159237542Y-114582853D01*
X159178781Y-114349672D01*
X159152703Y-114340543D01*
X159394711Y-114098957D01*
X159500060Y-113845248D01*
X159604245Y-114097394D01*
X159901043Y-114394711D01*
X160154752Y-114500060D01*
X159902606Y-114604245D01*
X159660545Y-114845884D01*
X159650328Y-114821219D01*
X159417147Y-114762458D01*
X158679605Y-115500000D01*
X159417147Y-116237542D01*
X159650328Y-116178781D01*
X159659457Y-116152703D01*
X159901043Y-116394711D01*
X160154752Y-116500060D01*
X159902606Y-116604245D01*
X159605289Y-116901043D01*
X159499940Y-117154752D01*
X159395755Y-116902606D01*
X159154116Y-116660545D01*
X159178781Y-116650328D01*
X159237542Y-116417147D01*
X158500000Y-115679605D01*
X157762458Y-116417147D01*
X157821219Y-116650328D01*
X157847297Y-116659457D01*
X157660545Y-116845884D01*
X157650328Y-116821219D01*
X157417147Y-116762458D01*
X156679605Y-117500000D01*
X157417147Y-118237542D01*
X157650328Y-118178781D01*
X157659457Y-118152703D01*
X157845884Y-118339455D01*
X157821219Y-118349672D01*
X157762458Y-118582853D01*
X158500000Y-119320395D01*
X159237542Y-118582853D01*
X159178781Y-118349672D01*
X159152703Y-118340543D01*
X159394711Y-118098957D01*
X159500060Y-117845248D01*
X159604245Y-118097394D01*
X159901043Y-118394711D01*
X160154752Y-118500060D01*
X159902606Y-118604245D01*
X159660545Y-118845884D01*
X159650328Y-118821219D01*
X159417147Y-118762458D01*
X158679605Y-119500000D01*
X159417147Y-120237542D01*
X159650328Y-120178781D01*
X159659457Y-120152703D01*
X159901043Y-120394711D01*
X160154752Y-120500060D01*
X159902606Y-120604245D01*
X159605289Y-120901043D01*
X159499940Y-121154752D01*
X159395755Y-120902606D01*
X159154116Y-120660545D01*
X159178781Y-120650328D01*
X159237542Y-120417147D01*
X158500000Y-119679605D01*
X157762458Y-120417147D01*
X157821219Y-120650328D01*
X157847297Y-120659457D01*
X157605289Y-120901043D01*
X157499940Y-121154752D01*
X157395755Y-120902606D01*
X157098957Y-120605289D01*
X156845248Y-120499940D01*
X157097394Y-120395755D01*
X157339455Y-120154116D01*
X157349672Y-120178781D01*
X157582853Y-120237542D01*
X158320395Y-119500000D01*
X157582853Y-118762458D01*
X157349672Y-118821219D01*
X157340543Y-118847297D01*
X157154116Y-118660545D01*
X157178781Y-118650328D01*
X157237542Y-118417147D01*
X156500000Y-117679605D01*
X155762458Y-118417147D01*
X155821219Y-118650328D01*
X155847297Y-118659457D01*
X155605289Y-118901043D01*
X155444184Y-119289027D01*
X155443817Y-119709130D01*
X155604245Y-120097394D01*
X155901043Y-120394711D01*
X156154752Y-120500060D01*
X155902606Y-120604245D01*
X155605289Y-120901043D01*
X155444184Y-121289027D01*
X155443817Y-121709130D01*
X155604245Y-122097394D01*
X155845884Y-122339455D01*
X155821219Y-122349672D01*
X155762458Y-122582853D01*
X156500000Y-123320395D01*
X157237542Y-122582853D01*
X157178781Y-122349672D01*
X157152703Y-122340543D01*
X157394711Y-122098957D01*
X157500060Y-121845248D01*
X157604245Y-122097394D01*
X157901043Y-122394711D01*
X158154752Y-122500060D01*
X157902606Y-122604245D01*
X157660545Y-122845884D01*
X157650328Y-122821219D01*
X157417147Y-122762458D01*
X156679605Y-123500000D01*
X157417147Y-124237542D01*
X157650328Y-124178781D01*
X157659457Y-124152703D01*
X157845884Y-124339455D01*
X157821219Y-124349672D01*
X157762458Y-124582853D01*
X158500000Y-125320395D01*
X159237542Y-124582853D01*
X159178781Y-124349672D01*
X159152703Y-124340543D01*
X159394711Y-124098957D01*
X159500060Y-123845248D01*
X159604245Y-124097394D01*
X159901043Y-124394711D01*
X160154752Y-124500060D01*
X159902606Y-124604245D01*
X159660545Y-124845884D01*
X159650328Y-124821219D01*
X159417147Y-124762458D01*
X158679605Y-125500000D01*
X158693748Y-125514143D01*
X158514143Y-125693748D01*
X158500000Y-125679605D01*
X157762458Y-126417147D01*
X157821219Y-126650328D01*
X157847297Y-126659457D01*
X157605289Y-126901043D01*
X157499940Y-127154752D01*
X157395755Y-126902606D01*
X157098957Y-126605289D01*
X156845248Y-126499940D01*
X157097394Y-126395755D01*
X157339455Y-126154116D01*
X157349672Y-126178781D01*
X157582853Y-126237542D01*
X158320395Y-125500000D01*
X157582853Y-124762458D01*
X157349672Y-124821219D01*
X157340543Y-124847297D01*
X157154116Y-124660545D01*
X157178781Y-124650328D01*
X157237542Y-124417147D01*
X156500000Y-123679605D01*
X155762458Y-124417147D01*
X155821219Y-124650328D01*
X155847297Y-124659457D01*
X155605289Y-124901043D01*
X155444184Y-125289027D01*
X155443817Y-125709130D01*
X155604245Y-126097394D01*
X155901043Y-126394711D01*
X156154752Y-126500060D01*
X155902606Y-126604245D01*
X155605289Y-126901043D01*
X155444184Y-127289027D01*
X155443817Y-127709130D01*
X155604245Y-128097394D01*
X155845884Y-128339455D01*
X155821219Y-128349672D01*
X155762458Y-128582853D01*
X156500000Y-129320395D01*
X157237542Y-128582853D01*
X157178781Y-128349672D01*
X157152703Y-128340543D01*
X157394711Y-128098957D01*
X157500060Y-127845248D01*
X157604245Y-128097394D01*
X157901043Y-128394711D01*
X158154752Y-128500060D01*
X157902606Y-128604245D01*
X157660545Y-128845884D01*
X157650328Y-128821219D01*
X157417147Y-128762458D01*
X156679605Y-129500000D01*
X157417147Y-130237542D01*
X157650328Y-130178781D01*
X157659457Y-130152703D01*
X157901043Y-130394711D01*
X158154752Y-130500060D01*
X157902606Y-130604245D01*
X157605289Y-130901043D01*
X157499940Y-131154752D01*
X157395755Y-130902606D01*
X157154116Y-130660545D01*
X157178781Y-130650328D01*
X157237542Y-130417147D01*
X156500000Y-129679605D01*
X155762458Y-130417147D01*
X155821219Y-130650328D01*
X155847297Y-130659457D01*
X155605289Y-130901043D01*
X155444184Y-131289027D01*
X155443817Y-131709130D01*
X155604245Y-132097394D01*
X155901043Y-132394711D01*
X156154752Y-132500060D01*
X155902606Y-132604245D01*
X155605289Y-132901043D01*
X155444184Y-133289027D01*
X155443817Y-133709130D01*
X155604245Y-134097394D01*
X155901043Y-134394711D01*
X156154752Y-134500060D01*
X155902606Y-134604245D01*
X155605289Y-134901043D01*
X155444184Y-135289027D01*
X155443817Y-135709130D01*
X155604245Y-136097394D01*
X155901043Y-136394711D01*
X156154752Y-136500060D01*
X155902606Y-136604245D01*
X155605289Y-136901043D01*
X155444184Y-137289027D01*
X155443817Y-137709130D01*
X155604245Y-138097394D01*
X155901043Y-138394711D01*
X156154752Y-138500060D01*
X155902606Y-138604245D01*
X155605289Y-138901043D01*
X155444184Y-139289027D01*
X155443817Y-139709130D01*
X155604245Y-140097394D01*
X155901043Y-140394711D01*
X156154752Y-140500060D01*
X155902606Y-140604245D01*
X155605289Y-140901043D01*
X155444184Y-141289027D01*
X155443817Y-141709130D01*
X155604245Y-142097394D01*
X155901043Y-142394711D01*
X156154752Y-142500060D01*
X155902606Y-142604245D01*
X155605289Y-142901043D01*
X155444184Y-143289027D01*
X155443980Y-143522806D01*
X155431000Y-143457552D01*
X155431000Y-130199275D01*
X155582853Y-130237542D01*
X156320395Y-129500000D01*
X155582853Y-128762458D01*
X155431000Y-128800725D01*
X155431000Y-124199275D01*
X155582853Y-124237542D01*
X156320395Y-123500000D01*
X155582853Y-122762458D01*
X155431000Y-122800725D01*
X155431000Y-118199275D01*
X155582853Y-118237542D01*
X156320395Y-117500000D01*
X155582853Y-116762458D01*
X155431000Y-116800725D01*
X155431000Y-112199275D01*
X155582853Y-112237542D01*
X156320395Y-111500000D01*
X155582853Y-110762458D01*
X155431000Y-110800725D01*
X155431000Y-106199275D01*
X155582853Y-106237542D01*
X156320395Y-105500000D01*
X155582853Y-104762458D01*
X155431000Y-104800725D01*
X155431000Y-100199275D01*
X155582853Y-100237542D01*
X156320395Y-99500000D01*
X155582853Y-98762458D01*
X155431000Y-98800725D01*
X155431000Y-93542448D01*
X155520173Y-93094144D01*
X155750075Y-92750073D01*
X156094143Y-92520174D01*
X156542448Y-92431000D01*
X164415846Y-92431000D01*
X164319118Y-92663946D01*
X164318882Y-92934865D01*
X164422339Y-93185252D01*
X164613741Y-93376987D01*
X164863946Y-93480882D01*
X165134865Y-93481118D01*
X165377171Y-93381000D01*
X166900000Y-93381000D01*
X167122339Y-93336774D01*
X167310829Y-93210829D01*
X172110829Y-88410829D01*
X172236774Y-88222339D01*
X172281000Y-88000000D01*
X172281000Y-86676595D01*
X172380882Y-86436054D01*
X172381118Y-86165135D01*
X172281000Y-85922829D01*
X172281000Y-84076595D01*
X172380882Y-83836054D01*
X172381118Y-83565135D01*
X172277661Y-83314748D01*
X172086259Y-83123013D01*
X171836054Y-83019118D01*
X171565135Y-83018882D01*
X171314748Y-83122339D01*
X171123013Y-83313741D01*
X171019118Y-83563946D01*
X171018882Y-83834865D01*
X171119000Y-84077171D01*
X171119000Y-85923405D01*
X171019118Y-86163946D01*
X171018882Y-86434865D01*
X171119000Y-86677171D01*
X171119000Y-87759342D01*
X168139629Y-90738713D01*
X168168062Y-90696160D01*
X168232417Y-90540793D01*
X168422718Y-89584084D01*
X168422718Y-89541636D01*
X168431000Y-89500000D01*
X168431000Y-69703787D01*
X173768787Y-69703787D01*
X173955800Y-70156395D01*
X174301784Y-70502983D01*
X174754065Y-70690786D01*
X175243787Y-70691213D01*
X175696395Y-70504200D01*
X176042983Y-70158216D01*
X176230786Y-69705935D01*
X176230787Y-69703787D01*
X176308787Y-69703787D01*
X176495800Y-70156395D01*
X176841784Y-70502983D01*
X177294065Y-70690786D01*
X177783787Y-70691213D01*
X178236395Y-70504200D01*
X178582983Y-70158216D01*
X178770786Y-69705935D01*
X178770787Y-69703787D01*
X178848787Y-69703787D01*
X179035800Y-70156395D01*
X179381784Y-70502983D01*
X179834065Y-70690786D01*
X180323787Y-70691213D01*
X180776395Y-70504200D01*
X181122983Y-70158216D01*
X181310786Y-69705935D01*
X181310787Y-69703787D01*
X181388787Y-69703787D01*
X181575800Y-70156395D01*
X181921784Y-70502983D01*
X182374065Y-70690786D01*
X182863787Y-70691213D01*
X183316395Y-70504200D01*
X183662983Y-70158216D01*
X183850786Y-69705935D01*
X183850787Y-69703787D01*
X183928787Y-69703787D01*
X184115800Y-70156395D01*
X184461784Y-70502983D01*
X184914065Y-70690786D01*
X185403787Y-70691213D01*
X185856395Y-70504200D01*
X186202983Y-70158216D01*
X186390786Y-69705935D01*
X186390787Y-69703787D01*
X186468787Y-69703787D01*
X186655800Y-70156395D01*
X187001784Y-70502983D01*
X187454065Y-70690786D01*
X187943787Y-70691213D01*
X188396395Y-70504200D01*
X188742983Y-70158216D01*
X188930786Y-69705935D01*
X188930787Y-69703787D01*
X189008787Y-69703787D01*
X189195800Y-70156395D01*
X189541784Y-70502983D01*
X189994065Y-70690786D01*
X190483787Y-70691213D01*
X190936395Y-70504200D01*
X191282983Y-70158216D01*
X191470786Y-69705935D01*
X191470787Y-69703787D01*
X191548787Y-69703787D01*
X191735800Y-70156395D01*
X192081784Y-70502983D01*
X192534065Y-70690786D01*
X193023787Y-70691213D01*
X193476395Y-70504200D01*
X193822983Y-70158216D01*
X194010786Y-69705935D01*
X194010787Y-69703787D01*
X194088787Y-69703787D01*
X194275800Y-70156395D01*
X194621784Y-70502983D01*
X195074065Y-70690786D01*
X195563787Y-70691213D01*
X196016395Y-70504200D01*
X196016637Y-70503958D01*
X196995647Y-70503958D01*
X197067852Y-70730000D01*
X196995647Y-70956042D01*
X197860000Y-71820395D01*
X198724353Y-70956042D01*
X198652148Y-70730000D01*
X198724353Y-70503958D01*
X197860000Y-69639605D01*
X196995647Y-70503958D01*
X196016637Y-70503958D01*
X196362983Y-70158216D01*
X196446181Y-69957852D01*
X196564741Y-70244080D01*
X196816042Y-70324353D01*
X197680395Y-69460000D01*
X198039605Y-69460000D01*
X198903958Y-70324353D01*
X199155259Y-70244080D01*
X199356718Y-69688721D01*
X199330315Y-69098542D01*
X199155259Y-68675920D01*
X198903958Y-68595647D01*
X198039605Y-69460000D01*
X197680395Y-69460000D01*
X196816042Y-68595647D01*
X196564741Y-68675920D01*
X196454050Y-68981060D01*
X196364200Y-68763605D01*
X196018216Y-68417017D01*
X196015868Y-68416042D01*
X196995647Y-68416042D01*
X197860000Y-69280395D01*
X198724353Y-68416042D01*
X198644080Y-68164741D01*
X198088721Y-67963282D01*
X197498542Y-67989685D01*
X197075920Y-68164741D01*
X196995647Y-68416042D01*
X196015868Y-68416042D01*
X195565935Y-68229214D01*
X195076213Y-68228787D01*
X194623605Y-68415800D01*
X194277017Y-68761784D01*
X194089214Y-69214065D01*
X194088787Y-69703787D01*
X194010787Y-69703787D01*
X194011213Y-69216213D01*
X193824200Y-68763605D01*
X193478216Y-68417017D01*
X193025935Y-68229214D01*
X192536213Y-68228787D01*
X192083605Y-68415800D01*
X191737017Y-68761784D01*
X191549214Y-69214065D01*
X191548787Y-69703787D01*
X191470787Y-69703787D01*
X191471213Y-69216213D01*
X191284200Y-68763605D01*
X190938216Y-68417017D01*
X190485935Y-68229214D01*
X189996213Y-68228787D01*
X189543605Y-68415800D01*
X189197017Y-68761784D01*
X189009214Y-69214065D01*
X189008787Y-69703787D01*
X188930787Y-69703787D01*
X188931213Y-69216213D01*
X188744200Y-68763605D01*
X188398216Y-68417017D01*
X187945935Y-68229214D01*
X187456213Y-68228787D01*
X187003605Y-68415800D01*
X186657017Y-68761784D01*
X186469214Y-69214065D01*
X186468787Y-69703787D01*
X186390787Y-69703787D01*
X186391213Y-69216213D01*
X186204200Y-68763605D01*
X185858216Y-68417017D01*
X185405935Y-68229214D01*
X184916213Y-68228787D01*
X184463605Y-68415800D01*
X184117017Y-68761784D01*
X183929214Y-69214065D01*
X183928787Y-69703787D01*
X183850787Y-69703787D01*
X183851213Y-69216213D01*
X183664200Y-68763605D01*
X183318216Y-68417017D01*
X182865935Y-68229214D01*
X182376213Y-68228787D01*
X181923605Y-68415800D01*
X181577017Y-68761784D01*
X181389214Y-69214065D01*
X181388787Y-69703787D01*
X181310787Y-69703787D01*
X181311213Y-69216213D01*
X181124200Y-68763605D01*
X180778216Y-68417017D01*
X180325935Y-68229214D01*
X179836213Y-68228787D01*
X179383605Y-68415800D01*
X179037017Y-68761784D01*
X178849214Y-69214065D01*
X178848787Y-69703787D01*
X178770787Y-69703787D01*
X178771213Y-69216213D01*
X178584200Y-68763605D01*
X178238216Y-68417017D01*
X177785935Y-68229214D01*
X177296213Y-68228787D01*
X176843605Y-68415800D01*
X176497017Y-68761784D01*
X176309214Y-69214065D01*
X176308787Y-69703787D01*
X176230787Y-69703787D01*
X176231213Y-69216213D01*
X176044200Y-68763605D01*
X175698216Y-68417017D01*
X175245935Y-68229214D01*
X174756213Y-68228787D01*
X174303605Y-68415800D01*
X173957017Y-68761784D01*
X173769214Y-69214065D01*
X173768787Y-69703787D01*
X168431000Y-69703787D01*
X168431000Y-67042448D01*
X168558233Y-66402803D01*
X168896519Y-65896521D01*
X169402802Y-65558234D01*
X170042452Y-65431000D01*
X202957552Y-65431000D01*
X203597197Y-65558233D01*
X203597197Y-65558233D01*
G37*
X203597197Y-65558233D02*
X204103479Y-65896519D01*
X204441766Y-66402802D01*
X204569000Y-67042452D01*
X204569000Y-147957548D01*
X204441766Y-148597198D01*
X204103479Y-149103481D01*
X203597197Y-149441767D01*
X202957552Y-149569000D01*
X170542448Y-149569000D01*
X169711461Y-149403707D01*
X169042966Y-148957033D01*
X168596294Y-148288541D01*
X168422718Y-147415916D01*
X168352332Y-147062060D01*
X178617545Y-147062060D01*
X178700884Y-147315953D01*
X179265306Y-147521590D01*
X179865458Y-147495579D01*
X180299116Y-147315953D01*
X180382455Y-147062060D01*
X179500000Y-146179605D01*
X178617545Y-147062060D01*
X168352332Y-147062060D01*
X168232417Y-146459207D01*
X168168062Y-146303840D01*
X167808225Y-145765306D01*
X177978410Y-145765306D01*
X178004421Y-146365458D01*
X178184047Y-146799116D01*
X178437940Y-146882455D01*
X179320395Y-146000000D01*
X178437940Y-145117545D01*
X178184047Y-145200884D01*
X177978410Y-145765306D01*
X167808225Y-145765306D01*
X167626130Y-145492782D01*
X167507218Y-145373869D01*
X166854804Y-144937940D01*
X178617545Y-144937940D01*
X179500000Y-145820395D01*
X180382455Y-144937940D01*
X180299116Y-144684047D01*
X179734694Y-144478410D01*
X179134542Y-144504421D01*
X178700884Y-144684047D01*
X178617545Y-144937940D01*
X166854804Y-144937940D01*
X166696160Y-144831938D01*
X166540793Y-144767582D01*
X166540788Y-144767582D01*
X165584084Y-144577282D01*
X165541636Y-144577282D01*
X165500000Y-144569000D01*
X161199275Y-144569000D01*
X161237542Y-144417147D01*
X160500000Y-143679605D01*
X159762458Y-144417147D01*
X159800725Y-144569000D01*
X156542448Y-144569000D01*
X156476993Y-144555980D01*
X156709130Y-144556183D01*
X157097394Y-144395755D01*
X157394711Y-144098957D01*
X157500060Y-143845248D01*
X157604245Y-144097394D01*
X157901043Y-144394711D01*
X158289027Y-144555816D01*
X158709130Y-144556183D01*
X159097394Y-144395755D01*
X159339455Y-144154116D01*
X159349672Y-144178781D01*
X159582853Y-144237542D01*
X160320395Y-143500000D01*
X159582853Y-142762458D01*
X159349672Y-142821219D01*
X159340543Y-142847297D01*
X159098957Y-142605289D01*
X158845248Y-142499940D01*
X159097394Y-142395755D01*
X159394711Y-142098957D01*
X159500060Y-141845248D01*
X159604245Y-142097394D01*
X159845884Y-142339455D01*
X159821219Y-142349672D01*
X159762458Y-142582853D01*
X160500000Y-143320395D01*
X161237542Y-142582853D01*
X161178781Y-142349672D01*
X161152703Y-142340543D01*
X161394711Y-142098957D01*
X161500060Y-141845248D01*
X161604245Y-142097394D01*
X161901043Y-142394711D01*
X162154752Y-142500060D01*
X161902606Y-142604245D01*
X161660545Y-142845884D01*
X161650328Y-142821219D01*
X161417147Y-142762458D01*
X160679605Y-143500000D01*
X161417147Y-144237542D01*
X161650328Y-144178781D01*
X161659457Y-144152703D01*
X161901043Y-144394711D01*
X162289027Y-144555816D01*
X162709130Y-144556183D01*
X163097394Y-144395755D01*
X163394711Y-144098957D01*
X163500060Y-143845248D01*
X163604245Y-144097394D01*
X163901043Y-144394711D01*
X164289027Y-144555816D01*
X164709130Y-144556183D01*
X165097394Y-144395755D01*
X165394711Y-144098957D01*
X165555816Y-143710973D01*
X165556183Y-143290870D01*
X165395755Y-142902606D01*
X165154116Y-142660545D01*
X165178781Y-142650328D01*
X165237542Y-142417147D01*
X164500000Y-141679605D01*
X163762458Y-142417147D01*
X163821219Y-142650328D01*
X163847297Y-142659457D01*
X163605289Y-142901043D01*
X163499940Y-143154752D01*
X163395755Y-142902606D01*
X163098957Y-142605289D01*
X162845248Y-142499940D01*
X163097394Y-142395755D01*
X163339455Y-142154116D01*
X163349672Y-142178781D01*
X163582853Y-142237542D01*
X164320395Y-141500000D01*
X164679605Y-141500000D01*
X165417147Y-142237542D01*
X165650328Y-142178781D01*
X165822522Y-141686900D01*
X165793375Y-141166566D01*
X165650328Y-140821219D01*
X165417147Y-140762458D01*
X164679605Y-141500000D01*
X164320395Y-141500000D01*
X163582853Y-140762458D01*
X163349672Y-140821219D01*
X163340543Y-140847297D01*
X163098957Y-140605289D01*
X162845248Y-140499940D01*
X163097394Y-140395755D01*
X163394711Y-140098957D01*
X163500060Y-139845248D01*
X163604245Y-140097394D01*
X163845884Y-140339455D01*
X163821219Y-140349672D01*
X163762458Y-140582853D01*
X164500000Y-141320395D01*
X165237542Y-140582853D01*
X165178781Y-140349672D01*
X165152703Y-140340543D01*
X165394711Y-140098957D01*
X165555816Y-139710973D01*
X165556183Y-139290870D01*
X165395755Y-138902606D01*
X165098957Y-138605289D01*
X164845248Y-138499940D01*
X165097394Y-138395755D01*
X165394711Y-138098957D01*
X165555816Y-137710973D01*
X165556183Y-137290870D01*
X165395755Y-136902606D01*
X165154116Y-136660545D01*
X165178781Y-136650328D01*
X165237542Y-136417147D01*
X164500000Y-135679605D01*
X163762458Y-136417147D01*
X163821219Y-136650328D01*
X163847297Y-136659457D01*
X163660545Y-136845884D01*
X163650328Y-136821219D01*
X163417147Y-136762458D01*
X162679605Y-137500000D01*
X163417147Y-138237542D01*
X163650328Y-138178781D01*
X163659457Y-138152703D01*
X163901043Y-138394711D01*
X164154752Y-138500060D01*
X163902606Y-138604245D01*
X163605289Y-138901043D01*
X163499940Y-139154752D01*
X163395755Y-138902606D01*
X163154116Y-138660545D01*
X163178781Y-138650328D01*
X163237542Y-138417147D01*
X162500000Y-137679605D01*
X161762458Y-138417147D01*
X161821219Y-138650328D01*
X161847297Y-138659457D01*
X161605289Y-138901043D01*
X161499940Y-139154752D01*
X161395755Y-138902606D01*
X161098957Y-138605289D01*
X160845248Y-138499940D01*
X161097394Y-138395755D01*
X161339455Y-138154116D01*
X161349672Y-138178781D01*
X161582853Y-138237542D01*
X162320395Y-137500000D01*
X161582853Y-136762458D01*
X161349672Y-136821219D01*
X161340543Y-136847297D01*
X161098957Y-136605289D01*
X160845248Y-136499940D01*
X161097394Y-136395755D01*
X161394711Y-136098957D01*
X161500060Y-135845248D01*
X161604245Y-136097394D01*
X161845884Y-136339455D01*
X161821219Y-136349672D01*
X161762458Y-136582853D01*
X162500000Y-137320395D01*
X163237542Y-136582853D01*
X163178781Y-136349672D01*
X163152703Y-136340543D01*
X163339455Y-136154116D01*
X163349672Y-136178781D01*
X163582853Y-136237542D01*
X164320395Y-135500000D01*
X164306253Y-135485858D01*
X164485858Y-135306253D01*
X164500000Y-135320395D01*
X164514143Y-135306253D01*
X164693748Y-135485858D01*
X164679605Y-135500000D01*
X165417147Y-136237542D01*
X165650328Y-136178781D01*
X165822522Y-135686900D01*
X165795891Y-135211483D01*
X166567205Y-135982797D01*
X166731363Y-136092484D01*
X166925001Y-136131001D01*
X175218054Y-136131001D01*
X175388742Y-136301986D01*
X175638947Y-136405881D01*
X175909866Y-136406117D01*
X176160253Y-136302660D01*
X176351988Y-136111258D01*
X176452530Y-135869128D01*
X178010829Y-134310829D01*
X178136774Y-134122339D01*
X178181000Y-133900000D01*
X178181000Y-133576595D01*
X178280882Y-133336054D01*
X178281118Y-133065135D01*
X178177661Y-132814748D01*
X177986259Y-132623013D01*
X177736054Y-132519118D01*
X177465135Y-132518882D01*
X177214748Y-132622339D01*
X177023013Y-132813741D01*
X176919118Y-133063946D01*
X176918882Y-133334865D01*
X177019000Y-133577171D01*
X177019000Y-133659342D01*
X175932024Y-134746318D01*
X175877661Y-134614748D01*
X175797859Y-134534807D01*
X175767483Y-134382098D01*
X175657796Y-134217940D01*
X175182049Y-133742193D01*
X175017891Y-133632506D01*
X174824253Y-133593989D01*
X166739615Y-133593989D01*
X165308391Y-132185127D01*
X165394711Y-132098957D01*
X165555816Y-131710973D01*
X165556183Y-131290870D01*
X165395755Y-130902606D01*
X165154116Y-130660545D01*
X165178781Y-130650328D01*
X165237542Y-130417147D01*
X164500000Y-129679605D01*
X163762458Y-130417147D01*
X163821219Y-130650328D01*
X163847297Y-130659457D01*
X163660545Y-130845884D01*
X163650328Y-130821219D01*
X163417147Y-130762458D01*
X162679605Y-131500000D01*
X162693748Y-131514143D01*
X162514143Y-131693748D01*
X162500000Y-131679605D01*
X162485858Y-131693748D01*
X162306253Y-131514143D01*
X162320395Y-131500000D01*
X161582853Y-130762458D01*
X161349672Y-130821219D01*
X161340543Y-130847297D01*
X161098957Y-130605289D01*
X160845248Y-130499940D01*
X161097394Y-130395755D01*
X161394711Y-130098957D01*
X161500060Y-129845248D01*
X161604245Y-130097394D01*
X161845884Y-130339455D01*
X161821219Y-130349672D01*
X161762458Y-130582853D01*
X162500000Y-131320395D01*
X163237542Y-130582853D01*
X163178781Y-130349672D01*
X163152703Y-130340543D01*
X163339455Y-130154116D01*
X163349672Y-130178781D01*
X163582853Y-130237542D01*
X164320395Y-129500000D01*
X164306253Y-129485858D01*
X164485858Y-129306253D01*
X164500000Y-129320395D01*
X164514143Y-129306253D01*
X164693748Y-129485858D01*
X164679605Y-129500000D01*
X165417147Y-130237542D01*
X165650328Y-130178781D01*
X165822522Y-129686900D01*
X165793375Y-129166566D01*
X165706156Y-128956001D01*
X165724999Y-128956001D01*
X165909070Y-128919387D01*
X166065117Y-128815119D01*
X166074236Y-128806000D01*
X175342877Y-128806000D01*
X175413741Y-128876987D01*
X175663946Y-128980882D01*
X175934865Y-128981118D01*
X176185252Y-128877661D01*
X176376987Y-128686259D01*
X176477529Y-128444129D01*
X178010829Y-126910829D01*
X178136774Y-126722339D01*
X178181000Y-126500000D01*
X178181000Y-126076595D01*
X178280882Y-125836054D01*
X178281118Y-125565135D01*
X178177661Y-125314748D01*
X177986259Y-125123013D01*
X177736054Y-125019118D01*
X177465135Y-125018882D01*
X177214748Y-125122339D01*
X177023013Y-125313741D01*
X176919118Y-125563946D01*
X176918882Y-125834865D01*
X177019000Y-126077171D01*
X177019000Y-126259342D01*
X175961262Y-127317080D01*
X175877661Y-127114748D01*
X175686259Y-126923013D01*
X175436054Y-126819118D01*
X175165135Y-126818882D01*
X174914748Y-126922339D01*
X174842962Y-126994000D01*
X166117239Y-126994000D01*
X165308378Y-126185140D01*
X165394711Y-126098957D01*
X165555816Y-125710973D01*
X165556183Y-125290870D01*
X165395755Y-124902606D01*
X165154116Y-124660545D01*
X165178781Y-124650328D01*
X165237542Y-124417147D01*
X164500000Y-123679605D01*
X163762458Y-124417147D01*
X163821219Y-124650328D01*
X163847297Y-124659457D01*
X163660545Y-124845884D01*
X163650328Y-124821219D01*
X163417147Y-124762458D01*
X162679605Y-125500000D01*
X162693748Y-125514143D01*
X162514143Y-125693748D01*
X162500000Y-125679605D01*
X162485858Y-125693748D01*
X162306253Y-125514143D01*
X162320395Y-125500000D01*
X161582853Y-124762458D01*
X161349672Y-124821219D01*
X161340543Y-124847297D01*
X161098957Y-124605289D01*
X160845248Y-124499940D01*
X161097394Y-124395755D01*
X161394711Y-124098957D01*
X161500060Y-123845248D01*
X161604245Y-124097394D01*
X161845884Y-124339455D01*
X161821219Y-124349672D01*
X161762458Y-124582853D01*
X162500000Y-125320395D01*
X163237542Y-124582853D01*
X163178781Y-124349672D01*
X163152703Y-124340543D01*
X163339455Y-124154116D01*
X163349672Y-124178781D01*
X163582853Y-124237542D01*
X164320395Y-123500000D01*
X164679605Y-123500000D01*
X165417147Y-124237542D01*
X165650328Y-124178781D01*
X165822522Y-123686900D01*
X165793375Y-123166566D01*
X165650328Y-122821219D01*
X165417147Y-122762458D01*
X164679605Y-123500000D01*
X164320395Y-123500000D01*
X163582853Y-122762458D01*
X163349672Y-122821219D01*
X163340543Y-122847297D01*
X163098957Y-122605289D01*
X162845248Y-122499940D01*
X163097394Y-122395755D01*
X163394711Y-122098957D01*
X163500060Y-121845248D01*
X163604245Y-122097394D01*
X163845884Y-122339455D01*
X163821219Y-122349672D01*
X163762458Y-122582853D01*
X164500000Y-123320395D01*
X165237542Y-122582853D01*
X165178781Y-122349672D01*
X165152703Y-122340543D01*
X165394711Y-122098957D01*
X165555816Y-121710973D01*
X165556183Y-121290870D01*
X165395755Y-120902606D01*
X165098957Y-120605289D01*
X164845248Y-120499940D01*
X165097394Y-120395755D01*
X165394711Y-120098957D01*
X165555816Y-119710973D01*
X165556183Y-119290870D01*
X165395755Y-118902606D01*
X165098957Y-118605289D01*
X164845248Y-118499940D01*
X165097394Y-118395755D01*
X165394711Y-118098957D01*
X165555816Y-117710973D01*
X165556183Y-117290870D01*
X165395755Y-116902606D01*
X165098957Y-116605289D01*
X164845248Y-116499940D01*
X165097394Y-116395755D01*
X165394711Y-116098957D01*
X165555816Y-115710973D01*
X165556107Y-115377765D01*
X167718964Y-117540622D01*
X167718864Y-117654669D01*
X167837514Y-117941823D01*
X168057021Y-118161714D01*
X168343968Y-118280864D01*
X168459307Y-118280965D01*
X174018964Y-123840622D01*
X174018864Y-123954669D01*
X174137514Y-124241823D01*
X174357021Y-124461714D01*
X174643968Y-124580864D01*
X174954669Y-124581136D01*
X175241823Y-124462486D01*
X175461714Y-124242979D01*
X175580864Y-123956032D01*
X175581136Y-123645331D01*
X175462486Y-123358177D01*
X175242979Y-123138286D01*
X174956032Y-123019136D01*
X174840693Y-123019035D01*
X169281036Y-117459378D01*
X169281136Y-117345331D01*
X169162486Y-117058177D01*
X168942979Y-116838286D01*
X168656032Y-116719136D01*
X168540693Y-116719035D01*
X165902658Y-114081000D01*
X167300000Y-114081000D01*
X167522339Y-114036774D01*
X167710829Y-113910829D01*
X169010829Y-112610829D01*
X169136774Y-112422339D01*
X169181000Y-112200000D01*
X169181000Y-109123552D01*
X169261714Y-109042979D01*
X169380864Y-108756032D01*
X169381136Y-108445331D01*
X169262486Y-108158177D01*
X169042979Y-107938286D01*
X168756032Y-107819136D01*
X168445331Y-107818864D01*
X168158177Y-107937514D01*
X167938286Y-108157021D01*
X167819136Y-108443968D01*
X167818864Y-108754669D01*
X167937514Y-109041823D01*
X168019000Y-109123452D01*
X168019000Y-111959342D01*
X167059342Y-112919000D01*
X165402529Y-112919000D01*
X165395755Y-112902606D01*
X165098957Y-112605289D01*
X164845248Y-112499940D01*
X165097394Y-112395755D01*
X165394711Y-112098957D01*
X165555816Y-111710973D01*
X165556183Y-111290870D01*
X165417817Y-110956001D01*
X166024999Y-110956001D01*
X166209070Y-110919387D01*
X166365117Y-110815119D01*
X166899324Y-110280912D01*
X167154669Y-110281136D01*
X167441823Y-110162486D01*
X167661714Y-109942979D01*
X167780864Y-109656032D01*
X167781136Y-109345331D01*
X167662486Y-109058177D01*
X167581000Y-108976548D01*
X167581000Y-96240658D01*
X168218909Y-95602749D01*
X168218864Y-95654669D01*
X168337514Y-95941823D01*
X168419000Y-96023452D01*
X168419000Y-103400000D01*
X168463226Y-103622339D01*
X168589171Y-103810829D01*
X174219171Y-109440829D01*
X174407661Y-109566774D01*
X174630000Y-109611000D01*
X174895051Y-109611000D01*
X174903103Y-109653790D01*
X174909196Y-109663259D01*
X174907141Y-109666266D01*
X174876536Y-109817400D01*
X174876536Y-110782600D01*
X174903103Y-110923790D01*
X174909196Y-110933259D01*
X174907141Y-110936266D01*
X174876536Y-111087400D01*
X174876536Y-111301806D01*
X174559378Y-111618964D01*
X174445331Y-111618864D01*
X174158177Y-111737514D01*
X173938286Y-111957021D01*
X173819136Y-112243968D01*
X173818864Y-112554669D01*
X173937514Y-112841823D01*
X174157021Y-113061714D01*
X174443968Y-113180864D01*
X174754669Y-113181136D01*
X175041823Y-113062486D01*
X175261714Y-112842979D01*
X175380864Y-112556032D01*
X175380965Y-112441064D01*
X176535000Y-112441064D01*
X176676190Y-112414497D01*
X176805865Y-112331054D01*
X176892859Y-112203734D01*
X176923464Y-112052600D01*
X176923464Y-111087400D01*
X176896897Y-110946210D01*
X176890804Y-110936741D01*
X176892859Y-110933734D01*
X176903538Y-110881000D01*
X180200000Y-110881000D01*
X180229949Y-110875043D01*
X180243968Y-110880864D01*
X180554669Y-110881136D01*
X180841823Y-110762486D01*
X181061714Y-110542979D01*
X181180864Y-110256032D01*
X181181136Y-109945331D01*
X181062486Y-109658177D01*
X181015391Y-109611000D01*
X185875716Y-109611000D01*
X186043968Y-109680864D01*
X186159307Y-109680965D01*
X188849000Y-112370658D01*
X188849000Y-122895051D01*
X188806210Y-122903103D01*
X188676535Y-122986546D01*
X188589541Y-123113866D01*
X188558936Y-123265000D01*
X188558936Y-124535000D01*
X188585503Y-124676190D01*
X188668946Y-124805865D01*
X188709659Y-124833683D01*
X188489170Y-125054172D01*
X188363225Y-125242662D01*
X188318999Y-125465001D01*
X188318999Y-129834999D01*
X188363225Y-130057338D01*
X188489170Y-130245828D01*
X188708998Y-130465656D01*
X188676535Y-130486546D01*
X188589541Y-130613866D01*
X188558936Y-130765000D01*
X188558936Y-132035000D01*
X188585503Y-132176190D01*
X188668946Y-132305865D01*
X188709659Y-132333683D01*
X188489170Y-132554172D01*
X188363225Y-132742662D01*
X188318999Y-132965001D01*
X188318999Y-137334999D01*
X188363225Y-137557338D01*
X188489170Y-137745828D01*
X188708998Y-137965656D01*
X188676535Y-137986546D01*
X188589541Y-138113866D01*
X188558936Y-138265000D01*
X188558936Y-139354001D01*
X181375659Y-139354001D01*
X180931079Y-138909421D01*
X180931126Y-138855233D01*
X180820073Y-138586463D01*
X180614619Y-138380650D01*
X180346043Y-138269127D01*
X180055233Y-138268874D01*
X179786463Y-138379927D01*
X179580650Y-138585381D01*
X179469127Y-138853957D01*
X179468874Y-139144767D01*
X179579927Y-139413537D01*
X179785381Y-139619350D01*
X180053957Y-139730873D01*
X180109263Y-139730921D01*
X180724172Y-140345830D01*
X180912662Y-140471775D01*
X181135001Y-140516001D01*
X190232601Y-140516001D01*
X190421724Y-140478382D01*
X192854171Y-142910829D01*
X193042661Y-143036774D01*
X193265000Y-143081000D01*
X199534342Y-143081000D01*
X201189878Y-144736536D01*
X201125000Y-144736536D01*
X200983810Y-144763103D01*
X200854135Y-144846546D01*
X200767141Y-144973866D01*
X200736536Y-145125000D01*
X200736536Y-145703630D01*
X200565405Y-145289463D01*
X200212396Y-144935836D01*
X199750930Y-144744219D01*
X199251262Y-144743783D01*
X198789463Y-144934595D01*
X198435836Y-145287604D01*
X198249779Y-145735680D01*
X198065405Y-145289463D01*
X197712396Y-144935836D01*
X197250930Y-144744219D01*
X196751262Y-144743783D01*
X196289463Y-144934595D01*
X195935836Y-145287604D01*
X195749779Y-145735680D01*
X195565405Y-145289463D01*
X195212396Y-144935836D01*
X194750930Y-144744219D01*
X194251262Y-144743783D01*
X193789463Y-144934595D01*
X193435836Y-145287604D01*
X193249779Y-145735680D01*
X193065405Y-145289463D01*
X192712396Y-144935836D01*
X192250930Y-144744219D01*
X191751262Y-144743783D01*
X191289463Y-144934595D01*
X190935836Y-145287604D01*
X190749779Y-145735680D01*
X190565405Y-145289463D01*
X190212396Y-144935836D01*
X189750930Y-144744219D01*
X189251262Y-144743783D01*
X188789463Y-144934595D01*
X188435836Y-145287604D01*
X188249779Y-145735680D01*
X188065405Y-145289463D01*
X187712396Y-144935836D01*
X187250930Y-144744219D01*
X186751262Y-144743783D01*
X186289463Y-144934595D01*
X185935836Y-145287604D01*
X185749779Y-145735680D01*
X185565405Y-145289463D01*
X185212396Y-144935836D01*
X184750930Y-144744219D01*
X184251262Y-144743783D01*
X183789463Y-144934595D01*
X183435836Y-145287604D01*
X183249779Y-145735680D01*
X183065405Y-145289463D01*
X182712396Y-144935836D01*
X182250930Y-144744219D01*
X181751262Y-144743783D01*
X181289463Y-144934595D01*
X180935836Y-145287604D01*
X180893803Y-145388831D01*
X180815953Y-145200884D01*
X180562060Y-145117545D01*
X179679605Y-146000000D01*
X180562060Y-146882455D01*
X180815953Y-146799116D01*
X180888696Y-146599454D01*
X180934595Y-146710537D01*
X181287604Y-147064164D01*
X181749070Y-147255781D01*
X182248738Y-147256217D01*
X182710537Y-147065405D01*
X183064164Y-146712396D01*
X183250221Y-146264320D01*
X183434595Y-146710537D01*
X183787604Y-147064164D01*
X184249070Y-147255781D01*
X184748738Y-147256217D01*
X185210537Y-147065405D01*
X185564164Y-146712396D01*
X185750221Y-146264320D01*
X185934595Y-146710537D01*
X186287604Y-147064164D01*
X186749070Y-147255781D01*
X187248738Y-147256217D01*
X187710537Y-147065405D01*
X188064164Y-146712396D01*
X188250221Y-146264320D01*
X188434595Y-146710537D01*
X188787604Y-147064164D01*
X189249070Y-147255781D01*
X189748738Y-147256217D01*
X190210537Y-147065405D01*
X190564164Y-146712396D01*
X190750221Y-146264320D01*
X190934595Y-146710537D01*
X191287604Y-147064164D01*
X191749070Y-147255781D01*
X192248738Y-147256217D01*
X192710537Y-147065405D01*
X193064164Y-146712396D01*
X193250221Y-146264320D01*
X193434595Y-146710537D01*
X193787604Y-147064164D01*
X194249070Y-147255781D01*
X194748738Y-147256217D01*
X195210537Y-147065405D01*
X195564164Y-146712396D01*
X195750221Y-146264320D01*
X195934595Y-146710537D01*
X196287604Y-147064164D01*
X196749070Y-147255781D01*
X197248738Y-147256217D01*
X197710537Y-147065405D01*
X198064164Y-146712396D01*
X198250221Y-146264320D01*
X198434595Y-146710537D01*
X198787604Y-147064164D01*
X199249070Y-147255781D01*
X199748738Y-147256217D01*
X200210537Y-147065405D01*
X200564164Y-146712396D01*
X200736536Y-146297277D01*
X200736536Y-146875000D01*
X200763103Y-147016190D01*
X200846546Y-147145865D01*
X200973866Y-147232859D01*
X201125000Y-147263464D01*
X202875000Y-147263464D01*
X203016190Y-147236897D01*
X203145865Y-147153454D01*
X203232859Y-147026134D01*
X203263464Y-146875000D01*
X203263464Y-145125000D01*
X203236897Y-144983810D01*
X203153454Y-144854135D01*
X203026134Y-144767141D01*
X202875000Y-144736536D01*
X202581000Y-144736536D01*
X202581000Y-144725000D01*
X202536774Y-144502661D01*
X202410829Y-144314171D01*
X200185829Y-142089171D01*
X199997339Y-141963226D01*
X199775000Y-141919000D01*
X193505658Y-141919000D01*
X191510122Y-139923464D01*
X192452600Y-139923464D01*
X192593790Y-139896897D01*
X192723465Y-139813454D01*
X192810459Y-139686134D01*
X192841064Y-139535000D01*
X192841064Y-138265000D01*
X192814497Y-138123810D01*
X192731054Y-137994135D01*
X192603734Y-137907141D01*
X192551000Y-137896462D01*
X192551000Y-132404949D01*
X192593790Y-132396897D01*
X192705521Y-132325000D01*
X193236536Y-132325000D01*
X193236536Y-134075000D01*
X193263103Y-134216190D01*
X193346546Y-134345865D01*
X193473866Y-134432859D01*
X193625000Y-134463464D01*
X195375000Y-134463464D01*
X195516190Y-134436897D01*
X195645865Y-134353454D01*
X195732859Y-134226134D01*
X195763464Y-134075000D01*
X195763464Y-133496370D01*
X195934595Y-133910537D01*
X196287604Y-134264164D01*
X196749070Y-134455781D01*
X197248738Y-134456217D01*
X197710537Y-134265405D01*
X198064164Y-133912396D01*
X198250221Y-133464320D01*
X198434595Y-133910537D01*
X198787604Y-134264164D01*
X199249070Y-134455781D01*
X199748738Y-134456217D01*
X200210537Y-134265405D01*
X200213887Y-134262060D01*
X201117545Y-134262060D01*
X201200884Y-134515953D01*
X201765306Y-134721590D01*
X202365458Y-134695579D01*
X202799116Y-134515953D01*
X202882455Y-134262060D01*
X202000000Y-133379605D01*
X201117545Y-134262060D01*
X200213887Y-134262060D01*
X200564164Y-133912396D01*
X200606197Y-133811169D01*
X200684047Y-133999116D01*
X200937940Y-134082455D01*
X201820395Y-133200000D01*
X202179605Y-133200000D01*
X203062060Y-134082455D01*
X203315953Y-133999116D01*
X203521590Y-133434694D01*
X203495579Y-132834542D01*
X203315953Y-132400884D01*
X203062060Y-132317545D01*
X202179605Y-133200000D01*
X201820395Y-133200000D01*
X200937940Y-132317545D01*
X200684047Y-132400884D01*
X200611304Y-132600546D01*
X200565405Y-132489463D01*
X200214497Y-132137940D01*
X201117545Y-132137940D01*
X202000000Y-133020395D01*
X202882455Y-132137940D01*
X202799116Y-131884047D01*
X202234694Y-131678410D01*
X201634542Y-131704421D01*
X201200884Y-131884047D01*
X201117545Y-132137940D01*
X200214497Y-132137940D01*
X200212396Y-132135836D01*
X199750930Y-131944219D01*
X199251262Y-131943783D01*
X198789463Y-132134595D01*
X198435836Y-132487604D01*
X198249779Y-132935680D01*
X198065405Y-132489463D01*
X197712396Y-132135836D01*
X197250930Y-131944219D01*
X196751262Y-131943783D01*
X196289463Y-132134595D01*
X195935836Y-132487604D01*
X195763464Y-132902723D01*
X195763464Y-132325000D01*
X195736897Y-132183810D01*
X195653454Y-132054135D01*
X195526134Y-131967141D01*
X195375000Y-131936536D01*
X193625000Y-131936536D01*
X193483810Y-131963103D01*
X193354135Y-132046546D01*
X193267141Y-132173866D01*
X193236536Y-132325000D01*
X192705521Y-132325000D01*
X192723465Y-132313454D01*
X192810459Y-132186134D01*
X192841064Y-132035000D01*
X192841064Y-130765000D01*
X192814497Y-130623810D01*
X192731054Y-130494135D01*
X192603734Y-130407141D01*
X192551000Y-130396462D01*
X192551000Y-124904949D01*
X192593790Y-124896897D01*
X192705521Y-124825000D01*
X193236536Y-124825000D01*
X193236536Y-126575000D01*
X193263103Y-126716190D01*
X193346546Y-126845865D01*
X193473866Y-126932859D01*
X193625000Y-126963464D01*
X195375000Y-126963464D01*
X195516190Y-126936897D01*
X195645865Y-126853454D01*
X195732859Y-126726134D01*
X195763464Y-126575000D01*
X195763464Y-125996370D01*
X195934595Y-126410537D01*
X196287604Y-126764164D01*
X196749070Y-126955781D01*
X197248738Y-126956217D01*
X197710537Y-126765405D01*
X198064164Y-126412396D01*
X198250221Y-125964320D01*
X198434595Y-126410537D01*
X198787604Y-126764164D01*
X199249070Y-126955781D01*
X199748738Y-126956217D01*
X200210537Y-126765405D01*
X200213887Y-126762060D01*
X201117545Y-126762060D01*
X201200884Y-127015953D01*
X201765306Y-127221590D01*
X202365458Y-127195579D01*
X202799116Y-127015953D01*
X202882455Y-126762060D01*
X202000000Y-125879605D01*
X201117545Y-126762060D01*
X200213887Y-126762060D01*
X200564164Y-126412396D01*
X200606197Y-126311169D01*
X200684047Y-126499116D01*
X200937940Y-126582455D01*
X201820395Y-125700000D01*
X202179605Y-125700000D01*
X203062060Y-126582455D01*
X203315953Y-126499116D01*
X203521590Y-125934694D01*
X203495579Y-125334542D01*
X203315953Y-124900884D01*
X203062060Y-124817545D01*
X202179605Y-125700000D01*
X201820395Y-125700000D01*
X200937940Y-124817545D01*
X200684047Y-124900884D01*
X200611304Y-125100546D01*
X200565405Y-124989463D01*
X200214497Y-124637940D01*
X201117545Y-124637940D01*
X202000000Y-125520395D01*
X202882455Y-124637940D01*
X202799116Y-124384047D01*
X202234694Y-124178410D01*
X201634542Y-124204421D01*
X201200884Y-124384047D01*
X201117545Y-124637940D01*
X200214497Y-124637940D01*
X200212396Y-124635836D01*
X199750930Y-124444219D01*
X199251262Y-124443783D01*
X198789463Y-124634595D01*
X198435836Y-124987604D01*
X198249779Y-125435680D01*
X198065405Y-124989463D01*
X197712396Y-124635836D01*
X197250930Y-124444219D01*
X196751262Y-124443783D01*
X196289463Y-124634595D01*
X195935836Y-124987604D01*
X195763464Y-125402723D01*
X195763464Y-124825000D01*
X195736897Y-124683810D01*
X195653454Y-124554135D01*
X195526134Y-124467141D01*
X195375000Y-124436536D01*
X193625000Y-124436536D01*
X193483810Y-124463103D01*
X193354135Y-124546546D01*
X193267141Y-124673866D01*
X193236536Y-124825000D01*
X192705521Y-124825000D01*
X192723465Y-124813454D01*
X192810459Y-124686134D01*
X192841064Y-124535000D01*
X192841064Y-123265000D01*
X192814497Y-123123810D01*
X192731054Y-122994135D01*
X192603734Y-122907141D01*
X192551000Y-122896462D01*
X192551000Y-117325000D01*
X193236536Y-117325000D01*
X193236536Y-119075000D01*
X193263103Y-119216190D01*
X193346546Y-119345865D01*
X193473866Y-119432859D01*
X193625000Y-119463464D01*
X195375000Y-119463464D01*
X195516190Y-119436897D01*
X195645865Y-119353454D01*
X195732859Y-119226134D01*
X195763464Y-119075000D01*
X195763464Y-118496370D01*
X195934595Y-118910537D01*
X196287604Y-119264164D01*
X196749070Y-119455781D01*
X197248738Y-119456217D01*
X197710537Y-119265405D01*
X198064164Y-118912396D01*
X198250221Y-118464320D01*
X198434595Y-118910537D01*
X198787604Y-119264164D01*
X199249070Y-119455781D01*
X199748738Y-119456217D01*
X200210537Y-119265405D01*
X200213887Y-119262060D01*
X201117545Y-119262060D01*
X201200884Y-119515953D01*
X201765306Y-119721590D01*
X202365458Y-119695579D01*
X202799116Y-119515953D01*
X202882455Y-119262060D01*
X202000000Y-118379605D01*
X201117545Y-119262060D01*
X200213887Y-119262060D01*
X200564164Y-118912396D01*
X200606197Y-118811169D01*
X200684047Y-118999116D01*
X200937940Y-119082455D01*
X201820395Y-118200000D01*
X202179605Y-118200000D01*
X203062060Y-119082455D01*
X203315953Y-118999116D01*
X203521590Y-118434694D01*
X203495579Y-117834542D01*
X203315953Y-117400884D01*
X203062060Y-117317545D01*
X202179605Y-118200000D01*
X201820395Y-118200000D01*
X200937940Y-117317545D01*
X200684047Y-117400884D01*
X200611304Y-117600546D01*
X200565405Y-117489463D01*
X200214497Y-117137940D01*
X201117545Y-117137940D01*
X202000000Y-118020395D01*
X202882455Y-117137940D01*
X202799116Y-116884047D01*
X202234694Y-116678410D01*
X201634542Y-116704421D01*
X201200884Y-116884047D01*
X201117545Y-117137940D01*
X200214497Y-117137940D01*
X200212396Y-117135836D01*
X199750930Y-116944219D01*
X199251262Y-116943783D01*
X198789463Y-117134595D01*
X198435836Y-117487604D01*
X198249779Y-117935680D01*
X198065405Y-117489463D01*
X197712396Y-117135836D01*
X197250930Y-116944219D01*
X196751262Y-116943783D01*
X196289463Y-117134595D01*
X195935836Y-117487604D01*
X195763464Y-117902723D01*
X195763464Y-117325000D01*
X195736897Y-117183810D01*
X195653454Y-117054135D01*
X195526134Y-116967141D01*
X195375000Y-116936536D01*
X193625000Y-116936536D01*
X193483810Y-116963103D01*
X193354135Y-117046546D01*
X193267141Y-117173866D01*
X193236536Y-117325000D01*
X192551000Y-117325000D01*
X192551000Y-112195658D01*
X193236536Y-111510122D01*
X193236536Y-111575000D01*
X193263103Y-111716190D01*
X193346546Y-111845865D01*
X193473866Y-111932859D01*
X193625000Y-111963464D01*
X195375000Y-111963464D01*
X195516190Y-111936897D01*
X195645865Y-111853454D01*
X195732859Y-111726134D01*
X195763464Y-111575000D01*
X195763464Y-110996370D01*
X195934595Y-111410537D01*
X196287604Y-111764164D01*
X196749070Y-111955781D01*
X197248738Y-111956217D01*
X197710537Y-111765405D01*
X198064164Y-111412396D01*
X198250221Y-110964320D01*
X198434595Y-111410537D01*
X198787604Y-111764164D01*
X199249070Y-111955781D01*
X199748738Y-111956217D01*
X200210537Y-111765405D01*
X200213887Y-111762060D01*
X201117545Y-111762060D01*
X201200884Y-112015953D01*
X201765306Y-112221590D01*
X202365458Y-112195579D01*
X202799116Y-112015953D01*
X202882455Y-111762060D01*
X202000000Y-110879605D01*
X201117545Y-111762060D01*
X200213887Y-111762060D01*
X200564164Y-111412396D01*
X200606197Y-111311169D01*
X200684047Y-111499116D01*
X200937940Y-111582455D01*
X201820395Y-110700000D01*
X202179605Y-110700000D01*
X203062060Y-111582455D01*
X203315953Y-111499116D01*
X203521590Y-110934694D01*
X203495579Y-110334542D01*
X203315953Y-109900884D01*
X203062060Y-109817545D01*
X202179605Y-110700000D01*
X201820395Y-110700000D01*
X200937940Y-109817545D01*
X200684047Y-109900884D01*
X200611304Y-110100546D01*
X200565405Y-109989463D01*
X200214497Y-109637940D01*
X201117545Y-109637940D01*
X202000000Y-110520395D01*
X202882455Y-109637940D01*
X202799116Y-109384047D01*
X202234694Y-109178410D01*
X201634542Y-109204421D01*
X201200884Y-109384047D01*
X201117545Y-109637940D01*
X200214497Y-109637940D01*
X200212396Y-109635836D01*
X199750930Y-109444219D01*
X199251262Y-109443783D01*
X198789463Y-109634595D01*
X198435836Y-109987604D01*
X198249779Y-110435680D01*
X198065405Y-109989463D01*
X197712396Y-109635836D01*
X197250930Y-109444219D01*
X196751262Y-109443783D01*
X196289463Y-109634595D01*
X195935836Y-109987604D01*
X195763464Y-110402723D01*
X195763464Y-109825000D01*
X195736897Y-109683810D01*
X195653454Y-109554135D01*
X195526134Y-109467141D01*
X195375000Y-109436536D01*
X193625000Y-109436536D01*
X193483810Y-109463103D01*
X193354135Y-109546546D01*
X193267141Y-109673866D01*
X193236536Y-109825000D01*
X193236536Y-110119000D01*
X193225000Y-110119000D01*
X193002661Y-110163226D01*
X192814171Y-110289171D01*
X191559171Y-111544171D01*
X191433226Y-111732661D01*
X191389000Y-111955000D01*
X191389000Y-122895051D01*
X191346210Y-122903103D01*
X191336741Y-122909196D01*
X191333734Y-122907141D01*
X191182600Y-122876536D01*
X190217400Y-122876536D01*
X190076210Y-122903103D01*
X190066741Y-122909196D01*
X190063734Y-122907141D01*
X190011000Y-122896462D01*
X190011000Y-112130000D01*
X189966774Y-111907661D01*
X189840829Y-111719171D01*
X186981036Y-108859378D01*
X186981136Y-108745331D01*
X186862486Y-108458177D01*
X186642979Y-108238286D01*
X186356032Y-108119136D01*
X186045331Y-108118864D01*
X185758177Y-108237514D01*
X185546321Y-108449000D01*
X176904949Y-108449000D01*
X176896897Y-108406210D01*
X176813454Y-108276535D01*
X176686134Y-108189541D01*
X176535000Y-108158936D01*
X175265000Y-108158936D01*
X175123810Y-108185503D01*
X174994135Y-108268946D01*
X174907141Y-108396266D01*
X174896462Y-108449000D01*
X174870658Y-108449000D01*
X169581000Y-103159342D01*
X169581000Y-100134865D01*
X174480884Y-100134865D01*
X174584341Y-100385252D01*
X174775743Y-100576987D01*
X175025948Y-100680882D01*
X175091994Y-100680940D01*
X175540228Y-101129173D01*
X175314748Y-101222339D01*
X175123013Y-101413741D01*
X175019118Y-101663946D01*
X175018882Y-101934865D01*
X175122339Y-102185252D01*
X175169000Y-102231994D01*
X175169000Y-104200000D01*
X175209420Y-104403205D01*
X175324526Y-104575474D01*
X176118939Y-105369887D01*
X176118882Y-105434865D01*
X176222339Y-105685252D01*
X176413741Y-105876987D01*
X176663946Y-105980882D01*
X176934865Y-105981118D01*
X177185252Y-105877661D01*
X177376987Y-105686259D01*
X177480882Y-105436054D01*
X177480930Y-105380897D01*
X177718929Y-105381104D01*
X177718882Y-105434865D01*
X177822339Y-105685252D01*
X178013741Y-105876987D01*
X178263946Y-105980882D01*
X178534865Y-105981118D01*
X178785252Y-105877661D01*
X178976987Y-105686259D01*
X179080882Y-105436054D01*
X179081118Y-105165135D01*
X178977661Y-104914748D01*
X178931000Y-104868006D01*
X178931000Y-103238003D01*
X178931001Y-103237998D01*
X178890580Y-103034793D01*
X178775474Y-102862524D01*
X178775471Y-102862522D01*
X177311976Y-101399026D01*
X191292642Y-101399026D01*
X191295291Y-101414791D01*
X191549268Y-101942036D01*
X191985680Y-102331954D01*
X192538087Y-102525184D01*
X192773000Y-102380924D01*
X192773000Y-101167000D01*
X193027000Y-101167000D01*
X193027000Y-102380924D01*
X193261913Y-102525184D01*
X193814320Y-102331954D01*
X194250732Y-101942036D01*
X194504709Y-101414791D01*
X194507358Y-101399026D01*
X194386217Y-101167000D01*
X193027000Y-101167000D01*
X192773000Y-101167000D01*
X191413783Y-101167000D01*
X191292642Y-101399026D01*
X177311976Y-101399026D01*
X176593924Y-100680974D01*
X191292642Y-100680974D01*
X191413783Y-100913000D01*
X192773000Y-100913000D01*
X192773000Y-100893000D01*
X193027000Y-100893000D01*
X193027000Y-100913000D01*
X194386217Y-100913000D01*
X194507358Y-100680974D01*
X194504709Y-100665209D01*
X194250732Y-100137964D01*
X193814320Y-99748046D01*
X193541757Y-99652704D01*
X193556057Y-99649860D01*
X193959834Y-99380065D01*
X194229629Y-98976288D01*
X194324369Y-98500000D01*
X194229629Y-98023712D01*
X193959834Y-97619935D01*
X193556057Y-97350140D01*
X193079769Y-97255400D01*
X192720231Y-97255400D01*
X192243943Y-97350140D01*
X191840166Y-97619935D01*
X191570371Y-98023712D01*
X191475631Y-98500000D01*
X191570371Y-98976288D01*
X191840166Y-99380065D01*
X192243943Y-99649860D01*
X192258243Y-99652704D01*
X191985680Y-99748046D01*
X191549268Y-100137964D01*
X191295291Y-100665209D01*
X191292642Y-100680974D01*
X176593924Y-100680974D01*
X175843063Y-99930113D01*
X175843120Y-99865135D01*
X175739663Y-99614748D01*
X175548261Y-99423013D01*
X175298056Y-99319118D01*
X175027137Y-99318882D01*
X174776750Y-99422339D01*
X174585015Y-99613741D01*
X174481120Y-99863946D01*
X174480884Y-100134865D01*
X169581000Y-100134865D01*
X169581000Y-96023552D01*
X169661714Y-95942979D01*
X169690316Y-95874096D01*
X176927294Y-95874096D01*
X177099202Y-96290146D01*
X177417240Y-96608739D01*
X177832989Y-96781373D01*
X178283156Y-96781766D01*
X178699206Y-96609858D01*
X179017799Y-96291820D01*
X179190433Y-95876071D01*
X179190434Y-95874096D01*
X181809174Y-95874096D01*
X181981082Y-96290146D01*
X182299120Y-96608739D01*
X182714869Y-96781373D01*
X183165036Y-96781766D01*
X183581086Y-96609858D01*
X183899679Y-96291820D01*
X184072313Y-95876071D01*
X184072706Y-95425904D01*
X183936559Y-95096400D01*
X191495536Y-95096400D01*
X191495536Y-96823600D01*
X191522103Y-96964790D01*
X191605546Y-97094465D01*
X191732866Y-97181459D01*
X191884000Y-97212064D01*
X193916000Y-97212064D01*
X194057190Y-97185497D01*
X194186865Y-97102054D01*
X194273859Y-96974734D01*
X194304464Y-96823600D01*
X194304464Y-95096400D01*
X194277897Y-94955210D01*
X194194454Y-94825535D01*
X194067134Y-94738541D01*
X193916000Y-94707936D01*
X191884000Y-94707936D01*
X191742810Y-94734503D01*
X191613135Y-94817946D01*
X191526141Y-94945266D01*
X191495536Y-95096400D01*
X183936559Y-95096400D01*
X183900798Y-95009854D01*
X183582760Y-94691261D01*
X183167011Y-94518627D01*
X182716844Y-94518234D01*
X182300794Y-94690142D01*
X181982201Y-95008180D01*
X181809567Y-95423929D01*
X181809174Y-95874096D01*
X179190434Y-95874096D01*
X179190826Y-95425904D01*
X179018918Y-95009854D01*
X178700880Y-94691261D01*
X178285131Y-94518627D01*
X177834964Y-94518234D01*
X177418914Y-94690142D01*
X177100321Y-95008180D01*
X176927687Y-95423929D01*
X176927294Y-95874096D01*
X169690316Y-95874096D01*
X169780864Y-95656032D01*
X169781136Y-95345331D01*
X169662486Y-95058177D01*
X169442979Y-94838286D01*
X169156032Y-94719136D01*
X169102569Y-94719089D01*
X173849027Y-89972631D01*
X195063000Y-89972631D01*
X195063000Y-90027369D01*
X195169340Y-90561978D01*
X195472172Y-91015197D01*
X195925391Y-91318029D01*
X195929000Y-91318747D01*
X195929000Y-94460000D01*
X195969420Y-94663205D01*
X196084526Y-94835474D01*
X199360588Y-98111536D01*
X198950000Y-98111536D01*
X198808810Y-98138103D01*
X198679135Y-98221546D01*
X198592141Y-98348866D01*
X198561536Y-98500000D01*
X198561536Y-101000000D01*
X198588103Y-101141190D01*
X198671546Y-101270865D01*
X198798866Y-101357859D01*
X198950000Y-101388464D01*
X201450000Y-101388464D01*
X201591190Y-101361897D01*
X201720865Y-101278454D01*
X201807859Y-101151134D01*
X201838464Y-101000000D01*
X201838464Y-98500000D01*
X201811897Y-98358810D01*
X201728454Y-98229135D01*
X201601134Y-98142141D01*
X201450000Y-98111536D01*
X200713404Y-98111536D01*
X200690580Y-97996795D01*
X200575474Y-97824526D01*
X197823951Y-95073003D01*
X198568718Y-95073003D01*
X198816499Y-95672680D01*
X199274907Y-96131888D01*
X199874151Y-96380716D01*
X200523003Y-96381282D01*
X201122680Y-96133501D01*
X201581888Y-95675093D01*
X201830716Y-95075849D01*
X201831282Y-94426997D01*
X201583501Y-93827320D01*
X201125093Y-93368112D01*
X200525849Y-93119284D01*
X199876997Y-93118718D01*
X199277320Y-93366499D01*
X198818112Y-93824907D01*
X198569284Y-94424151D01*
X198568718Y-95073003D01*
X197823951Y-95073003D01*
X196991000Y-94240052D01*
X196991000Y-91318747D01*
X196994609Y-91318029D01*
X197447828Y-91015197D01*
X197595536Y-90794137D01*
X197595536Y-91016000D01*
X197622103Y-91157190D01*
X197705546Y-91286865D01*
X197832866Y-91373859D01*
X197984000Y-91404464D01*
X200016000Y-91404464D01*
X200157190Y-91377897D01*
X200286865Y-91294454D01*
X200373859Y-91167134D01*
X200404464Y-91016000D01*
X200404464Y-88984000D01*
X200377897Y-88842810D01*
X200294454Y-88713135D01*
X200167134Y-88626141D01*
X200016000Y-88595536D01*
X197984000Y-88595536D01*
X197842810Y-88622103D01*
X197713135Y-88705546D01*
X197626141Y-88832866D01*
X197595536Y-88984000D01*
X197595536Y-89205863D01*
X197447828Y-88984803D01*
X196994609Y-88681971D01*
X196460000Y-88575631D01*
X195925391Y-88681971D01*
X195472172Y-88984803D01*
X195169340Y-89438022D01*
X195063000Y-89972631D01*
X173849027Y-89972631D01*
X176680829Y-87140829D01*
X176806774Y-86952339D01*
X176851000Y-86730000D01*
X176851000Y-84334865D01*
X182918882Y-84334865D01*
X183019000Y-84577171D01*
X183019000Y-85923405D01*
X182919118Y-86163946D01*
X182918882Y-86434865D01*
X183022339Y-86685252D01*
X183213741Y-86876987D01*
X183463946Y-86980882D01*
X183734865Y-86981118D01*
X183985252Y-86877661D01*
X184176987Y-86686259D01*
X184280882Y-86436054D01*
X184281118Y-86165135D01*
X184181000Y-85922829D01*
X184181000Y-84576595D01*
X184280882Y-84336054D01*
X184281118Y-84065135D01*
X184177661Y-83814748D01*
X183986259Y-83623013D01*
X183736054Y-83519118D01*
X183465135Y-83518882D01*
X183214748Y-83622339D01*
X183023013Y-83813741D01*
X182919118Y-84063946D01*
X182918882Y-84334865D01*
X176851000Y-84334865D01*
X176851000Y-81904949D01*
X176893790Y-81896897D01*
X177023465Y-81813454D01*
X177110459Y-81686134D01*
X177141064Y-81535000D01*
X177141064Y-80265000D01*
X177114497Y-80123810D01*
X177031054Y-79994135D01*
X176903734Y-79907141D01*
X176774644Y-79881000D01*
X180459342Y-79881000D01*
X180781047Y-80202705D01*
X180829907Y-80275829D01*
X183464907Y-82910829D01*
X183653397Y-83036774D01*
X183875736Y-83081000D01*
X183923405Y-83081000D01*
X184155871Y-83177529D01*
X188489172Y-87510830D01*
X188677662Y-87636775D01*
X188900001Y-87681001D01*
X193499999Y-87681001D01*
X193722338Y-87636775D01*
X193910828Y-87510830D01*
X195244536Y-86177122D01*
X195485252Y-86077661D01*
X195676987Y-85886259D01*
X195780882Y-85636054D01*
X195781118Y-85365135D01*
X195722581Y-85223464D01*
X196077839Y-85223464D01*
X196227701Y-85373327D01*
X196461090Y-85470000D01*
X196784250Y-85470000D01*
X196943000Y-85311250D01*
X196943000Y-84327000D01*
X197197000Y-84327000D01*
X197197000Y-85311250D01*
X197355750Y-85470000D01*
X197678910Y-85470000D01*
X197912299Y-85373327D01*
X198090927Y-85194698D01*
X198187600Y-84961309D01*
X198187600Y-84485750D01*
X198028850Y-84327000D01*
X197197000Y-84327000D01*
X196943000Y-84327000D01*
X196923000Y-84327000D01*
X196923000Y-84073000D01*
X196943000Y-84073000D01*
X196943000Y-83088750D01*
X197197000Y-83088750D01*
X197197000Y-84073000D01*
X198028850Y-84073000D01*
X198187600Y-83914250D01*
X198187600Y-83438691D01*
X198090927Y-83205302D01*
X197912299Y-83026673D01*
X197678910Y-82930000D01*
X197355750Y-82930000D01*
X197197000Y-83088750D01*
X196943000Y-83088750D01*
X196784250Y-82930000D01*
X196461090Y-82930000D01*
X196268187Y-83009903D01*
X196267483Y-83006362D01*
X196157796Y-82842204D01*
X195981031Y-82665439D01*
X195981118Y-82565135D01*
X195922581Y-82423464D01*
X196077839Y-82423464D01*
X196227701Y-82573327D01*
X196461090Y-82670000D01*
X196784250Y-82670000D01*
X196943000Y-82511250D01*
X196943000Y-81527000D01*
X197197000Y-81527000D01*
X197197000Y-82511250D01*
X197355750Y-82670000D01*
X197678910Y-82670000D01*
X197912299Y-82573327D01*
X198090927Y-82394698D01*
X198187600Y-82161309D01*
X198187600Y-81685750D01*
X198028850Y-81527000D01*
X197197000Y-81527000D01*
X196943000Y-81527000D01*
X196923000Y-81527000D01*
X196923000Y-81273000D01*
X196943000Y-81273000D01*
X196943000Y-80288750D01*
X197197000Y-80288750D01*
X197197000Y-81273000D01*
X198028850Y-81273000D01*
X198187600Y-81114250D01*
X198187600Y-80638691D01*
X198090927Y-80405302D01*
X197912299Y-80226673D01*
X197678910Y-80130000D01*
X197355750Y-80130000D01*
X197197000Y-80288750D01*
X196943000Y-80288750D01*
X196880890Y-80226640D01*
X196881118Y-79965135D01*
X196824980Y-79829270D01*
X196943000Y-79711250D01*
X196943000Y-78727000D01*
X197197000Y-78727000D01*
X197197000Y-79711250D01*
X197355750Y-79870000D01*
X197678910Y-79870000D01*
X197912299Y-79773327D01*
X198090927Y-79594698D01*
X198187600Y-79361309D01*
X198187600Y-78885750D01*
X198028850Y-78727000D01*
X197197000Y-78727000D01*
X196943000Y-78727000D01*
X196923000Y-78727000D01*
X196923000Y-78473000D01*
X196943000Y-78473000D01*
X196943000Y-77488750D01*
X197197000Y-77488750D01*
X197197000Y-78473000D01*
X198028850Y-78473000D01*
X198187600Y-78314250D01*
X198187600Y-77838691D01*
X198090927Y-77605302D01*
X197912299Y-77426673D01*
X197678910Y-77330000D01*
X197355750Y-77330000D01*
X197197000Y-77488750D01*
X196943000Y-77488750D01*
X196784250Y-77330000D01*
X196461090Y-77330000D01*
X196227701Y-77426673D01*
X196077839Y-77576536D01*
X195317400Y-77576536D01*
X195176210Y-77603103D01*
X195166741Y-77609196D01*
X195163734Y-77607141D01*
X195012600Y-77576536D01*
X194047400Y-77576536D01*
X193906210Y-77603103D01*
X193776535Y-77686546D01*
X193689541Y-77813866D01*
X193658936Y-77965000D01*
X193658936Y-79235000D01*
X193685503Y-79376190D01*
X193768946Y-79505865D01*
X193896266Y-79592859D01*
X193949000Y-79603538D01*
X193949000Y-80395051D01*
X193906210Y-80403103D01*
X193776535Y-80486546D01*
X193689541Y-80613866D01*
X193658936Y-80765000D01*
X193658936Y-82035000D01*
X193685503Y-82176190D01*
X193768946Y-82305865D01*
X193896266Y-82392859D01*
X193949000Y-82403538D01*
X193949000Y-83195051D01*
X193906210Y-83203103D01*
X193776535Y-83286546D01*
X193689541Y-83413866D01*
X193658936Y-83565000D01*
X193658936Y-84835000D01*
X193685503Y-84976190D01*
X193768946Y-85105865D01*
X193896266Y-85192859D01*
X194047400Y-85223464D01*
X194129219Y-85223464D01*
X194172204Y-85287796D01*
X194331375Y-85446967D01*
X193259341Y-86519001D01*
X192280897Y-86519001D01*
X192281118Y-86265135D01*
X192177661Y-86014748D01*
X191986259Y-85823013D01*
X191736054Y-85719118D01*
X191580984Y-85718983D01*
X191581118Y-85565135D01*
X191477661Y-85314748D01*
X191286259Y-85123013D01*
X191036054Y-85019118D01*
X190980984Y-85019070D01*
X190981118Y-84865135D01*
X190877661Y-84614748D01*
X190686259Y-84423013D01*
X190436054Y-84319118D01*
X190334622Y-84319030D01*
X183126000Y-77110408D01*
X183126000Y-73122869D01*
X183316395Y-73044200D01*
X183662983Y-72698216D01*
X183850786Y-72245935D01*
X183850787Y-72243787D01*
X183928787Y-72243787D01*
X184115800Y-72696395D01*
X184461784Y-73042983D01*
X184654000Y-73122798D01*
X184654000Y-76685002D01*
X184692517Y-76878640D01*
X184802204Y-77042798D01*
X190119035Y-82359629D01*
X190118882Y-82534865D01*
X190222339Y-82785252D01*
X190413741Y-82976987D01*
X190663946Y-83080882D01*
X190934865Y-83081118D01*
X191185252Y-82977661D01*
X191376987Y-82786259D01*
X191480882Y-82536054D01*
X191481118Y-82265135D01*
X191377661Y-82014748D01*
X191263080Y-81899968D01*
X191376987Y-81786259D01*
X191480882Y-81536054D01*
X191481017Y-81380984D01*
X191634865Y-81381118D01*
X191885252Y-81277661D01*
X192076987Y-81086259D01*
X192180882Y-80836054D01*
X192181017Y-80680984D01*
X192334865Y-80681118D01*
X192585252Y-80577661D01*
X192776987Y-80386259D01*
X192880882Y-80136054D01*
X192881017Y-79980984D01*
X193034865Y-79981118D01*
X193285252Y-79877661D01*
X193476987Y-79686259D01*
X193580882Y-79436054D01*
X193581118Y-79165135D01*
X193477661Y-78914748D01*
X193406000Y-78842962D01*
X193406000Y-76382400D01*
X200193936Y-76382400D01*
X200193936Y-78617600D01*
X200220503Y-78758790D01*
X200303946Y-78888465D01*
X200431266Y-78975459D01*
X200582400Y-79006064D01*
X202817600Y-79006064D01*
X202958790Y-78979497D01*
X203088465Y-78896054D01*
X203175459Y-78768734D01*
X203206064Y-78617600D01*
X203206064Y-76382400D01*
X203179497Y-76241210D01*
X203096054Y-76111535D01*
X202968734Y-76024541D01*
X202817600Y-75993936D01*
X200582400Y-75993936D01*
X200441210Y-76020503D01*
X200311535Y-76103946D01*
X200224541Y-76231266D01*
X200193936Y-76382400D01*
X193406000Y-76382400D01*
X193406000Y-75850906D01*
X195677796Y-73579110D01*
X195787483Y-73414952D01*
X195826000Y-73221314D01*
X195826000Y-73122869D01*
X196016395Y-73044200D01*
X196016637Y-73043958D01*
X196995647Y-73043958D01*
X197075920Y-73295259D01*
X197631279Y-73496718D01*
X198221458Y-73470315D01*
X198644080Y-73295259D01*
X198724353Y-73043958D01*
X197860000Y-72179605D01*
X196995647Y-73043958D01*
X196016637Y-73043958D01*
X196362983Y-72698216D01*
X196446181Y-72497852D01*
X196564741Y-72784080D01*
X196816042Y-72864353D01*
X197680395Y-72000000D01*
X198039605Y-72000000D01*
X198903958Y-72864353D01*
X199155259Y-72784080D01*
X199356718Y-72228721D01*
X199330315Y-71638542D01*
X199155259Y-71215920D01*
X198903958Y-71135647D01*
X198039605Y-72000000D01*
X197680395Y-72000000D01*
X196816042Y-71135647D01*
X196564741Y-71215920D01*
X196454050Y-71521060D01*
X196364200Y-71303605D01*
X196018216Y-70957017D01*
X195565935Y-70769214D01*
X195076213Y-70768787D01*
X194623605Y-70955800D01*
X194277017Y-71301784D01*
X194089214Y-71754065D01*
X194088787Y-72243787D01*
X194275800Y-72696395D01*
X194621784Y-73042983D01*
X194735514Y-73090208D01*
X192706000Y-75119722D01*
X192706000Y-73991673D01*
X193137796Y-73559877D01*
X193247483Y-73395719D01*
X193286000Y-73202081D01*
X193286000Y-73122869D01*
X193476395Y-73044200D01*
X193822983Y-72698216D01*
X194010786Y-72245935D01*
X194011213Y-71756213D01*
X193824200Y-71303605D01*
X193478216Y-70957017D01*
X193025935Y-70769214D01*
X192536213Y-70768787D01*
X192083605Y-70955800D01*
X191737017Y-71301784D01*
X191549214Y-71754065D01*
X191548787Y-72243787D01*
X191735800Y-72696395D01*
X192081784Y-73042983D01*
X192181924Y-73084565D01*
X192006000Y-73260489D01*
X192006000Y-73260000D01*
X191967483Y-73066362D01*
X191857796Y-72902204D01*
X191391784Y-72436192D01*
X191470786Y-72245935D01*
X191471213Y-71756213D01*
X191284200Y-71303605D01*
X190938216Y-70957017D01*
X190485935Y-70769214D01*
X189996213Y-70768787D01*
X189543605Y-70955800D01*
X189197017Y-71301784D01*
X189009214Y-71754065D01*
X189008787Y-72243787D01*
X189195800Y-72696395D01*
X189541784Y-73042983D01*
X189994065Y-73230786D01*
X190483787Y-73231213D01*
X190676142Y-73151734D01*
X190994000Y-73469592D01*
X190994000Y-74578408D01*
X188851784Y-72436192D01*
X188930786Y-72245935D01*
X188931213Y-71756213D01*
X188744200Y-71303605D01*
X188398216Y-70957017D01*
X187945935Y-70769214D01*
X187456213Y-70768787D01*
X187003605Y-70955800D01*
X186657017Y-71301784D01*
X186469214Y-71754065D01*
X186468787Y-72243787D01*
X186655800Y-72696395D01*
X187001784Y-73042983D01*
X187454065Y-73230786D01*
X187943787Y-73231213D01*
X188136142Y-73151734D01*
X190294000Y-75309592D01*
X190294000Y-80942877D01*
X190223013Y-81013741D01*
X190217532Y-81026942D01*
X185666000Y-76475410D01*
X185666000Y-73122869D01*
X185856395Y-73044200D01*
X186202983Y-72698216D01*
X186390786Y-72245935D01*
X186391213Y-71756213D01*
X186204200Y-71303605D01*
X185858216Y-70957017D01*
X185405935Y-70769214D01*
X184916213Y-70768787D01*
X184463605Y-70955800D01*
X184117017Y-71301784D01*
X183929214Y-71754065D01*
X183928787Y-72243787D01*
X183850787Y-72243787D01*
X183851213Y-71756213D01*
X183664200Y-71303605D01*
X183318216Y-70957017D01*
X182865935Y-70769214D01*
X182376213Y-70768787D01*
X181923605Y-70955800D01*
X181577017Y-71301784D01*
X181389214Y-71754065D01*
X181388787Y-72243787D01*
X181575800Y-72696395D01*
X181921784Y-73042983D01*
X182114000Y-73122798D01*
X182114000Y-77023410D01*
X180586000Y-75495410D01*
X180586000Y-73122869D01*
X180776395Y-73044200D01*
X181122983Y-72698216D01*
X181310786Y-72245935D01*
X181311213Y-71756213D01*
X181124200Y-71303605D01*
X180778216Y-70957017D01*
X180325935Y-70769214D01*
X179836213Y-70768787D01*
X179383605Y-70955800D01*
X179037017Y-71301784D01*
X178849214Y-71754065D01*
X178848787Y-72243787D01*
X179035800Y-72696395D01*
X179381784Y-73042983D01*
X179574000Y-73122798D01*
X179574000Y-75119820D01*
X178046000Y-73591820D01*
X178046000Y-73122869D01*
X178236395Y-73044200D01*
X178582983Y-72698216D01*
X178770786Y-72245935D01*
X178771213Y-71756213D01*
X178584200Y-71303605D01*
X178238216Y-70957017D01*
X177785935Y-70769214D01*
X177296213Y-70768787D01*
X176843605Y-70955800D01*
X176497017Y-71301784D01*
X176309214Y-71754065D01*
X176308787Y-72243787D01*
X176495800Y-72696395D01*
X176841784Y-73042983D01*
X177034000Y-73122798D01*
X177034000Y-73801412D01*
X177072517Y-73995050D01*
X177182204Y-74159208D01*
X189541997Y-86519001D01*
X189140659Y-86519001D01*
X184977122Y-82355464D01*
X184877661Y-82114748D01*
X184686259Y-81923013D01*
X184436054Y-81819118D01*
X184165135Y-81818882D01*
X184059799Y-81862405D01*
X181700425Y-79503031D01*
X181651565Y-79429907D01*
X181110829Y-78889171D01*
X180922339Y-78763226D01*
X180700000Y-78719000D01*
X175581000Y-78719000D01*
X175581000Y-73238464D01*
X175850000Y-73238464D01*
X175991190Y-73211897D01*
X176120865Y-73128454D01*
X176207859Y-73001134D01*
X176238464Y-72850000D01*
X176238464Y-71150000D01*
X176211897Y-71008810D01*
X176128454Y-70879135D01*
X176001134Y-70792141D01*
X175850000Y-70761536D01*
X174150000Y-70761536D01*
X174008810Y-70788103D01*
X173879135Y-70871546D01*
X173792141Y-70998866D01*
X173761536Y-71150000D01*
X173761536Y-72850000D01*
X173788103Y-72991190D01*
X173871546Y-73120865D01*
X173998866Y-73207859D01*
X174150000Y-73238464D01*
X174419000Y-73238464D01*
X174419000Y-79895051D01*
X174376210Y-79903103D01*
X174366741Y-79909196D01*
X174363734Y-79907141D01*
X174212600Y-79876536D01*
X173247400Y-79876536D01*
X173106210Y-79903103D01*
X172976535Y-79986546D01*
X172889541Y-80113866D01*
X172858936Y-80265000D01*
X172858936Y-81535000D01*
X172885503Y-81676190D01*
X172968946Y-81805865D01*
X173096266Y-81892859D01*
X173149000Y-81903538D01*
X173149000Y-87736462D01*
X165966462Y-94919000D01*
X165402529Y-94919000D01*
X165395755Y-94902606D01*
X165098957Y-94605289D01*
X164710973Y-94444184D01*
X164290870Y-94443817D01*
X164272900Y-94451242D01*
X163835828Y-94014170D01*
X163647338Y-93888225D01*
X163424999Y-93843999D01*
X161575001Y-93843999D01*
X161352662Y-93888225D01*
X161164172Y-94014170D01*
X160727355Y-94450987D01*
X160710973Y-94444184D01*
X160290870Y-94443817D01*
X159902606Y-94604245D01*
X159605289Y-94901043D01*
X159563464Y-95001769D01*
X159563464Y-94825000D01*
X159536897Y-94683810D01*
X159453454Y-94554135D01*
X159326134Y-94467141D01*
X159175000Y-94436536D01*
X157825000Y-94436536D01*
X157683810Y-94463103D01*
X157554135Y-94546546D01*
X157499770Y-94626112D01*
X157453454Y-94554135D01*
X157326134Y-94467141D01*
X157175000Y-94436536D01*
X155825000Y-94436536D01*
X155683810Y-94463103D01*
X155554135Y-94546546D01*
X155467141Y-94673866D01*
X155436536Y-94825000D01*
X155436536Y-96175000D01*
X155463103Y-96316190D01*
X155546546Y-96445865D01*
X155673866Y-96532859D01*
X155825000Y-96563464D01*
X156001303Y-96563464D01*
X155902606Y-96604245D01*
X155605289Y-96901043D01*
X155444184Y-97289027D01*
X155443817Y-97709130D01*
X155604245Y-98097394D01*
X155845884Y-98339455D01*
X155821219Y-98349672D01*
X155762458Y-98582853D01*
X156500000Y-99320395D01*
X157237542Y-98582853D01*
X157178781Y-98349672D01*
X157152703Y-98340543D01*
X157394711Y-98098957D01*
X157500060Y-97845248D01*
X157604245Y-98097394D01*
X157901043Y-98394711D01*
X158154752Y-98500060D01*
X157902606Y-98604245D01*
X157660545Y-98845884D01*
X157650328Y-98821219D01*
X157417147Y-98762458D01*
X156679605Y-99500000D01*
X157417147Y-100237542D01*
X157650328Y-100178781D01*
X157659457Y-100152703D01*
X157901043Y-100394711D01*
X158154752Y-100500060D01*
X157902606Y-100604245D01*
X157605289Y-100901043D01*
X157499940Y-101154752D01*
X157395755Y-100902606D01*
X157154116Y-100660545D01*
X157178781Y-100650328D01*
X157237542Y-100417147D01*
X156500000Y-99679605D01*
X155762458Y-100417147D01*
X155821219Y-100650328D01*
X155847297Y-100659457D01*
X155605289Y-100901043D01*
X155444184Y-101289027D01*
X155443817Y-101709130D01*
X155604245Y-102097394D01*
X155901043Y-102394711D01*
X156154752Y-102500060D01*
X155902606Y-102604245D01*
X155605289Y-102901043D01*
X155444184Y-103289027D01*
X155443817Y-103709130D01*
X155604245Y-104097394D01*
X155845884Y-104339455D01*
X155821219Y-104349672D01*
X155762458Y-104582853D01*
X156500000Y-105320395D01*
X157237542Y-104582853D01*
X157178781Y-104349672D01*
X157152703Y-104340543D01*
X157339455Y-104154116D01*
X157349672Y-104178781D01*
X157582853Y-104237542D01*
X158320395Y-103500000D01*
X157582853Y-102762458D01*
X157349672Y-102821219D01*
X157340543Y-102847297D01*
X157098957Y-102605289D01*
X156845248Y-102499940D01*
X157097394Y-102395755D01*
X157394711Y-102098957D01*
X157500060Y-101845248D01*
X157604245Y-102097394D01*
X157845884Y-102339455D01*
X157821219Y-102349672D01*
X157762458Y-102582853D01*
X158500000Y-103320395D01*
X159237542Y-102582853D01*
X159178781Y-102349672D01*
X159152703Y-102340543D01*
X159339455Y-102154116D01*
X159349672Y-102178781D01*
X159582853Y-102237542D01*
X160320395Y-101500000D01*
X160679605Y-101500000D01*
X161343510Y-102163905D01*
X161349672Y-102178781D01*
X161361322Y-102181717D01*
X161417147Y-102237542D01*
X161500000Y-102216663D01*
X161582853Y-102237542D01*
X161638678Y-102181717D01*
X161650328Y-102178781D01*
X161655022Y-102165373D01*
X162320395Y-101500000D01*
X161656490Y-100836095D01*
X161650328Y-100821219D01*
X161638678Y-100818283D01*
X161582853Y-100762458D01*
X161500000Y-100783337D01*
X161417147Y-100762458D01*
X161361322Y-100818283D01*
X161349672Y-100821219D01*
X161344978Y-100834627D01*
X160679605Y-101500000D01*
X160320395Y-101500000D01*
X159582853Y-100762458D01*
X159349672Y-100821219D01*
X159340543Y-100847297D01*
X159098957Y-100605289D01*
X158845248Y-100499940D01*
X159097394Y-100395755D01*
X159394711Y-100098957D01*
X159500060Y-99845248D01*
X159604245Y-100097394D01*
X159845884Y-100339455D01*
X159821219Y-100349672D01*
X159762458Y-100582853D01*
X160500000Y-101320395D01*
X161237542Y-100582853D01*
X161178781Y-100349672D01*
X161152703Y-100340543D01*
X161394711Y-100098957D01*
X161500060Y-99845248D01*
X161604245Y-100097394D01*
X161845884Y-100339455D01*
X161821219Y-100349672D01*
X161762458Y-100582853D01*
X162500000Y-101320395D01*
X163237542Y-100582853D01*
X163178781Y-100349672D01*
X163152703Y-100340543D01*
X163394711Y-100098957D01*
X163500060Y-99845248D01*
X163604245Y-100097394D01*
X163901043Y-100394711D01*
X164154752Y-100500060D01*
X163902606Y-100604245D01*
X163660545Y-100845884D01*
X163650328Y-100821219D01*
X163417147Y-100762458D01*
X162679605Y-101500000D01*
X163417147Y-102237542D01*
X163650328Y-102178781D01*
X163659457Y-102152703D01*
X163845884Y-102339455D01*
X163821219Y-102349672D01*
X163762458Y-102582853D01*
X164500000Y-103320395D01*
X165237542Y-102582853D01*
X165178781Y-102349672D01*
X165152703Y-102340543D01*
X165394711Y-102098957D01*
X165555816Y-101710973D01*
X165556183Y-101290870D01*
X165395755Y-100902606D01*
X165098957Y-100605289D01*
X164845248Y-100499940D01*
X165097394Y-100395755D01*
X165394711Y-100098957D01*
X165555816Y-99710973D01*
X165556183Y-99290870D01*
X165395755Y-98902606D01*
X165380828Y-98887653D01*
X165489381Y-98815119D01*
X166419000Y-97885500D01*
X166419000Y-108238764D01*
X166315119Y-108134883D01*
X166159072Y-108030615D01*
X165975001Y-107994001D01*
X165438293Y-107994001D01*
X165555816Y-107710973D01*
X165556183Y-107290870D01*
X165395755Y-106902606D01*
X165098957Y-106605289D01*
X164845248Y-106499940D01*
X165097394Y-106395755D01*
X165394711Y-106098957D01*
X165555816Y-105710973D01*
X165556183Y-105290870D01*
X165395755Y-104902606D01*
X165154116Y-104660545D01*
X165178781Y-104650328D01*
X165237542Y-104417147D01*
X164500000Y-103679605D01*
X163762458Y-104417147D01*
X163821219Y-104650328D01*
X163847297Y-104659457D01*
X163605289Y-104901043D01*
X163499940Y-105154752D01*
X163395755Y-104902606D01*
X163098957Y-104605289D01*
X162845248Y-104499940D01*
X163097394Y-104395755D01*
X163339455Y-104154116D01*
X163349672Y-104178781D01*
X163582853Y-104237542D01*
X164320395Y-103500000D01*
X164679605Y-103500000D01*
X165417147Y-104237542D01*
X165650328Y-104178781D01*
X165822522Y-103686900D01*
X165793375Y-103166566D01*
X165650328Y-102821219D01*
X165417147Y-102762458D01*
X164679605Y-103500000D01*
X164320395Y-103500000D01*
X163582853Y-102762458D01*
X163349672Y-102821219D01*
X163340543Y-102847297D01*
X163154116Y-102660545D01*
X163178781Y-102650328D01*
X163237542Y-102417147D01*
X162500000Y-101679605D01*
X161762458Y-102417147D01*
X161821219Y-102650328D01*
X161847297Y-102659457D01*
X161605289Y-102901043D01*
X161499940Y-103154752D01*
X161395755Y-102902606D01*
X161154116Y-102660545D01*
X161178781Y-102650328D01*
X161237542Y-102417147D01*
X160500000Y-101679605D01*
X159762458Y-102417147D01*
X159821219Y-102650328D01*
X159847297Y-102659457D01*
X159660545Y-102845884D01*
X159650328Y-102821219D01*
X159417147Y-102762458D01*
X158679605Y-103500000D01*
X159417147Y-104237542D01*
X159650328Y-104178781D01*
X159659457Y-104152703D01*
X159901043Y-104394711D01*
X160154752Y-104500060D01*
X159902606Y-104604245D01*
X159605289Y-104901043D01*
X159499940Y-105154752D01*
X159395755Y-104902606D01*
X159154116Y-104660545D01*
X159178781Y-104650328D01*
X159237542Y-104417147D01*
X158500000Y-103679605D01*
X157762458Y-104417147D01*
X157821219Y-104650328D01*
X157847297Y-104659457D01*
X157660545Y-104845884D01*
X157650328Y-104821219D01*
X157417147Y-104762458D01*
X156679605Y-105500000D01*
X157417147Y-106237542D01*
X157650328Y-106178781D01*
X157659457Y-106152703D01*
X157901043Y-106394711D01*
X158154752Y-106500060D01*
X157902606Y-106604245D01*
X157605289Y-106901043D01*
X157499940Y-107154752D01*
X157395755Y-106902606D01*
X157154116Y-106660545D01*
X157178781Y-106650328D01*
X157237542Y-106417147D01*
X156500000Y-105679605D01*
X155762458Y-106417147D01*
X155821219Y-106650328D01*
X155847297Y-106659457D01*
X155605289Y-106901043D01*
X155444184Y-107289027D01*
X155443817Y-107709130D01*
X155604245Y-108097394D01*
X155901043Y-108394711D01*
X156154752Y-108500060D01*
X155902606Y-108604245D01*
X155605289Y-108901043D01*
X155444184Y-109289027D01*
X155443817Y-109709130D01*
X155604245Y-110097394D01*
X155845884Y-110339455D01*
X155821219Y-110349672D01*
X155762458Y-110582853D01*
X156500000Y-111320395D01*
X157237542Y-110582853D01*
X157178781Y-110349672D01*
X157152703Y-110340543D01*
X157339455Y-110154116D01*
X157349672Y-110178781D01*
X157582853Y-110237542D01*
X158320395Y-109500000D01*
X157582853Y-108762458D01*
X157349672Y-108821219D01*
X157340543Y-108847297D01*
X157098957Y-108605289D01*
X156845248Y-108499940D01*
X157097394Y-108395755D01*
X157394711Y-108098957D01*
X157500060Y-107845248D01*
X157604245Y-108097394D01*
X157845884Y-108339455D01*
X157821219Y-108349672D01*
X157762458Y-108582853D01*
X158500000Y-109320395D01*
X159237542Y-108582853D01*
X159178781Y-108349672D01*
X159152703Y-108340543D01*
X159339455Y-108154116D01*
X159349672Y-108178781D01*
X159582853Y-108237542D01*
X160320395Y-107500000D01*
X160679605Y-107500000D01*
X161343510Y-108163905D01*
X161349672Y-108178781D01*
X161361322Y-108181717D01*
X161417147Y-108237542D01*
X161500000Y-108216663D01*
X161582853Y-108237542D01*
X161638678Y-108181717D01*
X161650328Y-108178781D01*
X161655022Y-108165373D01*
X162320395Y-107500000D01*
X161656490Y-106836095D01*
X161650328Y-106821219D01*
X161638678Y-106818283D01*
X161582853Y-106762458D01*
X161500000Y-106783337D01*
X161417147Y-106762458D01*
X161361322Y-106818283D01*
X161349672Y-106821219D01*
X161344978Y-106834627D01*
X160679605Y-107500000D01*
X160320395Y-107500000D01*
X159582853Y-106762458D01*
X159349672Y-106821219D01*
X159340543Y-106847297D01*
X159098957Y-106605289D01*
X158845248Y-106499940D01*
X159097394Y-106395755D01*
X159394711Y-106098957D01*
X159500060Y-105845248D01*
X159604245Y-106097394D01*
X159845884Y-106339455D01*
X159821219Y-106349672D01*
X159762458Y-106582853D01*
X160500000Y-107320395D01*
X161237542Y-106582853D01*
X161178781Y-106349672D01*
X161152703Y-106340543D01*
X161394711Y-106098957D01*
X161500060Y-105845248D01*
X161604245Y-106097394D01*
X161845884Y-106339455D01*
X161821219Y-106349672D01*
X161762458Y-106582853D01*
X162500000Y-107320395D01*
X163237542Y-106582853D01*
X163178781Y-106349672D01*
X163152703Y-106340543D01*
X163394711Y-106098957D01*
X163500060Y-105845248D01*
X163604245Y-106097394D01*
X163901043Y-106394711D01*
X164154752Y-106500060D01*
X163902606Y-106604245D01*
X163660545Y-106845884D01*
X163650328Y-106821219D01*
X163417147Y-106762458D01*
X162679605Y-107500000D01*
X162693748Y-107514143D01*
X162514143Y-107693748D01*
X162500000Y-107679605D01*
X161762458Y-108417147D01*
X161821219Y-108650328D01*
X161847297Y-108659457D01*
X161605289Y-108901043D01*
X161499940Y-109154752D01*
X161395755Y-108902606D01*
X161154116Y-108660545D01*
X161178781Y-108650328D01*
X161237542Y-108417147D01*
X160500000Y-107679605D01*
X159762458Y-108417147D01*
X159821219Y-108650328D01*
X159847297Y-108659457D01*
X159660545Y-108845884D01*
X159650328Y-108821219D01*
X159417147Y-108762458D01*
X158679605Y-109500000D01*
X159417147Y-110237542D01*
X159650328Y-110178781D01*
X159659457Y-110152703D01*
X159901043Y-110394711D01*
X160154752Y-110500060D01*
X159902606Y-110604245D01*
X159605289Y-110901043D01*
X159499940Y-111154752D01*
X159395755Y-110902606D01*
X159154116Y-110660545D01*
X159178781Y-110650328D01*
X159237542Y-110417147D01*
X158500000Y-109679605D01*
X157762458Y-110417147D01*
X157821219Y-110650328D01*
X157847297Y-110659457D01*
X157660545Y-110845884D01*
X157650328Y-110821219D01*
X157417147Y-110762458D01*
X156679605Y-111500000D01*
X157417147Y-112237542D01*
X157650328Y-112178781D01*
X157659457Y-112152703D01*
X157901043Y-112394711D01*
X158154752Y-112500060D01*
X157902606Y-112604245D01*
X157605289Y-112901043D01*
X157499940Y-113154752D01*
X157395755Y-112902606D01*
X157154116Y-112660545D01*
X157178781Y-112650328D01*
X157237542Y-112417147D01*
X156500000Y-111679605D01*
X155762458Y-112417147D01*
X155821219Y-112650328D01*
X155847297Y-112659457D01*
X155605289Y-112901043D01*
X155444184Y-113289027D01*
X155443817Y-113709130D01*
X155604245Y-114097394D01*
X155901043Y-114394711D01*
X156154752Y-114500060D01*
X155902606Y-114604245D01*
X155605289Y-114901043D01*
X155444184Y-115289027D01*
X155443817Y-115709130D01*
X155604245Y-116097394D01*
X155845884Y-116339455D01*
X155821219Y-116349672D01*
X155762458Y-116582853D01*
X156500000Y-117320395D01*
X157237542Y-116582853D01*
X157178781Y-116349672D01*
X157152703Y-116340543D01*
X157339455Y-116154116D01*
X157349672Y-116178781D01*
X157582853Y-116237542D01*
X158320395Y-115500000D01*
X157582853Y-114762458D01*
X157349672Y-114821219D01*
X157340543Y-114847297D01*
X157098957Y-114605289D01*
X156845248Y-114499940D01*
X157097394Y-114395755D01*
X157394711Y-114098957D01*
X157500060Y-113845248D01*
X157604245Y-114097394D01*
X157845884Y-114339455D01*
X157821219Y-114349672D01*
X157762458Y-114582853D01*
X158500000Y-115320395D01*
X159237542Y-114582853D01*
X159178781Y-114349672D01*
X159152703Y-114340543D01*
X159394711Y-114098957D01*
X159500060Y-113845248D01*
X159604245Y-114097394D01*
X159901043Y-114394711D01*
X160154752Y-114500060D01*
X159902606Y-114604245D01*
X159660545Y-114845884D01*
X159650328Y-114821219D01*
X159417147Y-114762458D01*
X158679605Y-115500000D01*
X159417147Y-116237542D01*
X159650328Y-116178781D01*
X159659457Y-116152703D01*
X159901043Y-116394711D01*
X160154752Y-116500060D01*
X159902606Y-116604245D01*
X159605289Y-116901043D01*
X159499940Y-117154752D01*
X159395755Y-116902606D01*
X159154116Y-116660545D01*
X159178781Y-116650328D01*
X159237542Y-116417147D01*
X158500000Y-115679605D01*
X157762458Y-116417147D01*
X157821219Y-116650328D01*
X157847297Y-116659457D01*
X157660545Y-116845884D01*
X157650328Y-116821219D01*
X157417147Y-116762458D01*
X156679605Y-117500000D01*
X157417147Y-118237542D01*
X157650328Y-118178781D01*
X157659457Y-118152703D01*
X157845884Y-118339455D01*
X157821219Y-118349672D01*
X157762458Y-118582853D01*
X158500000Y-119320395D01*
X159237542Y-118582853D01*
X159178781Y-118349672D01*
X159152703Y-118340543D01*
X159394711Y-118098957D01*
X159500060Y-117845248D01*
X159604245Y-118097394D01*
X159901043Y-118394711D01*
X160154752Y-118500060D01*
X159902606Y-118604245D01*
X159660545Y-118845884D01*
X159650328Y-118821219D01*
X159417147Y-118762458D01*
X158679605Y-119500000D01*
X159417147Y-120237542D01*
X159650328Y-120178781D01*
X159659457Y-120152703D01*
X159901043Y-120394711D01*
X160154752Y-120500060D01*
X159902606Y-120604245D01*
X159605289Y-120901043D01*
X159499940Y-121154752D01*
X159395755Y-120902606D01*
X159154116Y-120660545D01*
X159178781Y-120650328D01*
X159237542Y-120417147D01*
X158500000Y-119679605D01*
X157762458Y-120417147D01*
X157821219Y-120650328D01*
X157847297Y-120659457D01*
X157605289Y-120901043D01*
X157499940Y-121154752D01*
X157395755Y-120902606D01*
X157098957Y-120605289D01*
X156845248Y-120499940D01*
X157097394Y-120395755D01*
X157339455Y-120154116D01*
X157349672Y-120178781D01*
X157582853Y-120237542D01*
X158320395Y-119500000D01*
X157582853Y-118762458D01*
X157349672Y-118821219D01*
X157340543Y-118847297D01*
X157154116Y-118660545D01*
X157178781Y-118650328D01*
X157237542Y-118417147D01*
X156500000Y-117679605D01*
X155762458Y-118417147D01*
X155821219Y-118650328D01*
X155847297Y-118659457D01*
X155605289Y-118901043D01*
X155444184Y-119289027D01*
X155443817Y-119709130D01*
X155604245Y-120097394D01*
X155901043Y-120394711D01*
X156154752Y-120500060D01*
X155902606Y-120604245D01*
X155605289Y-120901043D01*
X155444184Y-121289027D01*
X155443817Y-121709130D01*
X155604245Y-122097394D01*
X155845884Y-122339455D01*
X155821219Y-122349672D01*
X155762458Y-122582853D01*
X156500000Y-123320395D01*
X157237542Y-122582853D01*
X157178781Y-122349672D01*
X157152703Y-122340543D01*
X157394711Y-122098957D01*
X157500060Y-121845248D01*
X157604245Y-122097394D01*
X157901043Y-122394711D01*
X158154752Y-122500060D01*
X157902606Y-122604245D01*
X157660545Y-122845884D01*
X157650328Y-122821219D01*
X157417147Y-122762458D01*
X156679605Y-123500000D01*
X157417147Y-124237542D01*
X157650328Y-124178781D01*
X157659457Y-124152703D01*
X157845884Y-124339455D01*
X157821219Y-124349672D01*
X157762458Y-124582853D01*
X158500000Y-125320395D01*
X159237542Y-124582853D01*
X159178781Y-124349672D01*
X159152703Y-124340543D01*
X159394711Y-124098957D01*
X159500060Y-123845248D01*
X159604245Y-124097394D01*
X159901043Y-124394711D01*
X160154752Y-124500060D01*
X159902606Y-124604245D01*
X159660545Y-124845884D01*
X159650328Y-124821219D01*
X159417147Y-124762458D01*
X158679605Y-125500000D01*
X158693748Y-125514143D01*
X158514143Y-125693748D01*
X158500000Y-125679605D01*
X157762458Y-126417147D01*
X157821219Y-126650328D01*
X157847297Y-126659457D01*
X157605289Y-126901043D01*
X157499940Y-127154752D01*
X157395755Y-126902606D01*
X157098957Y-126605289D01*
X156845248Y-126499940D01*
X157097394Y-126395755D01*
X157339455Y-126154116D01*
X157349672Y-126178781D01*
X157582853Y-126237542D01*
X158320395Y-125500000D01*
X157582853Y-124762458D01*
X157349672Y-124821219D01*
X157340543Y-124847297D01*
X157154116Y-124660545D01*
X157178781Y-124650328D01*
X157237542Y-124417147D01*
X156500000Y-123679605D01*
X155762458Y-124417147D01*
X155821219Y-124650328D01*
X155847297Y-124659457D01*
X155605289Y-124901043D01*
X155444184Y-125289027D01*
X155443817Y-125709130D01*
X155604245Y-126097394D01*
X155901043Y-126394711D01*
X156154752Y-126500060D01*
X155902606Y-126604245D01*
X155605289Y-126901043D01*
X155444184Y-127289027D01*
X155443817Y-127709130D01*
X155604245Y-128097394D01*
X155845884Y-128339455D01*
X155821219Y-128349672D01*
X155762458Y-128582853D01*
X156500000Y-129320395D01*
X157237542Y-128582853D01*
X157178781Y-128349672D01*
X157152703Y-128340543D01*
X157394711Y-128098957D01*
X157500060Y-127845248D01*
X157604245Y-128097394D01*
X157901043Y-128394711D01*
X158154752Y-128500060D01*
X157902606Y-128604245D01*
X157660545Y-128845884D01*
X157650328Y-128821219D01*
X157417147Y-128762458D01*
X156679605Y-129500000D01*
X157417147Y-130237542D01*
X157650328Y-130178781D01*
X157659457Y-130152703D01*
X157901043Y-130394711D01*
X158154752Y-130500060D01*
X157902606Y-130604245D01*
X157605289Y-130901043D01*
X157499940Y-131154752D01*
X157395755Y-130902606D01*
X157154116Y-130660545D01*
X157178781Y-130650328D01*
X157237542Y-130417147D01*
X156500000Y-129679605D01*
X155762458Y-130417147D01*
X155821219Y-130650328D01*
X155847297Y-130659457D01*
X155605289Y-130901043D01*
X155444184Y-131289027D01*
X155443817Y-131709130D01*
X155604245Y-132097394D01*
X155901043Y-132394711D01*
X156154752Y-132500060D01*
X155902606Y-132604245D01*
X155605289Y-132901043D01*
X155444184Y-133289027D01*
X155443817Y-133709130D01*
X155604245Y-134097394D01*
X155901043Y-134394711D01*
X156154752Y-134500060D01*
X155902606Y-134604245D01*
X155605289Y-134901043D01*
X155444184Y-135289027D01*
X155443817Y-135709130D01*
X155604245Y-136097394D01*
X155901043Y-136394711D01*
X156154752Y-136500060D01*
X155902606Y-136604245D01*
X155605289Y-136901043D01*
X155444184Y-137289027D01*
X155443817Y-137709130D01*
X155604245Y-138097394D01*
X155901043Y-138394711D01*
X156154752Y-138500060D01*
X155902606Y-138604245D01*
X155605289Y-138901043D01*
X155444184Y-139289027D01*
X155443817Y-139709130D01*
X155604245Y-140097394D01*
X155901043Y-140394711D01*
X156154752Y-140500060D01*
X155902606Y-140604245D01*
X155605289Y-140901043D01*
X155444184Y-141289027D01*
X155443817Y-141709130D01*
X155604245Y-142097394D01*
X155901043Y-142394711D01*
X156154752Y-142500060D01*
X155902606Y-142604245D01*
X155605289Y-142901043D01*
X155444184Y-143289027D01*
X155443980Y-143522806D01*
X155431000Y-143457552D01*
X155431000Y-130199275D01*
X155582853Y-130237542D01*
X156320395Y-129500000D01*
X155582853Y-128762458D01*
X155431000Y-128800725D01*
X155431000Y-124199275D01*
X155582853Y-124237542D01*
X156320395Y-123500000D01*
X155582853Y-122762458D01*
X155431000Y-122800725D01*
X155431000Y-118199275D01*
X155582853Y-118237542D01*
X156320395Y-117500000D01*
X155582853Y-116762458D01*
X155431000Y-116800725D01*
X155431000Y-112199275D01*
X155582853Y-112237542D01*
X156320395Y-111500000D01*
X155582853Y-110762458D01*
X155431000Y-110800725D01*
X155431000Y-106199275D01*
X155582853Y-106237542D01*
X156320395Y-105500000D01*
X155582853Y-104762458D01*
X155431000Y-104800725D01*
X155431000Y-100199275D01*
X155582853Y-100237542D01*
X156320395Y-99500000D01*
X155582853Y-98762458D01*
X155431000Y-98800725D01*
X155431000Y-93542448D01*
X155520173Y-93094144D01*
X155750075Y-92750073D01*
X156094143Y-92520174D01*
X156542448Y-92431000D01*
X164415846Y-92431000D01*
X164319118Y-92663946D01*
X164318882Y-92934865D01*
X164422339Y-93185252D01*
X164613741Y-93376987D01*
X164863946Y-93480882D01*
X165134865Y-93481118D01*
X165377171Y-93381000D01*
X166900000Y-93381000D01*
X167122339Y-93336774D01*
X167310829Y-93210829D01*
X172110829Y-88410829D01*
X172236774Y-88222339D01*
X172281000Y-88000000D01*
X172281000Y-86676595D01*
X172380882Y-86436054D01*
X172381118Y-86165135D01*
X172281000Y-85922829D01*
X172281000Y-84076595D01*
X172380882Y-83836054D01*
X172381118Y-83565135D01*
X172277661Y-83314748D01*
X172086259Y-83123013D01*
X171836054Y-83019118D01*
X171565135Y-83018882D01*
X171314748Y-83122339D01*
X171123013Y-83313741D01*
X171019118Y-83563946D01*
X171018882Y-83834865D01*
X171119000Y-84077171D01*
X171119000Y-85923405D01*
X171019118Y-86163946D01*
X171018882Y-86434865D01*
X171119000Y-86677171D01*
X171119000Y-87759342D01*
X168139629Y-90738713D01*
X168168062Y-90696160D01*
X168232417Y-90540793D01*
X168422718Y-89584084D01*
X168422718Y-89541636D01*
X168431000Y-89500000D01*
X168431000Y-69703787D01*
X173768787Y-69703787D01*
X173955800Y-70156395D01*
X174301784Y-70502983D01*
X174754065Y-70690786D01*
X175243787Y-70691213D01*
X175696395Y-70504200D01*
X176042983Y-70158216D01*
X176230786Y-69705935D01*
X176230787Y-69703787D01*
X176308787Y-69703787D01*
X176495800Y-70156395D01*
X176841784Y-70502983D01*
X177294065Y-70690786D01*
X177783787Y-70691213D01*
X178236395Y-70504200D01*
X178582983Y-70158216D01*
X178770786Y-69705935D01*
X178770787Y-69703787D01*
X178848787Y-69703787D01*
X179035800Y-70156395D01*
X179381784Y-70502983D01*
X179834065Y-70690786D01*
X180323787Y-70691213D01*
X180776395Y-70504200D01*
X181122983Y-70158216D01*
X181310786Y-69705935D01*
X181310787Y-69703787D01*
X181388787Y-69703787D01*
X181575800Y-70156395D01*
X181921784Y-70502983D01*
X182374065Y-70690786D01*
X182863787Y-70691213D01*
X183316395Y-70504200D01*
X183662983Y-70158216D01*
X183850786Y-69705935D01*
X183850787Y-69703787D01*
X183928787Y-69703787D01*
X184115800Y-70156395D01*
X184461784Y-70502983D01*
X184914065Y-70690786D01*
X185403787Y-70691213D01*
X185856395Y-70504200D01*
X186202983Y-70158216D01*
X186390786Y-69705935D01*
X186390787Y-69703787D01*
X186468787Y-69703787D01*
X186655800Y-70156395D01*
X187001784Y-70502983D01*
X187454065Y-70690786D01*
X187943787Y-70691213D01*
X188396395Y-70504200D01*
X188742983Y-70158216D01*
X188930786Y-69705935D01*
X188930787Y-69703787D01*
X189008787Y-69703787D01*
X189195800Y-70156395D01*
X189541784Y-70502983D01*
X189994065Y-70690786D01*
X190483787Y-70691213D01*
X190936395Y-70504200D01*
X191282983Y-70158216D01*
X191470786Y-69705935D01*
X191470787Y-69703787D01*
X191548787Y-69703787D01*
X191735800Y-70156395D01*
X192081784Y-70502983D01*
X192534065Y-70690786D01*
X193023787Y-70691213D01*
X193476395Y-70504200D01*
X193822983Y-70158216D01*
X194010786Y-69705935D01*
X194010787Y-69703787D01*
X194088787Y-69703787D01*
X194275800Y-70156395D01*
X194621784Y-70502983D01*
X195074065Y-70690786D01*
X195563787Y-70691213D01*
X196016395Y-70504200D01*
X196016637Y-70503958D01*
X196995647Y-70503958D01*
X197067852Y-70730000D01*
X196995647Y-70956042D01*
X197860000Y-71820395D01*
X198724353Y-70956042D01*
X198652148Y-70730000D01*
X198724353Y-70503958D01*
X197860000Y-69639605D01*
X196995647Y-70503958D01*
X196016637Y-70503958D01*
X196362983Y-70158216D01*
X196446181Y-69957852D01*
X196564741Y-70244080D01*
X196816042Y-70324353D01*
X197680395Y-69460000D01*
X198039605Y-69460000D01*
X198903958Y-70324353D01*
X199155259Y-70244080D01*
X199356718Y-69688721D01*
X199330315Y-69098542D01*
X199155259Y-68675920D01*
X198903958Y-68595647D01*
X198039605Y-69460000D01*
X197680395Y-69460000D01*
X196816042Y-68595647D01*
X196564741Y-68675920D01*
X196454050Y-68981060D01*
X196364200Y-68763605D01*
X196018216Y-68417017D01*
X196015868Y-68416042D01*
X196995647Y-68416042D01*
X197860000Y-69280395D01*
X198724353Y-68416042D01*
X198644080Y-68164741D01*
X198088721Y-67963282D01*
X197498542Y-67989685D01*
X197075920Y-68164741D01*
X196995647Y-68416042D01*
X196015868Y-68416042D01*
X195565935Y-68229214D01*
X195076213Y-68228787D01*
X194623605Y-68415800D01*
X194277017Y-68761784D01*
X194089214Y-69214065D01*
X194088787Y-69703787D01*
X194010787Y-69703787D01*
X194011213Y-69216213D01*
X193824200Y-68763605D01*
X193478216Y-68417017D01*
X193025935Y-68229214D01*
X192536213Y-68228787D01*
X192083605Y-68415800D01*
X191737017Y-68761784D01*
X191549214Y-69214065D01*
X191548787Y-69703787D01*
X191470787Y-69703787D01*
X191471213Y-69216213D01*
X191284200Y-68763605D01*
X190938216Y-68417017D01*
X190485935Y-68229214D01*
X189996213Y-68228787D01*
X189543605Y-68415800D01*
X189197017Y-68761784D01*
X189009214Y-69214065D01*
X189008787Y-69703787D01*
X188930787Y-69703787D01*
X188931213Y-69216213D01*
X188744200Y-68763605D01*
X188398216Y-68417017D01*
X187945935Y-68229214D01*
X187456213Y-68228787D01*
X187003605Y-68415800D01*
X186657017Y-68761784D01*
X186469214Y-69214065D01*
X186468787Y-69703787D01*
X186390787Y-69703787D01*
X186391213Y-69216213D01*
X186204200Y-68763605D01*
X185858216Y-68417017D01*
X185405935Y-68229214D01*
X184916213Y-68228787D01*
X184463605Y-68415800D01*
X184117017Y-68761784D01*
X183929214Y-69214065D01*
X183928787Y-69703787D01*
X183850787Y-69703787D01*
X183851213Y-69216213D01*
X183664200Y-68763605D01*
X183318216Y-68417017D01*
X182865935Y-68229214D01*
X182376213Y-68228787D01*
X181923605Y-68415800D01*
X181577017Y-68761784D01*
X181389214Y-69214065D01*
X181388787Y-69703787D01*
X181310787Y-69703787D01*
X181311213Y-69216213D01*
X181124200Y-68763605D01*
X180778216Y-68417017D01*
X180325935Y-68229214D01*
X179836213Y-68228787D01*
X179383605Y-68415800D01*
X179037017Y-68761784D01*
X178849214Y-69214065D01*
X178848787Y-69703787D01*
X178770787Y-69703787D01*
X178771213Y-69216213D01*
X178584200Y-68763605D01*
X178238216Y-68417017D01*
X177785935Y-68229214D01*
X177296213Y-68228787D01*
X176843605Y-68415800D01*
X176497017Y-68761784D01*
X176309214Y-69214065D01*
X176308787Y-69703787D01*
X176230787Y-69703787D01*
X176231213Y-69216213D01*
X176044200Y-68763605D01*
X175698216Y-68417017D01*
X175245935Y-68229214D01*
X174756213Y-68228787D01*
X174303605Y-68415800D01*
X173957017Y-68761784D01*
X173769214Y-69214065D01*
X173768787Y-69703787D01*
X168431000Y-69703787D01*
X168431000Y-67042448D01*
X168558233Y-66402803D01*
X168896519Y-65896521D01*
X169402802Y-65558234D01*
X170042452Y-65431000D01*
X202957552Y-65431000D01*
X203597197Y-65558233D01*
G36*
X157604245Y-134097394D02*
X157845884Y-134339455D01*
X157821219Y-134349672D01*
X157762458Y-134582853D01*
X158500000Y-135320395D01*
X158514143Y-135306253D01*
X158693748Y-135485858D01*
X158679605Y-135500000D01*
X159417147Y-136237542D01*
X159650328Y-136178781D01*
X159659457Y-136152703D01*
X159901043Y-136394711D01*
X160154752Y-136500060D01*
X159902606Y-136604245D01*
X159605289Y-136901043D01*
X159499940Y-137154752D01*
X159395755Y-136902606D01*
X159154116Y-136660545D01*
X159178781Y-136650328D01*
X159237542Y-136417147D01*
X158500000Y-135679605D01*
X157762458Y-136417147D01*
X157821219Y-136650328D01*
X157847297Y-136659457D01*
X157605289Y-136901043D01*
X157499940Y-137154752D01*
X157395755Y-136902606D01*
X157098957Y-136605289D01*
X156845248Y-136499940D01*
X157097394Y-136395755D01*
X157339455Y-136154116D01*
X157349672Y-136178781D01*
X157582853Y-136237542D01*
X158320395Y-135500000D01*
X157582853Y-134762458D01*
X157349672Y-134821219D01*
X157340543Y-134847297D01*
X157098957Y-134605289D01*
X156845248Y-134499940D01*
X157097394Y-134395755D01*
X157394711Y-134098957D01*
X157500060Y-133845248D01*
X157604245Y-134097394D01*
X157604245Y-134097394D01*
G37*
X157604245Y-134097394D02*
X157845884Y-134339455D01*
X157821219Y-134349672D01*
X157762458Y-134582853D01*
X158500000Y-135320395D01*
X158514143Y-135306253D01*
X158693748Y-135485858D01*
X158679605Y-135500000D01*
X159417147Y-136237542D01*
X159650328Y-136178781D01*
X159659457Y-136152703D01*
X159901043Y-136394711D01*
X160154752Y-136500060D01*
X159902606Y-136604245D01*
X159605289Y-136901043D01*
X159499940Y-137154752D01*
X159395755Y-136902606D01*
X159154116Y-136660545D01*
X159178781Y-136650328D01*
X159237542Y-136417147D01*
X158500000Y-135679605D01*
X157762458Y-136417147D01*
X157821219Y-136650328D01*
X157847297Y-136659457D01*
X157605289Y-136901043D01*
X157499940Y-137154752D01*
X157395755Y-136902606D01*
X157098957Y-136605289D01*
X156845248Y-136499940D01*
X157097394Y-136395755D01*
X157339455Y-136154116D01*
X157349672Y-136178781D01*
X157582853Y-136237542D01*
X158320395Y-135500000D01*
X157582853Y-134762458D01*
X157349672Y-134821219D01*
X157340543Y-134847297D01*
X157098957Y-134605289D01*
X156845248Y-134499940D01*
X157097394Y-134395755D01*
X157394711Y-134098957D01*
X157500060Y-133845248D01*
X157604245Y-134097394D01*
G36*
X163604245Y-118097394D02*
X163901043Y-118394711D01*
X164154752Y-118500060D01*
X163902606Y-118604245D01*
X163660545Y-118845884D01*
X163650328Y-118821219D01*
X163417147Y-118762458D01*
X162679605Y-119500000D01*
X163417147Y-120237542D01*
X163650328Y-120178781D01*
X163659457Y-120152703D01*
X163901043Y-120394711D01*
X164154752Y-120500060D01*
X163902606Y-120604245D01*
X163605289Y-120901043D01*
X163499940Y-121154752D01*
X163395755Y-120902606D01*
X163154116Y-120660545D01*
X163178781Y-120650328D01*
X163237542Y-120417147D01*
X162500000Y-119679605D01*
X161762458Y-120417147D01*
X161821219Y-120650328D01*
X161847297Y-120659457D01*
X161605289Y-120901043D01*
X161499940Y-121154752D01*
X161395755Y-120902606D01*
X161098957Y-120605289D01*
X160845248Y-120499940D01*
X161097394Y-120395755D01*
X161339455Y-120154116D01*
X161349672Y-120178781D01*
X161582853Y-120237542D01*
X162320395Y-119500000D01*
X161582853Y-118762458D01*
X161349672Y-118821219D01*
X161340543Y-118847297D01*
X161098957Y-118605289D01*
X160845248Y-118499940D01*
X161097394Y-118395755D01*
X161394711Y-118098957D01*
X161500060Y-117845248D01*
X161604245Y-118097394D01*
X161845884Y-118339455D01*
X161821219Y-118349672D01*
X161762458Y-118582853D01*
X162500000Y-119320395D01*
X163237542Y-118582853D01*
X163178781Y-118349672D01*
X163152703Y-118340543D01*
X163394711Y-118098957D01*
X163500060Y-117845248D01*
X163604245Y-118097394D01*
X163604245Y-118097394D01*
G37*
X163604245Y-118097394D02*
X163901043Y-118394711D01*
X164154752Y-118500060D01*
X163902606Y-118604245D01*
X163660545Y-118845884D01*
X163650328Y-118821219D01*
X163417147Y-118762458D01*
X162679605Y-119500000D01*
X163417147Y-120237542D01*
X163650328Y-120178781D01*
X163659457Y-120152703D01*
X163901043Y-120394711D01*
X164154752Y-120500060D01*
X163902606Y-120604245D01*
X163605289Y-120901043D01*
X163499940Y-121154752D01*
X163395755Y-120902606D01*
X163154116Y-120660545D01*
X163178781Y-120650328D01*
X163237542Y-120417147D01*
X162500000Y-119679605D01*
X161762458Y-120417147D01*
X161821219Y-120650328D01*
X161847297Y-120659457D01*
X161605289Y-120901043D01*
X161499940Y-121154752D01*
X161395755Y-120902606D01*
X161098957Y-120605289D01*
X160845248Y-120499940D01*
X161097394Y-120395755D01*
X161339455Y-120154116D01*
X161349672Y-120178781D01*
X161582853Y-120237542D01*
X162320395Y-119500000D01*
X161582853Y-118762458D01*
X161349672Y-118821219D01*
X161340543Y-118847297D01*
X161098957Y-118605289D01*
X160845248Y-118499940D01*
X161097394Y-118395755D01*
X161394711Y-118098957D01*
X161500060Y-117845248D01*
X161604245Y-118097394D01*
X161845884Y-118339455D01*
X161821219Y-118349672D01*
X161762458Y-118582853D01*
X162500000Y-119320395D01*
X163237542Y-118582853D01*
X163178781Y-118349672D01*
X163152703Y-118340543D01*
X163394711Y-118098957D01*
X163500060Y-117845248D01*
X163604245Y-118097394D01*
G36*
X164693748Y-109485858D02*
X164679605Y-109500000D01*
X164693748Y-109514143D01*
X164514143Y-109693748D01*
X164500000Y-109679605D01*
X164485858Y-109693748D01*
X164306253Y-109514143D01*
X164320395Y-109500000D01*
X164306253Y-109485858D01*
X164485858Y-109306253D01*
X164500000Y-109320395D01*
X164514143Y-109306253D01*
X164693748Y-109485858D01*
X164693748Y-109485858D01*
G37*
X164693748Y-109485858D02*
X164679605Y-109500000D01*
X164693748Y-109514143D01*
X164514143Y-109693748D01*
X164500000Y-109679605D01*
X164485858Y-109693748D01*
X164306253Y-109514143D01*
X164320395Y-109500000D01*
X164306253Y-109485858D01*
X164485858Y-109306253D01*
X164500000Y-109320395D01*
X164514143Y-109306253D01*
X164693748Y-109485858D01*
G36*
X161286673Y-96534699D02*
X161465302Y-96713327D01*
X161697136Y-96809356D01*
X161605289Y-96901043D01*
X161499940Y-97154752D01*
X161395755Y-96902606D01*
X161098957Y-96605289D01*
X160845248Y-96499940D01*
X161097394Y-96395755D01*
X161190586Y-96302725D01*
X161286673Y-96534699D01*
X161286673Y-96534699D01*
G37*
X161286673Y-96534699D02*
X161465302Y-96713327D01*
X161697136Y-96809356D01*
X161605289Y-96901043D01*
X161499940Y-97154752D01*
X161395755Y-96902606D01*
X161098957Y-96605289D01*
X160845248Y-96499940D01*
X161097394Y-96395755D01*
X161190586Y-96302725D01*
X161286673Y-96534699D01*
G36*
X162627000Y-95373000D02*
X162647000Y-95373000D01*
X162647000Y-95627000D01*
X162627000Y-95627000D01*
X162627000Y-95647000D01*
X162373000Y-95647000D01*
X162373000Y-95627000D01*
X162353000Y-95627000D01*
X162353000Y-95373000D01*
X162373000Y-95373000D01*
X162373000Y-95353000D01*
X162627000Y-95353000D01*
X162627000Y-95373000D01*
X162627000Y-95373000D01*
G37*
X162627000Y-95373000D02*
X162647000Y-95373000D01*
X162647000Y-95627000D01*
X162627000Y-95627000D01*
X162627000Y-95647000D01*
X162373000Y-95647000D01*
X162373000Y-95627000D01*
X162353000Y-95627000D01*
X162353000Y-95373000D01*
X162373000Y-95373000D01*
X162373000Y-95353000D01*
X162627000Y-95353000D01*
X162627000Y-95373000D01*
M02*
