G04 #@! TF.FileFunction,Legend,Top*
%FSLAX46Y46*%
G04 Gerber Fmt 4.6, Leading zero omitted, Abs format (unit mm)*
G04 Created by KiCad (PCBNEW 4.0.4-stable) date 12/01/16 01:31:52*
%MOMM*%
%LPD*%
G01*
G04 APERTURE LIST*
%ADD10C,0.100000*%
%ADD11C,0.200000*%
%ADD12C,0.150000*%
%ADD13R,0.450000X1.750000*%
%ADD14R,1.350000X1.350000*%
%ADD15C,1.350000*%
%ADD16R,0.800000X0.750000*%
%ADD17R,0.750000X0.800000*%
%ADD18R,0.797560X0.797560*%
%ADD19R,2.235200X2.235200*%
%ADD20R,2.032000X2.032000*%
%ADD21O,2.032000X2.032000*%
%ADD22R,2.032000X1.727200*%
%ADD23O,2.032000X1.727200*%
%ADD24R,0.500000X0.900000*%
%ADD25R,0.900000X0.500000*%
%ADD26R,1.450000X0.450000*%
%ADD27R,0.400000X1.100000*%
%ADD28R,1.750000X1.750000*%
%ADD29C,1.750000*%
%ADD30R,2.500000X2.500000*%
%ADD31C,2.500000*%
%ADD32C,1.501140*%
%ADD33R,1.700000X1.700000*%
%ADD34C,1.700000*%
G04 APERTURE END LIST*
D10*
D11*
X170185715Y-113078571D02*
X171114286Y-113078571D01*
X170614286Y-113650000D01*
X170828572Y-113650000D01*
X170971429Y-113721429D01*
X171042858Y-113792857D01*
X171114286Y-113935714D01*
X171114286Y-114292857D01*
X171042858Y-114435714D01*
X170971429Y-114507143D01*
X170828572Y-114578571D01*
X170400000Y-114578571D01*
X170257143Y-114507143D01*
X170185715Y-114435714D01*
X171757143Y-114435714D02*
X171828571Y-114507143D01*
X171757143Y-114578571D01*
X171685714Y-114507143D01*
X171757143Y-114435714D01*
X171757143Y-114578571D01*
X172328572Y-113078571D02*
X173257143Y-113078571D01*
X172757143Y-113650000D01*
X172971429Y-113650000D01*
X173114286Y-113721429D01*
X173185715Y-113792857D01*
X173257143Y-113935714D01*
X173257143Y-114292857D01*
X173185715Y-114435714D01*
X173114286Y-114507143D01*
X172971429Y-114578571D01*
X172542857Y-114578571D01*
X172400000Y-114507143D01*
X172328572Y-114435714D01*
X173685714Y-113078571D02*
X174185714Y-114578571D01*
X174685714Y-113078571D01*
X184414287Y-112778571D02*
X183700001Y-112778571D01*
X183628572Y-113492857D01*
X183700001Y-113421429D01*
X183842858Y-113350000D01*
X184200001Y-113350000D01*
X184342858Y-113421429D01*
X184414287Y-113492857D01*
X184485715Y-113635714D01*
X184485715Y-113992857D01*
X184414287Y-114135714D01*
X184342858Y-114207143D01*
X184200001Y-114278571D01*
X183842858Y-114278571D01*
X183700001Y-114207143D01*
X183628572Y-114135714D01*
X184914286Y-112778571D02*
X185414286Y-114278571D01*
X185914286Y-112778571D01*
X170878571Y-122428571D02*
X170878571Y-123285714D01*
X170878571Y-122857142D02*
X169378571Y-122857142D01*
X169592857Y-122999999D01*
X169735714Y-123142857D01*
X169807143Y-123285714D01*
X169521429Y-121857143D02*
X169450000Y-121785714D01*
X169378571Y-121642857D01*
X169378571Y-121285714D01*
X169450000Y-121142857D01*
X169521429Y-121071428D01*
X169664286Y-121000000D01*
X169807143Y-121000000D01*
X170021429Y-121071428D01*
X170878571Y-121928571D01*
X170878571Y-121000000D01*
X169378571Y-120571429D02*
X170878571Y-120071429D01*
X169378571Y-119571429D01*
X171678571Y-91485714D02*
X171678571Y-92342857D01*
X171678571Y-91914285D02*
X170178571Y-91914285D01*
X170392857Y-92057142D01*
X170535714Y-92200000D01*
X170607143Y-92342857D01*
X171535714Y-90842857D02*
X171607143Y-90771429D01*
X171678571Y-90842857D01*
X171607143Y-90914286D01*
X171535714Y-90842857D01*
X171678571Y-90842857D01*
X170821429Y-89914285D02*
X170750000Y-90057143D01*
X170678571Y-90128571D01*
X170535714Y-90200000D01*
X170464286Y-90200000D01*
X170321429Y-90128571D01*
X170250000Y-90057143D01*
X170178571Y-89914285D01*
X170178571Y-89628571D01*
X170250000Y-89485714D01*
X170321429Y-89414285D01*
X170464286Y-89342857D01*
X170535714Y-89342857D01*
X170678571Y-89414285D01*
X170750000Y-89485714D01*
X170821429Y-89628571D01*
X170821429Y-89914285D01*
X170892857Y-90057143D01*
X170964286Y-90128571D01*
X171107143Y-90200000D01*
X171392857Y-90200000D01*
X171535714Y-90128571D01*
X171607143Y-90057143D01*
X171678571Y-89914285D01*
X171678571Y-89628571D01*
X171607143Y-89485714D01*
X171535714Y-89414285D01*
X171392857Y-89342857D01*
X171107143Y-89342857D01*
X170964286Y-89414285D01*
X170892857Y-89485714D01*
X170821429Y-89628571D01*
X170178571Y-88914286D02*
X171678571Y-88414286D01*
X170178571Y-87914286D01*
X190792857Y-100350000D02*
X190650000Y-100278571D01*
X190435714Y-100278571D01*
X190221429Y-100350000D01*
X190078571Y-100492857D01*
X190007143Y-100635714D01*
X189935714Y-100921429D01*
X189935714Y-101135714D01*
X190007143Y-101421429D01*
X190078571Y-101564286D01*
X190221429Y-101707143D01*
X190435714Y-101778571D01*
X190578571Y-101778571D01*
X190792857Y-101707143D01*
X190864286Y-101635714D01*
X190864286Y-101135714D01*
X190578571Y-101135714D01*
X190764286Y-99178571D02*
X190050000Y-99178571D01*
X190050000Y-97678571D01*
X189971429Y-96678571D02*
X189971429Y-95178571D01*
X189971429Y-95892857D02*
X190828572Y-95892857D01*
X190828572Y-96678571D02*
X190828572Y-95178571D01*
X193678571Y-106700000D02*
X195178571Y-106200000D01*
X193678571Y-105700000D01*
X195178571Y-105200000D02*
X193678571Y-105200000D01*
X193678571Y-104842857D01*
X193750000Y-104628572D01*
X193892857Y-104485714D01*
X194035714Y-104414286D01*
X194321429Y-104342857D01*
X194535714Y-104342857D01*
X194821429Y-104414286D01*
X194964286Y-104485714D01*
X195107143Y-104628572D01*
X195178571Y-104842857D01*
X195178571Y-105200000D01*
X195178571Y-103700000D02*
X193678571Y-103700000D01*
X193678571Y-103342857D01*
X193750000Y-103128572D01*
X193892857Y-102985714D01*
X194035714Y-102914286D01*
X194321429Y-102842857D01*
X194535714Y-102842857D01*
X194821429Y-102914286D01*
X194964286Y-102985714D01*
X195107143Y-103128572D01*
X195178571Y-103342857D01*
X195178571Y-103700000D01*
X185178571Y-141892857D02*
X183678571Y-141892857D01*
X183678571Y-141321429D01*
X183750000Y-141178571D01*
X183821429Y-141107143D01*
X183964286Y-141035714D01*
X184178571Y-141035714D01*
X184321429Y-141107143D01*
X184392857Y-141178571D01*
X184464286Y-141321429D01*
X184464286Y-141892857D01*
X183678571Y-140392857D02*
X184892857Y-140392857D01*
X185035714Y-140321429D01*
X185107143Y-140250000D01*
X185178571Y-140107143D01*
X185178571Y-139821429D01*
X185107143Y-139678571D01*
X185035714Y-139607143D01*
X184892857Y-139535714D01*
X183678571Y-139535714D01*
X183678571Y-138178571D02*
X183678571Y-138464285D01*
X183750000Y-138607142D01*
X183821429Y-138678571D01*
X184035714Y-138821428D01*
X184321429Y-138892857D01*
X184892857Y-138892857D01*
X185035714Y-138821428D01*
X185107143Y-138750000D01*
X185178571Y-138607142D01*
X185178571Y-138321428D01*
X185107143Y-138178571D01*
X185035714Y-138107142D01*
X184892857Y-138035714D01*
X184535714Y-138035714D01*
X184392857Y-138107142D01*
X184321429Y-138178571D01*
X184250000Y-138321428D01*
X184250000Y-138607142D01*
X184321429Y-138750000D01*
X184392857Y-138821428D01*
X184535714Y-138892857D01*
X190178571Y-141892857D02*
X188678571Y-141892857D01*
X188678571Y-141321429D01*
X188750000Y-141178571D01*
X188821429Y-141107143D01*
X188964286Y-141035714D01*
X189178571Y-141035714D01*
X189321429Y-141107143D01*
X189392857Y-141178571D01*
X189464286Y-141321429D01*
X189464286Y-141892857D01*
X188678571Y-140392857D02*
X189892857Y-140392857D01*
X190035714Y-140321429D01*
X190107143Y-140250000D01*
X190178571Y-140107143D01*
X190178571Y-139821429D01*
X190107143Y-139678571D01*
X190035714Y-139607143D01*
X189892857Y-139535714D01*
X188678571Y-139535714D01*
X189178571Y-138178571D02*
X190178571Y-138178571D01*
X188607143Y-138535714D02*
X189678571Y-138892857D01*
X189678571Y-137964285D01*
X195178571Y-141892857D02*
X193678571Y-141892857D01*
X193678571Y-141321429D01*
X193750000Y-141178571D01*
X193821429Y-141107143D01*
X193964286Y-141035714D01*
X194178571Y-141035714D01*
X194321429Y-141107143D01*
X194392857Y-141178571D01*
X194464286Y-141321429D01*
X194464286Y-141892857D01*
X193678571Y-140392857D02*
X194892857Y-140392857D01*
X195035714Y-140321429D01*
X195107143Y-140250000D01*
X195178571Y-140107143D01*
X195178571Y-139821429D01*
X195107143Y-139678571D01*
X195035714Y-139607143D01*
X194892857Y-139535714D01*
X193678571Y-139535714D01*
X193821429Y-138892857D02*
X193750000Y-138821428D01*
X193678571Y-138678571D01*
X193678571Y-138321428D01*
X193750000Y-138178571D01*
X193821429Y-138107142D01*
X193964286Y-138035714D01*
X194107143Y-138035714D01*
X194321429Y-138107142D01*
X195178571Y-138964285D01*
X195178571Y-138035714D01*
X200178571Y-141892857D02*
X198678571Y-141892857D01*
X198678571Y-141321429D01*
X198750000Y-141178571D01*
X198821429Y-141107143D01*
X198964286Y-141035714D01*
X199178571Y-141035714D01*
X199321429Y-141107143D01*
X199392857Y-141178571D01*
X199464286Y-141321429D01*
X199464286Y-141892857D01*
X198678571Y-140392857D02*
X199892857Y-140392857D01*
X200035714Y-140321429D01*
X200107143Y-140250000D01*
X200178571Y-140107143D01*
X200178571Y-139821429D01*
X200107143Y-139678571D01*
X200035714Y-139607143D01*
X199892857Y-139535714D01*
X198678571Y-139535714D01*
X198678571Y-138535714D02*
X198678571Y-138392857D01*
X198750000Y-138250000D01*
X198821429Y-138178571D01*
X198964286Y-138107142D01*
X199250000Y-138035714D01*
X199607143Y-138035714D01*
X199892857Y-138107142D01*
X200035714Y-138178571D01*
X200107143Y-138250000D01*
X200178571Y-138392857D01*
X200178571Y-138535714D01*
X200107143Y-138678571D01*
X200035714Y-138750000D01*
X199892857Y-138821428D01*
X199607143Y-138892857D01*
X199250000Y-138892857D01*
X198964286Y-138821428D01*
X198821429Y-138750000D01*
X198750000Y-138678571D01*
X198678571Y-138535714D01*
X197678571Y-141892857D02*
X196178571Y-141892857D01*
X196178571Y-141321429D01*
X196250000Y-141178571D01*
X196321429Y-141107143D01*
X196464286Y-141035714D01*
X196678571Y-141035714D01*
X196821429Y-141107143D01*
X196892857Y-141178571D01*
X196964286Y-141321429D01*
X196964286Y-141892857D01*
X196178571Y-140392857D02*
X197392857Y-140392857D01*
X197535714Y-140321429D01*
X197607143Y-140250000D01*
X197678571Y-140107143D01*
X197678571Y-139821429D01*
X197607143Y-139678571D01*
X197535714Y-139607143D01*
X197392857Y-139535714D01*
X196178571Y-139535714D01*
X197678571Y-138035714D02*
X197678571Y-138892857D01*
X197678571Y-138464285D02*
X196178571Y-138464285D01*
X196392857Y-138607142D01*
X196535714Y-138750000D01*
X196607143Y-138892857D01*
X192678571Y-141892857D02*
X191178571Y-141892857D01*
X191178571Y-141321429D01*
X191250000Y-141178571D01*
X191321429Y-141107143D01*
X191464286Y-141035714D01*
X191678571Y-141035714D01*
X191821429Y-141107143D01*
X191892857Y-141178571D01*
X191964286Y-141321429D01*
X191964286Y-141892857D01*
X191178571Y-140392857D02*
X192392857Y-140392857D01*
X192535714Y-140321429D01*
X192607143Y-140250000D01*
X192678571Y-140107143D01*
X192678571Y-139821429D01*
X192607143Y-139678571D01*
X192535714Y-139607143D01*
X192392857Y-139535714D01*
X191178571Y-139535714D01*
X191178571Y-138964285D02*
X191178571Y-138035714D01*
X191750000Y-138535714D01*
X191750000Y-138321428D01*
X191821429Y-138178571D01*
X191892857Y-138107142D01*
X192035714Y-138035714D01*
X192392857Y-138035714D01*
X192535714Y-138107142D01*
X192607143Y-138178571D01*
X192678571Y-138321428D01*
X192678571Y-138750000D01*
X192607143Y-138892857D01*
X192535714Y-138964285D01*
X187678571Y-141892857D02*
X186178571Y-141892857D01*
X186178571Y-141321429D01*
X186250000Y-141178571D01*
X186321429Y-141107143D01*
X186464286Y-141035714D01*
X186678571Y-141035714D01*
X186821429Y-141107143D01*
X186892857Y-141178571D01*
X186964286Y-141321429D01*
X186964286Y-141892857D01*
X186178571Y-140392857D02*
X187392857Y-140392857D01*
X187535714Y-140321429D01*
X187607143Y-140250000D01*
X187678571Y-140107143D01*
X187678571Y-139821429D01*
X187607143Y-139678571D01*
X187535714Y-139607143D01*
X187392857Y-139535714D01*
X186178571Y-139535714D01*
X186178571Y-138107142D02*
X186178571Y-138821428D01*
X186892857Y-138892857D01*
X186821429Y-138821428D01*
X186750000Y-138678571D01*
X186750000Y-138321428D01*
X186821429Y-138178571D01*
X186892857Y-138107142D01*
X187035714Y-138035714D01*
X187392857Y-138035714D01*
X187535714Y-138107142D01*
X187607143Y-138178571D01*
X187678571Y-138321428D01*
X187678571Y-138678571D01*
X187607143Y-138821428D01*
X187535714Y-138892857D01*
X182678571Y-141892857D02*
X181178571Y-141892857D01*
X181178571Y-141321429D01*
X181250000Y-141178571D01*
X181321429Y-141107143D01*
X181464286Y-141035714D01*
X181678571Y-141035714D01*
X181821429Y-141107143D01*
X181892857Y-141178571D01*
X181964286Y-141321429D01*
X181964286Y-141892857D01*
X182678571Y-140392857D02*
X181178571Y-140392857D01*
X181892857Y-140392857D02*
X181892857Y-139535714D01*
X182678571Y-139535714D02*
X181178571Y-139535714D01*
X182678571Y-138035714D02*
X182678571Y-138892857D01*
X182678571Y-138464285D02*
X181178571Y-138464285D01*
X181392857Y-138607142D01*
X181535714Y-138750000D01*
X181607143Y-138892857D01*
X178750000Y-141142857D02*
X178678571Y-141285714D01*
X178678571Y-141500000D01*
X178750000Y-141714285D01*
X178892857Y-141857143D01*
X179035714Y-141928571D01*
X179321429Y-142000000D01*
X179535714Y-142000000D01*
X179821429Y-141928571D01*
X179964286Y-141857143D01*
X180107143Y-141714285D01*
X180178571Y-141500000D01*
X180178571Y-141357143D01*
X180107143Y-141142857D01*
X180035714Y-141071428D01*
X179535714Y-141071428D01*
X179535714Y-141357143D01*
X180178571Y-140428571D02*
X178678571Y-140428571D01*
X180178571Y-139571428D01*
X178678571Y-139571428D01*
X180178571Y-138857142D02*
X178678571Y-138857142D01*
X178678571Y-138499999D01*
X178750000Y-138285714D01*
X178892857Y-138142856D01*
X179035714Y-138071428D01*
X179321429Y-137999999D01*
X179535714Y-137999999D01*
X179821429Y-138071428D01*
X179964286Y-138142856D01*
X180107143Y-138285714D01*
X180178571Y-138499999D01*
X180178571Y-138857142D01*
X201178571Y-142000000D02*
X202678571Y-141500000D01*
X201178571Y-141000000D01*
X202678571Y-140500000D02*
X201178571Y-140500000D01*
X201178571Y-140142857D01*
X201250000Y-139928572D01*
X201392857Y-139785714D01*
X201535714Y-139714286D01*
X201821429Y-139642857D01*
X202035714Y-139642857D01*
X202321429Y-139714286D01*
X202464286Y-139785714D01*
X202607143Y-139928572D01*
X202678571Y-140142857D01*
X202678571Y-140500000D01*
X202678571Y-139000000D02*
X201178571Y-139000000D01*
X201178571Y-138642857D01*
X201250000Y-138428572D01*
X201392857Y-138285714D01*
X201535714Y-138214286D01*
X201821429Y-138142857D01*
X202035714Y-138142857D01*
X202321429Y-138214286D01*
X202464286Y-138285714D01*
X202607143Y-138428572D01*
X202678571Y-138642857D01*
X202678571Y-139000000D01*
X194500000Y-131000000D02*
X194500000Y-132100000D01*
X194500000Y-129500000D02*
X194500000Y-129600000D01*
X194500000Y-128700000D02*
X194500000Y-128900000D01*
X194500000Y-126800000D02*
X194500000Y-128200000D01*
X194500000Y-123500000D02*
X194500000Y-124600000D01*
X194500000Y-122000000D02*
X194500000Y-122100000D01*
X194500000Y-121200000D02*
X194500000Y-121400000D01*
X194500000Y-119300000D02*
X194500000Y-120700000D01*
X194500000Y-116000000D02*
X194500000Y-117100000D01*
X194500000Y-114500000D02*
X194500000Y-114600000D01*
X194500000Y-113700000D02*
X194500000Y-113900000D01*
X194500000Y-111800000D02*
X194500000Y-113200000D01*
X197000000Y-131800000D02*
X197000000Y-132100000D01*
X197000000Y-131000000D02*
X197000000Y-131200000D01*
X197000000Y-129500000D02*
X197000000Y-130500000D01*
X197000000Y-128700000D02*
X197000000Y-128900000D01*
X197000000Y-126800000D02*
X197000000Y-128200000D01*
X197000000Y-124300000D02*
X197000000Y-124600000D01*
X197000000Y-123500000D02*
X197000000Y-123700000D01*
X197000000Y-122000000D02*
X197000000Y-123000000D01*
X197000000Y-121200000D02*
X197000000Y-121400000D01*
X197000000Y-119300000D02*
X197000000Y-120700000D01*
X197000000Y-116800000D02*
X197000000Y-117100000D01*
X197000000Y-116000000D02*
X197000000Y-116200000D01*
X197000000Y-114500000D02*
X197000000Y-115500000D01*
X197000000Y-113700000D02*
X197000000Y-113900000D01*
X197000000Y-111800000D02*
X197000000Y-113200000D01*
X199500000Y-131800000D02*
X199500000Y-132100000D01*
X199500000Y-131000000D02*
X199500000Y-131200000D01*
X199500000Y-129500000D02*
X199500000Y-130500000D01*
X199500000Y-128700000D02*
X199500000Y-128900000D01*
X199500000Y-126800000D02*
X199500000Y-128200000D01*
X199500000Y-124300000D02*
X199500000Y-124600000D01*
X199500000Y-123500000D02*
X199500000Y-123700000D01*
X199500000Y-122000000D02*
X199500000Y-123000000D01*
X199500000Y-121200000D02*
X199500000Y-121400000D01*
X199500000Y-119300000D02*
X199500000Y-120700000D01*
X199500000Y-116800000D02*
X199500000Y-117100000D01*
X199500000Y-116000000D02*
X199500000Y-116200000D01*
X199500000Y-114500000D02*
X199500000Y-115500000D01*
X199500000Y-113700000D02*
X199500000Y-113900000D01*
X199500000Y-111800000D02*
X199500000Y-113200000D01*
X202000000Y-131000000D02*
X202000000Y-132100000D01*
X202000000Y-129500000D02*
X202000000Y-130500000D01*
X202000000Y-128700000D02*
X202000000Y-128900000D01*
X202000000Y-126800000D02*
X202000000Y-128200000D01*
X202000000Y-123500000D02*
X202000000Y-124600000D01*
X202000000Y-122000000D02*
X202000000Y-123000000D01*
X202000000Y-121200000D02*
X202000000Y-121400000D01*
X202000000Y-119300000D02*
X202000000Y-120700000D01*
X202000000Y-116100000D02*
X202000000Y-117100000D01*
X202000000Y-114500000D02*
X202000000Y-115500000D01*
X202000000Y-113700000D02*
X202000000Y-113900000D01*
X202000000Y-111800000D02*
X202000000Y-113200000D01*
X194500000Y-109600000D02*
X194500000Y-108500000D01*
X197000000Y-108000000D02*
X197000000Y-107400000D01*
X197000000Y-108800000D02*
X197000000Y-108500000D01*
X197000000Y-109600000D02*
X197000000Y-109300000D01*
X199500000Y-108000000D02*
X199500000Y-106800000D01*
X199500000Y-108800000D02*
X199500000Y-108500000D01*
X199500000Y-109600000D02*
X199500000Y-109300000D01*
X202000000Y-108000000D02*
X202000000Y-106800000D01*
X202000000Y-108500000D02*
X202000000Y-109600000D01*
X197607143Y-106485714D02*
X197678571Y-106271428D01*
X197678571Y-105914285D01*
X197607143Y-105771428D01*
X197535714Y-105699999D01*
X197392857Y-105628571D01*
X197250000Y-105628571D01*
X197107143Y-105699999D01*
X197035714Y-105771428D01*
X196964286Y-105914285D01*
X196892857Y-106199999D01*
X196821429Y-106342857D01*
X196750000Y-106414285D01*
X196607143Y-106485714D01*
X196464286Y-106485714D01*
X196321429Y-106414285D01*
X196250000Y-106342857D01*
X196178571Y-106199999D01*
X196178571Y-105842857D01*
X196250000Y-105628571D01*
X197535714Y-104128571D02*
X197607143Y-104200000D01*
X197678571Y-104414286D01*
X197678571Y-104557143D01*
X197607143Y-104771428D01*
X197464286Y-104914286D01*
X197321429Y-104985714D01*
X197035714Y-105057143D01*
X196821429Y-105057143D01*
X196535714Y-104985714D01*
X196392857Y-104914286D01*
X196250000Y-104771428D01*
X196178571Y-104557143D01*
X196178571Y-104414286D01*
X196250000Y-104200000D01*
X196321429Y-104128571D01*
X197678571Y-102771428D02*
X197678571Y-103485714D01*
X196178571Y-103485714D01*
X200107143Y-106421428D02*
X200178571Y-106207142D01*
X200178571Y-105849999D01*
X200107143Y-105707142D01*
X200035714Y-105635713D01*
X199892857Y-105564285D01*
X199750000Y-105564285D01*
X199607143Y-105635713D01*
X199535714Y-105707142D01*
X199464286Y-105849999D01*
X199392857Y-106135713D01*
X199321429Y-106278571D01*
X199250000Y-106349999D01*
X199107143Y-106421428D01*
X198964286Y-106421428D01*
X198821429Y-106349999D01*
X198750000Y-106278571D01*
X198678571Y-106135713D01*
X198678571Y-105778571D01*
X198750000Y-105564285D01*
X200178571Y-104921428D02*
X198678571Y-104921428D01*
X198678571Y-104564285D01*
X198750000Y-104350000D01*
X198892857Y-104207142D01*
X199035714Y-104135714D01*
X199321429Y-104064285D01*
X199535714Y-104064285D01*
X199821429Y-104135714D01*
X199964286Y-104207142D01*
X200107143Y-104350000D01*
X200178571Y-104564285D01*
X200178571Y-104921428D01*
X199750000Y-103492857D02*
X199750000Y-102778571D01*
X200178571Y-103635714D02*
X198678571Y-103135714D01*
X200178571Y-102635714D01*
X201150000Y-105642857D02*
X201078571Y-105785714D01*
X201078571Y-106000000D01*
X201150000Y-106214285D01*
X201292857Y-106357143D01*
X201435714Y-106428571D01*
X201721429Y-106500000D01*
X201935714Y-106500000D01*
X202221429Y-106428571D01*
X202364286Y-106357143D01*
X202507143Y-106214285D01*
X202578571Y-106000000D01*
X202578571Y-105857143D01*
X202507143Y-105642857D01*
X202435714Y-105571428D01*
X201935714Y-105571428D01*
X201935714Y-105857143D01*
X202578571Y-104928571D02*
X201078571Y-104928571D01*
X202578571Y-104071428D01*
X201078571Y-104071428D01*
X202578571Y-103357142D02*
X201078571Y-103357142D01*
X201078571Y-102999999D01*
X201150000Y-102785714D01*
X201292857Y-102642856D01*
X201435714Y-102571428D01*
X201721429Y-102499999D01*
X201935714Y-102499999D01*
X202221429Y-102571428D01*
X202364286Y-102642856D01*
X202507143Y-102785714D01*
X202578571Y-102999999D01*
X202578571Y-103357142D01*
D12*
X186525000Y-100275000D02*
X185950000Y-100275000D01*
X186525000Y-106025000D02*
X185875000Y-106025000D01*
X175875000Y-106025000D02*
X176525000Y-106025000D01*
X175875000Y-100275000D02*
X176525000Y-100275000D01*
X186525000Y-100275000D02*
X186525000Y-106025000D01*
X175875000Y-100275000D02*
X175875000Y-106025000D01*
X185950000Y-100275000D02*
X185950000Y-98675000D01*
X161500000Y-96500000D02*
X163500000Y-96500000D01*
X163500000Y-96500000D02*
X163500000Y-94500000D01*
X163500000Y-94500000D02*
X165500000Y-94500000D01*
X165500000Y-94500000D02*
X165500000Y-96500000D01*
X165500000Y-96500000D02*
X165500000Y-144500000D01*
X165500000Y-144500000D02*
X161500000Y-144500000D01*
X161500000Y-144500000D02*
X161500000Y-96500000D01*
X161000000Y-95500000D02*
X161000000Y-94000000D01*
X161000000Y-94000000D02*
X162500000Y-94000000D01*
X172750000Y-97800000D02*
X173450000Y-97800000D01*
X173450000Y-99000000D02*
X172750000Y-99000000D01*
X167987169Y-140866206D02*
X171133794Y-144012831D01*
X171787868Y-134908831D02*
X176012831Y-139133794D01*
X168050000Y-97800000D02*
X168750000Y-97800000D01*
X168750000Y-99000000D02*
X168050000Y-99000000D01*
X174223223Y-136871751D02*
X173728249Y-136376777D01*
X174576777Y-135528249D02*
X175071751Y-136023223D01*
X197000000Y-82850000D02*
X197000000Y-83550000D01*
X195800000Y-83550000D02*
X195800000Y-82850000D01*
X177076777Y-138028249D02*
X177571751Y-138523223D01*
X176723223Y-139371751D02*
X176228249Y-138876777D01*
X180850000Y-108300000D02*
X181550000Y-108300000D01*
X181550000Y-109500000D02*
X180850000Y-109500000D01*
X188200000Y-99550000D02*
X188200000Y-100250000D01*
X187000000Y-100250000D02*
X187000000Y-99550000D01*
X184150000Y-108300000D02*
X184850000Y-108300000D01*
X184850000Y-109500000D02*
X184150000Y-109500000D01*
X179350000Y-93000000D02*
X178650000Y-93000000D01*
X178650000Y-91800000D02*
X179350000Y-91800000D01*
X181650000Y-91800000D02*
X182350000Y-91800000D01*
X182350000Y-93000000D02*
X181650000Y-93000000D01*
X168800000Y-120050000D02*
X166900000Y-120050000D01*
X168800000Y-121150000D02*
X166900000Y-121150000D01*
X167900000Y-120600000D02*
X167450000Y-120600000D01*
X167950000Y-120850000D02*
X167950000Y-120350000D01*
X167950000Y-120600000D02*
X167700000Y-120850000D01*
X167700000Y-120850000D02*
X167700000Y-120350000D01*
X167700000Y-120350000D02*
X167950000Y-120600000D01*
X186550000Y-112300000D02*
X186550000Y-110400000D01*
X185450000Y-112300000D02*
X185450000Y-110400000D01*
X186000000Y-111400000D02*
X186000000Y-110950000D01*
X185750000Y-111450000D02*
X186250000Y-111450000D01*
X186000000Y-111450000D02*
X185750000Y-111200000D01*
X185750000Y-111200000D02*
X186250000Y-111200000D01*
X186250000Y-111200000D02*
X186000000Y-111450000D01*
X171050000Y-110300000D02*
X171050000Y-112200000D01*
X172150000Y-110300000D02*
X172150000Y-112200000D01*
X171600000Y-111200000D02*
X171600000Y-111650000D01*
X171850000Y-111150000D02*
X171350000Y-111150000D01*
X171600000Y-111150000D02*
X171850000Y-111400000D01*
X171850000Y-111400000D02*
X171350000Y-111400000D01*
X171350000Y-111400000D02*
X171600000Y-111150000D01*
X174400000Y-88650000D02*
X172500000Y-88650000D01*
X174400000Y-89750000D02*
X172500000Y-89750000D01*
X173500000Y-89200000D02*
X173050000Y-89200000D01*
X173550000Y-89450000D02*
X173550000Y-88950000D01*
X173550000Y-89200000D02*
X173300000Y-89450000D01*
X173300000Y-89450000D02*
X173300000Y-88950000D01*
X173300000Y-88950000D02*
X173550000Y-89200000D01*
X155500000Y-96500000D02*
X157500000Y-96500000D01*
X157500000Y-96500000D02*
X157500000Y-144500000D01*
X157500000Y-144500000D02*
X155500000Y-144500000D01*
X155500000Y-144500000D02*
X155500000Y-96500000D01*
X155000000Y-95500000D02*
X155000000Y-94000000D01*
X155000000Y-94000000D02*
X156500000Y-94000000D01*
X157500000Y-96500000D02*
X159500000Y-96500000D01*
X159500000Y-96500000D02*
X159500000Y-94500000D01*
X159500000Y-94500000D02*
X161500000Y-94500000D01*
X161500000Y-94500000D02*
X161500000Y-96500000D01*
X161500000Y-96500000D02*
X161500000Y-144500000D01*
X161500000Y-144500000D02*
X157500000Y-144500000D01*
X157500000Y-144500000D02*
X157500000Y-96500000D01*
X157000000Y-95500000D02*
X157000000Y-94000000D01*
X157000000Y-94000000D02*
X158500000Y-94000000D01*
X203250000Y-75950000D02*
X203250000Y-77500000D01*
X200150000Y-77500000D02*
X200150000Y-75950000D01*
X200150000Y-75950000D02*
X203250000Y-75950000D01*
X200430000Y-78770000D02*
X202970000Y-78770000D01*
X197730000Y-91270000D02*
X195190000Y-91270000D01*
X200550000Y-91550000D02*
X199000000Y-91550000D01*
X197730000Y-91270000D02*
X197730000Y-88730000D01*
X199000000Y-88450000D02*
X200550000Y-88450000D01*
X200550000Y-88450000D02*
X200550000Y-91550000D01*
X197730000Y-88730000D02*
X195190000Y-88730000D01*
X195190000Y-88730000D02*
X195190000Y-91270000D01*
X191630000Y-97230000D02*
X191630000Y-102310000D01*
X191630000Y-102310000D02*
X194170000Y-102310000D01*
X194170000Y-102310000D02*
X194170000Y-97230000D01*
X194450000Y-94410000D02*
X194450000Y-95960000D01*
X194170000Y-97230000D02*
X191630000Y-97230000D01*
X191350000Y-95960000D02*
X191350000Y-94410000D01*
X191350000Y-94410000D02*
X194450000Y-94410000D01*
X168400000Y-107975000D02*
X167400000Y-107975000D01*
X167400000Y-106625000D02*
X168400000Y-106625000D01*
X178700000Y-109575000D02*
X177700000Y-109575000D01*
X177700000Y-108225000D02*
X178700000Y-108225000D01*
X188925000Y-114300000D02*
X188925000Y-113300000D01*
X190275000Y-113300000D02*
X190275000Y-114300000D01*
X187125000Y-114300000D02*
X187125000Y-113300000D01*
X188475000Y-113300000D02*
X188475000Y-114300000D01*
X167823744Y-141199480D02*
X168530850Y-141906586D01*
X167576256Y-142861180D02*
X166869150Y-142154074D01*
X188925000Y-119100000D02*
X188925000Y-118100000D01*
X190275000Y-118100000D02*
X190275000Y-119100000D01*
X187125000Y-119100000D02*
X187125000Y-118100000D01*
X188475000Y-118100000D02*
X188475000Y-119100000D01*
X167200000Y-121525000D02*
X168200000Y-121525000D01*
X168200000Y-122875000D02*
X167200000Y-122875000D01*
X184975000Y-110700000D02*
X184975000Y-111700000D01*
X183625000Y-111700000D02*
X183625000Y-110700000D01*
X172625000Y-111900000D02*
X172625000Y-110900000D01*
X173975000Y-110900000D02*
X173975000Y-111900000D01*
X172800000Y-90225000D02*
X173800000Y-90225000D01*
X173800000Y-91575000D02*
X172800000Y-91575000D01*
X175125000Y-133800000D02*
X175125000Y-132800000D01*
X176475000Y-132800000D02*
X176475000Y-133800000D01*
X178275000Y-132800000D02*
X178275000Y-133800000D01*
X176925000Y-133800000D02*
X176925000Y-132800000D01*
X187125000Y-134100000D02*
X187125000Y-133100000D01*
X188475000Y-133100000D02*
X188475000Y-134100000D01*
X188925000Y-134100000D02*
X188925000Y-133100000D01*
X190275000Y-133100000D02*
X190275000Y-134100000D01*
X175125000Y-126300000D02*
X175125000Y-125300000D01*
X176475000Y-125300000D02*
X176475000Y-126300000D01*
X178275000Y-125300000D02*
X178275000Y-126300000D01*
X176925000Y-126300000D02*
X176925000Y-125300000D01*
X187125000Y-126600000D02*
X187125000Y-125600000D01*
X188475000Y-125600000D02*
X188475000Y-126600000D01*
X188925000Y-126600000D02*
X188925000Y-125600000D01*
X190275000Y-125600000D02*
X190275000Y-126600000D01*
X201325000Y-90500000D02*
X201325000Y-89500000D01*
X202675000Y-89500000D02*
X202675000Y-90500000D01*
X169125000Y-84300000D02*
X169125000Y-83300000D01*
X170475000Y-83300000D02*
X170475000Y-84300000D01*
X172275000Y-83300000D02*
X172275000Y-84300000D01*
X170925000Y-84300000D02*
X170925000Y-83300000D01*
X181125000Y-84600000D02*
X181125000Y-83600000D01*
X182475000Y-83600000D02*
X182475000Y-84600000D01*
X182925000Y-84600000D02*
X182925000Y-83600000D01*
X184275000Y-83600000D02*
X184275000Y-84600000D01*
X168375000Y-106320000D02*
X172825000Y-106320000D01*
X166850000Y-99420000D02*
X172825000Y-99420000D01*
X195325000Y-83325000D02*
X195300000Y-83325000D01*
X187275000Y-83325000D02*
X187300000Y-83325000D01*
X187275000Y-78675000D02*
X187300000Y-78675000D01*
X195375000Y-77600000D02*
X195375000Y-83325000D01*
X187275000Y-78675000D02*
X187275000Y-83325000D01*
X180000000Y-133050000D02*
X180000000Y-133750000D01*
X178800000Y-133750000D02*
X178800000Y-133050000D01*
X184850000Y-131400000D02*
X185550000Y-131400000D01*
X185550000Y-132600000D02*
X184850000Y-132600000D01*
X180000000Y-125550000D02*
X180000000Y-126250000D01*
X178800000Y-126250000D02*
X178800000Y-125550000D01*
X184850000Y-123900000D02*
X185550000Y-123900000D01*
X185550000Y-125100000D02*
X184850000Y-125100000D01*
X174000000Y-83550000D02*
X174000000Y-84250000D01*
X172800000Y-84250000D02*
X172800000Y-83550000D01*
X178850000Y-81900000D02*
X179550000Y-81900000D01*
X179550000Y-83100000D02*
X178850000Y-83100000D01*
X188200000Y-130625000D02*
X189200000Y-130625000D01*
X189200000Y-131975000D02*
X188200000Y-131975000D01*
X188200000Y-123125000D02*
X189200000Y-123125000D01*
X189200000Y-124475000D02*
X188200000Y-124475000D01*
X182200000Y-81125000D02*
X183200000Y-81125000D01*
X183200000Y-82475000D02*
X182200000Y-82475000D01*
X181925000Y-133025000D02*
X181925000Y-133200000D01*
X185275000Y-133025000D02*
X185275000Y-133275000D01*
X185275000Y-136375000D02*
X185275000Y-136125000D01*
X181925000Y-136375000D02*
X181925000Y-136125000D01*
X181925000Y-133025000D02*
X185275000Y-133025000D01*
X181925000Y-136375000D02*
X185275000Y-136375000D01*
X181925000Y-133200000D02*
X180675000Y-133200000D01*
X181925000Y-125525000D02*
X181925000Y-125700000D01*
X185275000Y-125525000D02*
X185275000Y-125775000D01*
X185275000Y-128875000D02*
X185275000Y-128625000D01*
X181925000Y-128875000D02*
X181925000Y-128625000D01*
X181925000Y-125525000D02*
X185275000Y-125525000D01*
X181925000Y-128875000D02*
X185275000Y-128875000D01*
X181925000Y-125700000D02*
X180675000Y-125700000D01*
X175925000Y-83525000D02*
X175925000Y-83700000D01*
X179275000Y-83525000D02*
X179275000Y-83775000D01*
X179275000Y-86875000D02*
X179275000Y-86625000D01*
X175925000Y-86875000D02*
X175925000Y-86625000D01*
X175925000Y-83525000D02*
X179275000Y-83525000D01*
X175925000Y-86875000D02*
X179275000Y-86875000D01*
X175925000Y-83700000D02*
X174675000Y-83700000D01*
X191950000Y-130750000D02*
X191950000Y-136700000D01*
X191950000Y-136700000D02*
X204550000Y-136700000D01*
X204550000Y-136700000D02*
X204550000Y-130750000D01*
X204550000Y-130750000D02*
X191950000Y-130750000D01*
X195250000Y-130750000D02*
X195250000Y-131500000D01*
X195250000Y-131500000D02*
X201250000Y-131500000D01*
X201250000Y-131500000D02*
X201250000Y-130750000D01*
X201250000Y-130750000D02*
X195250000Y-130750000D01*
X191950000Y-130750000D02*
X191950000Y-131500000D01*
X191950000Y-131500000D02*
X193750000Y-131500000D01*
X193750000Y-131500000D02*
X193750000Y-130750000D01*
X193750000Y-130750000D02*
X191950000Y-130750000D01*
X202750000Y-130750000D02*
X202750000Y-131500000D01*
X202750000Y-131500000D02*
X204550000Y-131500000D01*
X204550000Y-131500000D02*
X204550000Y-130750000D01*
X204550000Y-130750000D02*
X202750000Y-130750000D01*
X191950000Y-133000000D02*
X192700000Y-133000000D01*
X192700000Y-133000000D02*
X192700000Y-135950000D01*
X192700000Y-135950000D02*
X198250000Y-135950000D01*
X204550000Y-133000000D02*
X203800000Y-133000000D01*
X203800000Y-133000000D02*
X203800000Y-135950000D01*
X203800000Y-135950000D02*
X198250000Y-135950000D01*
X194500000Y-130450000D02*
X194200000Y-129850000D01*
X194200000Y-129850000D02*
X194800000Y-129850000D01*
X194800000Y-129850000D02*
X194500000Y-130450000D01*
X191950000Y-123250000D02*
X191950000Y-129200000D01*
X191950000Y-129200000D02*
X204550000Y-129200000D01*
X204550000Y-129200000D02*
X204550000Y-123250000D01*
X204550000Y-123250000D02*
X191950000Y-123250000D01*
X195250000Y-123250000D02*
X195250000Y-124000000D01*
X195250000Y-124000000D02*
X201250000Y-124000000D01*
X201250000Y-124000000D02*
X201250000Y-123250000D01*
X201250000Y-123250000D02*
X195250000Y-123250000D01*
X191950000Y-123250000D02*
X191950000Y-124000000D01*
X191950000Y-124000000D02*
X193750000Y-124000000D01*
X193750000Y-124000000D02*
X193750000Y-123250000D01*
X193750000Y-123250000D02*
X191950000Y-123250000D01*
X202750000Y-123250000D02*
X202750000Y-124000000D01*
X202750000Y-124000000D02*
X204550000Y-124000000D01*
X204550000Y-124000000D02*
X204550000Y-123250000D01*
X204550000Y-123250000D02*
X202750000Y-123250000D01*
X191950000Y-125500000D02*
X192700000Y-125500000D01*
X192700000Y-125500000D02*
X192700000Y-128450000D01*
X192700000Y-128450000D02*
X198250000Y-128450000D01*
X204550000Y-125500000D02*
X203800000Y-125500000D01*
X203800000Y-125500000D02*
X203800000Y-128450000D01*
X203800000Y-128450000D02*
X198250000Y-128450000D01*
X194500000Y-122950000D02*
X194200000Y-122350000D01*
X194200000Y-122350000D02*
X194800000Y-122350000D01*
X194800000Y-122350000D02*
X194500000Y-122950000D01*
X191950000Y-108250000D02*
X191950000Y-114200000D01*
X191950000Y-114200000D02*
X204550000Y-114200000D01*
X204550000Y-114200000D02*
X204550000Y-108250000D01*
X204550000Y-108250000D02*
X191950000Y-108250000D01*
X195250000Y-108250000D02*
X195250000Y-109000000D01*
X195250000Y-109000000D02*
X201250000Y-109000000D01*
X201250000Y-109000000D02*
X201250000Y-108250000D01*
X201250000Y-108250000D02*
X195250000Y-108250000D01*
X191950000Y-108250000D02*
X191950000Y-109000000D01*
X191950000Y-109000000D02*
X193750000Y-109000000D01*
X193750000Y-109000000D02*
X193750000Y-108250000D01*
X193750000Y-108250000D02*
X191950000Y-108250000D01*
X202750000Y-108250000D02*
X202750000Y-109000000D01*
X202750000Y-109000000D02*
X204550000Y-109000000D01*
X204550000Y-109000000D02*
X204550000Y-108250000D01*
X204550000Y-108250000D02*
X202750000Y-108250000D01*
X191950000Y-110500000D02*
X192700000Y-110500000D01*
X192700000Y-110500000D02*
X192700000Y-113450000D01*
X192700000Y-113450000D02*
X198250000Y-113450000D01*
X204550000Y-110500000D02*
X203800000Y-110500000D01*
X203800000Y-110500000D02*
X203800000Y-113450000D01*
X203800000Y-113450000D02*
X198250000Y-113450000D01*
X194500000Y-107950000D02*
X194200000Y-107350000D01*
X194200000Y-107350000D02*
X194800000Y-107350000D01*
X194800000Y-107350000D02*
X194500000Y-107950000D01*
X191950000Y-115750000D02*
X191950000Y-121700000D01*
X191950000Y-121700000D02*
X204550000Y-121700000D01*
X204550000Y-121700000D02*
X204550000Y-115750000D01*
X204550000Y-115750000D02*
X191950000Y-115750000D01*
X195250000Y-115750000D02*
X195250000Y-116500000D01*
X195250000Y-116500000D02*
X201250000Y-116500000D01*
X201250000Y-116500000D02*
X201250000Y-115750000D01*
X201250000Y-115750000D02*
X195250000Y-115750000D01*
X191950000Y-115750000D02*
X191950000Y-116500000D01*
X191950000Y-116500000D02*
X193750000Y-116500000D01*
X193750000Y-116500000D02*
X193750000Y-115750000D01*
X193750000Y-115750000D02*
X191950000Y-115750000D01*
X202750000Y-115750000D02*
X202750000Y-116500000D01*
X202750000Y-116500000D02*
X204550000Y-116500000D01*
X204550000Y-116500000D02*
X204550000Y-115750000D01*
X204550000Y-115750000D02*
X202750000Y-115750000D01*
X191950000Y-118000000D02*
X192700000Y-118000000D01*
X192700000Y-118000000D02*
X192700000Y-120950000D01*
X192700000Y-120950000D02*
X198250000Y-120950000D01*
X204550000Y-118000000D02*
X203800000Y-118000000D01*
X203800000Y-118000000D02*
X203800000Y-120950000D01*
X203800000Y-120950000D02*
X198250000Y-120950000D01*
X194500000Y-115450000D02*
X194200000Y-114850000D01*
X194200000Y-114850000D02*
X194800000Y-114850000D01*
X194800000Y-114850000D02*
X194500000Y-115450000D01*
X204550000Y-148450000D02*
X204550000Y-142500000D01*
X204550000Y-142500000D02*
X176950000Y-142500000D01*
X176950000Y-142500000D02*
X176950000Y-148450000D01*
X176950000Y-148450000D02*
X204550000Y-148450000D01*
X201250000Y-148450000D02*
X201250000Y-147700000D01*
X201250000Y-147700000D02*
X180250000Y-147700000D01*
X180250000Y-147700000D02*
X180250000Y-148450000D01*
X180250000Y-148450000D02*
X201250000Y-148450000D01*
X204550000Y-148450000D02*
X204550000Y-147700000D01*
X204550000Y-147700000D02*
X202750000Y-147700000D01*
X202750000Y-147700000D02*
X202750000Y-148450000D01*
X202750000Y-148450000D02*
X204550000Y-148450000D01*
X178750000Y-148450000D02*
X178750000Y-147700000D01*
X178750000Y-147700000D02*
X176950000Y-147700000D01*
X176950000Y-147700000D02*
X176950000Y-148450000D01*
X176950000Y-148450000D02*
X178750000Y-148450000D01*
X204550000Y-146200000D02*
X203800000Y-146200000D01*
X203800000Y-146200000D02*
X203800000Y-143250000D01*
X203800000Y-143250000D02*
X190750000Y-143250000D01*
X176950000Y-146200000D02*
X177700000Y-146200000D01*
X177700000Y-146200000D02*
X177700000Y-143250000D01*
X177700000Y-143250000D02*
X190750000Y-143250000D01*
X202000000Y-148750000D02*
X202300000Y-149350000D01*
X202300000Y-149350000D02*
X201700000Y-149350000D01*
X201700000Y-149350000D02*
X202000000Y-148750000D01*
X204300000Y-97250000D02*
X204800000Y-97250000D01*
X202300000Y-94750000D02*
G75*
G03X202300000Y-94750000I-2000000J0D01*
G01*
X202300000Y-99750000D02*
G75*
G03X202300000Y-99750000I-2000000J0D01*
G01*
X202800000Y-102250000D02*
X202800000Y-92250000D01*
X197900000Y-102250000D02*
X197900000Y-92250000D01*
X204300000Y-102250000D02*
X204300000Y-92250000D01*
X204800000Y-102250000D02*
X204800000Y-92250000D01*
X204800000Y-92250000D02*
X195000000Y-92250000D01*
X195000000Y-92250000D02*
X195000000Y-102250000D01*
X195000000Y-102250000D02*
X204800000Y-102250000D01*
X185199000Y-94649240D02*
X185399660Y-95050560D01*
X185399660Y-95050560D02*
X185501260Y-95650000D01*
X185501260Y-95650000D02*
X185399660Y-96150380D01*
X185399660Y-96150380D02*
X185000880Y-96848880D01*
X185000880Y-96848880D02*
X184398900Y-97250200D01*
X184398900Y-97250200D02*
X183799460Y-97450860D01*
X183799460Y-97450860D02*
X177200540Y-97450860D01*
X177200540Y-97450860D02*
X176499500Y-97250200D01*
X176499500Y-97250200D02*
X176100720Y-96950480D01*
X176100720Y-96950480D02*
X175699400Y-96450100D01*
X175699400Y-96450100D02*
X175498740Y-95850660D01*
X175498740Y-95850660D02*
X175498740Y-95350280D01*
X175498740Y-95350280D02*
X175699400Y-94849900D01*
X175699400Y-94849900D02*
X176199780Y-94250460D01*
X176199780Y-94250460D02*
X176700160Y-93950740D01*
X176700160Y-93950740D02*
X177200540Y-93849140D01*
X177299600Y-93849140D02*
X183901060Y-93849140D01*
X183901060Y-93849140D02*
X184299840Y-93950740D01*
X184299840Y-93950740D02*
X184800220Y-94250460D01*
X184800220Y-94250460D02*
X185300600Y-94750840D01*
X177309760Y-93320820D02*
X176850020Y-93369080D01*
X176850020Y-93369080D02*
X176451240Y-93480840D01*
X176451240Y-93480840D02*
X176019440Y-93699280D01*
X176019440Y-93699280D02*
X175729880Y-93930420D01*
X175729880Y-93930420D02*
X175399680Y-94280940D01*
X175399680Y-94280940D02*
X175110120Y-94819420D01*
X175110120Y-94819420D02*
X174980580Y-95418860D01*
X174980580Y-95418860D02*
X174980580Y-95929400D01*
X174980580Y-95929400D02*
X175150760Y-96630440D01*
X175150760Y-96630440D02*
X175549540Y-97219720D01*
X175549540Y-97219720D02*
X176009280Y-97590560D01*
X176009280Y-97590560D02*
X176430920Y-97798840D01*
X176430920Y-97798840D02*
X176880500Y-97958860D01*
X176880500Y-97958860D02*
X177319920Y-97989340D01*
X184660520Y-97770900D02*
X185038980Y-97549920D01*
X185038980Y-97549920D02*
X185359020Y-97270520D01*
X185359020Y-97270520D02*
X185610480Y-96940320D01*
X185610480Y-96940320D02*
X185910200Y-96389140D01*
X185910200Y-96389140D02*
X186019420Y-95919240D01*
X186019420Y-95919240D02*
X186039740Y-95459500D01*
X186039740Y-95459500D02*
X185950840Y-94999760D01*
X185950840Y-94999760D02*
X185760340Y-94550180D01*
X185760340Y-94550180D02*
X185399660Y-94080280D01*
X185399660Y-94080280D02*
X185049140Y-93760240D01*
X185049140Y-93760240D02*
X184660520Y-93529100D01*
X184660520Y-93529100D02*
X184231260Y-93389400D01*
X184231260Y-93389400D02*
X183789300Y-93320820D01*
X177299600Y-97979180D02*
X183751200Y-97979180D01*
X183751200Y-97979180D02*
X184170300Y-97941080D01*
X184170300Y-97941080D02*
X184660520Y-97770900D01*
X177299600Y-93320820D02*
X183751200Y-93320820D01*
X169930000Y-75200000D02*
X169930000Y-66260000D01*
X169930000Y-66260000D02*
X202930000Y-66260000D01*
X202930000Y-66260000D02*
X202930000Y-75200000D01*
X202930000Y-75200000D02*
X169930000Y-75200000D01*
X184205000Y-75200000D02*
X184205000Y-73900000D01*
X184205000Y-73900000D02*
X171130000Y-73900000D01*
X171130000Y-73900000D02*
X171130000Y-67560000D01*
X171130000Y-67560000D02*
X201730000Y-67560000D01*
X201730000Y-67560000D02*
X201730000Y-73900000D01*
X201730000Y-73900000D02*
X188655000Y-73900000D01*
X188655000Y-73900000D02*
X188655000Y-75200000D01*
X186180000Y-66260000D02*
X186180000Y-66060000D01*
X186180000Y-66060000D02*
X186680000Y-66060000D01*
X186680000Y-66060000D02*
X186680000Y-66260000D01*
X186180000Y-66160000D02*
X186680000Y-66160000D01*
X200010000Y-66260000D02*
X200010000Y-66060000D01*
X200010000Y-66060000D02*
X200510000Y-66060000D01*
X200510000Y-66060000D02*
X200510000Y-66260000D01*
X200010000Y-66160000D02*
X200510000Y-66160000D01*
X172350000Y-66260000D02*
X172350000Y-66060000D01*
X172350000Y-66060000D02*
X172850000Y-66060000D01*
X172850000Y-66060000D02*
X172850000Y-66260000D01*
X172350000Y-66160000D02*
X172850000Y-66160000D01*
X172800000Y-72600000D02*
X172800000Y-71400000D01*
X172800000Y-71400000D02*
X173400000Y-72000000D01*
X173400000Y-72000000D02*
X172800000Y-72600000D01*
X186852381Y-105961905D02*
X187661905Y-105961905D01*
X187757143Y-105914286D01*
X187804762Y-105866667D01*
X187852381Y-105771429D01*
X187852381Y-105580952D01*
X187804762Y-105485714D01*
X187757143Y-105438095D01*
X187661905Y-105390476D01*
X186852381Y-105390476D01*
X186852381Y-104485714D02*
X186852381Y-104676191D01*
X186900000Y-104771429D01*
X186947619Y-104819048D01*
X187090476Y-104914286D01*
X187280952Y-104961905D01*
X187661905Y-104961905D01*
X187757143Y-104914286D01*
X187804762Y-104866667D01*
X187852381Y-104771429D01*
X187852381Y-104580952D01*
X187804762Y-104485714D01*
X187757143Y-104438095D01*
X187661905Y-104390476D01*
X187423810Y-104390476D01*
X187328571Y-104438095D01*
X187280952Y-104485714D01*
X187233333Y-104580952D01*
X187233333Y-104771429D01*
X187280952Y-104866667D01*
X187328571Y-104914286D01*
X187423810Y-104961905D01*
X161761905Y-93752381D02*
X161761905Y-92752381D01*
X162142858Y-92752381D01*
X162238096Y-92800000D01*
X162285715Y-92847619D01*
X162333334Y-92942857D01*
X162333334Y-93085714D01*
X162285715Y-93180952D01*
X162238096Y-93228571D01*
X162142858Y-93276190D01*
X161761905Y-93276190D01*
X162666667Y-92752381D02*
X163285715Y-92752381D01*
X162952381Y-93133333D01*
X163095239Y-93133333D01*
X163190477Y-93180952D01*
X163238096Y-93228571D01*
X163285715Y-93323810D01*
X163285715Y-93561905D01*
X163238096Y-93657143D01*
X163190477Y-93704762D01*
X163095239Y-93752381D01*
X162809524Y-93752381D01*
X162714286Y-93704762D01*
X162666667Y-93657143D01*
X172933334Y-97357143D02*
X172885715Y-97404762D01*
X172742858Y-97452381D01*
X172647620Y-97452381D01*
X172504762Y-97404762D01*
X172409524Y-97309524D01*
X172361905Y-97214286D01*
X172314286Y-97023810D01*
X172314286Y-96880952D01*
X172361905Y-96690476D01*
X172409524Y-96595238D01*
X172504762Y-96500000D01*
X172647620Y-96452381D01*
X172742858Y-96452381D01*
X172885715Y-96500000D01*
X172933334Y-96547619D01*
X173314286Y-96547619D02*
X173361905Y-96500000D01*
X173457143Y-96452381D01*
X173695239Y-96452381D01*
X173790477Y-96500000D01*
X173838096Y-96547619D01*
X173885715Y-96642857D01*
X173885715Y-96738095D01*
X173838096Y-96880952D01*
X173266667Y-97452381D01*
X173885715Y-97452381D01*
X170848477Y-144274027D02*
X170276057Y-144846447D01*
X170242385Y-144947462D01*
X170242385Y-145014805D01*
X170276057Y-145115820D01*
X170410745Y-145250508D01*
X170511760Y-145284180D01*
X170579103Y-145284180D01*
X170680118Y-145250508D01*
X171252538Y-144678088D01*
X171521912Y-144947462D02*
X171959645Y-145385195D01*
X171454569Y-145418866D01*
X171555584Y-145519882D01*
X171589256Y-145620897D01*
X171589256Y-145688240D01*
X171555584Y-145789256D01*
X171387225Y-145957615D01*
X171286210Y-145991286D01*
X171218867Y-145991286D01*
X171117851Y-145957615D01*
X170915820Y-145755584D01*
X170882149Y-145654569D01*
X170882149Y-145587225D01*
X168233334Y-97357143D02*
X168185715Y-97404762D01*
X168042858Y-97452381D01*
X167947620Y-97452381D01*
X167804762Y-97404762D01*
X167709524Y-97309524D01*
X167661905Y-97214286D01*
X167614286Y-97023810D01*
X167614286Y-96880952D01*
X167661905Y-96690476D01*
X167709524Y-96595238D01*
X167804762Y-96500000D01*
X167947620Y-96452381D01*
X168042858Y-96452381D01*
X168185715Y-96500000D01*
X168233334Y-96547619D01*
X169185715Y-97452381D02*
X168614286Y-97452381D01*
X168900000Y-97452381D02*
X168900000Y-96452381D01*
X168804762Y-96595238D01*
X168709524Y-96690476D01*
X168614286Y-96738095D01*
X172229611Y-134534688D02*
X172162268Y-134534688D01*
X172027581Y-134467344D01*
X171960237Y-134400001D01*
X171892893Y-134265313D01*
X171892893Y-134130626D01*
X171926565Y-134029611D01*
X172027580Y-133861253D01*
X172128596Y-133760237D01*
X172296955Y-133659222D01*
X172397970Y-133625550D01*
X172532657Y-133625550D01*
X172667344Y-133692894D01*
X172734688Y-133760237D01*
X172802031Y-133894924D01*
X172802031Y-133962268D01*
X173105076Y-134130626D02*
X173542810Y-134568359D01*
X173037733Y-134602030D01*
X173138749Y-134703046D01*
X173172421Y-134804061D01*
X173172421Y-134871405D01*
X173138748Y-134972421D01*
X172970390Y-135140779D01*
X172869374Y-135174451D01*
X172802031Y-135174451D01*
X172701016Y-135140779D01*
X172498985Y-134938748D01*
X172465313Y-134837733D01*
X172465313Y-134770390D01*
X198657143Y-83366666D02*
X198704762Y-83414285D01*
X198752381Y-83557142D01*
X198752381Y-83652380D01*
X198704762Y-83795238D01*
X198609524Y-83890476D01*
X198514286Y-83938095D01*
X198323810Y-83985714D01*
X198180952Y-83985714D01*
X197990476Y-83938095D01*
X197895238Y-83890476D01*
X197800000Y-83795238D01*
X197752381Y-83652380D01*
X197752381Y-83557142D01*
X197800000Y-83414285D01*
X197847619Y-83366666D01*
X198085714Y-82509523D02*
X198752381Y-82509523D01*
X197704762Y-82747619D02*
X198419048Y-82985714D01*
X198419048Y-82366666D01*
X177529611Y-137834688D02*
X177462268Y-137834688D01*
X177327581Y-137767344D01*
X177260237Y-137700001D01*
X177192893Y-137565313D01*
X177192893Y-137430626D01*
X177226565Y-137329611D01*
X177327580Y-137161253D01*
X177428596Y-137060237D01*
X177596955Y-136959222D01*
X177697970Y-136925550D01*
X177832657Y-136925550D01*
X177967344Y-136992894D01*
X178034688Y-137060237D01*
X178102031Y-137194924D01*
X178102031Y-137262268D01*
X178809138Y-137834688D02*
X178472420Y-137497970D01*
X178102031Y-137801015D01*
X178169374Y-137801015D01*
X178270390Y-137834687D01*
X178438749Y-138003046D01*
X178472421Y-138104061D01*
X178472421Y-138171405D01*
X178438748Y-138272421D01*
X178270390Y-138440779D01*
X178169374Y-138474451D01*
X178102031Y-138474451D01*
X178001016Y-138440779D01*
X177832657Y-138272420D01*
X177798985Y-138171405D01*
X177798985Y-138104061D01*
X180157143Y-110857143D02*
X180109524Y-110904762D01*
X179966667Y-110952381D01*
X179871429Y-110952381D01*
X179728571Y-110904762D01*
X179633333Y-110809524D01*
X179585714Y-110714286D01*
X179538095Y-110523810D01*
X179538095Y-110380952D01*
X179585714Y-110190476D01*
X179633333Y-110095238D01*
X179728571Y-110000000D01*
X179871429Y-109952381D01*
X179966667Y-109952381D01*
X180109524Y-110000000D01*
X180157143Y-110047619D01*
X181109524Y-110952381D02*
X180538095Y-110952381D01*
X180823809Y-110952381D02*
X180823809Y-109952381D01*
X180728571Y-110095238D01*
X180633333Y-110190476D01*
X180538095Y-110238095D01*
X181728571Y-109952381D02*
X181823810Y-109952381D01*
X181919048Y-110000000D01*
X181966667Y-110047619D01*
X182014286Y-110142857D01*
X182061905Y-110333333D01*
X182061905Y-110571429D01*
X182014286Y-110761905D01*
X181966667Y-110857143D01*
X181919048Y-110904762D01*
X181823810Y-110952381D01*
X181728571Y-110952381D01*
X181633333Y-110904762D01*
X181585714Y-110857143D01*
X181538095Y-110761905D01*
X181490476Y-110571429D01*
X181490476Y-110333333D01*
X181538095Y-110142857D01*
X181585714Y-110047619D01*
X181633333Y-110000000D01*
X181728571Y-109952381D01*
X187957143Y-103442857D02*
X188004762Y-103490476D01*
X188052381Y-103633333D01*
X188052381Y-103728571D01*
X188004762Y-103871429D01*
X187909524Y-103966667D01*
X187814286Y-104014286D01*
X187623810Y-104061905D01*
X187480952Y-104061905D01*
X187290476Y-104014286D01*
X187195238Y-103966667D01*
X187100000Y-103871429D01*
X187052381Y-103728571D01*
X187052381Y-103633333D01*
X187100000Y-103490476D01*
X187147619Y-103442857D01*
X188052381Y-102490476D02*
X188052381Y-103061905D01*
X188052381Y-102776191D02*
X187052381Y-102776191D01*
X187195238Y-102871429D01*
X187290476Y-102966667D01*
X187338095Y-103061905D01*
X188052381Y-101538095D02*
X188052381Y-102109524D01*
X188052381Y-101823810D02*
X187052381Y-101823810D01*
X187195238Y-101919048D01*
X187290476Y-102014286D01*
X187338095Y-102109524D01*
X186757143Y-109357143D02*
X186709524Y-109404762D01*
X186566667Y-109452381D01*
X186471429Y-109452381D01*
X186328571Y-109404762D01*
X186233333Y-109309524D01*
X186185714Y-109214286D01*
X186138095Y-109023810D01*
X186138095Y-108880952D01*
X186185714Y-108690476D01*
X186233333Y-108595238D01*
X186328571Y-108500000D01*
X186471429Y-108452381D01*
X186566667Y-108452381D01*
X186709524Y-108500000D01*
X186757143Y-108547619D01*
X187709524Y-109452381D02*
X187138095Y-109452381D01*
X187423809Y-109452381D02*
X187423809Y-108452381D01*
X187328571Y-108595238D01*
X187233333Y-108690476D01*
X187138095Y-108738095D01*
X188090476Y-108547619D02*
X188138095Y-108500000D01*
X188233333Y-108452381D01*
X188471429Y-108452381D01*
X188566667Y-108500000D01*
X188614286Y-108547619D01*
X188661905Y-108642857D01*
X188661905Y-108738095D01*
X188614286Y-108880952D01*
X188042857Y-109452381D01*
X188661905Y-109452381D01*
X178357143Y-91357143D02*
X178309524Y-91404762D01*
X178166667Y-91452381D01*
X178071429Y-91452381D01*
X177928571Y-91404762D01*
X177833333Y-91309524D01*
X177785714Y-91214286D01*
X177738095Y-91023810D01*
X177738095Y-90880952D01*
X177785714Y-90690476D01*
X177833333Y-90595238D01*
X177928571Y-90500000D01*
X178071429Y-90452381D01*
X178166667Y-90452381D01*
X178309524Y-90500000D01*
X178357143Y-90547619D01*
X179309524Y-91452381D02*
X178738095Y-91452381D01*
X179023809Y-91452381D02*
X179023809Y-90452381D01*
X178928571Y-90595238D01*
X178833333Y-90690476D01*
X178738095Y-90738095D01*
X179642857Y-90452381D02*
X180261905Y-90452381D01*
X179928571Y-90833333D01*
X180071429Y-90833333D01*
X180166667Y-90880952D01*
X180214286Y-90928571D01*
X180261905Y-91023810D01*
X180261905Y-91261905D01*
X180214286Y-91357143D01*
X180166667Y-91404762D01*
X180071429Y-91452381D01*
X179785714Y-91452381D01*
X179690476Y-91404762D01*
X179642857Y-91357143D01*
X181357143Y-91357143D02*
X181309524Y-91404762D01*
X181166667Y-91452381D01*
X181071429Y-91452381D01*
X180928571Y-91404762D01*
X180833333Y-91309524D01*
X180785714Y-91214286D01*
X180738095Y-91023810D01*
X180738095Y-90880952D01*
X180785714Y-90690476D01*
X180833333Y-90595238D01*
X180928571Y-90500000D01*
X181071429Y-90452381D01*
X181166667Y-90452381D01*
X181309524Y-90500000D01*
X181357143Y-90547619D01*
X182309524Y-91452381D02*
X181738095Y-91452381D01*
X182023809Y-91452381D02*
X182023809Y-90452381D01*
X181928571Y-90595238D01*
X181833333Y-90690476D01*
X181738095Y-90738095D01*
X183166667Y-90785714D02*
X183166667Y-91452381D01*
X182928571Y-90404762D02*
X182690476Y-91119048D01*
X183309524Y-91119048D01*
X166961905Y-119652381D02*
X166961905Y-118652381D01*
X167200000Y-118652381D01*
X167342858Y-118700000D01*
X167438096Y-118795238D01*
X167485715Y-118890476D01*
X167533334Y-119080952D01*
X167533334Y-119223810D01*
X167485715Y-119414286D01*
X167438096Y-119509524D01*
X167342858Y-119604762D01*
X167200000Y-119652381D01*
X166961905Y-119652381D01*
X168485715Y-119652381D02*
X167914286Y-119652381D01*
X168200000Y-119652381D02*
X168200000Y-118652381D01*
X168104762Y-118795238D01*
X168009524Y-118890476D01*
X167914286Y-118938095D01*
X187952381Y-111938095D02*
X186952381Y-111938095D01*
X186952381Y-111700000D01*
X187000000Y-111557142D01*
X187095238Y-111461904D01*
X187190476Y-111414285D01*
X187380952Y-111366666D01*
X187523810Y-111366666D01*
X187714286Y-111414285D01*
X187809524Y-111461904D01*
X187904762Y-111557142D01*
X187952381Y-111700000D01*
X187952381Y-111938095D01*
X187047619Y-110985714D02*
X187000000Y-110938095D01*
X186952381Y-110842857D01*
X186952381Y-110604761D01*
X187000000Y-110509523D01*
X187047619Y-110461904D01*
X187142857Y-110414285D01*
X187238095Y-110414285D01*
X187380952Y-110461904D01*
X187952381Y-111033333D01*
X187952381Y-110414285D01*
X170652381Y-112138095D02*
X169652381Y-112138095D01*
X169652381Y-111900000D01*
X169700000Y-111757142D01*
X169795238Y-111661904D01*
X169890476Y-111614285D01*
X170080952Y-111566666D01*
X170223810Y-111566666D01*
X170414286Y-111614285D01*
X170509524Y-111661904D01*
X170604762Y-111757142D01*
X170652381Y-111900000D01*
X170652381Y-112138095D01*
X169652381Y-111233333D02*
X169652381Y-110614285D01*
X170033333Y-110947619D01*
X170033333Y-110804761D01*
X170080952Y-110709523D01*
X170128571Y-110661904D01*
X170223810Y-110614285D01*
X170461905Y-110614285D01*
X170557143Y-110661904D01*
X170604762Y-110709523D01*
X170652381Y-110804761D01*
X170652381Y-111090476D01*
X170604762Y-111185714D01*
X170557143Y-111233333D01*
X172561905Y-88252381D02*
X172561905Y-87252381D01*
X172800000Y-87252381D01*
X172942858Y-87300000D01*
X173038096Y-87395238D01*
X173085715Y-87490476D01*
X173133334Y-87680952D01*
X173133334Y-87823810D01*
X173085715Y-88014286D01*
X173038096Y-88109524D01*
X172942858Y-88204762D01*
X172800000Y-88252381D01*
X172561905Y-88252381D01*
X173990477Y-87585714D02*
X173990477Y-88252381D01*
X173752381Y-87204762D02*
X173514286Y-87919048D01*
X174133334Y-87919048D01*
X155761905Y-93752381D02*
X155761905Y-92752381D01*
X156142858Y-92752381D01*
X156238096Y-92800000D01*
X156285715Y-92847619D01*
X156333334Y-92942857D01*
X156333334Y-93085714D01*
X156285715Y-93180952D01*
X156238096Y-93228571D01*
X156142858Y-93276190D01*
X155761905Y-93276190D01*
X157285715Y-93752381D02*
X156714286Y-93752381D01*
X157000000Y-93752381D02*
X157000000Y-92752381D01*
X156904762Y-92895238D01*
X156809524Y-92990476D01*
X156714286Y-93038095D01*
X157761905Y-93752381D02*
X157761905Y-92752381D01*
X158142858Y-92752381D01*
X158238096Y-92800000D01*
X158285715Y-92847619D01*
X158333334Y-92942857D01*
X158333334Y-93085714D01*
X158285715Y-93180952D01*
X158238096Y-93228571D01*
X158142858Y-93276190D01*
X157761905Y-93276190D01*
X158714286Y-92847619D02*
X158761905Y-92800000D01*
X158857143Y-92752381D01*
X159095239Y-92752381D01*
X159190477Y-92800000D01*
X159238096Y-92847619D01*
X159285715Y-92942857D01*
X159285715Y-93038095D01*
X159238096Y-93180952D01*
X158666667Y-93752381D01*
X159285715Y-93752381D01*
X200961905Y-72852381D02*
X200961905Y-71852381D01*
X201342858Y-71852381D01*
X201438096Y-71900000D01*
X201485715Y-71947619D01*
X201533334Y-72042857D01*
X201533334Y-72185714D01*
X201485715Y-72280952D01*
X201438096Y-72328571D01*
X201342858Y-72376190D01*
X200961905Y-72376190D01*
X202390477Y-72185714D02*
X202390477Y-72852381D01*
X202152381Y-71804762D02*
X201914286Y-72519048D01*
X202533334Y-72519048D01*
X197785714Y-88052381D02*
X197785714Y-87052381D01*
X198166667Y-87052381D01*
X198261905Y-87100000D01*
X198309524Y-87147619D01*
X198357143Y-87242857D01*
X198357143Y-87385714D01*
X198309524Y-87480952D01*
X198261905Y-87528571D01*
X198166667Y-87576190D01*
X197785714Y-87576190D01*
X199309524Y-88052381D02*
X198738095Y-88052381D01*
X199023809Y-88052381D02*
X199023809Y-87052381D01*
X198928571Y-87195238D01*
X198833333Y-87290476D01*
X198738095Y-87338095D01*
X200261905Y-88052381D02*
X199690476Y-88052381D01*
X199976190Y-88052381D02*
X199976190Y-87052381D01*
X199880952Y-87195238D01*
X199785714Y-87290476D01*
X199690476Y-87338095D01*
X191685714Y-94052381D02*
X191685714Y-93052381D01*
X192066667Y-93052381D01*
X192161905Y-93100000D01*
X192209524Y-93147619D01*
X192257143Y-93242857D01*
X192257143Y-93385714D01*
X192209524Y-93480952D01*
X192161905Y-93528571D01*
X192066667Y-93576190D01*
X191685714Y-93576190D01*
X193209524Y-94052381D02*
X192638095Y-94052381D01*
X192923809Y-94052381D02*
X192923809Y-93052381D01*
X192828571Y-93195238D01*
X192733333Y-93290476D01*
X192638095Y-93338095D01*
X193590476Y-93147619D02*
X193638095Y-93100000D01*
X193733333Y-93052381D01*
X193971429Y-93052381D01*
X194066667Y-93100000D01*
X194114286Y-93147619D01*
X194161905Y-93242857D01*
X194161905Y-93338095D01*
X194114286Y-93480952D01*
X193542857Y-94052381D01*
X194161905Y-94052381D01*
X169933334Y-107752381D02*
X169600000Y-107276190D01*
X169361905Y-107752381D02*
X169361905Y-106752381D01*
X169742858Y-106752381D01*
X169838096Y-106800000D01*
X169885715Y-106847619D01*
X169933334Y-106942857D01*
X169933334Y-107085714D01*
X169885715Y-107180952D01*
X169838096Y-107228571D01*
X169742858Y-107276190D01*
X169361905Y-107276190D01*
X170885715Y-107752381D02*
X170314286Y-107752381D01*
X170600000Y-107752381D02*
X170600000Y-106752381D01*
X170504762Y-106895238D01*
X170409524Y-106990476D01*
X170314286Y-107038095D01*
X178033334Y-110952381D02*
X177700000Y-110476190D01*
X177461905Y-110952381D02*
X177461905Y-109952381D01*
X177842858Y-109952381D01*
X177938096Y-110000000D01*
X177985715Y-110047619D01*
X178033334Y-110142857D01*
X178033334Y-110285714D01*
X177985715Y-110380952D01*
X177938096Y-110428571D01*
X177842858Y-110476190D01*
X177461905Y-110476190D01*
X178414286Y-110047619D02*
X178461905Y-110000000D01*
X178557143Y-109952381D01*
X178795239Y-109952381D01*
X178890477Y-110000000D01*
X178938096Y-110047619D01*
X178985715Y-110142857D01*
X178985715Y-110238095D01*
X178938096Y-110380952D01*
X178366667Y-110952381D01*
X178985715Y-110952381D01*
X190052381Y-116266666D02*
X189576190Y-116600000D01*
X190052381Y-116838095D02*
X189052381Y-116838095D01*
X189052381Y-116457142D01*
X189100000Y-116361904D01*
X189147619Y-116314285D01*
X189242857Y-116266666D01*
X189385714Y-116266666D01*
X189480952Y-116314285D01*
X189528571Y-116361904D01*
X189576190Y-116457142D01*
X189576190Y-116838095D01*
X189052381Y-115933333D02*
X189052381Y-115314285D01*
X189433333Y-115647619D01*
X189433333Y-115504761D01*
X189480952Y-115409523D01*
X189528571Y-115361904D01*
X189623810Y-115314285D01*
X189861905Y-115314285D01*
X189957143Y-115361904D01*
X190004762Y-115409523D01*
X190052381Y-115504761D01*
X190052381Y-115790476D01*
X190004762Y-115885714D01*
X189957143Y-115933333D01*
X188252381Y-116266666D02*
X187776190Y-116600000D01*
X188252381Y-116838095D02*
X187252381Y-116838095D01*
X187252381Y-116457142D01*
X187300000Y-116361904D01*
X187347619Y-116314285D01*
X187442857Y-116266666D01*
X187585714Y-116266666D01*
X187680952Y-116314285D01*
X187728571Y-116361904D01*
X187776190Y-116457142D01*
X187776190Y-116838095D01*
X187585714Y-115409523D02*
X188252381Y-115409523D01*
X187204762Y-115647619D02*
X187919048Y-115885714D01*
X187919048Y-115266666D01*
X168762268Y-143802031D02*
X168863283Y-143229610D01*
X168358206Y-143397970D02*
X169065313Y-142690863D01*
X169334688Y-142960237D01*
X169368359Y-143061253D01*
X169368359Y-143128596D01*
X169334688Y-143229611D01*
X169233672Y-143330626D01*
X169132657Y-143364298D01*
X169065314Y-143364298D01*
X168964299Y-143330626D01*
X168694924Y-143061252D01*
X170109138Y-143734688D02*
X169772420Y-143397970D01*
X169402031Y-143701015D01*
X169469374Y-143701015D01*
X169570390Y-143734687D01*
X169738749Y-143903046D01*
X169772421Y-144004061D01*
X169772421Y-144071405D01*
X169738748Y-144172421D01*
X169570390Y-144340779D01*
X169469374Y-144374451D01*
X169402031Y-144374451D01*
X169301016Y-144340779D01*
X169132657Y-144172420D01*
X169098985Y-144071405D01*
X169098985Y-144004061D01*
X190052381Y-121066666D02*
X189576190Y-121400000D01*
X190052381Y-121638095D02*
X189052381Y-121638095D01*
X189052381Y-121257142D01*
X189100000Y-121161904D01*
X189147619Y-121114285D01*
X189242857Y-121066666D01*
X189385714Y-121066666D01*
X189480952Y-121114285D01*
X189528571Y-121161904D01*
X189576190Y-121257142D01*
X189576190Y-121638095D01*
X189052381Y-120209523D02*
X189052381Y-120400000D01*
X189100000Y-120495238D01*
X189147619Y-120542857D01*
X189290476Y-120638095D01*
X189480952Y-120685714D01*
X189861905Y-120685714D01*
X189957143Y-120638095D01*
X190004762Y-120590476D01*
X190052381Y-120495238D01*
X190052381Y-120304761D01*
X190004762Y-120209523D01*
X189957143Y-120161904D01*
X189861905Y-120114285D01*
X189623810Y-120114285D01*
X189528571Y-120161904D01*
X189480952Y-120209523D01*
X189433333Y-120304761D01*
X189433333Y-120495238D01*
X189480952Y-120590476D01*
X189528571Y-120638095D01*
X189623810Y-120685714D01*
X188252381Y-121066666D02*
X187776190Y-121400000D01*
X188252381Y-121638095D02*
X187252381Y-121638095D01*
X187252381Y-121257142D01*
X187300000Y-121161904D01*
X187347619Y-121114285D01*
X187442857Y-121066666D01*
X187585714Y-121066666D01*
X187680952Y-121114285D01*
X187728571Y-121161904D01*
X187776190Y-121257142D01*
X187776190Y-121638095D01*
X187252381Y-120733333D02*
X187252381Y-120066666D01*
X188252381Y-120495238D01*
X167533334Y-124152381D02*
X167200000Y-123676190D01*
X166961905Y-124152381D02*
X166961905Y-123152381D01*
X167342858Y-123152381D01*
X167438096Y-123200000D01*
X167485715Y-123247619D01*
X167533334Y-123342857D01*
X167533334Y-123485714D01*
X167485715Y-123580952D01*
X167438096Y-123628571D01*
X167342858Y-123676190D01*
X166961905Y-123676190D01*
X168104762Y-123580952D02*
X168009524Y-123533333D01*
X167961905Y-123485714D01*
X167914286Y-123390476D01*
X167914286Y-123342857D01*
X167961905Y-123247619D01*
X168009524Y-123200000D01*
X168104762Y-123152381D01*
X168295239Y-123152381D01*
X168390477Y-123200000D01*
X168438096Y-123247619D01*
X168485715Y-123342857D01*
X168485715Y-123390476D01*
X168438096Y-123485714D01*
X168390477Y-123533333D01*
X168295239Y-123580952D01*
X168104762Y-123580952D01*
X168009524Y-123628571D01*
X167961905Y-123676190D01*
X167914286Y-123771429D01*
X167914286Y-123961905D01*
X167961905Y-124057143D01*
X168009524Y-124104762D01*
X168104762Y-124152381D01*
X168295239Y-124152381D01*
X168390477Y-124104762D01*
X168438096Y-124057143D01*
X168485715Y-123961905D01*
X168485715Y-123771429D01*
X168438096Y-123676190D01*
X168390477Y-123628571D01*
X168295239Y-123580952D01*
X183252381Y-111366666D02*
X182776190Y-111700000D01*
X183252381Y-111938095D02*
X182252381Y-111938095D01*
X182252381Y-111557142D01*
X182300000Y-111461904D01*
X182347619Y-111414285D01*
X182442857Y-111366666D01*
X182585714Y-111366666D01*
X182680952Y-111414285D01*
X182728571Y-111461904D01*
X182776190Y-111557142D01*
X182776190Y-111938095D01*
X183252381Y-110890476D02*
X183252381Y-110700000D01*
X183204762Y-110604761D01*
X183157143Y-110557142D01*
X183014286Y-110461904D01*
X182823810Y-110414285D01*
X182442857Y-110414285D01*
X182347619Y-110461904D01*
X182300000Y-110509523D01*
X182252381Y-110604761D01*
X182252381Y-110795238D01*
X182300000Y-110890476D01*
X182347619Y-110938095D01*
X182442857Y-110985714D01*
X182680952Y-110985714D01*
X182776190Y-110938095D01*
X182823810Y-110890476D01*
X182871429Y-110795238D01*
X182871429Y-110604761D01*
X182823810Y-110509523D01*
X182776190Y-110461904D01*
X182680952Y-110414285D01*
X175652381Y-112042857D02*
X175176190Y-112376191D01*
X175652381Y-112614286D02*
X174652381Y-112614286D01*
X174652381Y-112233333D01*
X174700000Y-112138095D01*
X174747619Y-112090476D01*
X174842857Y-112042857D01*
X174985714Y-112042857D01*
X175080952Y-112090476D01*
X175128571Y-112138095D01*
X175176190Y-112233333D01*
X175176190Y-112614286D01*
X175652381Y-111090476D02*
X175652381Y-111661905D01*
X175652381Y-111376191D02*
X174652381Y-111376191D01*
X174795238Y-111471429D01*
X174890476Y-111566667D01*
X174938095Y-111661905D01*
X174652381Y-110471429D02*
X174652381Y-110376190D01*
X174700000Y-110280952D01*
X174747619Y-110233333D01*
X174842857Y-110185714D01*
X175033333Y-110138095D01*
X175271429Y-110138095D01*
X175461905Y-110185714D01*
X175557143Y-110233333D01*
X175604762Y-110280952D01*
X175652381Y-110376190D01*
X175652381Y-110471429D01*
X175604762Y-110566667D01*
X175557143Y-110614286D01*
X175461905Y-110661905D01*
X175271429Y-110709524D01*
X175033333Y-110709524D01*
X174842857Y-110661905D01*
X174747619Y-110614286D01*
X174700000Y-110566667D01*
X174652381Y-110471429D01*
X172657143Y-92952381D02*
X172323809Y-92476190D01*
X172085714Y-92952381D02*
X172085714Y-91952381D01*
X172466667Y-91952381D01*
X172561905Y-92000000D01*
X172609524Y-92047619D01*
X172657143Y-92142857D01*
X172657143Y-92285714D01*
X172609524Y-92380952D01*
X172561905Y-92428571D01*
X172466667Y-92476190D01*
X172085714Y-92476190D01*
X173609524Y-92952381D02*
X173038095Y-92952381D01*
X173323809Y-92952381D02*
X173323809Y-91952381D01*
X173228571Y-92095238D01*
X173133333Y-92190476D01*
X173038095Y-92238095D01*
X174561905Y-92952381D02*
X173990476Y-92952381D01*
X174276190Y-92952381D02*
X174276190Y-91952381D01*
X174180952Y-92095238D01*
X174085714Y-92190476D01*
X173990476Y-92238095D01*
X176252381Y-131242857D02*
X175776190Y-131576191D01*
X176252381Y-131814286D02*
X175252381Y-131814286D01*
X175252381Y-131433333D01*
X175300000Y-131338095D01*
X175347619Y-131290476D01*
X175442857Y-131242857D01*
X175585714Y-131242857D01*
X175680952Y-131290476D01*
X175728571Y-131338095D01*
X175776190Y-131433333D01*
X175776190Y-131814286D01*
X176252381Y-130290476D02*
X176252381Y-130861905D01*
X176252381Y-130576191D02*
X175252381Y-130576191D01*
X175395238Y-130671429D01*
X175490476Y-130766667D01*
X175538095Y-130861905D01*
X175347619Y-129909524D02*
X175300000Y-129861905D01*
X175252381Y-129766667D01*
X175252381Y-129528571D01*
X175300000Y-129433333D01*
X175347619Y-129385714D01*
X175442857Y-129338095D01*
X175538095Y-129338095D01*
X175680952Y-129385714D01*
X176252381Y-129957143D01*
X176252381Y-129338095D01*
X178052381Y-131242857D02*
X177576190Y-131576191D01*
X178052381Y-131814286D02*
X177052381Y-131814286D01*
X177052381Y-131433333D01*
X177100000Y-131338095D01*
X177147619Y-131290476D01*
X177242857Y-131242857D01*
X177385714Y-131242857D01*
X177480952Y-131290476D01*
X177528571Y-131338095D01*
X177576190Y-131433333D01*
X177576190Y-131814286D01*
X178052381Y-130290476D02*
X178052381Y-130861905D01*
X178052381Y-130576191D02*
X177052381Y-130576191D01*
X177195238Y-130671429D01*
X177290476Y-130766667D01*
X177338095Y-130861905D01*
X177052381Y-129957143D02*
X177052381Y-129338095D01*
X177433333Y-129671429D01*
X177433333Y-129528571D01*
X177480952Y-129433333D01*
X177528571Y-129385714D01*
X177623810Y-129338095D01*
X177861905Y-129338095D01*
X177957143Y-129385714D01*
X178004762Y-129433333D01*
X178052381Y-129528571D01*
X178052381Y-129814286D01*
X178004762Y-129909524D01*
X177957143Y-129957143D01*
X188252381Y-136942857D02*
X187776190Y-137276191D01*
X188252381Y-137514286D02*
X187252381Y-137514286D01*
X187252381Y-137133333D01*
X187300000Y-137038095D01*
X187347619Y-136990476D01*
X187442857Y-136942857D01*
X187585714Y-136942857D01*
X187680952Y-136990476D01*
X187728571Y-137038095D01*
X187776190Y-137133333D01*
X187776190Y-137514286D01*
X188252381Y-135990476D02*
X188252381Y-136561905D01*
X188252381Y-136276191D02*
X187252381Y-136276191D01*
X187395238Y-136371429D01*
X187490476Y-136466667D01*
X187538095Y-136561905D01*
X187252381Y-135085714D02*
X187252381Y-135561905D01*
X187728571Y-135609524D01*
X187680952Y-135561905D01*
X187633333Y-135466667D01*
X187633333Y-135228571D01*
X187680952Y-135133333D01*
X187728571Y-135085714D01*
X187823810Y-135038095D01*
X188061905Y-135038095D01*
X188157143Y-135085714D01*
X188204762Y-135133333D01*
X188252381Y-135228571D01*
X188252381Y-135466667D01*
X188204762Y-135561905D01*
X188157143Y-135609524D01*
X190052381Y-136942857D02*
X189576190Y-137276191D01*
X190052381Y-137514286D02*
X189052381Y-137514286D01*
X189052381Y-137133333D01*
X189100000Y-137038095D01*
X189147619Y-136990476D01*
X189242857Y-136942857D01*
X189385714Y-136942857D01*
X189480952Y-136990476D01*
X189528571Y-137038095D01*
X189576190Y-137133333D01*
X189576190Y-137514286D01*
X190052381Y-135990476D02*
X190052381Y-136561905D01*
X190052381Y-136276191D02*
X189052381Y-136276191D01*
X189195238Y-136371429D01*
X189290476Y-136466667D01*
X189338095Y-136561905D01*
X189052381Y-135133333D02*
X189052381Y-135323810D01*
X189100000Y-135419048D01*
X189147619Y-135466667D01*
X189290476Y-135561905D01*
X189480952Y-135609524D01*
X189861905Y-135609524D01*
X189957143Y-135561905D01*
X190004762Y-135514286D01*
X190052381Y-135419048D01*
X190052381Y-135228571D01*
X190004762Y-135133333D01*
X189957143Y-135085714D01*
X189861905Y-135038095D01*
X189623810Y-135038095D01*
X189528571Y-135085714D01*
X189480952Y-135133333D01*
X189433333Y-135228571D01*
X189433333Y-135419048D01*
X189480952Y-135514286D01*
X189528571Y-135561905D01*
X189623810Y-135609524D01*
X176252381Y-123642857D02*
X175776190Y-123976191D01*
X176252381Y-124214286D02*
X175252381Y-124214286D01*
X175252381Y-123833333D01*
X175300000Y-123738095D01*
X175347619Y-123690476D01*
X175442857Y-123642857D01*
X175585714Y-123642857D01*
X175680952Y-123690476D01*
X175728571Y-123738095D01*
X175776190Y-123833333D01*
X175776190Y-124214286D01*
X176252381Y-122690476D02*
X176252381Y-123261905D01*
X176252381Y-122976191D02*
X175252381Y-122976191D01*
X175395238Y-123071429D01*
X175490476Y-123166667D01*
X175538095Y-123261905D01*
X175252381Y-122357143D02*
X175252381Y-121690476D01*
X176252381Y-122119048D01*
X178052381Y-123642857D02*
X177576190Y-123976191D01*
X178052381Y-124214286D02*
X177052381Y-124214286D01*
X177052381Y-123833333D01*
X177100000Y-123738095D01*
X177147619Y-123690476D01*
X177242857Y-123642857D01*
X177385714Y-123642857D01*
X177480952Y-123690476D01*
X177528571Y-123738095D01*
X177576190Y-123833333D01*
X177576190Y-124214286D01*
X178052381Y-122690476D02*
X178052381Y-123261905D01*
X178052381Y-122976191D02*
X177052381Y-122976191D01*
X177195238Y-123071429D01*
X177290476Y-123166667D01*
X177338095Y-123261905D01*
X177480952Y-122119048D02*
X177433333Y-122214286D01*
X177385714Y-122261905D01*
X177290476Y-122309524D01*
X177242857Y-122309524D01*
X177147619Y-122261905D01*
X177100000Y-122214286D01*
X177052381Y-122119048D01*
X177052381Y-121928571D01*
X177100000Y-121833333D01*
X177147619Y-121785714D01*
X177242857Y-121738095D01*
X177290476Y-121738095D01*
X177385714Y-121785714D01*
X177433333Y-121833333D01*
X177480952Y-121928571D01*
X177480952Y-122119048D01*
X177528571Y-122214286D01*
X177576190Y-122261905D01*
X177671429Y-122309524D01*
X177861905Y-122309524D01*
X177957143Y-122261905D01*
X178004762Y-122214286D01*
X178052381Y-122119048D01*
X178052381Y-121928571D01*
X178004762Y-121833333D01*
X177957143Y-121785714D01*
X177861905Y-121738095D01*
X177671429Y-121738095D01*
X177576190Y-121785714D01*
X177528571Y-121833333D01*
X177480952Y-121928571D01*
X188252381Y-129442857D02*
X187776190Y-129776191D01*
X188252381Y-130014286D02*
X187252381Y-130014286D01*
X187252381Y-129633333D01*
X187300000Y-129538095D01*
X187347619Y-129490476D01*
X187442857Y-129442857D01*
X187585714Y-129442857D01*
X187680952Y-129490476D01*
X187728571Y-129538095D01*
X187776190Y-129633333D01*
X187776190Y-130014286D01*
X187347619Y-129061905D02*
X187300000Y-129014286D01*
X187252381Y-128919048D01*
X187252381Y-128680952D01*
X187300000Y-128585714D01*
X187347619Y-128538095D01*
X187442857Y-128490476D01*
X187538095Y-128490476D01*
X187680952Y-128538095D01*
X188252381Y-129109524D01*
X188252381Y-128490476D01*
X187252381Y-127871429D02*
X187252381Y-127776190D01*
X187300000Y-127680952D01*
X187347619Y-127633333D01*
X187442857Y-127585714D01*
X187633333Y-127538095D01*
X187871429Y-127538095D01*
X188061905Y-127585714D01*
X188157143Y-127633333D01*
X188204762Y-127680952D01*
X188252381Y-127776190D01*
X188252381Y-127871429D01*
X188204762Y-127966667D01*
X188157143Y-128014286D01*
X188061905Y-128061905D01*
X187871429Y-128109524D01*
X187633333Y-128109524D01*
X187442857Y-128061905D01*
X187347619Y-128014286D01*
X187300000Y-127966667D01*
X187252381Y-127871429D01*
X190052381Y-129442857D02*
X189576190Y-129776191D01*
X190052381Y-130014286D02*
X189052381Y-130014286D01*
X189052381Y-129633333D01*
X189100000Y-129538095D01*
X189147619Y-129490476D01*
X189242857Y-129442857D01*
X189385714Y-129442857D01*
X189480952Y-129490476D01*
X189528571Y-129538095D01*
X189576190Y-129633333D01*
X189576190Y-130014286D01*
X189147619Y-129061905D02*
X189100000Y-129014286D01*
X189052381Y-128919048D01*
X189052381Y-128680952D01*
X189100000Y-128585714D01*
X189147619Y-128538095D01*
X189242857Y-128490476D01*
X189338095Y-128490476D01*
X189480952Y-128538095D01*
X190052381Y-129109524D01*
X190052381Y-128490476D01*
X190052381Y-127538095D02*
X190052381Y-128109524D01*
X190052381Y-127823810D02*
X189052381Y-127823810D01*
X189195238Y-127919048D01*
X189290476Y-128014286D01*
X189338095Y-128109524D01*
X204352381Y-90642857D02*
X203876190Y-90976191D01*
X204352381Y-91214286D02*
X203352381Y-91214286D01*
X203352381Y-90833333D01*
X203400000Y-90738095D01*
X203447619Y-90690476D01*
X203542857Y-90642857D01*
X203685714Y-90642857D01*
X203780952Y-90690476D01*
X203828571Y-90738095D01*
X203876190Y-90833333D01*
X203876190Y-91214286D01*
X203447619Y-90261905D02*
X203400000Y-90214286D01*
X203352381Y-90119048D01*
X203352381Y-89880952D01*
X203400000Y-89785714D01*
X203447619Y-89738095D01*
X203542857Y-89690476D01*
X203638095Y-89690476D01*
X203780952Y-89738095D01*
X204352381Y-90309524D01*
X204352381Y-89690476D01*
X203447619Y-89309524D02*
X203400000Y-89261905D01*
X203352381Y-89166667D01*
X203352381Y-88928571D01*
X203400000Y-88833333D01*
X203447619Y-88785714D01*
X203542857Y-88738095D01*
X203638095Y-88738095D01*
X203780952Y-88785714D01*
X204352381Y-89357143D01*
X204352381Y-88738095D01*
X170252381Y-81742857D02*
X169776190Y-82076191D01*
X170252381Y-82314286D02*
X169252381Y-82314286D01*
X169252381Y-81933333D01*
X169300000Y-81838095D01*
X169347619Y-81790476D01*
X169442857Y-81742857D01*
X169585714Y-81742857D01*
X169680952Y-81790476D01*
X169728571Y-81838095D01*
X169776190Y-81933333D01*
X169776190Y-82314286D01*
X169347619Y-81361905D02*
X169300000Y-81314286D01*
X169252381Y-81219048D01*
X169252381Y-80980952D01*
X169300000Y-80885714D01*
X169347619Y-80838095D01*
X169442857Y-80790476D01*
X169538095Y-80790476D01*
X169680952Y-80838095D01*
X170252381Y-81409524D01*
X170252381Y-80790476D01*
X169252381Y-80457143D02*
X169252381Y-79838095D01*
X169633333Y-80171429D01*
X169633333Y-80028571D01*
X169680952Y-79933333D01*
X169728571Y-79885714D01*
X169823810Y-79838095D01*
X170061905Y-79838095D01*
X170157143Y-79885714D01*
X170204762Y-79933333D01*
X170252381Y-80028571D01*
X170252381Y-80314286D01*
X170204762Y-80409524D01*
X170157143Y-80457143D01*
X172052381Y-81742857D02*
X171576190Y-82076191D01*
X172052381Y-82314286D02*
X171052381Y-82314286D01*
X171052381Y-81933333D01*
X171100000Y-81838095D01*
X171147619Y-81790476D01*
X171242857Y-81742857D01*
X171385714Y-81742857D01*
X171480952Y-81790476D01*
X171528571Y-81838095D01*
X171576190Y-81933333D01*
X171576190Y-82314286D01*
X171147619Y-81361905D02*
X171100000Y-81314286D01*
X171052381Y-81219048D01*
X171052381Y-80980952D01*
X171100000Y-80885714D01*
X171147619Y-80838095D01*
X171242857Y-80790476D01*
X171338095Y-80790476D01*
X171480952Y-80838095D01*
X172052381Y-81409524D01*
X172052381Y-80790476D01*
X171385714Y-79933333D02*
X172052381Y-79933333D01*
X171004762Y-80171429D02*
X171719048Y-80409524D01*
X171719048Y-79790476D01*
X182252381Y-87442857D02*
X181776190Y-87776191D01*
X182252381Y-88014286D02*
X181252381Y-88014286D01*
X181252381Y-87633333D01*
X181300000Y-87538095D01*
X181347619Y-87490476D01*
X181442857Y-87442857D01*
X181585714Y-87442857D01*
X181680952Y-87490476D01*
X181728571Y-87538095D01*
X181776190Y-87633333D01*
X181776190Y-88014286D01*
X181347619Y-87061905D02*
X181300000Y-87014286D01*
X181252381Y-86919048D01*
X181252381Y-86680952D01*
X181300000Y-86585714D01*
X181347619Y-86538095D01*
X181442857Y-86490476D01*
X181538095Y-86490476D01*
X181680952Y-86538095D01*
X182252381Y-87109524D01*
X182252381Y-86490476D01*
X181252381Y-85633333D02*
X181252381Y-85823810D01*
X181300000Y-85919048D01*
X181347619Y-85966667D01*
X181490476Y-86061905D01*
X181680952Y-86109524D01*
X182061905Y-86109524D01*
X182157143Y-86061905D01*
X182204762Y-86014286D01*
X182252381Y-85919048D01*
X182252381Y-85728571D01*
X182204762Y-85633333D01*
X182157143Y-85585714D01*
X182061905Y-85538095D01*
X181823810Y-85538095D01*
X181728571Y-85585714D01*
X181680952Y-85633333D01*
X181633333Y-85728571D01*
X181633333Y-85919048D01*
X181680952Y-86014286D01*
X181728571Y-86061905D01*
X181823810Y-86109524D01*
X184052381Y-87442857D02*
X183576190Y-87776191D01*
X184052381Y-88014286D02*
X183052381Y-88014286D01*
X183052381Y-87633333D01*
X183100000Y-87538095D01*
X183147619Y-87490476D01*
X183242857Y-87442857D01*
X183385714Y-87442857D01*
X183480952Y-87490476D01*
X183528571Y-87538095D01*
X183576190Y-87633333D01*
X183576190Y-88014286D01*
X183147619Y-87061905D02*
X183100000Y-87014286D01*
X183052381Y-86919048D01*
X183052381Y-86680952D01*
X183100000Y-86585714D01*
X183147619Y-86538095D01*
X183242857Y-86490476D01*
X183338095Y-86490476D01*
X183480952Y-86538095D01*
X184052381Y-87109524D01*
X184052381Y-86490476D01*
X183052381Y-86157143D02*
X183052381Y-85490476D01*
X184052381Y-85919048D01*
X169838095Y-98022381D02*
X169838095Y-98831905D01*
X169885714Y-98927143D01*
X169933333Y-98974762D01*
X170028571Y-99022381D01*
X170219048Y-99022381D01*
X170314286Y-98974762D01*
X170361905Y-98927143D01*
X170409524Y-98831905D01*
X170409524Y-98022381D01*
X171409524Y-99022381D02*
X170838095Y-99022381D01*
X171123809Y-99022381D02*
X171123809Y-98022381D01*
X171028571Y-98165238D01*
X170933333Y-98260476D01*
X170838095Y-98308095D01*
X195702381Y-81761905D02*
X196511905Y-81761905D01*
X196607143Y-81714286D01*
X196654762Y-81666667D01*
X196702381Y-81571429D01*
X196702381Y-81380952D01*
X196654762Y-81285714D01*
X196607143Y-81238095D01*
X196511905Y-81190476D01*
X195702381Y-81190476D01*
X195797619Y-80761905D02*
X195750000Y-80714286D01*
X195702381Y-80619048D01*
X195702381Y-80380952D01*
X195750000Y-80285714D01*
X195797619Y-80238095D01*
X195892857Y-80190476D01*
X195988095Y-80190476D01*
X196130952Y-80238095D01*
X196702381Y-80809524D01*
X196702381Y-80190476D01*
X179757143Y-131166666D02*
X179804762Y-131214285D01*
X179852381Y-131357142D01*
X179852381Y-131452380D01*
X179804762Y-131595238D01*
X179709524Y-131690476D01*
X179614286Y-131738095D01*
X179423810Y-131785714D01*
X179280952Y-131785714D01*
X179090476Y-131738095D01*
X178995238Y-131690476D01*
X178900000Y-131595238D01*
X178852381Y-131452380D01*
X178852381Y-131357142D01*
X178900000Y-131214285D01*
X178947619Y-131166666D01*
X178852381Y-130309523D02*
X178852381Y-130500000D01*
X178900000Y-130595238D01*
X178947619Y-130642857D01*
X179090476Y-130738095D01*
X179280952Y-130785714D01*
X179661905Y-130785714D01*
X179757143Y-130738095D01*
X179804762Y-130690476D01*
X179852381Y-130595238D01*
X179852381Y-130404761D01*
X179804762Y-130309523D01*
X179757143Y-130261904D01*
X179661905Y-130214285D01*
X179423810Y-130214285D01*
X179328571Y-130261904D01*
X179280952Y-130309523D01*
X179233333Y-130404761D01*
X179233333Y-130595238D01*
X179280952Y-130690476D01*
X179328571Y-130738095D01*
X179423810Y-130785714D01*
X182533334Y-132357143D02*
X182485715Y-132404762D01*
X182342858Y-132452381D01*
X182247620Y-132452381D01*
X182104762Y-132404762D01*
X182009524Y-132309524D01*
X181961905Y-132214286D01*
X181914286Y-132023810D01*
X181914286Y-131880952D01*
X181961905Y-131690476D01*
X182009524Y-131595238D01*
X182104762Y-131500000D01*
X182247620Y-131452381D01*
X182342858Y-131452381D01*
X182485715Y-131500000D01*
X182533334Y-131547619D01*
X182866667Y-131452381D02*
X183533334Y-131452381D01*
X183104762Y-132452381D01*
X181657143Y-126066666D02*
X181704762Y-126114285D01*
X181752381Y-126257142D01*
X181752381Y-126352380D01*
X181704762Y-126495238D01*
X181609524Y-126590476D01*
X181514286Y-126638095D01*
X181323810Y-126685714D01*
X181180952Y-126685714D01*
X180990476Y-126638095D01*
X180895238Y-126590476D01*
X180800000Y-126495238D01*
X180752381Y-126352380D01*
X180752381Y-126257142D01*
X180800000Y-126114285D01*
X180847619Y-126066666D01*
X181180952Y-125495238D02*
X181133333Y-125590476D01*
X181085714Y-125638095D01*
X180990476Y-125685714D01*
X180942857Y-125685714D01*
X180847619Y-125638095D01*
X180800000Y-125590476D01*
X180752381Y-125495238D01*
X180752381Y-125304761D01*
X180800000Y-125209523D01*
X180847619Y-125161904D01*
X180942857Y-125114285D01*
X180990476Y-125114285D01*
X181085714Y-125161904D01*
X181133333Y-125209523D01*
X181180952Y-125304761D01*
X181180952Y-125495238D01*
X181228571Y-125590476D01*
X181276190Y-125638095D01*
X181371429Y-125685714D01*
X181561905Y-125685714D01*
X181657143Y-125638095D01*
X181704762Y-125590476D01*
X181752381Y-125495238D01*
X181752381Y-125304761D01*
X181704762Y-125209523D01*
X181657143Y-125161904D01*
X181561905Y-125114285D01*
X181371429Y-125114285D01*
X181276190Y-125161904D01*
X181228571Y-125209523D01*
X181180952Y-125304761D01*
X182633334Y-124857143D02*
X182585715Y-124904762D01*
X182442858Y-124952381D01*
X182347620Y-124952381D01*
X182204762Y-124904762D01*
X182109524Y-124809524D01*
X182061905Y-124714286D01*
X182014286Y-124523810D01*
X182014286Y-124380952D01*
X182061905Y-124190476D01*
X182109524Y-124095238D01*
X182204762Y-124000000D01*
X182347620Y-123952381D01*
X182442858Y-123952381D01*
X182585715Y-124000000D01*
X182633334Y-124047619D01*
X183109524Y-124952381D02*
X183300000Y-124952381D01*
X183395239Y-124904762D01*
X183442858Y-124857143D01*
X183538096Y-124714286D01*
X183585715Y-124523810D01*
X183585715Y-124142857D01*
X183538096Y-124047619D01*
X183490477Y-124000000D01*
X183395239Y-123952381D01*
X183204762Y-123952381D01*
X183109524Y-124000000D01*
X183061905Y-124047619D01*
X183014286Y-124142857D01*
X183014286Y-124380952D01*
X183061905Y-124476190D01*
X183109524Y-124523810D01*
X183204762Y-124571429D01*
X183395239Y-124571429D01*
X183490477Y-124523810D01*
X183538096Y-124476190D01*
X183585715Y-124380952D01*
X173757143Y-81642857D02*
X173804762Y-81690476D01*
X173852381Y-81833333D01*
X173852381Y-81928571D01*
X173804762Y-82071429D01*
X173709524Y-82166667D01*
X173614286Y-82214286D01*
X173423810Y-82261905D01*
X173280952Y-82261905D01*
X173090476Y-82214286D01*
X172995238Y-82166667D01*
X172900000Y-82071429D01*
X172852381Y-81928571D01*
X172852381Y-81833333D01*
X172900000Y-81690476D01*
X172947619Y-81642857D01*
X173852381Y-80690476D02*
X173852381Y-81261905D01*
X173852381Y-80976191D02*
X172852381Y-80976191D01*
X172995238Y-81071429D01*
X173090476Y-81166667D01*
X173138095Y-81261905D01*
X172852381Y-79785714D02*
X172852381Y-80261905D01*
X173328571Y-80309524D01*
X173280952Y-80261905D01*
X173233333Y-80166667D01*
X173233333Y-79928571D01*
X173280952Y-79833333D01*
X173328571Y-79785714D01*
X173423810Y-79738095D01*
X173661905Y-79738095D01*
X173757143Y-79785714D01*
X173804762Y-79833333D01*
X173852381Y-79928571D01*
X173852381Y-80166667D01*
X173804762Y-80261905D01*
X173757143Y-80309524D01*
X175657143Y-82857143D02*
X175609524Y-82904762D01*
X175466667Y-82952381D01*
X175371429Y-82952381D01*
X175228571Y-82904762D01*
X175133333Y-82809524D01*
X175085714Y-82714286D01*
X175038095Y-82523810D01*
X175038095Y-82380952D01*
X175085714Y-82190476D01*
X175133333Y-82095238D01*
X175228571Y-82000000D01*
X175371429Y-81952381D01*
X175466667Y-81952381D01*
X175609524Y-82000000D01*
X175657143Y-82047619D01*
X176609524Y-82952381D02*
X176038095Y-82952381D01*
X176323809Y-82952381D02*
X176323809Y-81952381D01*
X176228571Y-82095238D01*
X176133333Y-82190476D01*
X176038095Y-82238095D01*
X177466667Y-81952381D02*
X177276190Y-81952381D01*
X177180952Y-82000000D01*
X177133333Y-82047619D01*
X177038095Y-82190476D01*
X176990476Y-82380952D01*
X176990476Y-82761905D01*
X177038095Y-82857143D01*
X177085714Y-82904762D01*
X177180952Y-82952381D01*
X177371429Y-82952381D01*
X177466667Y-82904762D01*
X177514286Y-82857143D01*
X177561905Y-82761905D01*
X177561905Y-82523810D01*
X177514286Y-82428571D01*
X177466667Y-82380952D01*
X177371429Y-82333333D01*
X177180952Y-82333333D01*
X177085714Y-82380952D01*
X177038095Y-82428571D01*
X176990476Y-82523810D01*
X191252381Y-131442857D02*
X190776190Y-131776191D01*
X191252381Y-132014286D02*
X190252381Y-132014286D01*
X190252381Y-131633333D01*
X190300000Y-131538095D01*
X190347619Y-131490476D01*
X190442857Y-131442857D01*
X190585714Y-131442857D01*
X190680952Y-131490476D01*
X190728571Y-131538095D01*
X190776190Y-131633333D01*
X190776190Y-132014286D01*
X191252381Y-130490476D02*
X191252381Y-131061905D01*
X191252381Y-130776191D02*
X190252381Y-130776191D01*
X190395238Y-130871429D01*
X190490476Y-130966667D01*
X190538095Y-131061905D01*
X190585714Y-129633333D02*
X191252381Y-129633333D01*
X190204762Y-129871429D02*
X190919048Y-130109524D01*
X190919048Y-129490476D01*
X191252381Y-123942857D02*
X190776190Y-124276191D01*
X191252381Y-124514286D02*
X190252381Y-124514286D01*
X190252381Y-124133333D01*
X190300000Y-124038095D01*
X190347619Y-123990476D01*
X190442857Y-123942857D01*
X190585714Y-123942857D01*
X190680952Y-123990476D01*
X190728571Y-124038095D01*
X190776190Y-124133333D01*
X190776190Y-124514286D01*
X191252381Y-122990476D02*
X191252381Y-123561905D01*
X191252381Y-123276191D02*
X190252381Y-123276191D01*
X190395238Y-123371429D01*
X190490476Y-123466667D01*
X190538095Y-123561905D01*
X191252381Y-122514286D02*
X191252381Y-122323810D01*
X191204762Y-122228571D01*
X191157143Y-122180952D01*
X191014286Y-122085714D01*
X190823810Y-122038095D01*
X190442857Y-122038095D01*
X190347619Y-122085714D01*
X190300000Y-122133333D01*
X190252381Y-122228571D01*
X190252381Y-122419048D01*
X190300000Y-122514286D01*
X190347619Y-122561905D01*
X190442857Y-122609524D01*
X190680952Y-122609524D01*
X190776190Y-122561905D01*
X190823810Y-122514286D01*
X190871429Y-122419048D01*
X190871429Y-122228571D01*
X190823810Y-122133333D01*
X190776190Y-122085714D01*
X190680952Y-122038095D01*
X179357143Y-81552381D02*
X179023809Y-81076190D01*
X178785714Y-81552381D02*
X178785714Y-80552381D01*
X179166667Y-80552381D01*
X179261905Y-80600000D01*
X179309524Y-80647619D01*
X179357143Y-80742857D01*
X179357143Y-80885714D01*
X179309524Y-80980952D01*
X179261905Y-81028571D01*
X179166667Y-81076190D01*
X178785714Y-81076190D01*
X179738095Y-80647619D02*
X179785714Y-80600000D01*
X179880952Y-80552381D01*
X180119048Y-80552381D01*
X180214286Y-80600000D01*
X180261905Y-80647619D01*
X180309524Y-80742857D01*
X180309524Y-80838095D01*
X180261905Y-80980952D01*
X179690476Y-81552381D01*
X180309524Y-81552381D01*
X181214286Y-80552381D02*
X180738095Y-80552381D01*
X180690476Y-81028571D01*
X180738095Y-80980952D01*
X180833333Y-80933333D01*
X181071429Y-80933333D01*
X181166667Y-80980952D01*
X181214286Y-81028571D01*
X181261905Y-81123810D01*
X181261905Y-81361905D01*
X181214286Y-81457143D01*
X181166667Y-81504762D01*
X181071429Y-81552381D01*
X180833333Y-81552381D01*
X180738095Y-81504762D01*
X180690476Y-81457143D01*
X181938095Y-136652381D02*
X181938095Y-137461905D01*
X181985714Y-137557143D01*
X182033333Y-137604762D01*
X182128571Y-137652381D01*
X182319048Y-137652381D01*
X182414286Y-137604762D01*
X182461905Y-137557143D01*
X182509524Y-137461905D01*
X182509524Y-136652381D01*
X183414286Y-136985714D02*
X183414286Y-137652381D01*
X183176190Y-136604762D02*
X182938095Y-137319048D01*
X183557143Y-137319048D01*
X181938095Y-129152381D02*
X181938095Y-129961905D01*
X181985714Y-130057143D01*
X182033333Y-130104762D01*
X182128571Y-130152381D01*
X182319048Y-130152381D01*
X182414286Y-130104762D01*
X182461905Y-130057143D01*
X182509524Y-129961905D01*
X182509524Y-129152381D01*
X183461905Y-129152381D02*
X182985714Y-129152381D01*
X182938095Y-129628571D01*
X182985714Y-129580952D01*
X183080952Y-129533333D01*
X183319048Y-129533333D01*
X183414286Y-129580952D01*
X183461905Y-129628571D01*
X183509524Y-129723810D01*
X183509524Y-129961905D01*
X183461905Y-130057143D01*
X183414286Y-130104762D01*
X183319048Y-130152381D01*
X183080952Y-130152381D01*
X182985714Y-130104762D01*
X182938095Y-130057143D01*
X174538095Y-87252381D02*
X174538095Y-88061905D01*
X174585714Y-88157143D01*
X174633333Y-88204762D01*
X174728571Y-88252381D01*
X174919048Y-88252381D01*
X175014286Y-88204762D01*
X175061905Y-88157143D01*
X175109524Y-88061905D01*
X175109524Y-87252381D01*
X175490476Y-87252381D02*
X176157143Y-87252381D01*
X175728571Y-88252381D01*
X195261905Y-130452381D02*
X195261905Y-129452381D01*
X195642858Y-129452381D01*
X195738096Y-129500000D01*
X195785715Y-129547619D01*
X195833334Y-129642857D01*
X195833334Y-129785714D01*
X195785715Y-129880952D01*
X195738096Y-129928571D01*
X195642858Y-129976190D01*
X195261905Y-129976190D01*
X196738096Y-129452381D02*
X196261905Y-129452381D01*
X196214286Y-129928571D01*
X196261905Y-129880952D01*
X196357143Y-129833333D01*
X196595239Y-129833333D01*
X196690477Y-129880952D01*
X196738096Y-129928571D01*
X196785715Y-130023810D01*
X196785715Y-130261905D01*
X196738096Y-130357143D01*
X196690477Y-130404762D01*
X196595239Y-130452381D01*
X196357143Y-130452381D01*
X196261905Y-130404762D01*
X196214286Y-130357143D01*
X195261905Y-122952381D02*
X195261905Y-121952381D01*
X195642858Y-121952381D01*
X195738096Y-122000000D01*
X195785715Y-122047619D01*
X195833334Y-122142857D01*
X195833334Y-122285714D01*
X195785715Y-122380952D01*
X195738096Y-122428571D01*
X195642858Y-122476190D01*
X195261905Y-122476190D01*
X196690477Y-121952381D02*
X196500000Y-121952381D01*
X196404762Y-122000000D01*
X196357143Y-122047619D01*
X196261905Y-122190476D01*
X196214286Y-122380952D01*
X196214286Y-122761905D01*
X196261905Y-122857143D01*
X196309524Y-122904762D01*
X196404762Y-122952381D01*
X196595239Y-122952381D01*
X196690477Y-122904762D01*
X196738096Y-122857143D01*
X196785715Y-122761905D01*
X196785715Y-122523810D01*
X196738096Y-122428571D01*
X196690477Y-122380952D01*
X196595239Y-122333333D01*
X196404762Y-122333333D01*
X196309524Y-122380952D01*
X196261905Y-122428571D01*
X196214286Y-122523810D01*
X195261905Y-107952381D02*
X195261905Y-106952381D01*
X195642858Y-106952381D01*
X195738096Y-107000000D01*
X195785715Y-107047619D01*
X195833334Y-107142857D01*
X195833334Y-107285714D01*
X195785715Y-107380952D01*
X195738096Y-107428571D01*
X195642858Y-107476190D01*
X195261905Y-107476190D01*
X196166667Y-106952381D02*
X196833334Y-106952381D01*
X196404762Y-107952381D01*
X195261905Y-115452381D02*
X195261905Y-114452381D01*
X195642858Y-114452381D01*
X195738096Y-114500000D01*
X195785715Y-114547619D01*
X195833334Y-114642857D01*
X195833334Y-114785714D01*
X195785715Y-114880952D01*
X195738096Y-114928571D01*
X195642858Y-114976190D01*
X195261905Y-114976190D01*
X196404762Y-114880952D02*
X196309524Y-114833333D01*
X196261905Y-114785714D01*
X196214286Y-114690476D01*
X196214286Y-114642857D01*
X196261905Y-114547619D01*
X196309524Y-114500000D01*
X196404762Y-114452381D01*
X196595239Y-114452381D01*
X196690477Y-114500000D01*
X196738096Y-114547619D01*
X196785715Y-114642857D01*
X196785715Y-114690476D01*
X196738096Y-114785714D01*
X196690477Y-114833333D01*
X196595239Y-114880952D01*
X196404762Y-114880952D01*
X196309524Y-114928571D01*
X196261905Y-114976190D01*
X196214286Y-115071429D01*
X196214286Y-115261905D01*
X196261905Y-115357143D01*
X196309524Y-115404762D01*
X196404762Y-115452381D01*
X196595239Y-115452381D01*
X196690477Y-115404762D01*
X196738096Y-115357143D01*
X196785715Y-115261905D01*
X196785715Y-115071429D01*
X196738096Y-114976190D01*
X196690477Y-114928571D01*
X196595239Y-114880952D01*
X198485714Y-149752381D02*
X198485714Y-148752381D01*
X198866667Y-148752381D01*
X198961905Y-148800000D01*
X199009524Y-148847619D01*
X199057143Y-148942857D01*
X199057143Y-149085714D01*
X199009524Y-149180952D01*
X198961905Y-149228571D01*
X198866667Y-149276190D01*
X198485714Y-149276190D01*
X200009524Y-149752381D02*
X199438095Y-149752381D01*
X199723809Y-149752381D02*
X199723809Y-148752381D01*
X199628571Y-148895238D01*
X199533333Y-148990476D01*
X199438095Y-149038095D01*
X200628571Y-148752381D02*
X200723810Y-148752381D01*
X200819048Y-148800000D01*
X200866667Y-148847619D01*
X200914286Y-148942857D01*
X200961905Y-149133333D01*
X200961905Y-149371429D01*
X200914286Y-149561905D01*
X200866667Y-149657143D01*
X200819048Y-149704762D01*
X200723810Y-149752381D01*
X200628571Y-149752381D01*
X200533333Y-149704762D01*
X200485714Y-149657143D01*
X200438095Y-149561905D01*
X200390476Y-149371429D01*
X200390476Y-149133333D01*
X200438095Y-148942857D01*
X200485714Y-148847619D01*
X200533333Y-148800000D01*
X200628571Y-148752381D01*
X193452381Y-92533333D02*
X194166667Y-92533333D01*
X194309524Y-92580953D01*
X194404762Y-92676191D01*
X194452381Y-92819048D01*
X194452381Y-92914286D01*
X194452381Y-91533333D02*
X194452381Y-92104762D01*
X194452381Y-91819048D02*
X193452381Y-91819048D01*
X193595238Y-91914286D01*
X193690476Y-92009524D01*
X193738095Y-92104762D01*
X176023809Y-92576190D02*
X176023809Y-93052381D01*
X175690476Y-92052381D02*
X176023809Y-92576190D01*
X176357143Y-92052381D01*
X177214286Y-93052381D02*
X176642857Y-93052381D01*
X176928571Y-93052381D02*
X176928571Y-92052381D01*
X176833333Y-92195238D01*
X176738095Y-92290476D01*
X176642857Y-92338095D01*
X171261905Y-65452381D02*
X171261905Y-64452381D01*
X171642858Y-64452381D01*
X171738096Y-64500000D01*
X171785715Y-64547619D01*
X171833334Y-64642857D01*
X171833334Y-64785714D01*
X171785715Y-64880952D01*
X171738096Y-64928571D01*
X171642858Y-64976190D01*
X171261905Y-64976190D01*
X172309524Y-65452381D02*
X172500000Y-65452381D01*
X172595239Y-65404762D01*
X172642858Y-65357143D01*
X172738096Y-65214286D01*
X172785715Y-65023810D01*
X172785715Y-64642857D01*
X172738096Y-64547619D01*
X172690477Y-64500000D01*
X172595239Y-64452381D01*
X172404762Y-64452381D01*
X172309524Y-64500000D01*
X172261905Y-64547619D01*
X172214286Y-64642857D01*
X172214286Y-64880952D01*
X172261905Y-64976190D01*
X172309524Y-65023810D01*
X172404762Y-65071429D01*
X172595239Y-65071429D01*
X172690477Y-65023810D01*
X172738096Y-64976190D01*
X172785715Y-64880952D01*
%LPC*%
D13*
X185425000Y-99550000D03*
X184775000Y-99550000D03*
X184125000Y-99550000D03*
X183475000Y-99550000D03*
X182825000Y-99550000D03*
X182175000Y-99550000D03*
X181525000Y-99550000D03*
X180875000Y-99550000D03*
X180225000Y-99550000D03*
X179575000Y-99550000D03*
X178925000Y-99550000D03*
X178275000Y-99550000D03*
X177625000Y-99550000D03*
X176975000Y-99550000D03*
X176975000Y-106750000D03*
X177625000Y-106750000D03*
X178275000Y-106750000D03*
X178925000Y-106750000D03*
X179575000Y-106750000D03*
X180225000Y-106750000D03*
X180875000Y-106750000D03*
X181525000Y-106750000D03*
X182175000Y-106750000D03*
X182825000Y-106750000D03*
X183475000Y-106750000D03*
X184125000Y-106750000D03*
X184775000Y-106750000D03*
X185425000Y-106750000D03*
D14*
X162500000Y-95500000D03*
D15*
X162500000Y-97500000D03*
X162500000Y-99500000D03*
X162500000Y-101500000D03*
X162500000Y-103500000D03*
X162500000Y-105500000D03*
X162500000Y-107500000D03*
X162500000Y-109500000D03*
X162500000Y-111500000D03*
X162500000Y-113500000D03*
X162500000Y-115500000D03*
X162500000Y-117500000D03*
X162500000Y-119500000D03*
X162500000Y-121500000D03*
X162500000Y-123500000D03*
X162500000Y-125500000D03*
X162500000Y-127500000D03*
X162500000Y-129500000D03*
X162500000Y-131500000D03*
X162500000Y-133500000D03*
X162500000Y-135500000D03*
X162500000Y-137500000D03*
X162500000Y-139500000D03*
X162500000Y-141500000D03*
X162500000Y-143500000D03*
X164500000Y-95500000D03*
X164500000Y-97500000D03*
X164500000Y-99500000D03*
X164500000Y-101500000D03*
X164500000Y-103500000D03*
X164500000Y-105500000D03*
X164500000Y-107500000D03*
X164500000Y-109500000D03*
X164500000Y-111500000D03*
X164500000Y-113500000D03*
X164500000Y-115500000D03*
X164500000Y-117500000D03*
X164500000Y-119500000D03*
X164500000Y-121500000D03*
X164500000Y-123500000D03*
X164500000Y-125500000D03*
X164500000Y-127500000D03*
X164500000Y-129500000D03*
X164500000Y-131500000D03*
X164500000Y-133500000D03*
X164500000Y-135500000D03*
X164500000Y-137500000D03*
X164500000Y-139500000D03*
X164500000Y-141500000D03*
X164500000Y-143500000D03*
D16*
X172350000Y-98400000D03*
X173850000Y-98400000D03*
D10*
G36*
X171310571Y-135492195D02*
X171628769Y-135173997D01*
X172654073Y-136199301D01*
X172335875Y-136517499D01*
X171310571Y-135492195D01*
X171310571Y-135492195D01*
G37*
G36*
X170850952Y-135951814D02*
X171169150Y-135633616D01*
X172194454Y-136658920D01*
X171876256Y-136977118D01*
X170850952Y-135951814D01*
X170850952Y-135951814D01*
G37*
G36*
X170391333Y-136411433D02*
X170709531Y-136093235D01*
X171734835Y-137118539D01*
X171416637Y-137436737D01*
X170391333Y-136411433D01*
X170391333Y-136411433D01*
G37*
G36*
X169931713Y-136871053D02*
X170249911Y-136552855D01*
X171275215Y-137578159D01*
X170957017Y-137896357D01*
X169931713Y-136871053D01*
X169931713Y-136871053D01*
G37*
G36*
X169472094Y-137330672D02*
X169790292Y-137012474D01*
X170815596Y-138037778D01*
X170497398Y-138355976D01*
X169472094Y-137330672D01*
X169472094Y-137330672D01*
G37*
G36*
X169012474Y-137790292D02*
X169330672Y-137472094D01*
X170355976Y-138497398D01*
X170037778Y-138815596D01*
X169012474Y-137790292D01*
X169012474Y-137790292D01*
G37*
G36*
X168552855Y-138249911D02*
X168871053Y-137931713D01*
X169896357Y-138957017D01*
X169578159Y-139275215D01*
X168552855Y-138249911D01*
X168552855Y-138249911D01*
G37*
G36*
X168093235Y-138709531D02*
X168411433Y-138391333D01*
X169436737Y-139416637D01*
X169118539Y-139734835D01*
X168093235Y-138709531D01*
X168093235Y-138709531D01*
G37*
G36*
X167633616Y-139169150D02*
X167951814Y-138850952D01*
X168977118Y-139876256D01*
X168658920Y-140194454D01*
X167633616Y-139169150D01*
X167633616Y-139169150D01*
G37*
G36*
X167173997Y-139628769D02*
X167492195Y-139310571D01*
X168517499Y-140335875D01*
X168199301Y-140654073D01*
X167173997Y-139628769D01*
X167173997Y-139628769D01*
G37*
G36*
X171345927Y-143800699D02*
X171664125Y-143482501D01*
X172689429Y-144507805D01*
X172371231Y-144826003D01*
X171345927Y-143800699D01*
X171345927Y-143800699D01*
G37*
G36*
X171805546Y-143341080D02*
X172123744Y-143022882D01*
X173149048Y-144048186D01*
X172830850Y-144366384D01*
X171805546Y-143341080D01*
X171805546Y-143341080D01*
G37*
G36*
X172265165Y-142881461D02*
X172583363Y-142563263D01*
X173608667Y-143588567D01*
X173290469Y-143906765D01*
X172265165Y-142881461D01*
X172265165Y-142881461D01*
G37*
G36*
X172724785Y-142421841D02*
X173042983Y-142103643D01*
X174068287Y-143128947D01*
X173750089Y-143447145D01*
X172724785Y-142421841D01*
X172724785Y-142421841D01*
G37*
G36*
X173184404Y-141962222D02*
X173502602Y-141644024D01*
X174527906Y-142669328D01*
X174209708Y-142987526D01*
X173184404Y-141962222D01*
X173184404Y-141962222D01*
G37*
G36*
X173644024Y-141502602D02*
X173962222Y-141184404D01*
X174987526Y-142209708D01*
X174669328Y-142527906D01*
X173644024Y-141502602D01*
X173644024Y-141502602D01*
G37*
G36*
X174103643Y-141042983D02*
X174421841Y-140724785D01*
X175447145Y-141750089D01*
X175128947Y-142068287D01*
X174103643Y-141042983D01*
X174103643Y-141042983D01*
G37*
G36*
X174563263Y-140583363D02*
X174881461Y-140265165D01*
X175906765Y-141290469D01*
X175588567Y-141608667D01*
X174563263Y-140583363D01*
X174563263Y-140583363D01*
G37*
G36*
X175022882Y-140123744D02*
X175341080Y-139805546D01*
X176366384Y-140830850D01*
X176048186Y-141149048D01*
X175022882Y-140123744D01*
X175022882Y-140123744D01*
G37*
G36*
X175482501Y-139664125D02*
X175800699Y-139345927D01*
X176826003Y-140371231D01*
X176507805Y-140689429D01*
X175482501Y-139664125D01*
X175482501Y-139664125D01*
G37*
D16*
X167650000Y-98400000D03*
X169150000Y-98400000D03*
D10*
G36*
X175478338Y-136748008D02*
X174948008Y-137278338D01*
X174382322Y-136712652D01*
X174912652Y-136182322D01*
X175478338Y-136748008D01*
X175478338Y-136748008D01*
G37*
G36*
X174417678Y-135687348D02*
X173887348Y-136217678D01*
X173321662Y-135651992D01*
X173851992Y-135121662D01*
X174417678Y-135687348D01*
X174417678Y-135687348D01*
G37*
D17*
X196400000Y-82450000D03*
X196400000Y-83950000D03*
D10*
G36*
X175821662Y-138151992D02*
X176351992Y-137621662D01*
X176917678Y-138187348D01*
X176387348Y-138717678D01*
X175821662Y-138151992D01*
X175821662Y-138151992D01*
G37*
G36*
X176882322Y-139212652D02*
X177412652Y-138682322D01*
X177978338Y-139248008D01*
X177448008Y-139778338D01*
X176882322Y-139212652D01*
X176882322Y-139212652D01*
G37*
D16*
X180450000Y-108900000D03*
X181950000Y-108900000D03*
D17*
X187600000Y-99150000D03*
X187600000Y-100650000D03*
D16*
X183750000Y-108900000D03*
X185250000Y-108900000D03*
X179750000Y-92400000D03*
X178250000Y-92400000D03*
X181250000Y-92400000D03*
X182750000Y-92400000D03*
D18*
X166950700Y-120600000D03*
X168449300Y-120600000D03*
X186000000Y-110450700D03*
X186000000Y-111949300D03*
X171600000Y-112149300D03*
X171600000Y-110650700D03*
X172550700Y-89200000D03*
X174049300Y-89200000D03*
D14*
X156500000Y-95500000D03*
D15*
X156500000Y-97500000D03*
X156500000Y-99500000D03*
X156500000Y-101500000D03*
X156500000Y-103500000D03*
X156500000Y-105500000D03*
X156500000Y-107500000D03*
X156500000Y-109500000D03*
X156500000Y-111500000D03*
X156500000Y-113500000D03*
X156500000Y-115500000D03*
X156500000Y-117500000D03*
X156500000Y-119500000D03*
X156500000Y-121500000D03*
X156500000Y-123500000D03*
X156500000Y-125500000D03*
X156500000Y-127500000D03*
X156500000Y-129500000D03*
X156500000Y-131500000D03*
X156500000Y-133500000D03*
X156500000Y-135500000D03*
X156500000Y-137500000D03*
X156500000Y-139500000D03*
X156500000Y-141500000D03*
X156500000Y-143500000D03*
D14*
X158500000Y-95500000D03*
D15*
X158500000Y-97500000D03*
X158500000Y-99500000D03*
X158500000Y-101500000D03*
X158500000Y-103500000D03*
X158500000Y-105500000D03*
X158500000Y-107500000D03*
X158500000Y-109500000D03*
X158500000Y-111500000D03*
X158500000Y-113500000D03*
X158500000Y-115500000D03*
X158500000Y-117500000D03*
X158500000Y-119500000D03*
X158500000Y-121500000D03*
X158500000Y-123500000D03*
X158500000Y-125500000D03*
X158500000Y-127500000D03*
X158500000Y-129500000D03*
X158500000Y-131500000D03*
X158500000Y-133500000D03*
X158500000Y-135500000D03*
X158500000Y-137500000D03*
X158500000Y-139500000D03*
X158500000Y-141500000D03*
X158500000Y-143500000D03*
X160500000Y-95500000D03*
X160500000Y-97500000D03*
X160500000Y-99500000D03*
X160500000Y-101500000D03*
X160500000Y-103500000D03*
X160500000Y-105500000D03*
X160500000Y-107500000D03*
X160500000Y-109500000D03*
X160500000Y-111500000D03*
X160500000Y-113500000D03*
X160500000Y-115500000D03*
X160500000Y-117500000D03*
X160500000Y-119500000D03*
X160500000Y-121500000D03*
X160500000Y-123500000D03*
X160500000Y-125500000D03*
X160500000Y-127500000D03*
X160500000Y-129500000D03*
X160500000Y-131500000D03*
X160500000Y-133500000D03*
X160500000Y-135500000D03*
X160500000Y-137500000D03*
X160500000Y-139500000D03*
X160500000Y-141500000D03*
X160500000Y-143500000D03*
D19*
X201700000Y-77500000D03*
D20*
X199000000Y-90000000D03*
D21*
X196460000Y-90000000D03*
D22*
X192900000Y-95960000D03*
D23*
X192900000Y-98500000D03*
X192900000Y-101040000D03*
D24*
X167150000Y-107300000D03*
X168650000Y-107300000D03*
X177450000Y-108900000D03*
X178950000Y-108900000D03*
D25*
X189600000Y-113050000D03*
X189600000Y-114550000D03*
X187800000Y-113050000D03*
X187800000Y-114550000D03*
D10*
G36*
X168725305Y-142419239D02*
X168088909Y-143055635D01*
X167735355Y-142702081D01*
X168371751Y-142065685D01*
X168725305Y-142419239D01*
X168725305Y-142419239D01*
G37*
G36*
X167664645Y-141358579D02*
X167028249Y-141994975D01*
X166674695Y-141641421D01*
X167311091Y-141005025D01*
X167664645Y-141358579D01*
X167664645Y-141358579D01*
G37*
D25*
X189600000Y-117850000D03*
X189600000Y-119350000D03*
X187800000Y-117850000D03*
X187800000Y-119350000D03*
D24*
X168450000Y-122200000D03*
X166950000Y-122200000D03*
D25*
X184300000Y-111950000D03*
X184300000Y-110450000D03*
X173300000Y-110650000D03*
X173300000Y-112150000D03*
D24*
X174050000Y-90900000D03*
X172550000Y-90900000D03*
D25*
X175800000Y-132550000D03*
X175800000Y-134050000D03*
X177600000Y-134050000D03*
X177600000Y-132550000D03*
X187800000Y-132850000D03*
X187800000Y-134350000D03*
X189600000Y-132850000D03*
X189600000Y-134350000D03*
X175800000Y-125050000D03*
X175800000Y-126550000D03*
X177600000Y-126550000D03*
X177600000Y-125050000D03*
X187800000Y-125350000D03*
X187800000Y-126850000D03*
X189600000Y-125350000D03*
X189600000Y-126850000D03*
X202000000Y-89250000D03*
X202000000Y-90750000D03*
X169800000Y-83050000D03*
X169800000Y-84550000D03*
X171600000Y-84550000D03*
X171600000Y-83050000D03*
X181800000Y-83350000D03*
X181800000Y-84850000D03*
X183600000Y-83350000D03*
X183600000Y-84850000D03*
D26*
X167650000Y-99945000D03*
X167650000Y-100595000D03*
X167650000Y-101245000D03*
X167650000Y-101895000D03*
X167650000Y-102545000D03*
X167650000Y-103195000D03*
X167650000Y-103845000D03*
X167650000Y-104495000D03*
X167650000Y-105145000D03*
X167650000Y-105795000D03*
X173550000Y-105795000D03*
X173550000Y-105145000D03*
X173550000Y-104495000D03*
X173550000Y-103845000D03*
X173550000Y-103195000D03*
X173550000Y-102545000D03*
X173550000Y-101895000D03*
X173550000Y-101245000D03*
X173550000Y-100595000D03*
X173550000Y-99945000D03*
D27*
X194875000Y-78150000D03*
X194225000Y-78150000D03*
X193575000Y-78150000D03*
X192925000Y-78150000D03*
X192275000Y-78150000D03*
X191625000Y-78150000D03*
X190975000Y-78150000D03*
X190325000Y-78150000D03*
X189675000Y-78150000D03*
X189025000Y-78150000D03*
X188375000Y-78150000D03*
X187725000Y-78150000D03*
X187725000Y-83850000D03*
X188375000Y-83850000D03*
X189025000Y-83850000D03*
X189675000Y-83850000D03*
X190325000Y-83850000D03*
X190975000Y-83850000D03*
X191625000Y-83850000D03*
X192275000Y-83850000D03*
X192925000Y-83850000D03*
X193575000Y-83850000D03*
X194225000Y-83850000D03*
X194875000Y-83850000D03*
D17*
X179400000Y-132650000D03*
X179400000Y-134150000D03*
D16*
X184450000Y-132000000D03*
X185950000Y-132000000D03*
D17*
X179400000Y-125150000D03*
X179400000Y-126650000D03*
D16*
X184450000Y-124500000D03*
X185950000Y-124500000D03*
D17*
X173400000Y-83150000D03*
X173400000Y-84650000D03*
D16*
X178450000Y-82500000D03*
X179950000Y-82500000D03*
D24*
X189450000Y-131300000D03*
X187950000Y-131300000D03*
X189450000Y-123800000D03*
X187950000Y-123800000D03*
X183450000Y-81800000D03*
X181950000Y-81800000D03*
D26*
X181400000Y-133725000D03*
X181400000Y-134375000D03*
X181400000Y-135025000D03*
X181400000Y-135675000D03*
X185800000Y-135675000D03*
X185800000Y-135025000D03*
X185800000Y-134375000D03*
X185800000Y-133725000D03*
X181400000Y-126225000D03*
X181400000Y-126875000D03*
X181400000Y-127525000D03*
X181400000Y-128175000D03*
X185800000Y-128175000D03*
X185800000Y-127525000D03*
X185800000Y-126875000D03*
X185800000Y-126225000D03*
X175400000Y-84225000D03*
X175400000Y-84875000D03*
X175400000Y-85525000D03*
X175400000Y-86175000D03*
X179800000Y-86175000D03*
X179800000Y-85525000D03*
X179800000Y-84875000D03*
X179800000Y-84225000D03*
D28*
X194500000Y-133200000D03*
D29*
X197000000Y-133200000D03*
X199500000Y-133200000D03*
X202000000Y-133200000D03*
D28*
X194500000Y-125700000D03*
D29*
X197000000Y-125700000D03*
X199500000Y-125700000D03*
X202000000Y-125700000D03*
D28*
X194500000Y-110700000D03*
D29*
X197000000Y-110700000D03*
X199500000Y-110700000D03*
X202000000Y-110700000D03*
D28*
X194500000Y-118200000D03*
D29*
X197000000Y-118200000D03*
X199500000Y-118200000D03*
X202000000Y-118200000D03*
D28*
X202000000Y-146000000D03*
D29*
X199500000Y-146000000D03*
X197000000Y-146000000D03*
X194500000Y-146000000D03*
X192000000Y-146000000D03*
X189500000Y-146000000D03*
X187000000Y-146000000D03*
X184500000Y-146000000D03*
X182000000Y-146000000D03*
X179500000Y-146000000D03*
D30*
X200200000Y-99750000D03*
D31*
X200200000Y-94750000D03*
D32*
X178059060Y-95650000D03*
X182940940Y-95650000D03*
D33*
X175000000Y-72000000D03*
D34*
X175000000Y-69460000D03*
X177540000Y-72000000D03*
X177540000Y-69460000D03*
X180080000Y-72000000D03*
X180080000Y-69460000D03*
X182620000Y-72000000D03*
X182620000Y-69460000D03*
X185160000Y-72000000D03*
X185160000Y-69460000D03*
X187700000Y-72000000D03*
X187700000Y-69460000D03*
X190240000Y-72000000D03*
X190240000Y-69460000D03*
X192780000Y-72000000D03*
X192780000Y-69460000D03*
X195320000Y-72000000D03*
X195320000Y-69460000D03*
X197860000Y-72000000D03*
X197860000Y-69460000D03*
M02*
