G04 #@! TF.FileFunction,Soldermask,Top*
%FSLAX46Y46*%
G04 Gerber Fmt 4.6, Leading zero omitted, Abs format (unit mm)*
G04 Created by KiCad (PCBNEW 4.0.4-stable) date 12/01/16 01:31:52*
%MOMM*%
%LPD*%
G01*
G04 APERTURE LIST*
%ADD10C,0.100000*%
%ADD11R,0.450000X1.750000*%
%ADD12R,1.350000X1.350000*%
%ADD13C,1.350000*%
%ADD14R,0.800000X0.750000*%
%ADD15R,0.750000X0.800000*%
%ADD16R,0.797560X0.797560*%
%ADD17R,2.235200X2.235200*%
%ADD18R,2.032000X2.032000*%
%ADD19O,2.032000X2.032000*%
%ADD20R,2.032000X1.727200*%
%ADD21O,2.032000X1.727200*%
%ADD22R,0.500000X0.900000*%
%ADD23R,0.900000X0.500000*%
%ADD24R,1.450000X0.450000*%
%ADD25R,0.400000X1.100000*%
%ADD26R,1.750000X1.750000*%
%ADD27C,1.750000*%
%ADD28R,2.500000X2.500000*%
%ADD29C,2.500000*%
%ADD30C,1.501140*%
%ADD31R,1.700000X1.700000*%
%ADD32C,1.700000*%
G04 APERTURE END LIST*
D10*
D11*
X185425000Y-99550000D03*
X184775000Y-99550000D03*
X184125000Y-99550000D03*
X183475000Y-99550000D03*
X182825000Y-99550000D03*
X182175000Y-99550000D03*
X181525000Y-99550000D03*
X180875000Y-99550000D03*
X180225000Y-99550000D03*
X179575000Y-99550000D03*
X178925000Y-99550000D03*
X178275000Y-99550000D03*
X177625000Y-99550000D03*
X176975000Y-99550000D03*
X176975000Y-106750000D03*
X177625000Y-106750000D03*
X178275000Y-106750000D03*
X178925000Y-106750000D03*
X179575000Y-106750000D03*
X180225000Y-106750000D03*
X180875000Y-106750000D03*
X181525000Y-106750000D03*
X182175000Y-106750000D03*
X182825000Y-106750000D03*
X183475000Y-106750000D03*
X184125000Y-106750000D03*
X184775000Y-106750000D03*
X185425000Y-106750000D03*
D12*
X162500000Y-95500000D03*
D13*
X162500000Y-97500000D03*
X162500000Y-99500000D03*
X162500000Y-101500000D03*
X162500000Y-103500000D03*
X162500000Y-105500000D03*
X162500000Y-107500000D03*
X162500000Y-109500000D03*
X162500000Y-111500000D03*
X162500000Y-113500000D03*
X162500000Y-115500000D03*
X162500000Y-117500000D03*
X162500000Y-119500000D03*
X162500000Y-121500000D03*
X162500000Y-123500000D03*
X162500000Y-125500000D03*
X162500000Y-127500000D03*
X162500000Y-129500000D03*
X162500000Y-131500000D03*
X162500000Y-133500000D03*
X162500000Y-135500000D03*
X162500000Y-137500000D03*
X162500000Y-139500000D03*
X162500000Y-141500000D03*
X162500000Y-143500000D03*
X164500000Y-95500000D03*
X164500000Y-97500000D03*
X164500000Y-99500000D03*
X164500000Y-101500000D03*
X164500000Y-103500000D03*
X164500000Y-105500000D03*
X164500000Y-107500000D03*
X164500000Y-109500000D03*
X164500000Y-111500000D03*
X164500000Y-113500000D03*
X164500000Y-115500000D03*
X164500000Y-117500000D03*
X164500000Y-119500000D03*
X164500000Y-121500000D03*
X164500000Y-123500000D03*
X164500000Y-125500000D03*
X164500000Y-127500000D03*
X164500000Y-129500000D03*
X164500000Y-131500000D03*
X164500000Y-133500000D03*
X164500000Y-135500000D03*
X164500000Y-137500000D03*
X164500000Y-139500000D03*
X164500000Y-141500000D03*
X164500000Y-143500000D03*
D14*
X172350000Y-98400000D03*
X173850000Y-98400000D03*
D10*
G36*
X171310571Y-135492195D02*
X171628769Y-135173997D01*
X172654073Y-136199301D01*
X172335875Y-136517499D01*
X171310571Y-135492195D01*
X171310571Y-135492195D01*
G37*
G36*
X170850952Y-135951814D02*
X171169150Y-135633616D01*
X172194454Y-136658920D01*
X171876256Y-136977118D01*
X170850952Y-135951814D01*
X170850952Y-135951814D01*
G37*
G36*
X170391333Y-136411433D02*
X170709531Y-136093235D01*
X171734835Y-137118539D01*
X171416637Y-137436737D01*
X170391333Y-136411433D01*
X170391333Y-136411433D01*
G37*
G36*
X169931713Y-136871053D02*
X170249911Y-136552855D01*
X171275215Y-137578159D01*
X170957017Y-137896357D01*
X169931713Y-136871053D01*
X169931713Y-136871053D01*
G37*
G36*
X169472094Y-137330672D02*
X169790292Y-137012474D01*
X170815596Y-138037778D01*
X170497398Y-138355976D01*
X169472094Y-137330672D01*
X169472094Y-137330672D01*
G37*
G36*
X169012474Y-137790292D02*
X169330672Y-137472094D01*
X170355976Y-138497398D01*
X170037778Y-138815596D01*
X169012474Y-137790292D01*
X169012474Y-137790292D01*
G37*
G36*
X168552855Y-138249911D02*
X168871053Y-137931713D01*
X169896357Y-138957017D01*
X169578159Y-139275215D01*
X168552855Y-138249911D01*
X168552855Y-138249911D01*
G37*
G36*
X168093235Y-138709531D02*
X168411433Y-138391333D01*
X169436737Y-139416637D01*
X169118539Y-139734835D01*
X168093235Y-138709531D01*
X168093235Y-138709531D01*
G37*
G36*
X167633616Y-139169150D02*
X167951814Y-138850952D01*
X168977118Y-139876256D01*
X168658920Y-140194454D01*
X167633616Y-139169150D01*
X167633616Y-139169150D01*
G37*
G36*
X167173997Y-139628769D02*
X167492195Y-139310571D01*
X168517499Y-140335875D01*
X168199301Y-140654073D01*
X167173997Y-139628769D01*
X167173997Y-139628769D01*
G37*
G36*
X171345927Y-143800699D02*
X171664125Y-143482501D01*
X172689429Y-144507805D01*
X172371231Y-144826003D01*
X171345927Y-143800699D01*
X171345927Y-143800699D01*
G37*
G36*
X171805546Y-143341080D02*
X172123744Y-143022882D01*
X173149048Y-144048186D01*
X172830850Y-144366384D01*
X171805546Y-143341080D01*
X171805546Y-143341080D01*
G37*
G36*
X172265165Y-142881461D02*
X172583363Y-142563263D01*
X173608667Y-143588567D01*
X173290469Y-143906765D01*
X172265165Y-142881461D01*
X172265165Y-142881461D01*
G37*
G36*
X172724785Y-142421841D02*
X173042983Y-142103643D01*
X174068287Y-143128947D01*
X173750089Y-143447145D01*
X172724785Y-142421841D01*
X172724785Y-142421841D01*
G37*
G36*
X173184404Y-141962222D02*
X173502602Y-141644024D01*
X174527906Y-142669328D01*
X174209708Y-142987526D01*
X173184404Y-141962222D01*
X173184404Y-141962222D01*
G37*
G36*
X173644024Y-141502602D02*
X173962222Y-141184404D01*
X174987526Y-142209708D01*
X174669328Y-142527906D01*
X173644024Y-141502602D01*
X173644024Y-141502602D01*
G37*
G36*
X174103643Y-141042983D02*
X174421841Y-140724785D01*
X175447145Y-141750089D01*
X175128947Y-142068287D01*
X174103643Y-141042983D01*
X174103643Y-141042983D01*
G37*
G36*
X174563263Y-140583363D02*
X174881461Y-140265165D01*
X175906765Y-141290469D01*
X175588567Y-141608667D01*
X174563263Y-140583363D01*
X174563263Y-140583363D01*
G37*
G36*
X175022882Y-140123744D02*
X175341080Y-139805546D01*
X176366384Y-140830850D01*
X176048186Y-141149048D01*
X175022882Y-140123744D01*
X175022882Y-140123744D01*
G37*
G36*
X175482501Y-139664125D02*
X175800699Y-139345927D01*
X176826003Y-140371231D01*
X176507805Y-140689429D01*
X175482501Y-139664125D01*
X175482501Y-139664125D01*
G37*
D14*
X167650000Y-98400000D03*
X169150000Y-98400000D03*
D10*
G36*
X175478338Y-136748008D02*
X174948008Y-137278338D01*
X174382322Y-136712652D01*
X174912652Y-136182322D01*
X175478338Y-136748008D01*
X175478338Y-136748008D01*
G37*
G36*
X174417678Y-135687348D02*
X173887348Y-136217678D01*
X173321662Y-135651992D01*
X173851992Y-135121662D01*
X174417678Y-135687348D01*
X174417678Y-135687348D01*
G37*
D15*
X196400000Y-82450000D03*
X196400000Y-83950000D03*
D10*
G36*
X175821662Y-138151992D02*
X176351992Y-137621662D01*
X176917678Y-138187348D01*
X176387348Y-138717678D01*
X175821662Y-138151992D01*
X175821662Y-138151992D01*
G37*
G36*
X176882322Y-139212652D02*
X177412652Y-138682322D01*
X177978338Y-139248008D01*
X177448008Y-139778338D01*
X176882322Y-139212652D01*
X176882322Y-139212652D01*
G37*
D14*
X180450000Y-108900000D03*
X181950000Y-108900000D03*
D15*
X187600000Y-99150000D03*
X187600000Y-100650000D03*
D14*
X183750000Y-108900000D03*
X185250000Y-108900000D03*
X179750000Y-92400000D03*
X178250000Y-92400000D03*
X181250000Y-92400000D03*
X182750000Y-92400000D03*
D16*
X166950700Y-120600000D03*
X168449300Y-120600000D03*
X186000000Y-110450700D03*
X186000000Y-111949300D03*
X171600000Y-112149300D03*
X171600000Y-110650700D03*
X172550700Y-89200000D03*
X174049300Y-89200000D03*
D12*
X156500000Y-95500000D03*
D13*
X156500000Y-97500000D03*
X156500000Y-99500000D03*
X156500000Y-101500000D03*
X156500000Y-103500000D03*
X156500000Y-105500000D03*
X156500000Y-107500000D03*
X156500000Y-109500000D03*
X156500000Y-111500000D03*
X156500000Y-113500000D03*
X156500000Y-115500000D03*
X156500000Y-117500000D03*
X156500000Y-119500000D03*
X156500000Y-121500000D03*
X156500000Y-123500000D03*
X156500000Y-125500000D03*
X156500000Y-127500000D03*
X156500000Y-129500000D03*
X156500000Y-131500000D03*
X156500000Y-133500000D03*
X156500000Y-135500000D03*
X156500000Y-137500000D03*
X156500000Y-139500000D03*
X156500000Y-141500000D03*
X156500000Y-143500000D03*
D12*
X158500000Y-95500000D03*
D13*
X158500000Y-97500000D03*
X158500000Y-99500000D03*
X158500000Y-101500000D03*
X158500000Y-103500000D03*
X158500000Y-105500000D03*
X158500000Y-107500000D03*
X158500000Y-109500000D03*
X158500000Y-111500000D03*
X158500000Y-113500000D03*
X158500000Y-115500000D03*
X158500000Y-117500000D03*
X158500000Y-119500000D03*
X158500000Y-121500000D03*
X158500000Y-123500000D03*
X158500000Y-125500000D03*
X158500000Y-127500000D03*
X158500000Y-129500000D03*
X158500000Y-131500000D03*
X158500000Y-133500000D03*
X158500000Y-135500000D03*
X158500000Y-137500000D03*
X158500000Y-139500000D03*
X158500000Y-141500000D03*
X158500000Y-143500000D03*
X160500000Y-95500000D03*
X160500000Y-97500000D03*
X160500000Y-99500000D03*
X160500000Y-101500000D03*
X160500000Y-103500000D03*
X160500000Y-105500000D03*
X160500000Y-107500000D03*
X160500000Y-109500000D03*
X160500000Y-111500000D03*
X160500000Y-113500000D03*
X160500000Y-115500000D03*
X160500000Y-117500000D03*
X160500000Y-119500000D03*
X160500000Y-121500000D03*
X160500000Y-123500000D03*
X160500000Y-125500000D03*
X160500000Y-127500000D03*
X160500000Y-129500000D03*
X160500000Y-131500000D03*
X160500000Y-133500000D03*
X160500000Y-135500000D03*
X160500000Y-137500000D03*
X160500000Y-139500000D03*
X160500000Y-141500000D03*
X160500000Y-143500000D03*
D17*
X201700000Y-77500000D03*
D18*
X199000000Y-90000000D03*
D19*
X196460000Y-90000000D03*
D20*
X192900000Y-95960000D03*
D21*
X192900000Y-98500000D03*
X192900000Y-101040000D03*
D22*
X167150000Y-107300000D03*
X168650000Y-107300000D03*
X177450000Y-108900000D03*
X178950000Y-108900000D03*
D23*
X189600000Y-113050000D03*
X189600000Y-114550000D03*
X187800000Y-113050000D03*
X187800000Y-114550000D03*
D10*
G36*
X168725305Y-142419239D02*
X168088909Y-143055635D01*
X167735355Y-142702081D01*
X168371751Y-142065685D01*
X168725305Y-142419239D01*
X168725305Y-142419239D01*
G37*
G36*
X167664645Y-141358579D02*
X167028249Y-141994975D01*
X166674695Y-141641421D01*
X167311091Y-141005025D01*
X167664645Y-141358579D01*
X167664645Y-141358579D01*
G37*
D23*
X189600000Y-117850000D03*
X189600000Y-119350000D03*
X187800000Y-117850000D03*
X187800000Y-119350000D03*
D22*
X168450000Y-122200000D03*
X166950000Y-122200000D03*
D23*
X184300000Y-111950000D03*
X184300000Y-110450000D03*
X173300000Y-110650000D03*
X173300000Y-112150000D03*
D22*
X174050000Y-90900000D03*
X172550000Y-90900000D03*
D23*
X175800000Y-132550000D03*
X175800000Y-134050000D03*
X177600000Y-134050000D03*
X177600000Y-132550000D03*
X187800000Y-132850000D03*
X187800000Y-134350000D03*
X189600000Y-132850000D03*
X189600000Y-134350000D03*
X175800000Y-125050000D03*
X175800000Y-126550000D03*
X177600000Y-126550000D03*
X177600000Y-125050000D03*
X187800000Y-125350000D03*
X187800000Y-126850000D03*
X189600000Y-125350000D03*
X189600000Y-126850000D03*
X202000000Y-89250000D03*
X202000000Y-90750000D03*
X169800000Y-83050000D03*
X169800000Y-84550000D03*
X171600000Y-84550000D03*
X171600000Y-83050000D03*
X181800000Y-83350000D03*
X181800000Y-84850000D03*
X183600000Y-83350000D03*
X183600000Y-84850000D03*
D24*
X167650000Y-99945000D03*
X167650000Y-100595000D03*
X167650000Y-101245000D03*
X167650000Y-101895000D03*
X167650000Y-102545000D03*
X167650000Y-103195000D03*
X167650000Y-103845000D03*
X167650000Y-104495000D03*
X167650000Y-105145000D03*
X167650000Y-105795000D03*
X173550000Y-105795000D03*
X173550000Y-105145000D03*
X173550000Y-104495000D03*
X173550000Y-103845000D03*
X173550000Y-103195000D03*
X173550000Y-102545000D03*
X173550000Y-101895000D03*
X173550000Y-101245000D03*
X173550000Y-100595000D03*
X173550000Y-99945000D03*
D25*
X194875000Y-78150000D03*
X194225000Y-78150000D03*
X193575000Y-78150000D03*
X192925000Y-78150000D03*
X192275000Y-78150000D03*
X191625000Y-78150000D03*
X190975000Y-78150000D03*
X190325000Y-78150000D03*
X189675000Y-78150000D03*
X189025000Y-78150000D03*
X188375000Y-78150000D03*
X187725000Y-78150000D03*
X187725000Y-83850000D03*
X188375000Y-83850000D03*
X189025000Y-83850000D03*
X189675000Y-83850000D03*
X190325000Y-83850000D03*
X190975000Y-83850000D03*
X191625000Y-83850000D03*
X192275000Y-83850000D03*
X192925000Y-83850000D03*
X193575000Y-83850000D03*
X194225000Y-83850000D03*
X194875000Y-83850000D03*
D15*
X179400000Y-132650000D03*
X179400000Y-134150000D03*
D14*
X184450000Y-132000000D03*
X185950000Y-132000000D03*
D15*
X179400000Y-125150000D03*
X179400000Y-126650000D03*
D14*
X184450000Y-124500000D03*
X185950000Y-124500000D03*
D15*
X173400000Y-83150000D03*
X173400000Y-84650000D03*
D14*
X178450000Y-82500000D03*
X179950000Y-82500000D03*
D22*
X189450000Y-131300000D03*
X187950000Y-131300000D03*
X189450000Y-123800000D03*
X187950000Y-123800000D03*
X183450000Y-81800000D03*
X181950000Y-81800000D03*
D24*
X181400000Y-133725000D03*
X181400000Y-134375000D03*
X181400000Y-135025000D03*
X181400000Y-135675000D03*
X185800000Y-135675000D03*
X185800000Y-135025000D03*
X185800000Y-134375000D03*
X185800000Y-133725000D03*
X181400000Y-126225000D03*
X181400000Y-126875000D03*
X181400000Y-127525000D03*
X181400000Y-128175000D03*
X185800000Y-128175000D03*
X185800000Y-127525000D03*
X185800000Y-126875000D03*
X185800000Y-126225000D03*
X175400000Y-84225000D03*
X175400000Y-84875000D03*
X175400000Y-85525000D03*
X175400000Y-86175000D03*
X179800000Y-86175000D03*
X179800000Y-85525000D03*
X179800000Y-84875000D03*
X179800000Y-84225000D03*
D26*
X194500000Y-133200000D03*
D27*
X197000000Y-133200000D03*
X199500000Y-133200000D03*
X202000000Y-133200000D03*
D26*
X194500000Y-125700000D03*
D27*
X197000000Y-125700000D03*
X199500000Y-125700000D03*
X202000000Y-125700000D03*
D26*
X194500000Y-110700000D03*
D27*
X197000000Y-110700000D03*
X199500000Y-110700000D03*
X202000000Y-110700000D03*
D26*
X194500000Y-118200000D03*
D27*
X197000000Y-118200000D03*
X199500000Y-118200000D03*
X202000000Y-118200000D03*
D26*
X202000000Y-146000000D03*
D27*
X199500000Y-146000000D03*
X197000000Y-146000000D03*
X194500000Y-146000000D03*
X192000000Y-146000000D03*
X189500000Y-146000000D03*
X187000000Y-146000000D03*
X184500000Y-146000000D03*
X182000000Y-146000000D03*
X179500000Y-146000000D03*
D28*
X200200000Y-99750000D03*
D29*
X200200000Y-94750000D03*
D30*
X178059060Y-95650000D03*
X182940940Y-95650000D03*
D31*
X175000000Y-72000000D03*
D32*
X175000000Y-69460000D03*
X177540000Y-72000000D03*
X177540000Y-69460000D03*
X180080000Y-72000000D03*
X180080000Y-69460000D03*
X182620000Y-72000000D03*
X182620000Y-69460000D03*
X185160000Y-72000000D03*
X185160000Y-69460000D03*
X187700000Y-72000000D03*
X187700000Y-69460000D03*
X190240000Y-72000000D03*
X190240000Y-69460000D03*
X192780000Y-72000000D03*
X192780000Y-69460000D03*
X195320000Y-72000000D03*
X195320000Y-69460000D03*
X197860000Y-72000000D03*
X197860000Y-69460000D03*
M02*
