G04 #@! TF.FileFunction,Soldermask,Top*
%FSLAX46Y46*%
G04 Gerber Fmt 4.6, Leading zero omitted, Abs format (unit mm)*
G04 Created by KiCad (PCBNEW 4.0.4-stable) date 12/18/16 13:30:46*
%MOMM*%
%LPD*%
G01*
G04 APERTURE LIST*
%ADD10C,0.100000*%
%ADD11R,0.450000X1.750000*%
%ADD12R,1.350000X1.350000*%
%ADD13C,1.350000*%
%ADD14R,0.800000X0.750000*%
%ADD15R,0.750000X0.800000*%
%ADD16R,0.797560X0.797560*%
%ADD17R,2.235200X2.235200*%
%ADD18R,2.032000X2.032000*%
%ADD19O,2.032000X2.032000*%
%ADD20R,2.032000X1.727200*%
%ADD21O,2.032000X1.727200*%
%ADD22R,0.500000X0.900000*%
%ADD23R,0.900000X0.500000*%
%ADD24R,1.450000X0.450000*%
%ADD25R,0.400000X1.100000*%
%ADD26R,1.750000X1.750000*%
%ADD27C,1.750000*%
%ADD28R,2.500000X2.500000*%
%ADD29C,2.500000*%
%ADD30C,1.501140*%
%ADD31R,1.700000X1.700000*%
%ADD32C,1.700000*%
G04 APERTURE END LIST*
D10*
D11*
X156975000Y-84200000D03*
X156325000Y-84200000D03*
X155675000Y-84200000D03*
X155025000Y-84200000D03*
X154375000Y-84200000D03*
X153725000Y-84200000D03*
X153075000Y-84200000D03*
X152425000Y-84200000D03*
X151775000Y-84200000D03*
X151125000Y-84200000D03*
X150475000Y-84200000D03*
X149825000Y-84200000D03*
X149175000Y-84200000D03*
X148525000Y-84200000D03*
X148525000Y-91400000D03*
X149175000Y-91400000D03*
X149825000Y-91400000D03*
X150475000Y-91400000D03*
X151125000Y-91400000D03*
X151775000Y-91400000D03*
X152425000Y-91400000D03*
X153075000Y-91400000D03*
X153725000Y-91400000D03*
X154375000Y-91400000D03*
X155025000Y-91400000D03*
X155675000Y-91400000D03*
X156325000Y-91400000D03*
X156975000Y-91400000D03*
D12*
X134050000Y-80150000D03*
D13*
X134050000Y-82150000D03*
X134050000Y-84150000D03*
X134050000Y-86150000D03*
X134050000Y-88150000D03*
X134050000Y-90150000D03*
X134050000Y-92150000D03*
X134050000Y-94150000D03*
X134050000Y-96150000D03*
X134050000Y-98150000D03*
X134050000Y-100150000D03*
X134050000Y-102150000D03*
X134050000Y-104150000D03*
X134050000Y-106150000D03*
X134050000Y-108150000D03*
X134050000Y-110150000D03*
X134050000Y-112150000D03*
X134050000Y-114150000D03*
X134050000Y-116150000D03*
X134050000Y-118150000D03*
X134050000Y-120150000D03*
X134050000Y-122150000D03*
X134050000Y-124150000D03*
X134050000Y-126150000D03*
X134050000Y-128150000D03*
X136050000Y-80150000D03*
X136050000Y-82150000D03*
X136050000Y-84150000D03*
X136050000Y-86150000D03*
X136050000Y-88150000D03*
X136050000Y-90150000D03*
X136050000Y-92150000D03*
X136050000Y-94150000D03*
X136050000Y-96150000D03*
X136050000Y-98150000D03*
X136050000Y-100150000D03*
X136050000Y-102150000D03*
X136050000Y-104150000D03*
X136050000Y-106150000D03*
X136050000Y-108150000D03*
X136050000Y-110150000D03*
X136050000Y-112150000D03*
X136050000Y-114150000D03*
X136050000Y-116150000D03*
X136050000Y-118150000D03*
X136050000Y-120150000D03*
X136050000Y-122150000D03*
X136050000Y-124150000D03*
X136050000Y-126150000D03*
X136050000Y-128150000D03*
D14*
X143900000Y-83050000D03*
X145400000Y-83050000D03*
D10*
G36*
X142860571Y-120142195D02*
X143178769Y-119823997D01*
X144204073Y-120849301D01*
X143885875Y-121167499D01*
X142860571Y-120142195D01*
X142860571Y-120142195D01*
G37*
G36*
X142400952Y-120601814D02*
X142719150Y-120283616D01*
X143744454Y-121308920D01*
X143426256Y-121627118D01*
X142400952Y-120601814D01*
X142400952Y-120601814D01*
G37*
G36*
X141941333Y-121061433D02*
X142259531Y-120743235D01*
X143284835Y-121768539D01*
X142966637Y-122086737D01*
X141941333Y-121061433D01*
X141941333Y-121061433D01*
G37*
G36*
X141481713Y-121521053D02*
X141799911Y-121202855D01*
X142825215Y-122228159D01*
X142507017Y-122546357D01*
X141481713Y-121521053D01*
X141481713Y-121521053D01*
G37*
G36*
X141022094Y-121980672D02*
X141340292Y-121662474D01*
X142365596Y-122687778D01*
X142047398Y-123005976D01*
X141022094Y-121980672D01*
X141022094Y-121980672D01*
G37*
G36*
X140562474Y-122440292D02*
X140880672Y-122122094D01*
X141905976Y-123147398D01*
X141587778Y-123465596D01*
X140562474Y-122440292D01*
X140562474Y-122440292D01*
G37*
G36*
X140102855Y-122899911D02*
X140421053Y-122581713D01*
X141446357Y-123607017D01*
X141128159Y-123925215D01*
X140102855Y-122899911D01*
X140102855Y-122899911D01*
G37*
G36*
X139643235Y-123359531D02*
X139961433Y-123041333D01*
X140986737Y-124066637D01*
X140668539Y-124384835D01*
X139643235Y-123359531D01*
X139643235Y-123359531D01*
G37*
G36*
X139183616Y-123819150D02*
X139501814Y-123500952D01*
X140527118Y-124526256D01*
X140208920Y-124844454D01*
X139183616Y-123819150D01*
X139183616Y-123819150D01*
G37*
G36*
X138723997Y-124278769D02*
X139042195Y-123960571D01*
X140067499Y-124985875D01*
X139749301Y-125304073D01*
X138723997Y-124278769D01*
X138723997Y-124278769D01*
G37*
G36*
X142895927Y-128450699D02*
X143214125Y-128132501D01*
X144239429Y-129157805D01*
X143921231Y-129476003D01*
X142895927Y-128450699D01*
X142895927Y-128450699D01*
G37*
G36*
X143355546Y-127991080D02*
X143673744Y-127672882D01*
X144699048Y-128698186D01*
X144380850Y-129016384D01*
X143355546Y-127991080D01*
X143355546Y-127991080D01*
G37*
G36*
X143815165Y-127531461D02*
X144133363Y-127213263D01*
X145158667Y-128238567D01*
X144840469Y-128556765D01*
X143815165Y-127531461D01*
X143815165Y-127531461D01*
G37*
G36*
X144274785Y-127071841D02*
X144592983Y-126753643D01*
X145618287Y-127778947D01*
X145300089Y-128097145D01*
X144274785Y-127071841D01*
X144274785Y-127071841D01*
G37*
G36*
X144734404Y-126612222D02*
X145052602Y-126294024D01*
X146077906Y-127319328D01*
X145759708Y-127637526D01*
X144734404Y-126612222D01*
X144734404Y-126612222D01*
G37*
G36*
X145194024Y-126152602D02*
X145512222Y-125834404D01*
X146537526Y-126859708D01*
X146219328Y-127177906D01*
X145194024Y-126152602D01*
X145194024Y-126152602D01*
G37*
G36*
X145653643Y-125692983D02*
X145971841Y-125374785D01*
X146997145Y-126400089D01*
X146678947Y-126718287D01*
X145653643Y-125692983D01*
X145653643Y-125692983D01*
G37*
G36*
X146113263Y-125233363D02*
X146431461Y-124915165D01*
X147456765Y-125940469D01*
X147138567Y-126258667D01*
X146113263Y-125233363D01*
X146113263Y-125233363D01*
G37*
G36*
X146572882Y-124773744D02*
X146891080Y-124455546D01*
X147916384Y-125480850D01*
X147598186Y-125799048D01*
X146572882Y-124773744D01*
X146572882Y-124773744D01*
G37*
G36*
X147032501Y-124314125D02*
X147350699Y-123995927D01*
X148376003Y-125021231D01*
X148057805Y-125339429D01*
X147032501Y-124314125D01*
X147032501Y-124314125D01*
G37*
D14*
X139200000Y-83050000D03*
X140700000Y-83050000D03*
D10*
G36*
X147028338Y-121398008D02*
X146498008Y-121928338D01*
X145932322Y-121362652D01*
X146462652Y-120832322D01*
X147028338Y-121398008D01*
X147028338Y-121398008D01*
G37*
G36*
X145967678Y-120337348D02*
X145437348Y-120867678D01*
X144871662Y-120301992D01*
X145401992Y-119771662D01*
X145967678Y-120337348D01*
X145967678Y-120337348D01*
G37*
D15*
X167950000Y-67100000D03*
X167950000Y-68600000D03*
D10*
G36*
X147371662Y-122801992D02*
X147901992Y-122271662D01*
X148467678Y-122837348D01*
X147937348Y-123367678D01*
X147371662Y-122801992D01*
X147371662Y-122801992D01*
G37*
G36*
X148432322Y-123862652D02*
X148962652Y-123332322D01*
X149528338Y-123898008D01*
X148998008Y-124428338D01*
X148432322Y-123862652D01*
X148432322Y-123862652D01*
G37*
D14*
X152000000Y-93550000D03*
X153500000Y-93550000D03*
D15*
X159150000Y-83800000D03*
X159150000Y-85300000D03*
D14*
X155300000Y-93550000D03*
X156800000Y-93550000D03*
X151300000Y-77050000D03*
X149800000Y-77050000D03*
X152800000Y-77050000D03*
X154300000Y-77050000D03*
D16*
X138500700Y-105250000D03*
X139999300Y-105250000D03*
X157550000Y-95100700D03*
X157550000Y-96599300D03*
X143150000Y-96799300D03*
X143150000Y-95300700D03*
X144100700Y-73850000D03*
X145599300Y-73850000D03*
D12*
X128050000Y-80150000D03*
D13*
X128050000Y-82150000D03*
X128050000Y-84150000D03*
X128050000Y-86150000D03*
X128050000Y-88150000D03*
X128050000Y-90150000D03*
X128050000Y-92150000D03*
X128050000Y-94150000D03*
X128050000Y-96150000D03*
X128050000Y-98150000D03*
X128050000Y-100150000D03*
X128050000Y-102150000D03*
X128050000Y-104150000D03*
X128050000Y-106150000D03*
X128050000Y-108150000D03*
X128050000Y-110150000D03*
X128050000Y-112150000D03*
X128050000Y-114150000D03*
X128050000Y-116150000D03*
X128050000Y-118150000D03*
X128050000Y-120150000D03*
X128050000Y-122150000D03*
X128050000Y-124150000D03*
X128050000Y-126150000D03*
X128050000Y-128150000D03*
D12*
X130050000Y-80150000D03*
D13*
X130050000Y-82150000D03*
X130050000Y-84150000D03*
X130050000Y-86150000D03*
X130050000Y-88150000D03*
X130050000Y-90150000D03*
X130050000Y-92150000D03*
X130050000Y-94150000D03*
X130050000Y-96150000D03*
X130050000Y-98150000D03*
X130050000Y-100150000D03*
X130050000Y-102150000D03*
X130050000Y-104150000D03*
X130050000Y-106150000D03*
X130050000Y-108150000D03*
X130050000Y-110150000D03*
X130050000Y-112150000D03*
X130050000Y-114150000D03*
X130050000Y-116150000D03*
X130050000Y-118150000D03*
X130050000Y-120150000D03*
X130050000Y-122150000D03*
X130050000Y-124150000D03*
X130050000Y-126150000D03*
X130050000Y-128150000D03*
X132050000Y-80150000D03*
X132050000Y-82150000D03*
X132050000Y-84150000D03*
X132050000Y-86150000D03*
X132050000Y-88150000D03*
X132050000Y-90150000D03*
X132050000Y-92150000D03*
X132050000Y-94150000D03*
X132050000Y-96150000D03*
X132050000Y-98150000D03*
X132050000Y-100150000D03*
X132050000Y-102150000D03*
X132050000Y-104150000D03*
X132050000Y-106150000D03*
X132050000Y-108150000D03*
X132050000Y-110150000D03*
X132050000Y-112150000D03*
X132050000Y-114150000D03*
X132050000Y-116150000D03*
X132050000Y-118150000D03*
X132050000Y-120150000D03*
X132050000Y-122150000D03*
X132050000Y-124150000D03*
X132050000Y-126150000D03*
X132050000Y-128150000D03*
D17*
X173250000Y-62150000D03*
D18*
X170550000Y-74650000D03*
D19*
X168010000Y-74650000D03*
D20*
X164450000Y-80610000D03*
D21*
X164450000Y-83150000D03*
X164450000Y-85690000D03*
D22*
X138700000Y-91950000D03*
X140200000Y-91950000D03*
X149000000Y-93550000D03*
X150500000Y-93550000D03*
D23*
X161150000Y-97700000D03*
X161150000Y-99200000D03*
X159350000Y-97700000D03*
X159350000Y-99200000D03*
D10*
G36*
X140275305Y-127069239D02*
X139638909Y-127705635D01*
X139285355Y-127352081D01*
X139921751Y-126715685D01*
X140275305Y-127069239D01*
X140275305Y-127069239D01*
G37*
G36*
X139214645Y-126008579D02*
X138578249Y-126644975D01*
X138224695Y-126291421D01*
X138861091Y-125655025D01*
X139214645Y-126008579D01*
X139214645Y-126008579D01*
G37*
D23*
X161150000Y-102500000D03*
X161150000Y-104000000D03*
X159350000Y-102500000D03*
X159350000Y-104000000D03*
D22*
X140000000Y-106850000D03*
X138500000Y-106850000D03*
D23*
X155850000Y-96600000D03*
X155850000Y-95100000D03*
X144850000Y-95300000D03*
X144850000Y-96800000D03*
D22*
X145600000Y-75550000D03*
X144100000Y-75550000D03*
D23*
X147350000Y-117200000D03*
X147350000Y-118700000D03*
X149150000Y-118700000D03*
X149150000Y-117200000D03*
X159350000Y-117500000D03*
X159350000Y-119000000D03*
X161150000Y-117500000D03*
X161150000Y-119000000D03*
X147350000Y-109700000D03*
X147350000Y-111200000D03*
X149150000Y-111200000D03*
X149150000Y-109700000D03*
X159350000Y-110000000D03*
X159350000Y-111500000D03*
X161150000Y-110000000D03*
X161150000Y-111500000D03*
X173550000Y-73900000D03*
X173550000Y-75400000D03*
X141350000Y-67700000D03*
X141350000Y-69200000D03*
X143150000Y-69200000D03*
X143150000Y-67700000D03*
X153350000Y-68000000D03*
X153350000Y-69500000D03*
X155150000Y-68000000D03*
X155150000Y-69500000D03*
D24*
X139200000Y-84595000D03*
X139200000Y-85245000D03*
X139200000Y-85895000D03*
X139200000Y-86545000D03*
X139200000Y-87195000D03*
X139200000Y-87845000D03*
X139200000Y-88495000D03*
X139200000Y-89145000D03*
X139200000Y-89795000D03*
X139200000Y-90445000D03*
X145100000Y-90445000D03*
X145100000Y-89795000D03*
X145100000Y-89145000D03*
X145100000Y-88495000D03*
X145100000Y-87845000D03*
X145100000Y-87195000D03*
X145100000Y-86545000D03*
X145100000Y-85895000D03*
X145100000Y-85245000D03*
X145100000Y-84595000D03*
D25*
X166425000Y-62800000D03*
X165775000Y-62800000D03*
X165125000Y-62800000D03*
X164475000Y-62800000D03*
X163825000Y-62800000D03*
X163175000Y-62800000D03*
X162525000Y-62800000D03*
X161875000Y-62800000D03*
X161225000Y-62800000D03*
X160575000Y-62800000D03*
X159925000Y-62800000D03*
X159275000Y-62800000D03*
X159275000Y-68500000D03*
X159925000Y-68500000D03*
X160575000Y-68500000D03*
X161225000Y-68500000D03*
X161875000Y-68500000D03*
X162525000Y-68500000D03*
X163175000Y-68500000D03*
X163825000Y-68500000D03*
X164475000Y-68500000D03*
X165125000Y-68500000D03*
X165775000Y-68500000D03*
X166425000Y-68500000D03*
D15*
X150950000Y-117300000D03*
X150950000Y-118800000D03*
D14*
X156000000Y-116650000D03*
X157500000Y-116650000D03*
D15*
X150950000Y-109800000D03*
X150950000Y-111300000D03*
D14*
X156000000Y-109150000D03*
X157500000Y-109150000D03*
D15*
X144950000Y-67800000D03*
X144950000Y-69300000D03*
D14*
X150000000Y-67150000D03*
X151500000Y-67150000D03*
D22*
X161000000Y-115950000D03*
X159500000Y-115950000D03*
X161000000Y-108450000D03*
X159500000Y-108450000D03*
X155000000Y-66450000D03*
X153500000Y-66450000D03*
D24*
X152950000Y-118375000D03*
X152950000Y-119025000D03*
X152950000Y-119675000D03*
X152950000Y-120325000D03*
X157350000Y-120325000D03*
X157350000Y-119675000D03*
X157350000Y-119025000D03*
X157350000Y-118375000D03*
X152950000Y-110875000D03*
X152950000Y-111525000D03*
X152950000Y-112175000D03*
X152950000Y-112825000D03*
X157350000Y-112825000D03*
X157350000Y-112175000D03*
X157350000Y-111525000D03*
X157350000Y-110875000D03*
X146950000Y-68875000D03*
X146950000Y-69525000D03*
X146950000Y-70175000D03*
X146950000Y-70825000D03*
X151350000Y-70825000D03*
X151350000Y-70175000D03*
X151350000Y-69525000D03*
X151350000Y-68875000D03*
D26*
X166050000Y-117850000D03*
D27*
X168550000Y-117850000D03*
X171050000Y-117850000D03*
X173550000Y-117850000D03*
D26*
X166050000Y-110350000D03*
D27*
X168550000Y-110350000D03*
X171050000Y-110350000D03*
X173550000Y-110350000D03*
D26*
X166050000Y-95350000D03*
D27*
X168550000Y-95350000D03*
X171050000Y-95350000D03*
X173550000Y-95350000D03*
D26*
X166050000Y-102850000D03*
D27*
X168550000Y-102850000D03*
X171050000Y-102850000D03*
X173550000Y-102850000D03*
D26*
X173550000Y-130650000D03*
D27*
X171050000Y-130650000D03*
X168550000Y-130650000D03*
X166050000Y-130650000D03*
X163550000Y-130650000D03*
X161050000Y-130650000D03*
X158550000Y-130650000D03*
X156050000Y-130650000D03*
X153550000Y-130650000D03*
X151050000Y-130650000D03*
D28*
X171750000Y-84400000D03*
D29*
X171750000Y-79400000D03*
D30*
X149609060Y-80300000D03*
X154490940Y-80300000D03*
D31*
X146550000Y-56650000D03*
D32*
X146550000Y-54110000D03*
X149090000Y-56650000D03*
X149090000Y-54110000D03*
X151630000Y-56650000D03*
X151630000Y-54110000D03*
X154170000Y-56650000D03*
X154170000Y-54110000D03*
X156710000Y-56650000D03*
X156710000Y-54110000D03*
X159250000Y-56650000D03*
X159250000Y-54110000D03*
X161790000Y-56650000D03*
X161790000Y-54110000D03*
X164330000Y-56650000D03*
X164330000Y-54110000D03*
X166870000Y-56650000D03*
X166870000Y-54110000D03*
X169410000Y-56650000D03*
X169410000Y-54110000D03*
M02*
