M48
;DRILL file {KiCad 4.0.4-stable} date 12/18/16 13:31:39
;FORMAT={3:3/ absolute / metric / suppress trailing zeros}
FMAT,2
METRIC,LZ
T1C0.400
T2C0.500
T3C0.600
T4C0.800
T5C0.800
T6C0.900
T7C1.000
T8C1.016
T9C1.300
%
G90
G05
M71
T1
X13068Y-07745
X13765Y-08175
X14325Y-06835
X14325Y-07095
X146712Y-08465
X14685Y-11215
X14685Y-11965
X14725Y-08645
X147325Y-120375
X14735Y-11295
X14815Y-08705
X14835Y-08995
X14915Y-08935
X14915Y-11035
X14915Y-11785
X14995Y-08995
X15515Y-06885
X15515Y-07095
X15585Y-06715
X16115Y-11085
X16115Y-11295
X16115Y-11835
X16115Y-12045
X16185Y-06965
X16235Y-06605
X16235Y-06705
X16245Y-07035
X16305Y-06535
X16315Y-07105
X16375Y-06465
X16445Y-06395
X16665Y-07015
X16685Y-06735
X16695Y-06455
X16775Y-06475
X16915Y-06745
T2
X14785Y-12135
X15075Y-12425
X15175Y-12365
X15215Y-11705
T3
X13615Y-07855
X13775Y-10875
X13785Y-07855
X13798Y-122665
X13798Y-12838
X13855Y-09415
X14005Y-10215
X14015Y-09325
X14055Y-08015
X14179Y-05091
X14179Y-05599
X14179Y-06107
X14179Y-06615
X14179Y-09155
X14179Y-09409
X14179Y-10044
X14179Y-10552
X14179Y-1106
X14179Y-11441
X14179Y-12838
X14179Y-13346
X14185Y-07925
X142425Y-083295
X142425Y-08774
X14315Y-07805
X14433Y-05345
X14433Y-05853
X14433Y-06361
X14433Y-09409
X14433Y-10806
X14433Y-11695
X14433Y-12584
X14433Y-13092
X14435Y-07695
X14615Y-09705
X146235Y-08012
X14635Y-10845
X14687Y-10044
X14687Y-10552
X14814Y-05091
X14814Y-0598
X14814Y-11441
X14814Y-13346
X14941Y-07504
X14941Y-095995
X14941Y-10806
X15068Y-06234
X15195Y-0725
X15195Y-09475
X15195Y-10044
X15195Y-10552
X15322Y-05091
X15322Y-11441
X15322Y-12203
X15322Y-13346
X153855Y-095995
X15449Y-07504
X15449Y-10806
X15703Y-07758
X15703Y-08774
X15703Y-10044
X15703Y-10552
X15775Y-09355
X1583Y-05091
X1583Y-11441
X1583Y-12203
X1583Y-13346
X15957Y-07504
X15957Y-09028
X16211Y-07758
X16211Y-08774
X16211Y-09282
X16225Y-11
X16225Y-1175
X16338Y-05091
X16338Y-13346
X16465Y-07504
X16465Y-09028
X16465Y-11441
X16465Y-12203
X16719Y-0725
X16719Y-08774
X16719Y-09282
X16719Y-12457
X16846Y-05091
X16846Y-13346
X16973Y-0598
X16973Y-06488
X16973Y-06996
X16973Y-09028
X16973Y-09917
X16973Y-11441
X16973Y-12203
X17227Y-0725
X17227Y-08774
X17227Y-09282
X17227Y-09663
X17227Y-10425
X17227Y-11187
X17227Y-11949
X17227Y-12457
X17354Y-05091
X17354Y-05599
X17354Y-13346
X17481Y-06488
X17481Y-06996
X17481Y-07504
X17481Y-08012
X17481Y-0852
X17481Y-09028
X17481Y-09917
X17481Y-10679
X17481Y-11441
X17481Y-12203
X17481Y-12711
T4
X12805Y-08015
X12805Y-08215
X12805Y-08415
X12805Y-08615
X12805Y-08815
X12805Y-09015
X12805Y-09215
X12805Y-09415
X12805Y-09615
X12805Y-09815
X12805Y-10015
X12805Y-10215
X12805Y-10415
X12805Y-10615
X12805Y-10815
X12805Y-11015
X12805Y-11215
X12805Y-11415
X12805Y-11615
X12805Y-11815
X12805Y-12015
X12805Y-12215
X12805Y-12415
X12805Y-12615
X12805Y-12815
X13005Y-08015
X13005Y-08215
X13005Y-08415
X13005Y-08615
X13005Y-08815
X13005Y-09015
X13005Y-09215
X13005Y-09415
X13005Y-09615
X13005Y-09815
X13005Y-10015
X13005Y-10215
X13005Y-10415
X13005Y-10615
X13005Y-10815
X13005Y-11015
X13005Y-11215
X13005Y-11415
X13005Y-11615
X13005Y-11815
X13005Y-12015
X13005Y-12215
X13005Y-12415
X13005Y-12615
X13005Y-12815
X13205Y-08015
X13205Y-08215
X13205Y-08415
X13205Y-08615
X13205Y-08815
X13205Y-09015
X13205Y-09215
X13205Y-09415
X13205Y-09615
X13205Y-09815
X13205Y-10015
X13205Y-10215
X13205Y-10415
X13205Y-10615
X13205Y-10815
X13205Y-11015
X13205Y-11215
X13205Y-11415
X13205Y-11615
X13205Y-11815
X13205Y-12015
X13205Y-12215
X13205Y-12415
X13205Y-12615
X13205Y-12815
X13405Y-08015
X13405Y-08215
X13405Y-08415
X13405Y-08615
X13405Y-08815
X13405Y-09015
X13405Y-09215
X13405Y-09415
X13405Y-09615
X13405Y-09815
X13405Y-10015
X13405Y-10215
X13405Y-10415
X13405Y-10615
X13405Y-10815
X13405Y-11015
X13405Y-11215
X13405Y-11415
X13405Y-11615
X13405Y-11815
X13405Y-12015
X13405Y-12215
X13405Y-12415
X13405Y-12615
X13405Y-12815
X13605Y-08015
X13605Y-08215
X13605Y-08415
X13605Y-08615
X13605Y-08815
X13605Y-09015
X13605Y-09215
X13605Y-09415
X13605Y-09615
X13605Y-09815
X13605Y-10015
X13605Y-10215
X13605Y-10415
X13605Y-10615
X13605Y-10815
X13605Y-11015
X13605Y-11215
X13605Y-11415
X13605Y-11615
X13605Y-11815
X13605Y-12015
X13605Y-12215
X13605Y-12415
X13605Y-12615
X13605Y-12815
T5
X149609Y-0803
X154491Y-0803
T6
X15105Y-13065
X15355Y-13065
X15605Y-13065
X15855Y-13065
X16105Y-13065
X16355Y-13065
X16605Y-09535
X16605Y-10285
X16605Y-11035
X16605Y-11785
X16605Y-13065
X16855Y-09535
X16855Y-10285
X16855Y-11035
X16855Y-11785
X16855Y-13065
X17105Y-09535
X17105Y-10285
X17105Y-11035
X17105Y-11785
X17105Y-13065
X17355Y-09535
X17355Y-10285
X17355Y-11035
X17355Y-11785
X17355Y-13065
T7
X14655Y-05411
X14655Y-05665
X14909Y-05411
X14909Y-05665
X15163Y-05411
X15163Y-05665
X15417Y-05411
X15417Y-05665
X15671Y-05411
X15671Y-05665
X15925Y-05411
X15925Y-05665
X16179Y-05411
X16179Y-05665
X16433Y-05411
X16433Y-05665
X16687Y-05411
X16687Y-05665
X16941Y-05411
X16941Y-05665
T8
X16445Y-08061
X16445Y-08315
X16445Y-08569
X16801Y-07465
X17055Y-07465
X17325Y-06215
T9
X17175Y-0794
X17175Y-0844
T0
M30
