G04 #@! TF.FileFunction,Legend,Top*
%FSLAX46Y46*%
G04 Gerber Fmt 4.6, Leading zero omitted, Abs format (unit mm)*
G04 Created by KiCad (PCBNEW 4.0.4-stable) date 12/18/16 13:30:46*
%MOMM*%
%LPD*%
G01*
G04 APERTURE LIST*
%ADD10C,0.100000*%
%ADD11C,0.200000*%
%ADD12C,0.150000*%
%ADD13R,0.450000X1.750000*%
%ADD14R,1.350000X1.350000*%
%ADD15C,1.350000*%
%ADD16R,0.800000X0.750000*%
%ADD17R,0.750000X0.800000*%
%ADD18R,0.797560X0.797560*%
%ADD19R,2.235200X2.235200*%
%ADD20R,2.032000X2.032000*%
%ADD21O,2.032000X2.032000*%
%ADD22R,2.032000X1.727200*%
%ADD23O,2.032000X1.727200*%
%ADD24R,0.500000X0.900000*%
%ADD25R,0.900000X0.500000*%
%ADD26R,1.450000X0.450000*%
%ADD27R,0.400000X1.100000*%
%ADD28R,1.750000X1.750000*%
%ADD29C,1.750000*%
%ADD30R,2.500000X2.500000*%
%ADD31C,2.500000*%
%ADD32C,1.501140*%
%ADD33R,1.700000X1.700000*%
%ADD34C,1.700000*%
G04 APERTURE END LIST*
D10*
D11*
X141735715Y-97728571D02*
X142664286Y-97728571D01*
X142164286Y-98300000D01*
X142378572Y-98300000D01*
X142521429Y-98371429D01*
X142592858Y-98442857D01*
X142664286Y-98585714D01*
X142664286Y-98942857D01*
X142592858Y-99085714D01*
X142521429Y-99157143D01*
X142378572Y-99228571D01*
X141950000Y-99228571D01*
X141807143Y-99157143D01*
X141735715Y-99085714D01*
X143307143Y-99085714D02*
X143378571Y-99157143D01*
X143307143Y-99228571D01*
X143235714Y-99157143D01*
X143307143Y-99085714D01*
X143307143Y-99228571D01*
X143878572Y-97728571D02*
X144807143Y-97728571D01*
X144307143Y-98300000D01*
X144521429Y-98300000D01*
X144664286Y-98371429D01*
X144735715Y-98442857D01*
X144807143Y-98585714D01*
X144807143Y-98942857D01*
X144735715Y-99085714D01*
X144664286Y-99157143D01*
X144521429Y-99228571D01*
X144092857Y-99228571D01*
X143950000Y-99157143D01*
X143878572Y-99085714D01*
X145235714Y-97728571D02*
X145735714Y-99228571D01*
X146235714Y-97728571D01*
X155964287Y-97428571D02*
X155250001Y-97428571D01*
X155178572Y-98142857D01*
X155250001Y-98071429D01*
X155392858Y-98000000D01*
X155750001Y-98000000D01*
X155892858Y-98071429D01*
X155964287Y-98142857D01*
X156035715Y-98285714D01*
X156035715Y-98642857D01*
X155964287Y-98785714D01*
X155892858Y-98857143D01*
X155750001Y-98928571D01*
X155392858Y-98928571D01*
X155250001Y-98857143D01*
X155178572Y-98785714D01*
X156464286Y-97428571D02*
X156964286Y-98928571D01*
X157464286Y-97428571D01*
X142428571Y-107078571D02*
X142428571Y-107935714D01*
X142428571Y-107507142D02*
X140928571Y-107507142D01*
X141142857Y-107649999D01*
X141285714Y-107792857D01*
X141357143Y-107935714D01*
X141071429Y-106507143D02*
X141000000Y-106435714D01*
X140928571Y-106292857D01*
X140928571Y-105935714D01*
X141000000Y-105792857D01*
X141071429Y-105721428D01*
X141214286Y-105650000D01*
X141357143Y-105650000D01*
X141571429Y-105721428D01*
X142428571Y-106578571D01*
X142428571Y-105650000D01*
X140928571Y-105221429D02*
X142428571Y-104721429D01*
X140928571Y-104221429D01*
X143228571Y-76135714D02*
X143228571Y-76992857D01*
X143228571Y-76564285D02*
X141728571Y-76564285D01*
X141942857Y-76707142D01*
X142085714Y-76850000D01*
X142157143Y-76992857D01*
X143085714Y-75492857D02*
X143157143Y-75421429D01*
X143228571Y-75492857D01*
X143157143Y-75564286D01*
X143085714Y-75492857D01*
X143228571Y-75492857D01*
X142371429Y-74564285D02*
X142300000Y-74707143D01*
X142228571Y-74778571D01*
X142085714Y-74850000D01*
X142014286Y-74850000D01*
X141871429Y-74778571D01*
X141800000Y-74707143D01*
X141728571Y-74564285D01*
X141728571Y-74278571D01*
X141800000Y-74135714D01*
X141871429Y-74064285D01*
X142014286Y-73992857D01*
X142085714Y-73992857D01*
X142228571Y-74064285D01*
X142300000Y-74135714D01*
X142371429Y-74278571D01*
X142371429Y-74564285D01*
X142442857Y-74707143D01*
X142514286Y-74778571D01*
X142657143Y-74850000D01*
X142942857Y-74850000D01*
X143085714Y-74778571D01*
X143157143Y-74707143D01*
X143228571Y-74564285D01*
X143228571Y-74278571D01*
X143157143Y-74135714D01*
X143085714Y-74064285D01*
X142942857Y-73992857D01*
X142657143Y-73992857D01*
X142514286Y-74064285D01*
X142442857Y-74135714D01*
X142371429Y-74278571D01*
X141728571Y-73564286D02*
X143228571Y-73064286D01*
X141728571Y-72564286D01*
X162342857Y-85000000D02*
X162200000Y-84928571D01*
X161985714Y-84928571D01*
X161771429Y-85000000D01*
X161628571Y-85142857D01*
X161557143Y-85285714D01*
X161485714Y-85571429D01*
X161485714Y-85785714D01*
X161557143Y-86071429D01*
X161628571Y-86214286D01*
X161771429Y-86357143D01*
X161985714Y-86428571D01*
X162128571Y-86428571D01*
X162342857Y-86357143D01*
X162414286Y-86285714D01*
X162414286Y-85785714D01*
X162128571Y-85785714D01*
X162314286Y-83828571D02*
X161600000Y-83828571D01*
X161600000Y-82328571D01*
X161521429Y-81328571D02*
X161521429Y-79828571D01*
X161521429Y-80542857D02*
X162378572Y-80542857D01*
X162378572Y-81328571D02*
X162378572Y-79828571D01*
X165228571Y-91350000D02*
X166728571Y-90850000D01*
X165228571Y-90350000D01*
X166728571Y-89850000D02*
X165228571Y-89850000D01*
X165228571Y-89492857D01*
X165300000Y-89278572D01*
X165442857Y-89135714D01*
X165585714Y-89064286D01*
X165871429Y-88992857D01*
X166085714Y-88992857D01*
X166371429Y-89064286D01*
X166514286Y-89135714D01*
X166657143Y-89278572D01*
X166728571Y-89492857D01*
X166728571Y-89850000D01*
X166728571Y-88350000D02*
X165228571Y-88350000D01*
X165228571Y-87992857D01*
X165300000Y-87778572D01*
X165442857Y-87635714D01*
X165585714Y-87564286D01*
X165871429Y-87492857D01*
X166085714Y-87492857D01*
X166371429Y-87564286D01*
X166514286Y-87635714D01*
X166657143Y-87778572D01*
X166728571Y-87992857D01*
X166728571Y-88350000D01*
X156728571Y-126542857D02*
X155228571Y-126542857D01*
X155228571Y-125971429D01*
X155300000Y-125828571D01*
X155371429Y-125757143D01*
X155514286Y-125685714D01*
X155728571Y-125685714D01*
X155871429Y-125757143D01*
X155942857Y-125828571D01*
X156014286Y-125971429D01*
X156014286Y-126542857D01*
X155228571Y-125042857D02*
X156442857Y-125042857D01*
X156585714Y-124971429D01*
X156657143Y-124900000D01*
X156728571Y-124757143D01*
X156728571Y-124471429D01*
X156657143Y-124328571D01*
X156585714Y-124257143D01*
X156442857Y-124185714D01*
X155228571Y-124185714D01*
X155228571Y-122828571D02*
X155228571Y-123114285D01*
X155300000Y-123257142D01*
X155371429Y-123328571D01*
X155585714Y-123471428D01*
X155871429Y-123542857D01*
X156442857Y-123542857D01*
X156585714Y-123471428D01*
X156657143Y-123400000D01*
X156728571Y-123257142D01*
X156728571Y-122971428D01*
X156657143Y-122828571D01*
X156585714Y-122757142D01*
X156442857Y-122685714D01*
X156085714Y-122685714D01*
X155942857Y-122757142D01*
X155871429Y-122828571D01*
X155800000Y-122971428D01*
X155800000Y-123257142D01*
X155871429Y-123400000D01*
X155942857Y-123471428D01*
X156085714Y-123542857D01*
X161728571Y-126542857D02*
X160228571Y-126542857D01*
X160228571Y-125971429D01*
X160300000Y-125828571D01*
X160371429Y-125757143D01*
X160514286Y-125685714D01*
X160728571Y-125685714D01*
X160871429Y-125757143D01*
X160942857Y-125828571D01*
X161014286Y-125971429D01*
X161014286Y-126542857D01*
X160228571Y-125042857D02*
X161442857Y-125042857D01*
X161585714Y-124971429D01*
X161657143Y-124900000D01*
X161728571Y-124757143D01*
X161728571Y-124471429D01*
X161657143Y-124328571D01*
X161585714Y-124257143D01*
X161442857Y-124185714D01*
X160228571Y-124185714D01*
X160728571Y-122828571D02*
X161728571Y-122828571D01*
X160157143Y-123185714D02*
X161228571Y-123542857D01*
X161228571Y-122614285D01*
X166728571Y-126542857D02*
X165228571Y-126542857D01*
X165228571Y-125971429D01*
X165300000Y-125828571D01*
X165371429Y-125757143D01*
X165514286Y-125685714D01*
X165728571Y-125685714D01*
X165871429Y-125757143D01*
X165942857Y-125828571D01*
X166014286Y-125971429D01*
X166014286Y-126542857D01*
X165228571Y-125042857D02*
X166442857Y-125042857D01*
X166585714Y-124971429D01*
X166657143Y-124900000D01*
X166728571Y-124757143D01*
X166728571Y-124471429D01*
X166657143Y-124328571D01*
X166585714Y-124257143D01*
X166442857Y-124185714D01*
X165228571Y-124185714D01*
X165371429Y-123542857D02*
X165300000Y-123471428D01*
X165228571Y-123328571D01*
X165228571Y-122971428D01*
X165300000Y-122828571D01*
X165371429Y-122757142D01*
X165514286Y-122685714D01*
X165657143Y-122685714D01*
X165871429Y-122757142D01*
X166728571Y-123614285D01*
X166728571Y-122685714D01*
X171728571Y-126542857D02*
X170228571Y-126542857D01*
X170228571Y-125971429D01*
X170300000Y-125828571D01*
X170371429Y-125757143D01*
X170514286Y-125685714D01*
X170728571Y-125685714D01*
X170871429Y-125757143D01*
X170942857Y-125828571D01*
X171014286Y-125971429D01*
X171014286Y-126542857D01*
X170228571Y-125042857D02*
X171442857Y-125042857D01*
X171585714Y-124971429D01*
X171657143Y-124900000D01*
X171728571Y-124757143D01*
X171728571Y-124471429D01*
X171657143Y-124328571D01*
X171585714Y-124257143D01*
X171442857Y-124185714D01*
X170228571Y-124185714D01*
X170228571Y-123185714D02*
X170228571Y-123042857D01*
X170300000Y-122900000D01*
X170371429Y-122828571D01*
X170514286Y-122757142D01*
X170800000Y-122685714D01*
X171157143Y-122685714D01*
X171442857Y-122757142D01*
X171585714Y-122828571D01*
X171657143Y-122900000D01*
X171728571Y-123042857D01*
X171728571Y-123185714D01*
X171657143Y-123328571D01*
X171585714Y-123400000D01*
X171442857Y-123471428D01*
X171157143Y-123542857D01*
X170800000Y-123542857D01*
X170514286Y-123471428D01*
X170371429Y-123400000D01*
X170300000Y-123328571D01*
X170228571Y-123185714D01*
X169228571Y-126542857D02*
X167728571Y-126542857D01*
X167728571Y-125971429D01*
X167800000Y-125828571D01*
X167871429Y-125757143D01*
X168014286Y-125685714D01*
X168228571Y-125685714D01*
X168371429Y-125757143D01*
X168442857Y-125828571D01*
X168514286Y-125971429D01*
X168514286Y-126542857D01*
X167728571Y-125042857D02*
X168942857Y-125042857D01*
X169085714Y-124971429D01*
X169157143Y-124900000D01*
X169228571Y-124757143D01*
X169228571Y-124471429D01*
X169157143Y-124328571D01*
X169085714Y-124257143D01*
X168942857Y-124185714D01*
X167728571Y-124185714D01*
X169228571Y-122685714D02*
X169228571Y-123542857D01*
X169228571Y-123114285D02*
X167728571Y-123114285D01*
X167942857Y-123257142D01*
X168085714Y-123400000D01*
X168157143Y-123542857D01*
X164228571Y-126542857D02*
X162728571Y-126542857D01*
X162728571Y-125971429D01*
X162800000Y-125828571D01*
X162871429Y-125757143D01*
X163014286Y-125685714D01*
X163228571Y-125685714D01*
X163371429Y-125757143D01*
X163442857Y-125828571D01*
X163514286Y-125971429D01*
X163514286Y-126542857D01*
X162728571Y-125042857D02*
X163942857Y-125042857D01*
X164085714Y-124971429D01*
X164157143Y-124900000D01*
X164228571Y-124757143D01*
X164228571Y-124471429D01*
X164157143Y-124328571D01*
X164085714Y-124257143D01*
X163942857Y-124185714D01*
X162728571Y-124185714D01*
X162728571Y-123614285D02*
X162728571Y-122685714D01*
X163300000Y-123185714D01*
X163300000Y-122971428D01*
X163371429Y-122828571D01*
X163442857Y-122757142D01*
X163585714Y-122685714D01*
X163942857Y-122685714D01*
X164085714Y-122757142D01*
X164157143Y-122828571D01*
X164228571Y-122971428D01*
X164228571Y-123400000D01*
X164157143Y-123542857D01*
X164085714Y-123614285D01*
X159228571Y-126542857D02*
X157728571Y-126542857D01*
X157728571Y-125971429D01*
X157800000Y-125828571D01*
X157871429Y-125757143D01*
X158014286Y-125685714D01*
X158228571Y-125685714D01*
X158371429Y-125757143D01*
X158442857Y-125828571D01*
X158514286Y-125971429D01*
X158514286Y-126542857D01*
X157728571Y-125042857D02*
X158942857Y-125042857D01*
X159085714Y-124971429D01*
X159157143Y-124900000D01*
X159228571Y-124757143D01*
X159228571Y-124471429D01*
X159157143Y-124328571D01*
X159085714Y-124257143D01*
X158942857Y-124185714D01*
X157728571Y-124185714D01*
X157728571Y-122757142D02*
X157728571Y-123471428D01*
X158442857Y-123542857D01*
X158371429Y-123471428D01*
X158300000Y-123328571D01*
X158300000Y-122971428D01*
X158371429Y-122828571D01*
X158442857Y-122757142D01*
X158585714Y-122685714D01*
X158942857Y-122685714D01*
X159085714Y-122757142D01*
X159157143Y-122828571D01*
X159228571Y-122971428D01*
X159228571Y-123328571D01*
X159157143Y-123471428D01*
X159085714Y-123542857D01*
X154228571Y-126542857D02*
X152728571Y-126542857D01*
X152728571Y-125971429D01*
X152800000Y-125828571D01*
X152871429Y-125757143D01*
X153014286Y-125685714D01*
X153228571Y-125685714D01*
X153371429Y-125757143D01*
X153442857Y-125828571D01*
X153514286Y-125971429D01*
X153514286Y-126542857D01*
X154228571Y-125042857D02*
X152728571Y-125042857D01*
X153442857Y-125042857D02*
X153442857Y-124185714D01*
X154228571Y-124185714D02*
X152728571Y-124185714D01*
X154228571Y-122685714D02*
X154228571Y-123542857D01*
X154228571Y-123114285D02*
X152728571Y-123114285D01*
X152942857Y-123257142D01*
X153085714Y-123400000D01*
X153157143Y-123542857D01*
X150300000Y-125792857D02*
X150228571Y-125935714D01*
X150228571Y-126150000D01*
X150300000Y-126364285D01*
X150442857Y-126507143D01*
X150585714Y-126578571D01*
X150871429Y-126650000D01*
X151085714Y-126650000D01*
X151371429Y-126578571D01*
X151514286Y-126507143D01*
X151657143Y-126364285D01*
X151728571Y-126150000D01*
X151728571Y-126007143D01*
X151657143Y-125792857D01*
X151585714Y-125721428D01*
X151085714Y-125721428D01*
X151085714Y-126007143D01*
X151728571Y-125078571D02*
X150228571Y-125078571D01*
X151728571Y-124221428D01*
X150228571Y-124221428D01*
X151728571Y-123507142D02*
X150228571Y-123507142D01*
X150228571Y-123149999D01*
X150300000Y-122935714D01*
X150442857Y-122792856D01*
X150585714Y-122721428D01*
X150871429Y-122649999D01*
X151085714Y-122649999D01*
X151371429Y-122721428D01*
X151514286Y-122792856D01*
X151657143Y-122935714D01*
X151728571Y-123149999D01*
X151728571Y-123507142D01*
X172728571Y-126650000D02*
X174228571Y-126150000D01*
X172728571Y-125650000D01*
X174228571Y-125150000D02*
X172728571Y-125150000D01*
X172728571Y-124792857D01*
X172800000Y-124578572D01*
X172942857Y-124435714D01*
X173085714Y-124364286D01*
X173371429Y-124292857D01*
X173585714Y-124292857D01*
X173871429Y-124364286D01*
X174014286Y-124435714D01*
X174157143Y-124578572D01*
X174228571Y-124792857D01*
X174228571Y-125150000D01*
X174228571Y-123650000D02*
X172728571Y-123650000D01*
X172728571Y-123292857D01*
X172800000Y-123078572D01*
X172942857Y-122935714D01*
X173085714Y-122864286D01*
X173371429Y-122792857D01*
X173585714Y-122792857D01*
X173871429Y-122864286D01*
X174014286Y-122935714D01*
X174157143Y-123078572D01*
X174228571Y-123292857D01*
X174228571Y-123650000D01*
X166050000Y-115650000D02*
X166050000Y-116750000D01*
X166050000Y-114150000D02*
X166050000Y-114250000D01*
X166050000Y-113350000D02*
X166050000Y-113550000D01*
X166050000Y-111450000D02*
X166050000Y-112850000D01*
X166050000Y-108150000D02*
X166050000Y-109250000D01*
X166050000Y-106650000D02*
X166050000Y-106750000D01*
X166050000Y-105850000D02*
X166050000Y-106050000D01*
X166050000Y-103950000D02*
X166050000Y-105350000D01*
X166050000Y-100650000D02*
X166050000Y-101750000D01*
X166050000Y-99150000D02*
X166050000Y-99250000D01*
X166050000Y-98350000D02*
X166050000Y-98550000D01*
X166050000Y-96450000D02*
X166050000Y-97850000D01*
X168550000Y-116450000D02*
X168550000Y-116750000D01*
X168550000Y-115650000D02*
X168550000Y-115850000D01*
X168550000Y-114150000D02*
X168550000Y-115150000D01*
X168550000Y-113350000D02*
X168550000Y-113550000D01*
X168550000Y-111450000D02*
X168550000Y-112850000D01*
X168550000Y-108950000D02*
X168550000Y-109250000D01*
X168550000Y-108150000D02*
X168550000Y-108350000D01*
X168550000Y-106650000D02*
X168550000Y-107650000D01*
X168550000Y-105850000D02*
X168550000Y-106050000D01*
X168550000Y-103950000D02*
X168550000Y-105350000D01*
X168550000Y-101450000D02*
X168550000Y-101750000D01*
X168550000Y-100650000D02*
X168550000Y-100850000D01*
X168550000Y-99150000D02*
X168550000Y-100150000D01*
X168550000Y-98350000D02*
X168550000Y-98550000D01*
X168550000Y-96450000D02*
X168550000Y-97850000D01*
X171050000Y-116450000D02*
X171050000Y-116750000D01*
X171050000Y-115650000D02*
X171050000Y-115850000D01*
X171050000Y-114150000D02*
X171050000Y-115150000D01*
X171050000Y-113350000D02*
X171050000Y-113550000D01*
X171050000Y-111450000D02*
X171050000Y-112850000D01*
X171050000Y-108950000D02*
X171050000Y-109250000D01*
X171050000Y-108150000D02*
X171050000Y-108350000D01*
X171050000Y-106650000D02*
X171050000Y-107650000D01*
X171050000Y-105850000D02*
X171050000Y-106050000D01*
X171050000Y-103950000D02*
X171050000Y-105350000D01*
X171050000Y-101450000D02*
X171050000Y-101750000D01*
X171050000Y-100650000D02*
X171050000Y-100850000D01*
X171050000Y-99150000D02*
X171050000Y-100150000D01*
X171050000Y-98350000D02*
X171050000Y-98550000D01*
X171050000Y-96450000D02*
X171050000Y-97850000D01*
X173550000Y-115650000D02*
X173550000Y-116750000D01*
X173550000Y-114150000D02*
X173550000Y-115150000D01*
X173550000Y-113350000D02*
X173550000Y-113550000D01*
X173550000Y-111450000D02*
X173550000Y-112850000D01*
X173550000Y-108150000D02*
X173550000Y-109250000D01*
X173550000Y-106650000D02*
X173550000Y-107650000D01*
X173550000Y-105850000D02*
X173550000Y-106050000D01*
X173550000Y-103950000D02*
X173550000Y-105350000D01*
X173550000Y-100750000D02*
X173550000Y-101750000D01*
X173550000Y-99150000D02*
X173550000Y-100150000D01*
X173550000Y-98350000D02*
X173550000Y-98550000D01*
X173550000Y-96450000D02*
X173550000Y-97850000D01*
X166050000Y-94250000D02*
X166050000Y-93150000D01*
X168550000Y-92650000D02*
X168550000Y-92050000D01*
X168550000Y-93450000D02*
X168550000Y-93150000D01*
X168550000Y-94250000D02*
X168550000Y-93950000D01*
X171050000Y-92650000D02*
X171050000Y-91450000D01*
X171050000Y-93450000D02*
X171050000Y-93150000D01*
X171050000Y-94250000D02*
X171050000Y-93950000D01*
X173550000Y-92650000D02*
X173550000Y-91450000D01*
X173550000Y-93150000D02*
X173550000Y-94250000D01*
X169157143Y-91135714D02*
X169228571Y-90921428D01*
X169228571Y-90564285D01*
X169157143Y-90421428D01*
X169085714Y-90349999D01*
X168942857Y-90278571D01*
X168800000Y-90278571D01*
X168657143Y-90349999D01*
X168585714Y-90421428D01*
X168514286Y-90564285D01*
X168442857Y-90849999D01*
X168371429Y-90992857D01*
X168300000Y-91064285D01*
X168157143Y-91135714D01*
X168014286Y-91135714D01*
X167871429Y-91064285D01*
X167800000Y-90992857D01*
X167728571Y-90849999D01*
X167728571Y-90492857D01*
X167800000Y-90278571D01*
X169085714Y-88778571D02*
X169157143Y-88850000D01*
X169228571Y-89064286D01*
X169228571Y-89207143D01*
X169157143Y-89421428D01*
X169014286Y-89564286D01*
X168871429Y-89635714D01*
X168585714Y-89707143D01*
X168371429Y-89707143D01*
X168085714Y-89635714D01*
X167942857Y-89564286D01*
X167800000Y-89421428D01*
X167728571Y-89207143D01*
X167728571Y-89064286D01*
X167800000Y-88850000D01*
X167871429Y-88778571D01*
X169228571Y-87421428D02*
X169228571Y-88135714D01*
X167728571Y-88135714D01*
X171657143Y-91071428D02*
X171728571Y-90857142D01*
X171728571Y-90499999D01*
X171657143Y-90357142D01*
X171585714Y-90285713D01*
X171442857Y-90214285D01*
X171300000Y-90214285D01*
X171157143Y-90285713D01*
X171085714Y-90357142D01*
X171014286Y-90499999D01*
X170942857Y-90785713D01*
X170871429Y-90928571D01*
X170800000Y-90999999D01*
X170657143Y-91071428D01*
X170514286Y-91071428D01*
X170371429Y-90999999D01*
X170300000Y-90928571D01*
X170228571Y-90785713D01*
X170228571Y-90428571D01*
X170300000Y-90214285D01*
X171728571Y-89571428D02*
X170228571Y-89571428D01*
X170228571Y-89214285D01*
X170300000Y-89000000D01*
X170442857Y-88857142D01*
X170585714Y-88785714D01*
X170871429Y-88714285D01*
X171085714Y-88714285D01*
X171371429Y-88785714D01*
X171514286Y-88857142D01*
X171657143Y-89000000D01*
X171728571Y-89214285D01*
X171728571Y-89571428D01*
X171300000Y-88142857D02*
X171300000Y-87428571D01*
X171728571Y-88285714D02*
X170228571Y-87785714D01*
X171728571Y-87285714D01*
X172700000Y-90292857D02*
X172628571Y-90435714D01*
X172628571Y-90650000D01*
X172700000Y-90864285D01*
X172842857Y-91007143D01*
X172985714Y-91078571D01*
X173271429Y-91150000D01*
X173485714Y-91150000D01*
X173771429Y-91078571D01*
X173914286Y-91007143D01*
X174057143Y-90864285D01*
X174128571Y-90650000D01*
X174128571Y-90507143D01*
X174057143Y-90292857D01*
X173985714Y-90221428D01*
X173485714Y-90221428D01*
X173485714Y-90507143D01*
X174128571Y-89578571D02*
X172628571Y-89578571D01*
X174128571Y-88721428D01*
X172628571Y-88721428D01*
X174128571Y-88007142D02*
X172628571Y-88007142D01*
X172628571Y-87649999D01*
X172700000Y-87435714D01*
X172842857Y-87292856D01*
X172985714Y-87221428D01*
X173271429Y-87149999D01*
X173485714Y-87149999D01*
X173771429Y-87221428D01*
X173914286Y-87292856D01*
X174057143Y-87435714D01*
X174128571Y-87649999D01*
X174128571Y-88007142D01*
D12*
X158075000Y-84925000D02*
X157500000Y-84925000D01*
X158075000Y-90675000D02*
X157425000Y-90675000D01*
X147425000Y-90675000D02*
X148075000Y-90675000D01*
X147425000Y-84925000D02*
X148075000Y-84925000D01*
X158075000Y-84925000D02*
X158075000Y-90675000D01*
X147425000Y-84925000D02*
X147425000Y-90675000D01*
X157500000Y-84925000D02*
X157500000Y-83325000D01*
X133050000Y-81150000D02*
X135050000Y-81150000D01*
X135050000Y-81150000D02*
X135050000Y-79150000D01*
X135050000Y-79150000D02*
X137050000Y-79150000D01*
X137050000Y-79150000D02*
X137050000Y-81150000D01*
X137050000Y-81150000D02*
X137050000Y-129150000D01*
X137050000Y-129150000D02*
X133050000Y-129150000D01*
X133050000Y-129150000D02*
X133050000Y-81150000D01*
X132550000Y-80150000D02*
X132550000Y-78650000D01*
X132550000Y-78650000D02*
X134050000Y-78650000D01*
X144300000Y-82450000D02*
X145000000Y-82450000D01*
X145000000Y-83650000D02*
X144300000Y-83650000D01*
X139537169Y-125516206D02*
X142683794Y-128662831D01*
X143337868Y-119558831D02*
X147562831Y-123783794D01*
X139600000Y-82450000D02*
X140300000Y-82450000D01*
X140300000Y-83650000D02*
X139600000Y-83650000D01*
X145773223Y-121521751D02*
X145278249Y-121026777D01*
X146126777Y-120178249D02*
X146621751Y-120673223D01*
X168550000Y-67500000D02*
X168550000Y-68200000D01*
X167350000Y-68200000D02*
X167350000Y-67500000D01*
X148626777Y-122678249D02*
X149121751Y-123173223D01*
X148273223Y-124021751D02*
X147778249Y-123526777D01*
X152400000Y-92950000D02*
X153100000Y-92950000D01*
X153100000Y-94150000D02*
X152400000Y-94150000D01*
X159750000Y-84200000D02*
X159750000Y-84900000D01*
X158550000Y-84900000D02*
X158550000Y-84200000D01*
X155700000Y-92950000D02*
X156400000Y-92950000D01*
X156400000Y-94150000D02*
X155700000Y-94150000D01*
X150900000Y-77650000D02*
X150200000Y-77650000D01*
X150200000Y-76450000D02*
X150900000Y-76450000D01*
X153200000Y-76450000D02*
X153900000Y-76450000D01*
X153900000Y-77650000D02*
X153200000Y-77650000D01*
X140350000Y-104700000D02*
X138450000Y-104700000D01*
X140350000Y-105800000D02*
X138450000Y-105800000D01*
X139450000Y-105250000D02*
X139000000Y-105250000D01*
X139500000Y-105500000D02*
X139500000Y-105000000D01*
X139500000Y-105250000D02*
X139250000Y-105500000D01*
X139250000Y-105500000D02*
X139250000Y-105000000D01*
X139250000Y-105000000D02*
X139500000Y-105250000D01*
X158100000Y-96950000D02*
X158100000Y-95050000D01*
X157000000Y-96950000D02*
X157000000Y-95050000D01*
X157550000Y-96050000D02*
X157550000Y-95600000D01*
X157300000Y-96100000D02*
X157800000Y-96100000D01*
X157550000Y-96100000D02*
X157300000Y-95850000D01*
X157300000Y-95850000D02*
X157800000Y-95850000D01*
X157800000Y-95850000D02*
X157550000Y-96100000D01*
X142600000Y-94950000D02*
X142600000Y-96850000D01*
X143700000Y-94950000D02*
X143700000Y-96850000D01*
X143150000Y-95850000D02*
X143150000Y-96300000D01*
X143400000Y-95800000D02*
X142900000Y-95800000D01*
X143150000Y-95800000D02*
X143400000Y-96050000D01*
X143400000Y-96050000D02*
X142900000Y-96050000D01*
X142900000Y-96050000D02*
X143150000Y-95800000D01*
X145950000Y-73300000D02*
X144050000Y-73300000D01*
X145950000Y-74400000D02*
X144050000Y-74400000D01*
X145050000Y-73850000D02*
X144600000Y-73850000D01*
X145100000Y-74100000D02*
X145100000Y-73600000D01*
X145100000Y-73850000D02*
X144850000Y-74100000D01*
X144850000Y-74100000D02*
X144850000Y-73600000D01*
X144850000Y-73600000D02*
X145100000Y-73850000D01*
X127050000Y-81150000D02*
X129050000Y-81150000D01*
X129050000Y-81150000D02*
X129050000Y-129150000D01*
X129050000Y-129150000D02*
X127050000Y-129150000D01*
X127050000Y-129150000D02*
X127050000Y-81150000D01*
X126550000Y-80150000D02*
X126550000Y-78650000D01*
X126550000Y-78650000D02*
X128050000Y-78650000D01*
X129050000Y-81150000D02*
X131050000Y-81150000D01*
X131050000Y-81150000D02*
X131050000Y-79150000D01*
X131050000Y-79150000D02*
X133050000Y-79150000D01*
X133050000Y-79150000D02*
X133050000Y-81150000D01*
X133050000Y-81150000D02*
X133050000Y-129150000D01*
X133050000Y-129150000D02*
X129050000Y-129150000D01*
X129050000Y-129150000D02*
X129050000Y-81150000D01*
X128550000Y-80150000D02*
X128550000Y-78650000D01*
X128550000Y-78650000D02*
X130050000Y-78650000D01*
X174800000Y-60600000D02*
X174800000Y-62150000D01*
X171700000Y-62150000D02*
X171700000Y-60600000D01*
X171700000Y-60600000D02*
X174800000Y-60600000D01*
X171980000Y-63420000D02*
X174520000Y-63420000D01*
X169280000Y-75920000D02*
X166740000Y-75920000D01*
X172100000Y-76200000D02*
X170550000Y-76200000D01*
X169280000Y-75920000D02*
X169280000Y-73380000D01*
X170550000Y-73100000D02*
X172100000Y-73100000D01*
X172100000Y-73100000D02*
X172100000Y-76200000D01*
X169280000Y-73380000D02*
X166740000Y-73380000D01*
X166740000Y-73380000D02*
X166740000Y-75920000D01*
X163180000Y-81880000D02*
X163180000Y-86960000D01*
X163180000Y-86960000D02*
X165720000Y-86960000D01*
X165720000Y-86960000D02*
X165720000Y-81880000D01*
X166000000Y-79060000D02*
X166000000Y-80610000D01*
X165720000Y-81880000D02*
X163180000Y-81880000D01*
X162900000Y-80610000D02*
X162900000Y-79060000D01*
X162900000Y-79060000D02*
X166000000Y-79060000D01*
X139950000Y-92625000D02*
X138950000Y-92625000D01*
X138950000Y-91275000D02*
X139950000Y-91275000D01*
X150250000Y-94225000D02*
X149250000Y-94225000D01*
X149250000Y-92875000D02*
X150250000Y-92875000D01*
X160475000Y-98950000D02*
X160475000Y-97950000D01*
X161825000Y-97950000D02*
X161825000Y-98950000D01*
X158675000Y-98950000D02*
X158675000Y-97950000D01*
X160025000Y-97950000D02*
X160025000Y-98950000D01*
X139373744Y-125849480D02*
X140080850Y-126556586D01*
X139126256Y-127511180D02*
X138419150Y-126804074D01*
X160475000Y-103750000D02*
X160475000Y-102750000D01*
X161825000Y-102750000D02*
X161825000Y-103750000D01*
X158675000Y-103750000D02*
X158675000Y-102750000D01*
X160025000Y-102750000D02*
X160025000Y-103750000D01*
X138750000Y-106175000D02*
X139750000Y-106175000D01*
X139750000Y-107525000D02*
X138750000Y-107525000D01*
X156525000Y-95350000D02*
X156525000Y-96350000D01*
X155175000Y-96350000D02*
X155175000Y-95350000D01*
X144175000Y-96550000D02*
X144175000Y-95550000D01*
X145525000Y-95550000D02*
X145525000Y-96550000D01*
X144350000Y-74875000D02*
X145350000Y-74875000D01*
X145350000Y-76225000D02*
X144350000Y-76225000D01*
X146675000Y-118450000D02*
X146675000Y-117450000D01*
X148025000Y-117450000D02*
X148025000Y-118450000D01*
X149825000Y-117450000D02*
X149825000Y-118450000D01*
X148475000Y-118450000D02*
X148475000Y-117450000D01*
X158675000Y-118750000D02*
X158675000Y-117750000D01*
X160025000Y-117750000D02*
X160025000Y-118750000D01*
X160475000Y-118750000D02*
X160475000Y-117750000D01*
X161825000Y-117750000D02*
X161825000Y-118750000D01*
X146675000Y-110950000D02*
X146675000Y-109950000D01*
X148025000Y-109950000D02*
X148025000Y-110950000D01*
X149825000Y-109950000D02*
X149825000Y-110950000D01*
X148475000Y-110950000D02*
X148475000Y-109950000D01*
X158675000Y-111250000D02*
X158675000Y-110250000D01*
X160025000Y-110250000D02*
X160025000Y-111250000D01*
X160475000Y-111250000D02*
X160475000Y-110250000D01*
X161825000Y-110250000D02*
X161825000Y-111250000D01*
X172875000Y-75150000D02*
X172875000Y-74150000D01*
X174225000Y-74150000D02*
X174225000Y-75150000D01*
X140675000Y-68950000D02*
X140675000Y-67950000D01*
X142025000Y-67950000D02*
X142025000Y-68950000D01*
X143825000Y-67950000D02*
X143825000Y-68950000D01*
X142475000Y-68950000D02*
X142475000Y-67950000D01*
X152675000Y-69250000D02*
X152675000Y-68250000D01*
X154025000Y-68250000D02*
X154025000Y-69250000D01*
X154475000Y-69250000D02*
X154475000Y-68250000D01*
X155825000Y-68250000D02*
X155825000Y-69250000D01*
X139925000Y-90970000D02*
X144375000Y-90970000D01*
X138400000Y-84070000D02*
X144375000Y-84070000D01*
X166875000Y-67975000D02*
X166850000Y-67975000D01*
X158825000Y-67975000D02*
X158850000Y-67975000D01*
X158825000Y-63325000D02*
X158850000Y-63325000D01*
X166925000Y-62250000D02*
X166925000Y-67975000D01*
X158825000Y-63325000D02*
X158825000Y-67975000D01*
X151550000Y-117700000D02*
X151550000Y-118400000D01*
X150350000Y-118400000D02*
X150350000Y-117700000D01*
X156400000Y-116050000D02*
X157100000Y-116050000D01*
X157100000Y-117250000D02*
X156400000Y-117250000D01*
X151550000Y-110200000D02*
X151550000Y-110900000D01*
X150350000Y-110900000D02*
X150350000Y-110200000D01*
X156400000Y-108550000D02*
X157100000Y-108550000D01*
X157100000Y-109750000D02*
X156400000Y-109750000D01*
X145550000Y-68200000D02*
X145550000Y-68900000D01*
X144350000Y-68900000D02*
X144350000Y-68200000D01*
X150400000Y-66550000D02*
X151100000Y-66550000D01*
X151100000Y-67750000D02*
X150400000Y-67750000D01*
X159750000Y-115275000D02*
X160750000Y-115275000D01*
X160750000Y-116625000D02*
X159750000Y-116625000D01*
X159750000Y-107775000D02*
X160750000Y-107775000D01*
X160750000Y-109125000D02*
X159750000Y-109125000D01*
X153750000Y-65775000D02*
X154750000Y-65775000D01*
X154750000Y-67125000D02*
X153750000Y-67125000D01*
X153475000Y-117675000D02*
X153475000Y-117850000D01*
X156825000Y-117675000D02*
X156825000Y-117925000D01*
X156825000Y-121025000D02*
X156825000Y-120775000D01*
X153475000Y-121025000D02*
X153475000Y-120775000D01*
X153475000Y-117675000D02*
X156825000Y-117675000D01*
X153475000Y-121025000D02*
X156825000Y-121025000D01*
X153475000Y-117850000D02*
X152225000Y-117850000D01*
X153475000Y-110175000D02*
X153475000Y-110350000D01*
X156825000Y-110175000D02*
X156825000Y-110425000D01*
X156825000Y-113525000D02*
X156825000Y-113275000D01*
X153475000Y-113525000D02*
X153475000Y-113275000D01*
X153475000Y-110175000D02*
X156825000Y-110175000D01*
X153475000Y-113525000D02*
X156825000Y-113525000D01*
X153475000Y-110350000D02*
X152225000Y-110350000D01*
X147475000Y-68175000D02*
X147475000Y-68350000D01*
X150825000Y-68175000D02*
X150825000Y-68425000D01*
X150825000Y-71525000D02*
X150825000Y-71275000D01*
X147475000Y-71525000D02*
X147475000Y-71275000D01*
X147475000Y-68175000D02*
X150825000Y-68175000D01*
X147475000Y-71525000D02*
X150825000Y-71525000D01*
X147475000Y-68350000D02*
X146225000Y-68350000D01*
X163500000Y-115400000D02*
X163500000Y-121350000D01*
X163500000Y-121350000D02*
X176100000Y-121350000D01*
X176100000Y-121350000D02*
X176100000Y-115400000D01*
X176100000Y-115400000D02*
X163500000Y-115400000D01*
X166800000Y-115400000D02*
X166800000Y-116150000D01*
X166800000Y-116150000D02*
X172800000Y-116150000D01*
X172800000Y-116150000D02*
X172800000Y-115400000D01*
X172800000Y-115400000D02*
X166800000Y-115400000D01*
X163500000Y-115400000D02*
X163500000Y-116150000D01*
X163500000Y-116150000D02*
X165300000Y-116150000D01*
X165300000Y-116150000D02*
X165300000Y-115400000D01*
X165300000Y-115400000D02*
X163500000Y-115400000D01*
X174300000Y-115400000D02*
X174300000Y-116150000D01*
X174300000Y-116150000D02*
X176100000Y-116150000D01*
X176100000Y-116150000D02*
X176100000Y-115400000D01*
X176100000Y-115400000D02*
X174300000Y-115400000D01*
X163500000Y-117650000D02*
X164250000Y-117650000D01*
X164250000Y-117650000D02*
X164250000Y-120600000D01*
X164250000Y-120600000D02*
X169800000Y-120600000D01*
X176100000Y-117650000D02*
X175350000Y-117650000D01*
X175350000Y-117650000D02*
X175350000Y-120600000D01*
X175350000Y-120600000D02*
X169800000Y-120600000D01*
X166050000Y-115100000D02*
X165750000Y-114500000D01*
X165750000Y-114500000D02*
X166350000Y-114500000D01*
X166350000Y-114500000D02*
X166050000Y-115100000D01*
X163500000Y-107900000D02*
X163500000Y-113850000D01*
X163500000Y-113850000D02*
X176100000Y-113850000D01*
X176100000Y-113850000D02*
X176100000Y-107900000D01*
X176100000Y-107900000D02*
X163500000Y-107900000D01*
X166800000Y-107900000D02*
X166800000Y-108650000D01*
X166800000Y-108650000D02*
X172800000Y-108650000D01*
X172800000Y-108650000D02*
X172800000Y-107900000D01*
X172800000Y-107900000D02*
X166800000Y-107900000D01*
X163500000Y-107900000D02*
X163500000Y-108650000D01*
X163500000Y-108650000D02*
X165300000Y-108650000D01*
X165300000Y-108650000D02*
X165300000Y-107900000D01*
X165300000Y-107900000D02*
X163500000Y-107900000D01*
X174300000Y-107900000D02*
X174300000Y-108650000D01*
X174300000Y-108650000D02*
X176100000Y-108650000D01*
X176100000Y-108650000D02*
X176100000Y-107900000D01*
X176100000Y-107900000D02*
X174300000Y-107900000D01*
X163500000Y-110150000D02*
X164250000Y-110150000D01*
X164250000Y-110150000D02*
X164250000Y-113100000D01*
X164250000Y-113100000D02*
X169800000Y-113100000D01*
X176100000Y-110150000D02*
X175350000Y-110150000D01*
X175350000Y-110150000D02*
X175350000Y-113100000D01*
X175350000Y-113100000D02*
X169800000Y-113100000D01*
X166050000Y-107600000D02*
X165750000Y-107000000D01*
X165750000Y-107000000D02*
X166350000Y-107000000D01*
X166350000Y-107000000D02*
X166050000Y-107600000D01*
X163500000Y-92900000D02*
X163500000Y-98850000D01*
X163500000Y-98850000D02*
X176100000Y-98850000D01*
X176100000Y-98850000D02*
X176100000Y-92900000D01*
X176100000Y-92900000D02*
X163500000Y-92900000D01*
X166800000Y-92900000D02*
X166800000Y-93650000D01*
X166800000Y-93650000D02*
X172800000Y-93650000D01*
X172800000Y-93650000D02*
X172800000Y-92900000D01*
X172800000Y-92900000D02*
X166800000Y-92900000D01*
X163500000Y-92900000D02*
X163500000Y-93650000D01*
X163500000Y-93650000D02*
X165300000Y-93650000D01*
X165300000Y-93650000D02*
X165300000Y-92900000D01*
X165300000Y-92900000D02*
X163500000Y-92900000D01*
X174300000Y-92900000D02*
X174300000Y-93650000D01*
X174300000Y-93650000D02*
X176100000Y-93650000D01*
X176100000Y-93650000D02*
X176100000Y-92900000D01*
X176100000Y-92900000D02*
X174300000Y-92900000D01*
X163500000Y-95150000D02*
X164250000Y-95150000D01*
X164250000Y-95150000D02*
X164250000Y-98100000D01*
X164250000Y-98100000D02*
X169800000Y-98100000D01*
X176100000Y-95150000D02*
X175350000Y-95150000D01*
X175350000Y-95150000D02*
X175350000Y-98100000D01*
X175350000Y-98100000D02*
X169800000Y-98100000D01*
X166050000Y-92600000D02*
X165750000Y-92000000D01*
X165750000Y-92000000D02*
X166350000Y-92000000D01*
X166350000Y-92000000D02*
X166050000Y-92600000D01*
X163500000Y-100400000D02*
X163500000Y-106350000D01*
X163500000Y-106350000D02*
X176100000Y-106350000D01*
X176100000Y-106350000D02*
X176100000Y-100400000D01*
X176100000Y-100400000D02*
X163500000Y-100400000D01*
X166800000Y-100400000D02*
X166800000Y-101150000D01*
X166800000Y-101150000D02*
X172800000Y-101150000D01*
X172800000Y-101150000D02*
X172800000Y-100400000D01*
X172800000Y-100400000D02*
X166800000Y-100400000D01*
X163500000Y-100400000D02*
X163500000Y-101150000D01*
X163500000Y-101150000D02*
X165300000Y-101150000D01*
X165300000Y-101150000D02*
X165300000Y-100400000D01*
X165300000Y-100400000D02*
X163500000Y-100400000D01*
X174300000Y-100400000D02*
X174300000Y-101150000D01*
X174300000Y-101150000D02*
X176100000Y-101150000D01*
X176100000Y-101150000D02*
X176100000Y-100400000D01*
X176100000Y-100400000D02*
X174300000Y-100400000D01*
X163500000Y-102650000D02*
X164250000Y-102650000D01*
X164250000Y-102650000D02*
X164250000Y-105600000D01*
X164250000Y-105600000D02*
X169800000Y-105600000D01*
X176100000Y-102650000D02*
X175350000Y-102650000D01*
X175350000Y-102650000D02*
X175350000Y-105600000D01*
X175350000Y-105600000D02*
X169800000Y-105600000D01*
X166050000Y-100100000D02*
X165750000Y-99500000D01*
X165750000Y-99500000D02*
X166350000Y-99500000D01*
X166350000Y-99500000D02*
X166050000Y-100100000D01*
X176100000Y-133100000D02*
X176100000Y-127150000D01*
X176100000Y-127150000D02*
X148500000Y-127150000D01*
X148500000Y-127150000D02*
X148500000Y-133100000D01*
X148500000Y-133100000D02*
X176100000Y-133100000D01*
X172800000Y-133100000D02*
X172800000Y-132350000D01*
X172800000Y-132350000D02*
X151800000Y-132350000D01*
X151800000Y-132350000D02*
X151800000Y-133100000D01*
X151800000Y-133100000D02*
X172800000Y-133100000D01*
X176100000Y-133100000D02*
X176100000Y-132350000D01*
X176100000Y-132350000D02*
X174300000Y-132350000D01*
X174300000Y-132350000D02*
X174300000Y-133100000D01*
X174300000Y-133100000D02*
X176100000Y-133100000D01*
X150300000Y-133100000D02*
X150300000Y-132350000D01*
X150300000Y-132350000D02*
X148500000Y-132350000D01*
X148500000Y-132350000D02*
X148500000Y-133100000D01*
X148500000Y-133100000D02*
X150300000Y-133100000D01*
X176100000Y-130850000D02*
X175350000Y-130850000D01*
X175350000Y-130850000D02*
X175350000Y-127900000D01*
X175350000Y-127900000D02*
X162300000Y-127900000D01*
X148500000Y-130850000D02*
X149250000Y-130850000D01*
X149250000Y-130850000D02*
X149250000Y-127900000D01*
X149250000Y-127900000D02*
X162300000Y-127900000D01*
X173550000Y-133400000D02*
X173850000Y-134000000D01*
X173850000Y-134000000D02*
X173250000Y-134000000D01*
X173250000Y-134000000D02*
X173550000Y-133400000D01*
X175850000Y-81900000D02*
X176350000Y-81900000D01*
X173850000Y-79400000D02*
G75*
G03X173850000Y-79400000I-2000000J0D01*
G01*
X173850000Y-84400000D02*
G75*
G03X173850000Y-84400000I-2000000J0D01*
G01*
X174350000Y-86900000D02*
X174350000Y-76900000D01*
X169450000Y-86900000D02*
X169450000Y-76900000D01*
X175850000Y-86900000D02*
X175850000Y-76900000D01*
X176350000Y-86900000D02*
X176350000Y-76900000D01*
X176350000Y-76900000D02*
X166550000Y-76900000D01*
X166550000Y-76900000D02*
X166550000Y-86900000D01*
X166550000Y-86900000D02*
X176350000Y-86900000D01*
X156749000Y-79299240D02*
X156949660Y-79700560D01*
X156949660Y-79700560D02*
X157051260Y-80300000D01*
X157051260Y-80300000D02*
X156949660Y-80800380D01*
X156949660Y-80800380D02*
X156550880Y-81498880D01*
X156550880Y-81498880D02*
X155948900Y-81900200D01*
X155948900Y-81900200D02*
X155349460Y-82100860D01*
X155349460Y-82100860D02*
X148750540Y-82100860D01*
X148750540Y-82100860D02*
X148049500Y-81900200D01*
X148049500Y-81900200D02*
X147650720Y-81600480D01*
X147650720Y-81600480D02*
X147249400Y-81100100D01*
X147249400Y-81100100D02*
X147048740Y-80500660D01*
X147048740Y-80500660D02*
X147048740Y-80000280D01*
X147048740Y-80000280D02*
X147249400Y-79499900D01*
X147249400Y-79499900D02*
X147749780Y-78900460D01*
X147749780Y-78900460D02*
X148250160Y-78600740D01*
X148250160Y-78600740D02*
X148750540Y-78499140D01*
X148849600Y-78499140D02*
X155451060Y-78499140D01*
X155451060Y-78499140D02*
X155849840Y-78600740D01*
X155849840Y-78600740D02*
X156350220Y-78900460D01*
X156350220Y-78900460D02*
X156850600Y-79400840D01*
X148859760Y-77970820D02*
X148400020Y-78019080D01*
X148400020Y-78019080D02*
X148001240Y-78130840D01*
X148001240Y-78130840D02*
X147569440Y-78349280D01*
X147569440Y-78349280D02*
X147279880Y-78580420D01*
X147279880Y-78580420D02*
X146949680Y-78930940D01*
X146949680Y-78930940D02*
X146660120Y-79469420D01*
X146660120Y-79469420D02*
X146530580Y-80068860D01*
X146530580Y-80068860D02*
X146530580Y-80579400D01*
X146530580Y-80579400D02*
X146700760Y-81280440D01*
X146700760Y-81280440D02*
X147099540Y-81869720D01*
X147099540Y-81869720D02*
X147559280Y-82240560D01*
X147559280Y-82240560D02*
X147980920Y-82448840D01*
X147980920Y-82448840D02*
X148430500Y-82608860D01*
X148430500Y-82608860D02*
X148869920Y-82639340D01*
X156210520Y-82420900D02*
X156588980Y-82199920D01*
X156588980Y-82199920D02*
X156909020Y-81920520D01*
X156909020Y-81920520D02*
X157160480Y-81590320D01*
X157160480Y-81590320D02*
X157460200Y-81039140D01*
X157460200Y-81039140D02*
X157569420Y-80569240D01*
X157569420Y-80569240D02*
X157589740Y-80109500D01*
X157589740Y-80109500D02*
X157500840Y-79649760D01*
X157500840Y-79649760D02*
X157310340Y-79200180D01*
X157310340Y-79200180D02*
X156949660Y-78730280D01*
X156949660Y-78730280D02*
X156599140Y-78410240D01*
X156599140Y-78410240D02*
X156210520Y-78179100D01*
X156210520Y-78179100D02*
X155781260Y-78039400D01*
X155781260Y-78039400D02*
X155339300Y-77970820D01*
X148849600Y-82629180D02*
X155301200Y-82629180D01*
X155301200Y-82629180D02*
X155720300Y-82591080D01*
X155720300Y-82591080D02*
X156210520Y-82420900D01*
X148849600Y-77970820D02*
X155301200Y-77970820D01*
X141480000Y-59850000D02*
X141480000Y-50910000D01*
X141480000Y-50910000D02*
X174480000Y-50910000D01*
X174480000Y-50910000D02*
X174480000Y-59850000D01*
X174480000Y-59850000D02*
X141480000Y-59850000D01*
X155755000Y-59850000D02*
X155755000Y-58550000D01*
X155755000Y-58550000D02*
X142680000Y-58550000D01*
X142680000Y-58550000D02*
X142680000Y-52210000D01*
X142680000Y-52210000D02*
X173280000Y-52210000D01*
X173280000Y-52210000D02*
X173280000Y-58550000D01*
X173280000Y-58550000D02*
X160205000Y-58550000D01*
X160205000Y-58550000D02*
X160205000Y-59850000D01*
X157730000Y-50910000D02*
X157730000Y-50710000D01*
X157730000Y-50710000D02*
X158230000Y-50710000D01*
X158230000Y-50710000D02*
X158230000Y-50910000D01*
X157730000Y-50810000D02*
X158230000Y-50810000D01*
X171560000Y-50910000D02*
X171560000Y-50710000D01*
X171560000Y-50710000D02*
X172060000Y-50710000D01*
X172060000Y-50710000D02*
X172060000Y-50910000D01*
X171560000Y-50810000D02*
X172060000Y-50810000D01*
X143900000Y-50910000D02*
X143900000Y-50710000D01*
X143900000Y-50710000D02*
X144400000Y-50710000D01*
X144400000Y-50710000D02*
X144400000Y-50910000D01*
X143900000Y-50810000D02*
X144400000Y-50810000D01*
X144350000Y-57250000D02*
X144350000Y-56050000D01*
X144350000Y-56050000D02*
X144950000Y-56650000D01*
X144950000Y-56650000D02*
X144350000Y-57250000D01*
X158402381Y-90611905D02*
X159211905Y-90611905D01*
X159307143Y-90564286D01*
X159354762Y-90516667D01*
X159402381Y-90421429D01*
X159402381Y-90230952D01*
X159354762Y-90135714D01*
X159307143Y-90088095D01*
X159211905Y-90040476D01*
X158402381Y-90040476D01*
X158402381Y-89135714D02*
X158402381Y-89326191D01*
X158450000Y-89421429D01*
X158497619Y-89469048D01*
X158640476Y-89564286D01*
X158830952Y-89611905D01*
X159211905Y-89611905D01*
X159307143Y-89564286D01*
X159354762Y-89516667D01*
X159402381Y-89421429D01*
X159402381Y-89230952D01*
X159354762Y-89135714D01*
X159307143Y-89088095D01*
X159211905Y-89040476D01*
X158973810Y-89040476D01*
X158878571Y-89088095D01*
X158830952Y-89135714D01*
X158783333Y-89230952D01*
X158783333Y-89421429D01*
X158830952Y-89516667D01*
X158878571Y-89564286D01*
X158973810Y-89611905D01*
X133311905Y-78402381D02*
X133311905Y-77402381D01*
X133692858Y-77402381D01*
X133788096Y-77450000D01*
X133835715Y-77497619D01*
X133883334Y-77592857D01*
X133883334Y-77735714D01*
X133835715Y-77830952D01*
X133788096Y-77878571D01*
X133692858Y-77926190D01*
X133311905Y-77926190D01*
X134216667Y-77402381D02*
X134835715Y-77402381D01*
X134502381Y-77783333D01*
X134645239Y-77783333D01*
X134740477Y-77830952D01*
X134788096Y-77878571D01*
X134835715Y-77973810D01*
X134835715Y-78211905D01*
X134788096Y-78307143D01*
X134740477Y-78354762D01*
X134645239Y-78402381D01*
X134359524Y-78402381D01*
X134264286Y-78354762D01*
X134216667Y-78307143D01*
X144483334Y-82007143D02*
X144435715Y-82054762D01*
X144292858Y-82102381D01*
X144197620Y-82102381D01*
X144054762Y-82054762D01*
X143959524Y-81959524D01*
X143911905Y-81864286D01*
X143864286Y-81673810D01*
X143864286Y-81530952D01*
X143911905Y-81340476D01*
X143959524Y-81245238D01*
X144054762Y-81150000D01*
X144197620Y-81102381D01*
X144292858Y-81102381D01*
X144435715Y-81150000D01*
X144483334Y-81197619D01*
X144864286Y-81197619D02*
X144911905Y-81150000D01*
X145007143Y-81102381D01*
X145245239Y-81102381D01*
X145340477Y-81150000D01*
X145388096Y-81197619D01*
X145435715Y-81292857D01*
X145435715Y-81388095D01*
X145388096Y-81530952D01*
X144816667Y-82102381D01*
X145435715Y-82102381D01*
X142398477Y-128924027D02*
X141826057Y-129496447D01*
X141792385Y-129597462D01*
X141792385Y-129664805D01*
X141826057Y-129765820D01*
X141960745Y-129900508D01*
X142061760Y-129934180D01*
X142129103Y-129934180D01*
X142230118Y-129900508D01*
X142802538Y-129328088D01*
X143071912Y-129597462D02*
X143509645Y-130035195D01*
X143004569Y-130068866D01*
X143105584Y-130169882D01*
X143139256Y-130270897D01*
X143139256Y-130338240D01*
X143105584Y-130439256D01*
X142937225Y-130607615D01*
X142836210Y-130641286D01*
X142768867Y-130641286D01*
X142667851Y-130607615D01*
X142465820Y-130405584D01*
X142432149Y-130304569D01*
X142432149Y-130237225D01*
X139783334Y-82007143D02*
X139735715Y-82054762D01*
X139592858Y-82102381D01*
X139497620Y-82102381D01*
X139354762Y-82054762D01*
X139259524Y-81959524D01*
X139211905Y-81864286D01*
X139164286Y-81673810D01*
X139164286Y-81530952D01*
X139211905Y-81340476D01*
X139259524Y-81245238D01*
X139354762Y-81150000D01*
X139497620Y-81102381D01*
X139592858Y-81102381D01*
X139735715Y-81150000D01*
X139783334Y-81197619D01*
X140735715Y-82102381D02*
X140164286Y-82102381D01*
X140450000Y-82102381D02*
X140450000Y-81102381D01*
X140354762Y-81245238D01*
X140259524Y-81340476D01*
X140164286Y-81388095D01*
X143779611Y-119184688D02*
X143712268Y-119184688D01*
X143577581Y-119117344D01*
X143510237Y-119050001D01*
X143442893Y-118915313D01*
X143442893Y-118780626D01*
X143476565Y-118679611D01*
X143577580Y-118511253D01*
X143678596Y-118410237D01*
X143846955Y-118309222D01*
X143947970Y-118275550D01*
X144082657Y-118275550D01*
X144217344Y-118342894D01*
X144284688Y-118410237D01*
X144352031Y-118544924D01*
X144352031Y-118612268D01*
X144655076Y-118780626D02*
X145092810Y-119218359D01*
X144587733Y-119252030D01*
X144688749Y-119353046D01*
X144722421Y-119454061D01*
X144722421Y-119521405D01*
X144688748Y-119622421D01*
X144520390Y-119790779D01*
X144419374Y-119824451D01*
X144352031Y-119824451D01*
X144251016Y-119790779D01*
X144048985Y-119588748D01*
X144015313Y-119487733D01*
X144015313Y-119420390D01*
X170207143Y-68016666D02*
X170254762Y-68064285D01*
X170302381Y-68207142D01*
X170302381Y-68302380D01*
X170254762Y-68445238D01*
X170159524Y-68540476D01*
X170064286Y-68588095D01*
X169873810Y-68635714D01*
X169730952Y-68635714D01*
X169540476Y-68588095D01*
X169445238Y-68540476D01*
X169350000Y-68445238D01*
X169302381Y-68302380D01*
X169302381Y-68207142D01*
X169350000Y-68064285D01*
X169397619Y-68016666D01*
X169635714Y-67159523D02*
X170302381Y-67159523D01*
X169254762Y-67397619D02*
X169969048Y-67635714D01*
X169969048Y-67016666D01*
X149079611Y-122484688D02*
X149012268Y-122484688D01*
X148877581Y-122417344D01*
X148810237Y-122350001D01*
X148742893Y-122215313D01*
X148742893Y-122080626D01*
X148776565Y-121979611D01*
X148877580Y-121811253D01*
X148978596Y-121710237D01*
X149146955Y-121609222D01*
X149247970Y-121575550D01*
X149382657Y-121575550D01*
X149517344Y-121642894D01*
X149584688Y-121710237D01*
X149652031Y-121844924D01*
X149652031Y-121912268D01*
X150359138Y-122484688D02*
X150022420Y-122147970D01*
X149652031Y-122451015D01*
X149719374Y-122451015D01*
X149820390Y-122484687D01*
X149988749Y-122653046D01*
X150022421Y-122754061D01*
X150022421Y-122821405D01*
X149988748Y-122922421D01*
X149820390Y-123090779D01*
X149719374Y-123124451D01*
X149652031Y-123124451D01*
X149551016Y-123090779D01*
X149382657Y-122922420D01*
X149348985Y-122821405D01*
X149348985Y-122754061D01*
X151707143Y-95507143D02*
X151659524Y-95554762D01*
X151516667Y-95602381D01*
X151421429Y-95602381D01*
X151278571Y-95554762D01*
X151183333Y-95459524D01*
X151135714Y-95364286D01*
X151088095Y-95173810D01*
X151088095Y-95030952D01*
X151135714Y-94840476D01*
X151183333Y-94745238D01*
X151278571Y-94650000D01*
X151421429Y-94602381D01*
X151516667Y-94602381D01*
X151659524Y-94650000D01*
X151707143Y-94697619D01*
X152659524Y-95602381D02*
X152088095Y-95602381D01*
X152373809Y-95602381D02*
X152373809Y-94602381D01*
X152278571Y-94745238D01*
X152183333Y-94840476D01*
X152088095Y-94888095D01*
X153278571Y-94602381D02*
X153373810Y-94602381D01*
X153469048Y-94650000D01*
X153516667Y-94697619D01*
X153564286Y-94792857D01*
X153611905Y-94983333D01*
X153611905Y-95221429D01*
X153564286Y-95411905D01*
X153516667Y-95507143D01*
X153469048Y-95554762D01*
X153373810Y-95602381D01*
X153278571Y-95602381D01*
X153183333Y-95554762D01*
X153135714Y-95507143D01*
X153088095Y-95411905D01*
X153040476Y-95221429D01*
X153040476Y-94983333D01*
X153088095Y-94792857D01*
X153135714Y-94697619D01*
X153183333Y-94650000D01*
X153278571Y-94602381D01*
X159507143Y-88092857D02*
X159554762Y-88140476D01*
X159602381Y-88283333D01*
X159602381Y-88378571D01*
X159554762Y-88521429D01*
X159459524Y-88616667D01*
X159364286Y-88664286D01*
X159173810Y-88711905D01*
X159030952Y-88711905D01*
X158840476Y-88664286D01*
X158745238Y-88616667D01*
X158650000Y-88521429D01*
X158602381Y-88378571D01*
X158602381Y-88283333D01*
X158650000Y-88140476D01*
X158697619Y-88092857D01*
X159602381Y-87140476D02*
X159602381Y-87711905D01*
X159602381Y-87426191D02*
X158602381Y-87426191D01*
X158745238Y-87521429D01*
X158840476Y-87616667D01*
X158888095Y-87711905D01*
X159602381Y-86188095D02*
X159602381Y-86759524D01*
X159602381Y-86473810D02*
X158602381Y-86473810D01*
X158745238Y-86569048D01*
X158840476Y-86664286D01*
X158888095Y-86759524D01*
X158307143Y-94007143D02*
X158259524Y-94054762D01*
X158116667Y-94102381D01*
X158021429Y-94102381D01*
X157878571Y-94054762D01*
X157783333Y-93959524D01*
X157735714Y-93864286D01*
X157688095Y-93673810D01*
X157688095Y-93530952D01*
X157735714Y-93340476D01*
X157783333Y-93245238D01*
X157878571Y-93150000D01*
X158021429Y-93102381D01*
X158116667Y-93102381D01*
X158259524Y-93150000D01*
X158307143Y-93197619D01*
X159259524Y-94102381D02*
X158688095Y-94102381D01*
X158973809Y-94102381D02*
X158973809Y-93102381D01*
X158878571Y-93245238D01*
X158783333Y-93340476D01*
X158688095Y-93388095D01*
X159640476Y-93197619D02*
X159688095Y-93150000D01*
X159783333Y-93102381D01*
X160021429Y-93102381D01*
X160116667Y-93150000D01*
X160164286Y-93197619D01*
X160211905Y-93292857D01*
X160211905Y-93388095D01*
X160164286Y-93530952D01*
X159592857Y-94102381D01*
X160211905Y-94102381D01*
X149907143Y-76007143D02*
X149859524Y-76054762D01*
X149716667Y-76102381D01*
X149621429Y-76102381D01*
X149478571Y-76054762D01*
X149383333Y-75959524D01*
X149335714Y-75864286D01*
X149288095Y-75673810D01*
X149288095Y-75530952D01*
X149335714Y-75340476D01*
X149383333Y-75245238D01*
X149478571Y-75150000D01*
X149621429Y-75102381D01*
X149716667Y-75102381D01*
X149859524Y-75150000D01*
X149907143Y-75197619D01*
X150859524Y-76102381D02*
X150288095Y-76102381D01*
X150573809Y-76102381D02*
X150573809Y-75102381D01*
X150478571Y-75245238D01*
X150383333Y-75340476D01*
X150288095Y-75388095D01*
X151192857Y-75102381D02*
X151811905Y-75102381D01*
X151478571Y-75483333D01*
X151621429Y-75483333D01*
X151716667Y-75530952D01*
X151764286Y-75578571D01*
X151811905Y-75673810D01*
X151811905Y-75911905D01*
X151764286Y-76007143D01*
X151716667Y-76054762D01*
X151621429Y-76102381D01*
X151335714Y-76102381D01*
X151240476Y-76054762D01*
X151192857Y-76007143D01*
X152907143Y-76007143D02*
X152859524Y-76054762D01*
X152716667Y-76102381D01*
X152621429Y-76102381D01*
X152478571Y-76054762D01*
X152383333Y-75959524D01*
X152335714Y-75864286D01*
X152288095Y-75673810D01*
X152288095Y-75530952D01*
X152335714Y-75340476D01*
X152383333Y-75245238D01*
X152478571Y-75150000D01*
X152621429Y-75102381D01*
X152716667Y-75102381D01*
X152859524Y-75150000D01*
X152907143Y-75197619D01*
X153859524Y-76102381D02*
X153288095Y-76102381D01*
X153573809Y-76102381D02*
X153573809Y-75102381D01*
X153478571Y-75245238D01*
X153383333Y-75340476D01*
X153288095Y-75388095D01*
X154716667Y-75435714D02*
X154716667Y-76102381D01*
X154478571Y-75054762D02*
X154240476Y-75769048D01*
X154859524Y-75769048D01*
X138511905Y-104302381D02*
X138511905Y-103302381D01*
X138750000Y-103302381D01*
X138892858Y-103350000D01*
X138988096Y-103445238D01*
X139035715Y-103540476D01*
X139083334Y-103730952D01*
X139083334Y-103873810D01*
X139035715Y-104064286D01*
X138988096Y-104159524D01*
X138892858Y-104254762D01*
X138750000Y-104302381D01*
X138511905Y-104302381D01*
X140035715Y-104302381D02*
X139464286Y-104302381D01*
X139750000Y-104302381D02*
X139750000Y-103302381D01*
X139654762Y-103445238D01*
X139559524Y-103540476D01*
X139464286Y-103588095D01*
X159502381Y-96588095D02*
X158502381Y-96588095D01*
X158502381Y-96350000D01*
X158550000Y-96207142D01*
X158645238Y-96111904D01*
X158740476Y-96064285D01*
X158930952Y-96016666D01*
X159073810Y-96016666D01*
X159264286Y-96064285D01*
X159359524Y-96111904D01*
X159454762Y-96207142D01*
X159502381Y-96350000D01*
X159502381Y-96588095D01*
X158597619Y-95635714D02*
X158550000Y-95588095D01*
X158502381Y-95492857D01*
X158502381Y-95254761D01*
X158550000Y-95159523D01*
X158597619Y-95111904D01*
X158692857Y-95064285D01*
X158788095Y-95064285D01*
X158930952Y-95111904D01*
X159502381Y-95683333D01*
X159502381Y-95064285D01*
X142202381Y-96788095D02*
X141202381Y-96788095D01*
X141202381Y-96550000D01*
X141250000Y-96407142D01*
X141345238Y-96311904D01*
X141440476Y-96264285D01*
X141630952Y-96216666D01*
X141773810Y-96216666D01*
X141964286Y-96264285D01*
X142059524Y-96311904D01*
X142154762Y-96407142D01*
X142202381Y-96550000D01*
X142202381Y-96788095D01*
X141202381Y-95883333D02*
X141202381Y-95264285D01*
X141583333Y-95597619D01*
X141583333Y-95454761D01*
X141630952Y-95359523D01*
X141678571Y-95311904D01*
X141773810Y-95264285D01*
X142011905Y-95264285D01*
X142107143Y-95311904D01*
X142154762Y-95359523D01*
X142202381Y-95454761D01*
X142202381Y-95740476D01*
X142154762Y-95835714D01*
X142107143Y-95883333D01*
X144111905Y-72902381D02*
X144111905Y-71902381D01*
X144350000Y-71902381D01*
X144492858Y-71950000D01*
X144588096Y-72045238D01*
X144635715Y-72140476D01*
X144683334Y-72330952D01*
X144683334Y-72473810D01*
X144635715Y-72664286D01*
X144588096Y-72759524D01*
X144492858Y-72854762D01*
X144350000Y-72902381D01*
X144111905Y-72902381D01*
X145540477Y-72235714D02*
X145540477Y-72902381D01*
X145302381Y-71854762D02*
X145064286Y-72569048D01*
X145683334Y-72569048D01*
X127311905Y-78402381D02*
X127311905Y-77402381D01*
X127692858Y-77402381D01*
X127788096Y-77450000D01*
X127835715Y-77497619D01*
X127883334Y-77592857D01*
X127883334Y-77735714D01*
X127835715Y-77830952D01*
X127788096Y-77878571D01*
X127692858Y-77926190D01*
X127311905Y-77926190D01*
X128835715Y-78402381D02*
X128264286Y-78402381D01*
X128550000Y-78402381D02*
X128550000Y-77402381D01*
X128454762Y-77545238D01*
X128359524Y-77640476D01*
X128264286Y-77688095D01*
X129311905Y-78402381D02*
X129311905Y-77402381D01*
X129692858Y-77402381D01*
X129788096Y-77450000D01*
X129835715Y-77497619D01*
X129883334Y-77592857D01*
X129883334Y-77735714D01*
X129835715Y-77830952D01*
X129788096Y-77878571D01*
X129692858Y-77926190D01*
X129311905Y-77926190D01*
X130264286Y-77497619D02*
X130311905Y-77450000D01*
X130407143Y-77402381D01*
X130645239Y-77402381D01*
X130740477Y-77450000D01*
X130788096Y-77497619D01*
X130835715Y-77592857D01*
X130835715Y-77688095D01*
X130788096Y-77830952D01*
X130216667Y-78402381D01*
X130835715Y-78402381D01*
X174902381Y-65688095D02*
X173902381Y-65688095D01*
X173902381Y-65307142D01*
X173950000Y-65211904D01*
X173997619Y-65164285D01*
X174092857Y-65116666D01*
X174235714Y-65116666D01*
X174330952Y-65164285D01*
X174378571Y-65211904D01*
X174426190Y-65307142D01*
X174426190Y-65688095D01*
X174235714Y-64259523D02*
X174902381Y-64259523D01*
X173854762Y-64497619D02*
X174569048Y-64735714D01*
X174569048Y-64116666D01*
X169335714Y-72702381D02*
X169335714Y-71702381D01*
X169716667Y-71702381D01*
X169811905Y-71750000D01*
X169859524Y-71797619D01*
X169907143Y-71892857D01*
X169907143Y-72035714D01*
X169859524Y-72130952D01*
X169811905Y-72178571D01*
X169716667Y-72226190D01*
X169335714Y-72226190D01*
X170859524Y-72702381D02*
X170288095Y-72702381D01*
X170573809Y-72702381D02*
X170573809Y-71702381D01*
X170478571Y-71845238D01*
X170383333Y-71940476D01*
X170288095Y-71988095D01*
X171811905Y-72702381D02*
X171240476Y-72702381D01*
X171526190Y-72702381D02*
X171526190Y-71702381D01*
X171430952Y-71845238D01*
X171335714Y-71940476D01*
X171240476Y-71988095D01*
X163235714Y-78702381D02*
X163235714Y-77702381D01*
X163616667Y-77702381D01*
X163711905Y-77750000D01*
X163759524Y-77797619D01*
X163807143Y-77892857D01*
X163807143Y-78035714D01*
X163759524Y-78130952D01*
X163711905Y-78178571D01*
X163616667Y-78226190D01*
X163235714Y-78226190D01*
X164759524Y-78702381D02*
X164188095Y-78702381D01*
X164473809Y-78702381D02*
X164473809Y-77702381D01*
X164378571Y-77845238D01*
X164283333Y-77940476D01*
X164188095Y-77988095D01*
X165140476Y-77797619D02*
X165188095Y-77750000D01*
X165283333Y-77702381D01*
X165521429Y-77702381D01*
X165616667Y-77750000D01*
X165664286Y-77797619D01*
X165711905Y-77892857D01*
X165711905Y-77988095D01*
X165664286Y-78130952D01*
X165092857Y-78702381D01*
X165711905Y-78702381D01*
X141483334Y-92402381D02*
X141150000Y-91926190D01*
X140911905Y-92402381D02*
X140911905Y-91402381D01*
X141292858Y-91402381D01*
X141388096Y-91450000D01*
X141435715Y-91497619D01*
X141483334Y-91592857D01*
X141483334Y-91735714D01*
X141435715Y-91830952D01*
X141388096Y-91878571D01*
X141292858Y-91926190D01*
X140911905Y-91926190D01*
X142435715Y-92402381D02*
X141864286Y-92402381D01*
X142150000Y-92402381D02*
X142150000Y-91402381D01*
X142054762Y-91545238D01*
X141959524Y-91640476D01*
X141864286Y-91688095D01*
X149583334Y-95602381D02*
X149250000Y-95126190D01*
X149011905Y-95602381D02*
X149011905Y-94602381D01*
X149392858Y-94602381D01*
X149488096Y-94650000D01*
X149535715Y-94697619D01*
X149583334Y-94792857D01*
X149583334Y-94935714D01*
X149535715Y-95030952D01*
X149488096Y-95078571D01*
X149392858Y-95126190D01*
X149011905Y-95126190D01*
X149964286Y-94697619D02*
X150011905Y-94650000D01*
X150107143Y-94602381D01*
X150345239Y-94602381D01*
X150440477Y-94650000D01*
X150488096Y-94697619D01*
X150535715Y-94792857D01*
X150535715Y-94888095D01*
X150488096Y-95030952D01*
X149916667Y-95602381D01*
X150535715Y-95602381D01*
X161602381Y-100916666D02*
X161126190Y-101250000D01*
X161602381Y-101488095D02*
X160602381Y-101488095D01*
X160602381Y-101107142D01*
X160650000Y-101011904D01*
X160697619Y-100964285D01*
X160792857Y-100916666D01*
X160935714Y-100916666D01*
X161030952Y-100964285D01*
X161078571Y-101011904D01*
X161126190Y-101107142D01*
X161126190Y-101488095D01*
X160602381Y-100583333D02*
X160602381Y-99964285D01*
X160983333Y-100297619D01*
X160983333Y-100154761D01*
X161030952Y-100059523D01*
X161078571Y-100011904D01*
X161173810Y-99964285D01*
X161411905Y-99964285D01*
X161507143Y-100011904D01*
X161554762Y-100059523D01*
X161602381Y-100154761D01*
X161602381Y-100440476D01*
X161554762Y-100535714D01*
X161507143Y-100583333D01*
X159802381Y-100916666D02*
X159326190Y-101250000D01*
X159802381Y-101488095D02*
X158802381Y-101488095D01*
X158802381Y-101107142D01*
X158850000Y-101011904D01*
X158897619Y-100964285D01*
X158992857Y-100916666D01*
X159135714Y-100916666D01*
X159230952Y-100964285D01*
X159278571Y-101011904D01*
X159326190Y-101107142D01*
X159326190Y-101488095D01*
X159135714Y-100059523D02*
X159802381Y-100059523D01*
X158754762Y-100297619D02*
X159469048Y-100535714D01*
X159469048Y-99916666D01*
X140312268Y-128452031D02*
X140413283Y-127879610D01*
X139908206Y-128047970D02*
X140615313Y-127340863D01*
X140884688Y-127610237D01*
X140918359Y-127711253D01*
X140918359Y-127778596D01*
X140884688Y-127879611D01*
X140783672Y-127980626D01*
X140682657Y-128014298D01*
X140615314Y-128014298D01*
X140514299Y-127980626D01*
X140244924Y-127711252D01*
X141659138Y-128384688D02*
X141322420Y-128047970D01*
X140952031Y-128351015D01*
X141019374Y-128351015D01*
X141120390Y-128384687D01*
X141288749Y-128553046D01*
X141322421Y-128654061D01*
X141322421Y-128721405D01*
X141288748Y-128822421D01*
X141120390Y-128990779D01*
X141019374Y-129024451D01*
X140952031Y-129024451D01*
X140851016Y-128990779D01*
X140682657Y-128822420D01*
X140648985Y-128721405D01*
X140648985Y-128654061D01*
X161602381Y-105716666D02*
X161126190Y-106050000D01*
X161602381Y-106288095D02*
X160602381Y-106288095D01*
X160602381Y-105907142D01*
X160650000Y-105811904D01*
X160697619Y-105764285D01*
X160792857Y-105716666D01*
X160935714Y-105716666D01*
X161030952Y-105764285D01*
X161078571Y-105811904D01*
X161126190Y-105907142D01*
X161126190Y-106288095D01*
X160602381Y-104859523D02*
X160602381Y-105050000D01*
X160650000Y-105145238D01*
X160697619Y-105192857D01*
X160840476Y-105288095D01*
X161030952Y-105335714D01*
X161411905Y-105335714D01*
X161507143Y-105288095D01*
X161554762Y-105240476D01*
X161602381Y-105145238D01*
X161602381Y-104954761D01*
X161554762Y-104859523D01*
X161507143Y-104811904D01*
X161411905Y-104764285D01*
X161173810Y-104764285D01*
X161078571Y-104811904D01*
X161030952Y-104859523D01*
X160983333Y-104954761D01*
X160983333Y-105145238D01*
X161030952Y-105240476D01*
X161078571Y-105288095D01*
X161173810Y-105335714D01*
X159802381Y-105716666D02*
X159326190Y-106050000D01*
X159802381Y-106288095D02*
X158802381Y-106288095D01*
X158802381Y-105907142D01*
X158850000Y-105811904D01*
X158897619Y-105764285D01*
X158992857Y-105716666D01*
X159135714Y-105716666D01*
X159230952Y-105764285D01*
X159278571Y-105811904D01*
X159326190Y-105907142D01*
X159326190Y-106288095D01*
X158802381Y-105383333D02*
X158802381Y-104716666D01*
X159802381Y-105145238D01*
X139083334Y-108802381D02*
X138750000Y-108326190D01*
X138511905Y-108802381D02*
X138511905Y-107802381D01*
X138892858Y-107802381D01*
X138988096Y-107850000D01*
X139035715Y-107897619D01*
X139083334Y-107992857D01*
X139083334Y-108135714D01*
X139035715Y-108230952D01*
X138988096Y-108278571D01*
X138892858Y-108326190D01*
X138511905Y-108326190D01*
X139654762Y-108230952D02*
X139559524Y-108183333D01*
X139511905Y-108135714D01*
X139464286Y-108040476D01*
X139464286Y-107992857D01*
X139511905Y-107897619D01*
X139559524Y-107850000D01*
X139654762Y-107802381D01*
X139845239Y-107802381D01*
X139940477Y-107850000D01*
X139988096Y-107897619D01*
X140035715Y-107992857D01*
X140035715Y-108040476D01*
X139988096Y-108135714D01*
X139940477Y-108183333D01*
X139845239Y-108230952D01*
X139654762Y-108230952D01*
X139559524Y-108278571D01*
X139511905Y-108326190D01*
X139464286Y-108421429D01*
X139464286Y-108611905D01*
X139511905Y-108707143D01*
X139559524Y-108754762D01*
X139654762Y-108802381D01*
X139845239Y-108802381D01*
X139940477Y-108754762D01*
X139988096Y-108707143D01*
X140035715Y-108611905D01*
X140035715Y-108421429D01*
X139988096Y-108326190D01*
X139940477Y-108278571D01*
X139845239Y-108230952D01*
X154802381Y-96016666D02*
X154326190Y-96350000D01*
X154802381Y-96588095D02*
X153802381Y-96588095D01*
X153802381Y-96207142D01*
X153850000Y-96111904D01*
X153897619Y-96064285D01*
X153992857Y-96016666D01*
X154135714Y-96016666D01*
X154230952Y-96064285D01*
X154278571Y-96111904D01*
X154326190Y-96207142D01*
X154326190Y-96588095D01*
X154802381Y-95540476D02*
X154802381Y-95350000D01*
X154754762Y-95254761D01*
X154707143Y-95207142D01*
X154564286Y-95111904D01*
X154373810Y-95064285D01*
X153992857Y-95064285D01*
X153897619Y-95111904D01*
X153850000Y-95159523D01*
X153802381Y-95254761D01*
X153802381Y-95445238D01*
X153850000Y-95540476D01*
X153897619Y-95588095D01*
X153992857Y-95635714D01*
X154230952Y-95635714D01*
X154326190Y-95588095D01*
X154373810Y-95540476D01*
X154421429Y-95445238D01*
X154421429Y-95254761D01*
X154373810Y-95159523D01*
X154326190Y-95111904D01*
X154230952Y-95064285D01*
X147202381Y-96692857D02*
X146726190Y-97026191D01*
X147202381Y-97264286D02*
X146202381Y-97264286D01*
X146202381Y-96883333D01*
X146250000Y-96788095D01*
X146297619Y-96740476D01*
X146392857Y-96692857D01*
X146535714Y-96692857D01*
X146630952Y-96740476D01*
X146678571Y-96788095D01*
X146726190Y-96883333D01*
X146726190Y-97264286D01*
X147202381Y-95740476D02*
X147202381Y-96311905D01*
X147202381Y-96026191D02*
X146202381Y-96026191D01*
X146345238Y-96121429D01*
X146440476Y-96216667D01*
X146488095Y-96311905D01*
X146202381Y-95121429D02*
X146202381Y-95026190D01*
X146250000Y-94930952D01*
X146297619Y-94883333D01*
X146392857Y-94835714D01*
X146583333Y-94788095D01*
X146821429Y-94788095D01*
X147011905Y-94835714D01*
X147107143Y-94883333D01*
X147154762Y-94930952D01*
X147202381Y-95026190D01*
X147202381Y-95121429D01*
X147154762Y-95216667D01*
X147107143Y-95264286D01*
X147011905Y-95311905D01*
X146821429Y-95359524D01*
X146583333Y-95359524D01*
X146392857Y-95311905D01*
X146297619Y-95264286D01*
X146250000Y-95216667D01*
X146202381Y-95121429D01*
X144207143Y-77602381D02*
X143873809Y-77126190D01*
X143635714Y-77602381D02*
X143635714Y-76602381D01*
X144016667Y-76602381D01*
X144111905Y-76650000D01*
X144159524Y-76697619D01*
X144207143Y-76792857D01*
X144207143Y-76935714D01*
X144159524Y-77030952D01*
X144111905Y-77078571D01*
X144016667Y-77126190D01*
X143635714Y-77126190D01*
X145159524Y-77602381D02*
X144588095Y-77602381D01*
X144873809Y-77602381D02*
X144873809Y-76602381D01*
X144778571Y-76745238D01*
X144683333Y-76840476D01*
X144588095Y-76888095D01*
X146111905Y-77602381D02*
X145540476Y-77602381D01*
X145826190Y-77602381D02*
X145826190Y-76602381D01*
X145730952Y-76745238D01*
X145635714Y-76840476D01*
X145540476Y-76888095D01*
X147802381Y-115892857D02*
X147326190Y-116226191D01*
X147802381Y-116464286D02*
X146802381Y-116464286D01*
X146802381Y-116083333D01*
X146850000Y-115988095D01*
X146897619Y-115940476D01*
X146992857Y-115892857D01*
X147135714Y-115892857D01*
X147230952Y-115940476D01*
X147278571Y-115988095D01*
X147326190Y-116083333D01*
X147326190Y-116464286D01*
X147802381Y-114940476D02*
X147802381Y-115511905D01*
X147802381Y-115226191D02*
X146802381Y-115226191D01*
X146945238Y-115321429D01*
X147040476Y-115416667D01*
X147088095Y-115511905D01*
X146897619Y-114559524D02*
X146850000Y-114511905D01*
X146802381Y-114416667D01*
X146802381Y-114178571D01*
X146850000Y-114083333D01*
X146897619Y-114035714D01*
X146992857Y-113988095D01*
X147088095Y-113988095D01*
X147230952Y-114035714D01*
X147802381Y-114607143D01*
X147802381Y-113988095D01*
X149602381Y-115892857D02*
X149126190Y-116226191D01*
X149602381Y-116464286D02*
X148602381Y-116464286D01*
X148602381Y-116083333D01*
X148650000Y-115988095D01*
X148697619Y-115940476D01*
X148792857Y-115892857D01*
X148935714Y-115892857D01*
X149030952Y-115940476D01*
X149078571Y-115988095D01*
X149126190Y-116083333D01*
X149126190Y-116464286D01*
X149602381Y-114940476D02*
X149602381Y-115511905D01*
X149602381Y-115226191D02*
X148602381Y-115226191D01*
X148745238Y-115321429D01*
X148840476Y-115416667D01*
X148888095Y-115511905D01*
X148602381Y-114607143D02*
X148602381Y-113988095D01*
X148983333Y-114321429D01*
X148983333Y-114178571D01*
X149030952Y-114083333D01*
X149078571Y-114035714D01*
X149173810Y-113988095D01*
X149411905Y-113988095D01*
X149507143Y-114035714D01*
X149554762Y-114083333D01*
X149602381Y-114178571D01*
X149602381Y-114464286D01*
X149554762Y-114559524D01*
X149507143Y-114607143D01*
X159802381Y-121592857D02*
X159326190Y-121926191D01*
X159802381Y-122164286D02*
X158802381Y-122164286D01*
X158802381Y-121783333D01*
X158850000Y-121688095D01*
X158897619Y-121640476D01*
X158992857Y-121592857D01*
X159135714Y-121592857D01*
X159230952Y-121640476D01*
X159278571Y-121688095D01*
X159326190Y-121783333D01*
X159326190Y-122164286D01*
X159802381Y-120640476D02*
X159802381Y-121211905D01*
X159802381Y-120926191D02*
X158802381Y-120926191D01*
X158945238Y-121021429D01*
X159040476Y-121116667D01*
X159088095Y-121211905D01*
X158802381Y-119735714D02*
X158802381Y-120211905D01*
X159278571Y-120259524D01*
X159230952Y-120211905D01*
X159183333Y-120116667D01*
X159183333Y-119878571D01*
X159230952Y-119783333D01*
X159278571Y-119735714D01*
X159373810Y-119688095D01*
X159611905Y-119688095D01*
X159707143Y-119735714D01*
X159754762Y-119783333D01*
X159802381Y-119878571D01*
X159802381Y-120116667D01*
X159754762Y-120211905D01*
X159707143Y-120259524D01*
X161602381Y-121592857D02*
X161126190Y-121926191D01*
X161602381Y-122164286D02*
X160602381Y-122164286D01*
X160602381Y-121783333D01*
X160650000Y-121688095D01*
X160697619Y-121640476D01*
X160792857Y-121592857D01*
X160935714Y-121592857D01*
X161030952Y-121640476D01*
X161078571Y-121688095D01*
X161126190Y-121783333D01*
X161126190Y-122164286D01*
X161602381Y-120640476D02*
X161602381Y-121211905D01*
X161602381Y-120926191D02*
X160602381Y-120926191D01*
X160745238Y-121021429D01*
X160840476Y-121116667D01*
X160888095Y-121211905D01*
X160602381Y-119783333D02*
X160602381Y-119973810D01*
X160650000Y-120069048D01*
X160697619Y-120116667D01*
X160840476Y-120211905D01*
X161030952Y-120259524D01*
X161411905Y-120259524D01*
X161507143Y-120211905D01*
X161554762Y-120164286D01*
X161602381Y-120069048D01*
X161602381Y-119878571D01*
X161554762Y-119783333D01*
X161507143Y-119735714D01*
X161411905Y-119688095D01*
X161173810Y-119688095D01*
X161078571Y-119735714D01*
X161030952Y-119783333D01*
X160983333Y-119878571D01*
X160983333Y-120069048D01*
X161030952Y-120164286D01*
X161078571Y-120211905D01*
X161173810Y-120259524D01*
X147802381Y-108292857D02*
X147326190Y-108626191D01*
X147802381Y-108864286D02*
X146802381Y-108864286D01*
X146802381Y-108483333D01*
X146850000Y-108388095D01*
X146897619Y-108340476D01*
X146992857Y-108292857D01*
X147135714Y-108292857D01*
X147230952Y-108340476D01*
X147278571Y-108388095D01*
X147326190Y-108483333D01*
X147326190Y-108864286D01*
X147802381Y-107340476D02*
X147802381Y-107911905D01*
X147802381Y-107626191D02*
X146802381Y-107626191D01*
X146945238Y-107721429D01*
X147040476Y-107816667D01*
X147088095Y-107911905D01*
X146802381Y-107007143D02*
X146802381Y-106340476D01*
X147802381Y-106769048D01*
X149602381Y-108292857D02*
X149126190Y-108626191D01*
X149602381Y-108864286D02*
X148602381Y-108864286D01*
X148602381Y-108483333D01*
X148650000Y-108388095D01*
X148697619Y-108340476D01*
X148792857Y-108292857D01*
X148935714Y-108292857D01*
X149030952Y-108340476D01*
X149078571Y-108388095D01*
X149126190Y-108483333D01*
X149126190Y-108864286D01*
X149602381Y-107340476D02*
X149602381Y-107911905D01*
X149602381Y-107626191D02*
X148602381Y-107626191D01*
X148745238Y-107721429D01*
X148840476Y-107816667D01*
X148888095Y-107911905D01*
X149030952Y-106769048D02*
X148983333Y-106864286D01*
X148935714Y-106911905D01*
X148840476Y-106959524D01*
X148792857Y-106959524D01*
X148697619Y-106911905D01*
X148650000Y-106864286D01*
X148602381Y-106769048D01*
X148602381Y-106578571D01*
X148650000Y-106483333D01*
X148697619Y-106435714D01*
X148792857Y-106388095D01*
X148840476Y-106388095D01*
X148935714Y-106435714D01*
X148983333Y-106483333D01*
X149030952Y-106578571D01*
X149030952Y-106769048D01*
X149078571Y-106864286D01*
X149126190Y-106911905D01*
X149221429Y-106959524D01*
X149411905Y-106959524D01*
X149507143Y-106911905D01*
X149554762Y-106864286D01*
X149602381Y-106769048D01*
X149602381Y-106578571D01*
X149554762Y-106483333D01*
X149507143Y-106435714D01*
X149411905Y-106388095D01*
X149221429Y-106388095D01*
X149126190Y-106435714D01*
X149078571Y-106483333D01*
X149030952Y-106578571D01*
X159802381Y-114092857D02*
X159326190Y-114426191D01*
X159802381Y-114664286D02*
X158802381Y-114664286D01*
X158802381Y-114283333D01*
X158850000Y-114188095D01*
X158897619Y-114140476D01*
X158992857Y-114092857D01*
X159135714Y-114092857D01*
X159230952Y-114140476D01*
X159278571Y-114188095D01*
X159326190Y-114283333D01*
X159326190Y-114664286D01*
X158897619Y-113711905D02*
X158850000Y-113664286D01*
X158802381Y-113569048D01*
X158802381Y-113330952D01*
X158850000Y-113235714D01*
X158897619Y-113188095D01*
X158992857Y-113140476D01*
X159088095Y-113140476D01*
X159230952Y-113188095D01*
X159802381Y-113759524D01*
X159802381Y-113140476D01*
X158802381Y-112521429D02*
X158802381Y-112426190D01*
X158850000Y-112330952D01*
X158897619Y-112283333D01*
X158992857Y-112235714D01*
X159183333Y-112188095D01*
X159421429Y-112188095D01*
X159611905Y-112235714D01*
X159707143Y-112283333D01*
X159754762Y-112330952D01*
X159802381Y-112426190D01*
X159802381Y-112521429D01*
X159754762Y-112616667D01*
X159707143Y-112664286D01*
X159611905Y-112711905D01*
X159421429Y-112759524D01*
X159183333Y-112759524D01*
X158992857Y-112711905D01*
X158897619Y-112664286D01*
X158850000Y-112616667D01*
X158802381Y-112521429D01*
X161602381Y-114092857D02*
X161126190Y-114426191D01*
X161602381Y-114664286D02*
X160602381Y-114664286D01*
X160602381Y-114283333D01*
X160650000Y-114188095D01*
X160697619Y-114140476D01*
X160792857Y-114092857D01*
X160935714Y-114092857D01*
X161030952Y-114140476D01*
X161078571Y-114188095D01*
X161126190Y-114283333D01*
X161126190Y-114664286D01*
X160697619Y-113711905D02*
X160650000Y-113664286D01*
X160602381Y-113569048D01*
X160602381Y-113330952D01*
X160650000Y-113235714D01*
X160697619Y-113188095D01*
X160792857Y-113140476D01*
X160888095Y-113140476D01*
X161030952Y-113188095D01*
X161602381Y-113759524D01*
X161602381Y-113140476D01*
X161602381Y-112188095D02*
X161602381Y-112759524D01*
X161602381Y-112473810D02*
X160602381Y-112473810D01*
X160745238Y-112569048D01*
X160840476Y-112664286D01*
X160888095Y-112759524D01*
X175902381Y-75292857D02*
X175426190Y-75626191D01*
X175902381Y-75864286D02*
X174902381Y-75864286D01*
X174902381Y-75483333D01*
X174950000Y-75388095D01*
X174997619Y-75340476D01*
X175092857Y-75292857D01*
X175235714Y-75292857D01*
X175330952Y-75340476D01*
X175378571Y-75388095D01*
X175426190Y-75483333D01*
X175426190Y-75864286D01*
X174997619Y-74911905D02*
X174950000Y-74864286D01*
X174902381Y-74769048D01*
X174902381Y-74530952D01*
X174950000Y-74435714D01*
X174997619Y-74388095D01*
X175092857Y-74340476D01*
X175188095Y-74340476D01*
X175330952Y-74388095D01*
X175902381Y-74959524D01*
X175902381Y-74340476D01*
X174997619Y-73959524D02*
X174950000Y-73911905D01*
X174902381Y-73816667D01*
X174902381Y-73578571D01*
X174950000Y-73483333D01*
X174997619Y-73435714D01*
X175092857Y-73388095D01*
X175188095Y-73388095D01*
X175330952Y-73435714D01*
X175902381Y-74007143D01*
X175902381Y-73388095D01*
X141802381Y-66392857D02*
X141326190Y-66726191D01*
X141802381Y-66964286D02*
X140802381Y-66964286D01*
X140802381Y-66583333D01*
X140850000Y-66488095D01*
X140897619Y-66440476D01*
X140992857Y-66392857D01*
X141135714Y-66392857D01*
X141230952Y-66440476D01*
X141278571Y-66488095D01*
X141326190Y-66583333D01*
X141326190Y-66964286D01*
X140897619Y-66011905D02*
X140850000Y-65964286D01*
X140802381Y-65869048D01*
X140802381Y-65630952D01*
X140850000Y-65535714D01*
X140897619Y-65488095D01*
X140992857Y-65440476D01*
X141088095Y-65440476D01*
X141230952Y-65488095D01*
X141802381Y-66059524D01*
X141802381Y-65440476D01*
X140802381Y-65107143D02*
X140802381Y-64488095D01*
X141183333Y-64821429D01*
X141183333Y-64678571D01*
X141230952Y-64583333D01*
X141278571Y-64535714D01*
X141373810Y-64488095D01*
X141611905Y-64488095D01*
X141707143Y-64535714D01*
X141754762Y-64583333D01*
X141802381Y-64678571D01*
X141802381Y-64964286D01*
X141754762Y-65059524D01*
X141707143Y-65107143D01*
X143602381Y-66392857D02*
X143126190Y-66726191D01*
X143602381Y-66964286D02*
X142602381Y-66964286D01*
X142602381Y-66583333D01*
X142650000Y-66488095D01*
X142697619Y-66440476D01*
X142792857Y-66392857D01*
X142935714Y-66392857D01*
X143030952Y-66440476D01*
X143078571Y-66488095D01*
X143126190Y-66583333D01*
X143126190Y-66964286D01*
X142697619Y-66011905D02*
X142650000Y-65964286D01*
X142602381Y-65869048D01*
X142602381Y-65630952D01*
X142650000Y-65535714D01*
X142697619Y-65488095D01*
X142792857Y-65440476D01*
X142888095Y-65440476D01*
X143030952Y-65488095D01*
X143602381Y-66059524D01*
X143602381Y-65440476D01*
X142935714Y-64583333D02*
X143602381Y-64583333D01*
X142554762Y-64821429D02*
X143269048Y-65059524D01*
X143269048Y-64440476D01*
X153802381Y-72092857D02*
X153326190Y-72426191D01*
X153802381Y-72664286D02*
X152802381Y-72664286D01*
X152802381Y-72283333D01*
X152850000Y-72188095D01*
X152897619Y-72140476D01*
X152992857Y-72092857D01*
X153135714Y-72092857D01*
X153230952Y-72140476D01*
X153278571Y-72188095D01*
X153326190Y-72283333D01*
X153326190Y-72664286D01*
X152897619Y-71711905D02*
X152850000Y-71664286D01*
X152802381Y-71569048D01*
X152802381Y-71330952D01*
X152850000Y-71235714D01*
X152897619Y-71188095D01*
X152992857Y-71140476D01*
X153088095Y-71140476D01*
X153230952Y-71188095D01*
X153802381Y-71759524D01*
X153802381Y-71140476D01*
X152802381Y-70283333D02*
X152802381Y-70473810D01*
X152850000Y-70569048D01*
X152897619Y-70616667D01*
X153040476Y-70711905D01*
X153230952Y-70759524D01*
X153611905Y-70759524D01*
X153707143Y-70711905D01*
X153754762Y-70664286D01*
X153802381Y-70569048D01*
X153802381Y-70378571D01*
X153754762Y-70283333D01*
X153707143Y-70235714D01*
X153611905Y-70188095D01*
X153373810Y-70188095D01*
X153278571Y-70235714D01*
X153230952Y-70283333D01*
X153183333Y-70378571D01*
X153183333Y-70569048D01*
X153230952Y-70664286D01*
X153278571Y-70711905D01*
X153373810Y-70759524D01*
X155602381Y-72092857D02*
X155126190Y-72426191D01*
X155602381Y-72664286D02*
X154602381Y-72664286D01*
X154602381Y-72283333D01*
X154650000Y-72188095D01*
X154697619Y-72140476D01*
X154792857Y-72092857D01*
X154935714Y-72092857D01*
X155030952Y-72140476D01*
X155078571Y-72188095D01*
X155126190Y-72283333D01*
X155126190Y-72664286D01*
X154697619Y-71711905D02*
X154650000Y-71664286D01*
X154602381Y-71569048D01*
X154602381Y-71330952D01*
X154650000Y-71235714D01*
X154697619Y-71188095D01*
X154792857Y-71140476D01*
X154888095Y-71140476D01*
X155030952Y-71188095D01*
X155602381Y-71759524D01*
X155602381Y-71140476D01*
X154602381Y-70807143D02*
X154602381Y-70140476D01*
X155602381Y-70569048D01*
X141388095Y-82672381D02*
X141388095Y-83481905D01*
X141435714Y-83577143D01*
X141483333Y-83624762D01*
X141578571Y-83672381D01*
X141769048Y-83672381D01*
X141864286Y-83624762D01*
X141911905Y-83577143D01*
X141959524Y-83481905D01*
X141959524Y-82672381D01*
X142959524Y-83672381D02*
X142388095Y-83672381D01*
X142673809Y-83672381D02*
X142673809Y-82672381D01*
X142578571Y-82815238D01*
X142483333Y-82910476D01*
X142388095Y-82958095D01*
X167252381Y-66411905D02*
X168061905Y-66411905D01*
X168157143Y-66364286D01*
X168204762Y-66316667D01*
X168252381Y-66221429D01*
X168252381Y-66030952D01*
X168204762Y-65935714D01*
X168157143Y-65888095D01*
X168061905Y-65840476D01*
X167252381Y-65840476D01*
X167347619Y-65411905D02*
X167300000Y-65364286D01*
X167252381Y-65269048D01*
X167252381Y-65030952D01*
X167300000Y-64935714D01*
X167347619Y-64888095D01*
X167442857Y-64840476D01*
X167538095Y-64840476D01*
X167680952Y-64888095D01*
X168252381Y-65459524D01*
X168252381Y-64840476D01*
X151307143Y-115816666D02*
X151354762Y-115864285D01*
X151402381Y-116007142D01*
X151402381Y-116102380D01*
X151354762Y-116245238D01*
X151259524Y-116340476D01*
X151164286Y-116388095D01*
X150973810Y-116435714D01*
X150830952Y-116435714D01*
X150640476Y-116388095D01*
X150545238Y-116340476D01*
X150450000Y-116245238D01*
X150402381Y-116102380D01*
X150402381Y-116007142D01*
X150450000Y-115864285D01*
X150497619Y-115816666D01*
X150402381Y-114959523D02*
X150402381Y-115150000D01*
X150450000Y-115245238D01*
X150497619Y-115292857D01*
X150640476Y-115388095D01*
X150830952Y-115435714D01*
X151211905Y-115435714D01*
X151307143Y-115388095D01*
X151354762Y-115340476D01*
X151402381Y-115245238D01*
X151402381Y-115054761D01*
X151354762Y-114959523D01*
X151307143Y-114911904D01*
X151211905Y-114864285D01*
X150973810Y-114864285D01*
X150878571Y-114911904D01*
X150830952Y-114959523D01*
X150783333Y-115054761D01*
X150783333Y-115245238D01*
X150830952Y-115340476D01*
X150878571Y-115388095D01*
X150973810Y-115435714D01*
X154083334Y-117007143D02*
X154035715Y-117054762D01*
X153892858Y-117102381D01*
X153797620Y-117102381D01*
X153654762Y-117054762D01*
X153559524Y-116959524D01*
X153511905Y-116864286D01*
X153464286Y-116673810D01*
X153464286Y-116530952D01*
X153511905Y-116340476D01*
X153559524Y-116245238D01*
X153654762Y-116150000D01*
X153797620Y-116102381D01*
X153892858Y-116102381D01*
X154035715Y-116150000D01*
X154083334Y-116197619D01*
X154416667Y-116102381D02*
X155083334Y-116102381D01*
X154654762Y-117102381D01*
X151257143Y-108266666D02*
X151304762Y-108314285D01*
X151352381Y-108457142D01*
X151352381Y-108552380D01*
X151304762Y-108695238D01*
X151209524Y-108790476D01*
X151114286Y-108838095D01*
X150923810Y-108885714D01*
X150780952Y-108885714D01*
X150590476Y-108838095D01*
X150495238Y-108790476D01*
X150400000Y-108695238D01*
X150352381Y-108552380D01*
X150352381Y-108457142D01*
X150400000Y-108314285D01*
X150447619Y-108266666D01*
X150780952Y-107695238D02*
X150733333Y-107790476D01*
X150685714Y-107838095D01*
X150590476Y-107885714D01*
X150542857Y-107885714D01*
X150447619Y-107838095D01*
X150400000Y-107790476D01*
X150352381Y-107695238D01*
X150352381Y-107504761D01*
X150400000Y-107409523D01*
X150447619Y-107361904D01*
X150542857Y-107314285D01*
X150590476Y-107314285D01*
X150685714Y-107361904D01*
X150733333Y-107409523D01*
X150780952Y-107504761D01*
X150780952Y-107695238D01*
X150828571Y-107790476D01*
X150876190Y-107838095D01*
X150971429Y-107885714D01*
X151161905Y-107885714D01*
X151257143Y-107838095D01*
X151304762Y-107790476D01*
X151352381Y-107695238D01*
X151352381Y-107504761D01*
X151304762Y-107409523D01*
X151257143Y-107361904D01*
X151161905Y-107314285D01*
X150971429Y-107314285D01*
X150876190Y-107361904D01*
X150828571Y-107409523D01*
X150780952Y-107504761D01*
X154183334Y-109507143D02*
X154135715Y-109554762D01*
X153992858Y-109602381D01*
X153897620Y-109602381D01*
X153754762Y-109554762D01*
X153659524Y-109459524D01*
X153611905Y-109364286D01*
X153564286Y-109173810D01*
X153564286Y-109030952D01*
X153611905Y-108840476D01*
X153659524Y-108745238D01*
X153754762Y-108650000D01*
X153897620Y-108602381D01*
X153992858Y-108602381D01*
X154135715Y-108650000D01*
X154183334Y-108697619D01*
X154659524Y-109602381D02*
X154850000Y-109602381D01*
X154945239Y-109554762D01*
X154992858Y-109507143D01*
X155088096Y-109364286D01*
X155135715Y-109173810D01*
X155135715Y-108792857D01*
X155088096Y-108697619D01*
X155040477Y-108650000D01*
X154945239Y-108602381D01*
X154754762Y-108602381D01*
X154659524Y-108650000D01*
X154611905Y-108697619D01*
X154564286Y-108792857D01*
X154564286Y-109030952D01*
X154611905Y-109126190D01*
X154659524Y-109173810D01*
X154754762Y-109221429D01*
X154945239Y-109221429D01*
X155040477Y-109173810D01*
X155088096Y-109126190D01*
X155135715Y-109030952D01*
X145307143Y-66292857D02*
X145354762Y-66340476D01*
X145402381Y-66483333D01*
X145402381Y-66578571D01*
X145354762Y-66721429D01*
X145259524Y-66816667D01*
X145164286Y-66864286D01*
X144973810Y-66911905D01*
X144830952Y-66911905D01*
X144640476Y-66864286D01*
X144545238Y-66816667D01*
X144450000Y-66721429D01*
X144402381Y-66578571D01*
X144402381Y-66483333D01*
X144450000Y-66340476D01*
X144497619Y-66292857D01*
X145402381Y-65340476D02*
X145402381Y-65911905D01*
X145402381Y-65626191D02*
X144402381Y-65626191D01*
X144545238Y-65721429D01*
X144640476Y-65816667D01*
X144688095Y-65911905D01*
X144402381Y-64435714D02*
X144402381Y-64911905D01*
X144878571Y-64959524D01*
X144830952Y-64911905D01*
X144783333Y-64816667D01*
X144783333Y-64578571D01*
X144830952Y-64483333D01*
X144878571Y-64435714D01*
X144973810Y-64388095D01*
X145211905Y-64388095D01*
X145307143Y-64435714D01*
X145354762Y-64483333D01*
X145402381Y-64578571D01*
X145402381Y-64816667D01*
X145354762Y-64911905D01*
X145307143Y-64959524D01*
X147207143Y-67507143D02*
X147159524Y-67554762D01*
X147016667Y-67602381D01*
X146921429Y-67602381D01*
X146778571Y-67554762D01*
X146683333Y-67459524D01*
X146635714Y-67364286D01*
X146588095Y-67173810D01*
X146588095Y-67030952D01*
X146635714Y-66840476D01*
X146683333Y-66745238D01*
X146778571Y-66650000D01*
X146921429Y-66602381D01*
X147016667Y-66602381D01*
X147159524Y-66650000D01*
X147207143Y-66697619D01*
X148159524Y-67602381D02*
X147588095Y-67602381D01*
X147873809Y-67602381D02*
X147873809Y-66602381D01*
X147778571Y-66745238D01*
X147683333Y-66840476D01*
X147588095Y-66888095D01*
X149016667Y-66602381D02*
X148826190Y-66602381D01*
X148730952Y-66650000D01*
X148683333Y-66697619D01*
X148588095Y-66840476D01*
X148540476Y-67030952D01*
X148540476Y-67411905D01*
X148588095Y-67507143D01*
X148635714Y-67554762D01*
X148730952Y-67602381D01*
X148921429Y-67602381D01*
X149016667Y-67554762D01*
X149064286Y-67507143D01*
X149111905Y-67411905D01*
X149111905Y-67173810D01*
X149064286Y-67078571D01*
X149016667Y-67030952D01*
X148921429Y-66983333D01*
X148730952Y-66983333D01*
X148635714Y-67030952D01*
X148588095Y-67078571D01*
X148540476Y-67173810D01*
X162802381Y-116092857D02*
X162326190Y-116426191D01*
X162802381Y-116664286D02*
X161802381Y-116664286D01*
X161802381Y-116283333D01*
X161850000Y-116188095D01*
X161897619Y-116140476D01*
X161992857Y-116092857D01*
X162135714Y-116092857D01*
X162230952Y-116140476D01*
X162278571Y-116188095D01*
X162326190Y-116283333D01*
X162326190Y-116664286D01*
X162802381Y-115140476D02*
X162802381Y-115711905D01*
X162802381Y-115426191D02*
X161802381Y-115426191D01*
X161945238Y-115521429D01*
X162040476Y-115616667D01*
X162088095Y-115711905D01*
X162135714Y-114283333D02*
X162802381Y-114283333D01*
X161754762Y-114521429D02*
X162469048Y-114759524D01*
X162469048Y-114140476D01*
X162802381Y-108592857D02*
X162326190Y-108926191D01*
X162802381Y-109164286D02*
X161802381Y-109164286D01*
X161802381Y-108783333D01*
X161850000Y-108688095D01*
X161897619Y-108640476D01*
X161992857Y-108592857D01*
X162135714Y-108592857D01*
X162230952Y-108640476D01*
X162278571Y-108688095D01*
X162326190Y-108783333D01*
X162326190Y-109164286D01*
X162802381Y-107640476D02*
X162802381Y-108211905D01*
X162802381Y-107926191D02*
X161802381Y-107926191D01*
X161945238Y-108021429D01*
X162040476Y-108116667D01*
X162088095Y-108211905D01*
X162802381Y-107164286D02*
X162802381Y-106973810D01*
X162754762Y-106878571D01*
X162707143Y-106830952D01*
X162564286Y-106735714D01*
X162373810Y-106688095D01*
X161992857Y-106688095D01*
X161897619Y-106735714D01*
X161850000Y-106783333D01*
X161802381Y-106878571D01*
X161802381Y-107069048D01*
X161850000Y-107164286D01*
X161897619Y-107211905D01*
X161992857Y-107259524D01*
X162230952Y-107259524D01*
X162326190Y-107211905D01*
X162373810Y-107164286D01*
X162421429Y-107069048D01*
X162421429Y-106878571D01*
X162373810Y-106783333D01*
X162326190Y-106735714D01*
X162230952Y-106688095D01*
X150907143Y-66202381D02*
X150573809Y-65726190D01*
X150335714Y-66202381D02*
X150335714Y-65202381D01*
X150716667Y-65202381D01*
X150811905Y-65250000D01*
X150859524Y-65297619D01*
X150907143Y-65392857D01*
X150907143Y-65535714D01*
X150859524Y-65630952D01*
X150811905Y-65678571D01*
X150716667Y-65726190D01*
X150335714Y-65726190D01*
X151288095Y-65297619D02*
X151335714Y-65250000D01*
X151430952Y-65202381D01*
X151669048Y-65202381D01*
X151764286Y-65250000D01*
X151811905Y-65297619D01*
X151859524Y-65392857D01*
X151859524Y-65488095D01*
X151811905Y-65630952D01*
X151240476Y-66202381D01*
X151859524Y-66202381D01*
X152764286Y-65202381D02*
X152288095Y-65202381D01*
X152240476Y-65678571D01*
X152288095Y-65630952D01*
X152383333Y-65583333D01*
X152621429Y-65583333D01*
X152716667Y-65630952D01*
X152764286Y-65678571D01*
X152811905Y-65773810D01*
X152811905Y-66011905D01*
X152764286Y-66107143D01*
X152716667Y-66154762D01*
X152621429Y-66202381D01*
X152383333Y-66202381D01*
X152288095Y-66154762D01*
X152240476Y-66107143D01*
X153488095Y-121302381D02*
X153488095Y-122111905D01*
X153535714Y-122207143D01*
X153583333Y-122254762D01*
X153678571Y-122302381D01*
X153869048Y-122302381D01*
X153964286Y-122254762D01*
X154011905Y-122207143D01*
X154059524Y-122111905D01*
X154059524Y-121302381D01*
X154964286Y-121635714D02*
X154964286Y-122302381D01*
X154726190Y-121254762D02*
X154488095Y-121969048D01*
X155107143Y-121969048D01*
X153488095Y-113802381D02*
X153488095Y-114611905D01*
X153535714Y-114707143D01*
X153583333Y-114754762D01*
X153678571Y-114802381D01*
X153869048Y-114802381D01*
X153964286Y-114754762D01*
X154011905Y-114707143D01*
X154059524Y-114611905D01*
X154059524Y-113802381D01*
X155011905Y-113802381D02*
X154535714Y-113802381D01*
X154488095Y-114278571D01*
X154535714Y-114230952D01*
X154630952Y-114183333D01*
X154869048Y-114183333D01*
X154964286Y-114230952D01*
X155011905Y-114278571D01*
X155059524Y-114373810D01*
X155059524Y-114611905D01*
X155011905Y-114707143D01*
X154964286Y-114754762D01*
X154869048Y-114802381D01*
X154630952Y-114802381D01*
X154535714Y-114754762D01*
X154488095Y-114707143D01*
X146088095Y-71902381D02*
X146088095Y-72711905D01*
X146135714Y-72807143D01*
X146183333Y-72854762D01*
X146278571Y-72902381D01*
X146469048Y-72902381D01*
X146564286Y-72854762D01*
X146611905Y-72807143D01*
X146659524Y-72711905D01*
X146659524Y-71902381D01*
X147040476Y-71902381D02*
X147707143Y-71902381D01*
X147278571Y-72902381D01*
X166811905Y-115102381D02*
X166811905Y-114102381D01*
X167192858Y-114102381D01*
X167288096Y-114150000D01*
X167335715Y-114197619D01*
X167383334Y-114292857D01*
X167383334Y-114435714D01*
X167335715Y-114530952D01*
X167288096Y-114578571D01*
X167192858Y-114626190D01*
X166811905Y-114626190D01*
X168288096Y-114102381D02*
X167811905Y-114102381D01*
X167764286Y-114578571D01*
X167811905Y-114530952D01*
X167907143Y-114483333D01*
X168145239Y-114483333D01*
X168240477Y-114530952D01*
X168288096Y-114578571D01*
X168335715Y-114673810D01*
X168335715Y-114911905D01*
X168288096Y-115007143D01*
X168240477Y-115054762D01*
X168145239Y-115102381D01*
X167907143Y-115102381D01*
X167811905Y-115054762D01*
X167764286Y-115007143D01*
X166811905Y-107602381D02*
X166811905Y-106602381D01*
X167192858Y-106602381D01*
X167288096Y-106650000D01*
X167335715Y-106697619D01*
X167383334Y-106792857D01*
X167383334Y-106935714D01*
X167335715Y-107030952D01*
X167288096Y-107078571D01*
X167192858Y-107126190D01*
X166811905Y-107126190D01*
X168240477Y-106602381D02*
X168050000Y-106602381D01*
X167954762Y-106650000D01*
X167907143Y-106697619D01*
X167811905Y-106840476D01*
X167764286Y-107030952D01*
X167764286Y-107411905D01*
X167811905Y-107507143D01*
X167859524Y-107554762D01*
X167954762Y-107602381D01*
X168145239Y-107602381D01*
X168240477Y-107554762D01*
X168288096Y-107507143D01*
X168335715Y-107411905D01*
X168335715Y-107173810D01*
X168288096Y-107078571D01*
X168240477Y-107030952D01*
X168145239Y-106983333D01*
X167954762Y-106983333D01*
X167859524Y-107030952D01*
X167811905Y-107078571D01*
X167764286Y-107173810D01*
X166811905Y-92602381D02*
X166811905Y-91602381D01*
X167192858Y-91602381D01*
X167288096Y-91650000D01*
X167335715Y-91697619D01*
X167383334Y-91792857D01*
X167383334Y-91935714D01*
X167335715Y-92030952D01*
X167288096Y-92078571D01*
X167192858Y-92126190D01*
X166811905Y-92126190D01*
X167716667Y-91602381D02*
X168383334Y-91602381D01*
X167954762Y-92602381D01*
X166811905Y-100102381D02*
X166811905Y-99102381D01*
X167192858Y-99102381D01*
X167288096Y-99150000D01*
X167335715Y-99197619D01*
X167383334Y-99292857D01*
X167383334Y-99435714D01*
X167335715Y-99530952D01*
X167288096Y-99578571D01*
X167192858Y-99626190D01*
X166811905Y-99626190D01*
X167954762Y-99530952D02*
X167859524Y-99483333D01*
X167811905Y-99435714D01*
X167764286Y-99340476D01*
X167764286Y-99292857D01*
X167811905Y-99197619D01*
X167859524Y-99150000D01*
X167954762Y-99102381D01*
X168145239Y-99102381D01*
X168240477Y-99150000D01*
X168288096Y-99197619D01*
X168335715Y-99292857D01*
X168335715Y-99340476D01*
X168288096Y-99435714D01*
X168240477Y-99483333D01*
X168145239Y-99530952D01*
X167954762Y-99530952D01*
X167859524Y-99578571D01*
X167811905Y-99626190D01*
X167764286Y-99721429D01*
X167764286Y-99911905D01*
X167811905Y-100007143D01*
X167859524Y-100054762D01*
X167954762Y-100102381D01*
X168145239Y-100102381D01*
X168240477Y-100054762D01*
X168288096Y-100007143D01*
X168335715Y-99911905D01*
X168335715Y-99721429D01*
X168288096Y-99626190D01*
X168240477Y-99578571D01*
X168145239Y-99530952D01*
X145435714Y-133002381D02*
X145435714Y-132002381D01*
X145816667Y-132002381D01*
X145911905Y-132050000D01*
X145959524Y-132097619D01*
X146007143Y-132192857D01*
X146007143Y-132335714D01*
X145959524Y-132430952D01*
X145911905Y-132478571D01*
X145816667Y-132526190D01*
X145435714Y-132526190D01*
X146959524Y-133002381D02*
X146388095Y-133002381D01*
X146673809Y-133002381D02*
X146673809Y-132002381D01*
X146578571Y-132145238D01*
X146483333Y-132240476D01*
X146388095Y-132288095D01*
X147578571Y-132002381D02*
X147673810Y-132002381D01*
X147769048Y-132050000D01*
X147816667Y-132097619D01*
X147864286Y-132192857D01*
X147911905Y-132383333D01*
X147911905Y-132621429D01*
X147864286Y-132811905D01*
X147816667Y-132907143D01*
X147769048Y-132954762D01*
X147673810Y-133002381D01*
X147578571Y-133002381D01*
X147483333Y-132954762D01*
X147435714Y-132907143D01*
X147388095Y-132811905D01*
X147340476Y-132621429D01*
X147340476Y-132383333D01*
X147388095Y-132192857D01*
X147435714Y-132097619D01*
X147483333Y-132050000D01*
X147578571Y-132002381D01*
X165002381Y-77183333D02*
X165716667Y-77183333D01*
X165859524Y-77230953D01*
X165954762Y-77326191D01*
X166002381Y-77469048D01*
X166002381Y-77564286D01*
X166002381Y-76183333D02*
X166002381Y-76754762D01*
X166002381Y-76469048D02*
X165002381Y-76469048D01*
X165145238Y-76564286D01*
X165240476Y-76659524D01*
X165288095Y-76754762D01*
X147573809Y-77226190D02*
X147573809Y-77702381D01*
X147240476Y-76702381D02*
X147573809Y-77226190D01*
X147907143Y-76702381D01*
X148764286Y-77702381D02*
X148192857Y-77702381D01*
X148478571Y-77702381D02*
X148478571Y-76702381D01*
X148383333Y-76845238D01*
X148288095Y-76940476D01*
X148192857Y-76988095D01*
X142502381Y-62088095D02*
X141502381Y-62088095D01*
X141502381Y-61707142D01*
X141550000Y-61611904D01*
X141597619Y-61564285D01*
X141692857Y-61516666D01*
X141835714Y-61516666D01*
X141930952Y-61564285D01*
X141978571Y-61611904D01*
X142026190Y-61707142D01*
X142026190Y-62088095D01*
X142502381Y-61040476D02*
X142502381Y-60850000D01*
X142454762Y-60754761D01*
X142407143Y-60707142D01*
X142264286Y-60611904D01*
X142073810Y-60564285D01*
X141692857Y-60564285D01*
X141597619Y-60611904D01*
X141550000Y-60659523D01*
X141502381Y-60754761D01*
X141502381Y-60945238D01*
X141550000Y-61040476D01*
X141597619Y-61088095D01*
X141692857Y-61135714D01*
X141930952Y-61135714D01*
X142026190Y-61088095D01*
X142073810Y-61040476D01*
X142121429Y-60945238D01*
X142121429Y-60754761D01*
X142073810Y-60659523D01*
X142026190Y-60611904D01*
X141930952Y-60564285D01*
%LPC*%
D13*
X156975000Y-84200000D03*
X156325000Y-84200000D03*
X155675000Y-84200000D03*
X155025000Y-84200000D03*
X154375000Y-84200000D03*
X153725000Y-84200000D03*
X153075000Y-84200000D03*
X152425000Y-84200000D03*
X151775000Y-84200000D03*
X151125000Y-84200000D03*
X150475000Y-84200000D03*
X149825000Y-84200000D03*
X149175000Y-84200000D03*
X148525000Y-84200000D03*
X148525000Y-91400000D03*
X149175000Y-91400000D03*
X149825000Y-91400000D03*
X150475000Y-91400000D03*
X151125000Y-91400000D03*
X151775000Y-91400000D03*
X152425000Y-91400000D03*
X153075000Y-91400000D03*
X153725000Y-91400000D03*
X154375000Y-91400000D03*
X155025000Y-91400000D03*
X155675000Y-91400000D03*
X156325000Y-91400000D03*
X156975000Y-91400000D03*
D14*
X134050000Y-80150000D03*
D15*
X134050000Y-82150000D03*
X134050000Y-84150000D03*
X134050000Y-86150000D03*
X134050000Y-88150000D03*
X134050000Y-90150000D03*
X134050000Y-92150000D03*
X134050000Y-94150000D03*
X134050000Y-96150000D03*
X134050000Y-98150000D03*
X134050000Y-100150000D03*
X134050000Y-102150000D03*
X134050000Y-104150000D03*
X134050000Y-106150000D03*
X134050000Y-108150000D03*
X134050000Y-110150000D03*
X134050000Y-112150000D03*
X134050000Y-114150000D03*
X134050000Y-116150000D03*
X134050000Y-118150000D03*
X134050000Y-120150000D03*
X134050000Y-122150000D03*
X134050000Y-124150000D03*
X134050000Y-126150000D03*
X134050000Y-128150000D03*
X136050000Y-80150000D03*
X136050000Y-82150000D03*
X136050000Y-84150000D03*
X136050000Y-86150000D03*
X136050000Y-88150000D03*
X136050000Y-90150000D03*
X136050000Y-92150000D03*
X136050000Y-94150000D03*
X136050000Y-96150000D03*
X136050000Y-98150000D03*
X136050000Y-100150000D03*
X136050000Y-102150000D03*
X136050000Y-104150000D03*
X136050000Y-106150000D03*
X136050000Y-108150000D03*
X136050000Y-110150000D03*
X136050000Y-112150000D03*
X136050000Y-114150000D03*
X136050000Y-116150000D03*
X136050000Y-118150000D03*
X136050000Y-120150000D03*
X136050000Y-122150000D03*
X136050000Y-124150000D03*
X136050000Y-126150000D03*
X136050000Y-128150000D03*
D16*
X143900000Y-83050000D03*
X145400000Y-83050000D03*
D10*
G36*
X142860571Y-120142195D02*
X143178769Y-119823997D01*
X144204073Y-120849301D01*
X143885875Y-121167499D01*
X142860571Y-120142195D01*
X142860571Y-120142195D01*
G37*
G36*
X142400952Y-120601814D02*
X142719150Y-120283616D01*
X143744454Y-121308920D01*
X143426256Y-121627118D01*
X142400952Y-120601814D01*
X142400952Y-120601814D01*
G37*
G36*
X141941333Y-121061433D02*
X142259531Y-120743235D01*
X143284835Y-121768539D01*
X142966637Y-122086737D01*
X141941333Y-121061433D01*
X141941333Y-121061433D01*
G37*
G36*
X141481713Y-121521053D02*
X141799911Y-121202855D01*
X142825215Y-122228159D01*
X142507017Y-122546357D01*
X141481713Y-121521053D01*
X141481713Y-121521053D01*
G37*
G36*
X141022094Y-121980672D02*
X141340292Y-121662474D01*
X142365596Y-122687778D01*
X142047398Y-123005976D01*
X141022094Y-121980672D01*
X141022094Y-121980672D01*
G37*
G36*
X140562474Y-122440292D02*
X140880672Y-122122094D01*
X141905976Y-123147398D01*
X141587778Y-123465596D01*
X140562474Y-122440292D01*
X140562474Y-122440292D01*
G37*
G36*
X140102855Y-122899911D02*
X140421053Y-122581713D01*
X141446357Y-123607017D01*
X141128159Y-123925215D01*
X140102855Y-122899911D01*
X140102855Y-122899911D01*
G37*
G36*
X139643235Y-123359531D02*
X139961433Y-123041333D01*
X140986737Y-124066637D01*
X140668539Y-124384835D01*
X139643235Y-123359531D01*
X139643235Y-123359531D01*
G37*
G36*
X139183616Y-123819150D02*
X139501814Y-123500952D01*
X140527118Y-124526256D01*
X140208920Y-124844454D01*
X139183616Y-123819150D01*
X139183616Y-123819150D01*
G37*
G36*
X138723997Y-124278769D02*
X139042195Y-123960571D01*
X140067499Y-124985875D01*
X139749301Y-125304073D01*
X138723997Y-124278769D01*
X138723997Y-124278769D01*
G37*
G36*
X142895927Y-128450699D02*
X143214125Y-128132501D01*
X144239429Y-129157805D01*
X143921231Y-129476003D01*
X142895927Y-128450699D01*
X142895927Y-128450699D01*
G37*
G36*
X143355546Y-127991080D02*
X143673744Y-127672882D01*
X144699048Y-128698186D01*
X144380850Y-129016384D01*
X143355546Y-127991080D01*
X143355546Y-127991080D01*
G37*
G36*
X143815165Y-127531461D02*
X144133363Y-127213263D01*
X145158667Y-128238567D01*
X144840469Y-128556765D01*
X143815165Y-127531461D01*
X143815165Y-127531461D01*
G37*
G36*
X144274785Y-127071841D02*
X144592983Y-126753643D01*
X145618287Y-127778947D01*
X145300089Y-128097145D01*
X144274785Y-127071841D01*
X144274785Y-127071841D01*
G37*
G36*
X144734404Y-126612222D02*
X145052602Y-126294024D01*
X146077906Y-127319328D01*
X145759708Y-127637526D01*
X144734404Y-126612222D01*
X144734404Y-126612222D01*
G37*
G36*
X145194024Y-126152602D02*
X145512222Y-125834404D01*
X146537526Y-126859708D01*
X146219328Y-127177906D01*
X145194024Y-126152602D01*
X145194024Y-126152602D01*
G37*
G36*
X145653643Y-125692983D02*
X145971841Y-125374785D01*
X146997145Y-126400089D01*
X146678947Y-126718287D01*
X145653643Y-125692983D01*
X145653643Y-125692983D01*
G37*
G36*
X146113263Y-125233363D02*
X146431461Y-124915165D01*
X147456765Y-125940469D01*
X147138567Y-126258667D01*
X146113263Y-125233363D01*
X146113263Y-125233363D01*
G37*
G36*
X146572882Y-124773744D02*
X146891080Y-124455546D01*
X147916384Y-125480850D01*
X147598186Y-125799048D01*
X146572882Y-124773744D01*
X146572882Y-124773744D01*
G37*
G36*
X147032501Y-124314125D02*
X147350699Y-123995927D01*
X148376003Y-125021231D01*
X148057805Y-125339429D01*
X147032501Y-124314125D01*
X147032501Y-124314125D01*
G37*
D16*
X139200000Y-83050000D03*
X140700000Y-83050000D03*
D10*
G36*
X147028338Y-121398008D02*
X146498008Y-121928338D01*
X145932322Y-121362652D01*
X146462652Y-120832322D01*
X147028338Y-121398008D01*
X147028338Y-121398008D01*
G37*
G36*
X145967678Y-120337348D02*
X145437348Y-120867678D01*
X144871662Y-120301992D01*
X145401992Y-119771662D01*
X145967678Y-120337348D01*
X145967678Y-120337348D01*
G37*
D17*
X167950000Y-67100000D03*
X167950000Y-68600000D03*
D10*
G36*
X147371662Y-122801992D02*
X147901992Y-122271662D01*
X148467678Y-122837348D01*
X147937348Y-123367678D01*
X147371662Y-122801992D01*
X147371662Y-122801992D01*
G37*
G36*
X148432322Y-123862652D02*
X148962652Y-123332322D01*
X149528338Y-123898008D01*
X148998008Y-124428338D01*
X148432322Y-123862652D01*
X148432322Y-123862652D01*
G37*
D16*
X152000000Y-93550000D03*
X153500000Y-93550000D03*
D17*
X159150000Y-83800000D03*
X159150000Y-85300000D03*
D16*
X155300000Y-93550000D03*
X156800000Y-93550000D03*
X151300000Y-77050000D03*
X149800000Y-77050000D03*
X152800000Y-77050000D03*
X154300000Y-77050000D03*
D18*
X138500700Y-105250000D03*
X139999300Y-105250000D03*
X157550000Y-95100700D03*
X157550000Y-96599300D03*
X143150000Y-96799300D03*
X143150000Y-95300700D03*
X144100700Y-73850000D03*
X145599300Y-73850000D03*
D14*
X128050000Y-80150000D03*
D15*
X128050000Y-82150000D03*
X128050000Y-84150000D03*
X128050000Y-86150000D03*
X128050000Y-88150000D03*
X128050000Y-90150000D03*
X128050000Y-92150000D03*
X128050000Y-94150000D03*
X128050000Y-96150000D03*
X128050000Y-98150000D03*
X128050000Y-100150000D03*
X128050000Y-102150000D03*
X128050000Y-104150000D03*
X128050000Y-106150000D03*
X128050000Y-108150000D03*
X128050000Y-110150000D03*
X128050000Y-112150000D03*
X128050000Y-114150000D03*
X128050000Y-116150000D03*
X128050000Y-118150000D03*
X128050000Y-120150000D03*
X128050000Y-122150000D03*
X128050000Y-124150000D03*
X128050000Y-126150000D03*
X128050000Y-128150000D03*
D14*
X130050000Y-80150000D03*
D15*
X130050000Y-82150000D03*
X130050000Y-84150000D03*
X130050000Y-86150000D03*
X130050000Y-88150000D03*
X130050000Y-90150000D03*
X130050000Y-92150000D03*
X130050000Y-94150000D03*
X130050000Y-96150000D03*
X130050000Y-98150000D03*
X130050000Y-100150000D03*
X130050000Y-102150000D03*
X130050000Y-104150000D03*
X130050000Y-106150000D03*
X130050000Y-108150000D03*
X130050000Y-110150000D03*
X130050000Y-112150000D03*
X130050000Y-114150000D03*
X130050000Y-116150000D03*
X130050000Y-118150000D03*
X130050000Y-120150000D03*
X130050000Y-122150000D03*
X130050000Y-124150000D03*
X130050000Y-126150000D03*
X130050000Y-128150000D03*
X132050000Y-80150000D03*
X132050000Y-82150000D03*
X132050000Y-84150000D03*
X132050000Y-86150000D03*
X132050000Y-88150000D03*
X132050000Y-90150000D03*
X132050000Y-92150000D03*
X132050000Y-94150000D03*
X132050000Y-96150000D03*
X132050000Y-98150000D03*
X132050000Y-100150000D03*
X132050000Y-102150000D03*
X132050000Y-104150000D03*
X132050000Y-106150000D03*
X132050000Y-108150000D03*
X132050000Y-110150000D03*
X132050000Y-112150000D03*
X132050000Y-114150000D03*
X132050000Y-116150000D03*
X132050000Y-118150000D03*
X132050000Y-120150000D03*
X132050000Y-122150000D03*
X132050000Y-124150000D03*
X132050000Y-126150000D03*
X132050000Y-128150000D03*
D19*
X173250000Y-62150000D03*
D20*
X170550000Y-74650000D03*
D21*
X168010000Y-74650000D03*
D22*
X164450000Y-80610000D03*
D23*
X164450000Y-83150000D03*
X164450000Y-85690000D03*
D24*
X138700000Y-91950000D03*
X140200000Y-91950000D03*
X149000000Y-93550000D03*
X150500000Y-93550000D03*
D25*
X161150000Y-97700000D03*
X161150000Y-99200000D03*
X159350000Y-97700000D03*
X159350000Y-99200000D03*
D10*
G36*
X140275305Y-127069239D02*
X139638909Y-127705635D01*
X139285355Y-127352081D01*
X139921751Y-126715685D01*
X140275305Y-127069239D01*
X140275305Y-127069239D01*
G37*
G36*
X139214645Y-126008579D02*
X138578249Y-126644975D01*
X138224695Y-126291421D01*
X138861091Y-125655025D01*
X139214645Y-126008579D01*
X139214645Y-126008579D01*
G37*
D25*
X161150000Y-102500000D03*
X161150000Y-104000000D03*
X159350000Y-102500000D03*
X159350000Y-104000000D03*
D24*
X140000000Y-106850000D03*
X138500000Y-106850000D03*
D25*
X155850000Y-96600000D03*
X155850000Y-95100000D03*
X144850000Y-95300000D03*
X144850000Y-96800000D03*
D24*
X145600000Y-75550000D03*
X144100000Y-75550000D03*
D25*
X147350000Y-117200000D03*
X147350000Y-118700000D03*
X149150000Y-118700000D03*
X149150000Y-117200000D03*
X159350000Y-117500000D03*
X159350000Y-119000000D03*
X161150000Y-117500000D03*
X161150000Y-119000000D03*
X147350000Y-109700000D03*
X147350000Y-111200000D03*
X149150000Y-111200000D03*
X149150000Y-109700000D03*
X159350000Y-110000000D03*
X159350000Y-111500000D03*
X161150000Y-110000000D03*
X161150000Y-111500000D03*
X173550000Y-73900000D03*
X173550000Y-75400000D03*
X141350000Y-67700000D03*
X141350000Y-69200000D03*
X143150000Y-69200000D03*
X143150000Y-67700000D03*
X153350000Y-68000000D03*
X153350000Y-69500000D03*
X155150000Y-68000000D03*
X155150000Y-69500000D03*
D26*
X139200000Y-84595000D03*
X139200000Y-85245000D03*
X139200000Y-85895000D03*
X139200000Y-86545000D03*
X139200000Y-87195000D03*
X139200000Y-87845000D03*
X139200000Y-88495000D03*
X139200000Y-89145000D03*
X139200000Y-89795000D03*
X139200000Y-90445000D03*
X145100000Y-90445000D03*
X145100000Y-89795000D03*
X145100000Y-89145000D03*
X145100000Y-88495000D03*
X145100000Y-87845000D03*
X145100000Y-87195000D03*
X145100000Y-86545000D03*
X145100000Y-85895000D03*
X145100000Y-85245000D03*
X145100000Y-84595000D03*
D27*
X166425000Y-62800000D03*
X165775000Y-62800000D03*
X165125000Y-62800000D03*
X164475000Y-62800000D03*
X163825000Y-62800000D03*
X163175000Y-62800000D03*
X162525000Y-62800000D03*
X161875000Y-62800000D03*
X161225000Y-62800000D03*
X160575000Y-62800000D03*
X159925000Y-62800000D03*
X159275000Y-62800000D03*
X159275000Y-68500000D03*
X159925000Y-68500000D03*
X160575000Y-68500000D03*
X161225000Y-68500000D03*
X161875000Y-68500000D03*
X162525000Y-68500000D03*
X163175000Y-68500000D03*
X163825000Y-68500000D03*
X164475000Y-68500000D03*
X165125000Y-68500000D03*
X165775000Y-68500000D03*
X166425000Y-68500000D03*
D17*
X150950000Y-117300000D03*
X150950000Y-118800000D03*
D16*
X156000000Y-116650000D03*
X157500000Y-116650000D03*
D17*
X150950000Y-109800000D03*
X150950000Y-111300000D03*
D16*
X156000000Y-109150000D03*
X157500000Y-109150000D03*
D17*
X144950000Y-67800000D03*
X144950000Y-69300000D03*
D16*
X150000000Y-67150000D03*
X151500000Y-67150000D03*
D24*
X161000000Y-115950000D03*
X159500000Y-115950000D03*
X161000000Y-108450000D03*
X159500000Y-108450000D03*
X155000000Y-66450000D03*
X153500000Y-66450000D03*
D26*
X152950000Y-118375000D03*
X152950000Y-119025000D03*
X152950000Y-119675000D03*
X152950000Y-120325000D03*
X157350000Y-120325000D03*
X157350000Y-119675000D03*
X157350000Y-119025000D03*
X157350000Y-118375000D03*
X152950000Y-110875000D03*
X152950000Y-111525000D03*
X152950000Y-112175000D03*
X152950000Y-112825000D03*
X157350000Y-112825000D03*
X157350000Y-112175000D03*
X157350000Y-111525000D03*
X157350000Y-110875000D03*
X146950000Y-68875000D03*
X146950000Y-69525000D03*
X146950000Y-70175000D03*
X146950000Y-70825000D03*
X151350000Y-70825000D03*
X151350000Y-70175000D03*
X151350000Y-69525000D03*
X151350000Y-68875000D03*
D28*
X166050000Y-117850000D03*
D29*
X168550000Y-117850000D03*
X171050000Y-117850000D03*
X173550000Y-117850000D03*
D28*
X166050000Y-110350000D03*
D29*
X168550000Y-110350000D03*
X171050000Y-110350000D03*
X173550000Y-110350000D03*
D28*
X166050000Y-95350000D03*
D29*
X168550000Y-95350000D03*
X171050000Y-95350000D03*
X173550000Y-95350000D03*
D28*
X166050000Y-102850000D03*
D29*
X168550000Y-102850000D03*
X171050000Y-102850000D03*
X173550000Y-102850000D03*
D28*
X173550000Y-130650000D03*
D29*
X171050000Y-130650000D03*
X168550000Y-130650000D03*
X166050000Y-130650000D03*
X163550000Y-130650000D03*
X161050000Y-130650000D03*
X158550000Y-130650000D03*
X156050000Y-130650000D03*
X153550000Y-130650000D03*
X151050000Y-130650000D03*
D30*
X171750000Y-84400000D03*
D31*
X171750000Y-79400000D03*
D32*
X149609060Y-80300000D03*
X154490940Y-80300000D03*
D33*
X146550000Y-56650000D03*
D34*
X146550000Y-54110000D03*
X149090000Y-56650000D03*
X149090000Y-54110000D03*
X151630000Y-56650000D03*
X151630000Y-54110000D03*
X154170000Y-56650000D03*
X154170000Y-54110000D03*
X156710000Y-56650000D03*
X156710000Y-54110000D03*
X159250000Y-56650000D03*
X159250000Y-54110000D03*
X161790000Y-56650000D03*
X161790000Y-54110000D03*
X164330000Y-56650000D03*
X164330000Y-54110000D03*
X166870000Y-56650000D03*
X166870000Y-54110000D03*
X169410000Y-56650000D03*
X169410000Y-54110000D03*
M02*
