G04 #@! TF.FileFunction,Copper,L2,Bot,Signal*
%FSLAX46Y46*%
G04 Gerber Fmt 4.6, Leading zero omitted, Abs format (unit mm)*
G04 Created by KiCad (PCBNEW 4.0.4-stable) date 12/18/16 13:30:46*
%MOMM*%
%LPD*%
G01*
G04 APERTURE LIST*
%ADD10C,0.100000*%
%ADD11R,1.350000X1.350000*%
%ADD12C,1.350000*%
%ADD13R,1.270000X0.965200*%
%ADD14R,0.965200X1.270000*%
%ADD15R,2.235200X2.235200*%
%ADD16R,2.032000X2.032000*%
%ADD17O,2.032000X2.032000*%
%ADD18R,2.032000X1.727200*%
%ADD19O,2.032000X1.727200*%
%ADD20R,1.750000X1.750000*%
%ADD21C,1.750000*%
%ADD22R,2.500000X2.500000*%
%ADD23C,2.500000*%
%ADD24C,1.501140*%
%ADD25R,1.700000X1.700000*%
%ADD26C,1.700000*%
%ADD27C,0.800000*%
%ADD28C,0.600000*%
%ADD29C,0.700000*%
%ADD30C,0.400000*%
%ADD31C,0.250000*%
%ADD32C,0.200000*%
%ADD33C,0.300000*%
%ADD34C,0.254000*%
G04 APERTURE END LIST*
D10*
D11*
X134050000Y-80150000D03*
D12*
X134050000Y-82150000D03*
X134050000Y-84150000D03*
X134050000Y-86150000D03*
X134050000Y-88150000D03*
X134050000Y-90150000D03*
X134050000Y-92150000D03*
X134050000Y-94150000D03*
X134050000Y-96150000D03*
X134050000Y-98150000D03*
X134050000Y-100150000D03*
X134050000Y-102150000D03*
X134050000Y-104150000D03*
X134050000Y-106150000D03*
X134050000Y-108150000D03*
X134050000Y-110150000D03*
X134050000Y-112150000D03*
X134050000Y-114150000D03*
X134050000Y-116150000D03*
X134050000Y-118150000D03*
X134050000Y-120150000D03*
X134050000Y-122150000D03*
X134050000Y-124150000D03*
X134050000Y-126150000D03*
X134050000Y-128150000D03*
X136050000Y-80150000D03*
X136050000Y-82150000D03*
X136050000Y-84150000D03*
X136050000Y-86150000D03*
X136050000Y-88150000D03*
X136050000Y-90150000D03*
X136050000Y-92150000D03*
X136050000Y-94150000D03*
X136050000Y-96150000D03*
X136050000Y-98150000D03*
X136050000Y-100150000D03*
X136050000Y-102150000D03*
X136050000Y-104150000D03*
X136050000Y-106150000D03*
X136050000Y-108150000D03*
X136050000Y-110150000D03*
X136050000Y-112150000D03*
X136050000Y-114150000D03*
X136050000Y-116150000D03*
X136050000Y-118150000D03*
X136050000Y-120150000D03*
X136050000Y-122150000D03*
X136050000Y-124150000D03*
X136050000Y-126150000D03*
X136050000Y-128150000D03*
D13*
X147450000Y-96220000D03*
X147450000Y-94950000D03*
X147450000Y-93680000D03*
D14*
X163520000Y-116050000D03*
X162250000Y-116050000D03*
X160980000Y-116050000D03*
X163520000Y-108550000D03*
X162250000Y-108550000D03*
X160980000Y-108550000D03*
X168620000Y-63250000D03*
X167350000Y-63250000D03*
X166080000Y-63250000D03*
X168620000Y-66050000D03*
X167350000Y-66050000D03*
X166080000Y-66050000D03*
X147820000Y-65550000D03*
X146550000Y-65550000D03*
X145280000Y-65550000D03*
X168620000Y-68850000D03*
X167350000Y-68850000D03*
X166080000Y-68850000D03*
X163520000Y-123550000D03*
X162250000Y-123550000D03*
X160980000Y-123550000D03*
D11*
X128050000Y-80150000D03*
D12*
X128050000Y-82150000D03*
X128050000Y-84150000D03*
X128050000Y-86150000D03*
X128050000Y-88150000D03*
X128050000Y-90150000D03*
X128050000Y-92150000D03*
X128050000Y-94150000D03*
X128050000Y-96150000D03*
X128050000Y-98150000D03*
X128050000Y-100150000D03*
X128050000Y-102150000D03*
X128050000Y-104150000D03*
X128050000Y-106150000D03*
X128050000Y-108150000D03*
X128050000Y-110150000D03*
X128050000Y-112150000D03*
X128050000Y-114150000D03*
X128050000Y-116150000D03*
X128050000Y-118150000D03*
X128050000Y-120150000D03*
X128050000Y-122150000D03*
X128050000Y-124150000D03*
X128050000Y-126150000D03*
X128050000Y-128150000D03*
D11*
X130050000Y-80150000D03*
D12*
X130050000Y-82150000D03*
X130050000Y-84150000D03*
X130050000Y-86150000D03*
X130050000Y-88150000D03*
X130050000Y-90150000D03*
X130050000Y-92150000D03*
X130050000Y-94150000D03*
X130050000Y-96150000D03*
X130050000Y-98150000D03*
X130050000Y-100150000D03*
X130050000Y-102150000D03*
X130050000Y-104150000D03*
X130050000Y-106150000D03*
X130050000Y-108150000D03*
X130050000Y-110150000D03*
X130050000Y-112150000D03*
X130050000Y-114150000D03*
X130050000Y-116150000D03*
X130050000Y-118150000D03*
X130050000Y-120150000D03*
X130050000Y-122150000D03*
X130050000Y-124150000D03*
X130050000Y-126150000D03*
X130050000Y-128150000D03*
X132050000Y-80150000D03*
X132050000Y-82150000D03*
X132050000Y-84150000D03*
X132050000Y-86150000D03*
X132050000Y-88150000D03*
X132050000Y-90150000D03*
X132050000Y-92150000D03*
X132050000Y-94150000D03*
X132050000Y-96150000D03*
X132050000Y-98150000D03*
X132050000Y-100150000D03*
X132050000Y-102150000D03*
X132050000Y-104150000D03*
X132050000Y-106150000D03*
X132050000Y-108150000D03*
X132050000Y-110150000D03*
X132050000Y-112150000D03*
X132050000Y-114150000D03*
X132050000Y-116150000D03*
X132050000Y-118150000D03*
X132050000Y-120150000D03*
X132050000Y-122150000D03*
X132050000Y-124150000D03*
X132050000Y-126150000D03*
X132050000Y-128150000D03*
D15*
X173250000Y-62150000D03*
D16*
X170550000Y-74650000D03*
D17*
X168010000Y-74650000D03*
D18*
X164450000Y-80610000D03*
D19*
X164450000Y-83150000D03*
X164450000Y-85690000D03*
D20*
X166050000Y-117850000D03*
D21*
X168550000Y-117850000D03*
X171050000Y-117850000D03*
X173550000Y-117850000D03*
D20*
X166050000Y-110350000D03*
D21*
X168550000Y-110350000D03*
X171050000Y-110350000D03*
X173550000Y-110350000D03*
D20*
X166050000Y-95350000D03*
D21*
X168550000Y-95350000D03*
X171050000Y-95350000D03*
X173550000Y-95350000D03*
D20*
X166050000Y-102850000D03*
D21*
X168550000Y-102850000D03*
X171050000Y-102850000D03*
X173550000Y-102850000D03*
D20*
X173550000Y-130650000D03*
D21*
X171050000Y-130650000D03*
X168550000Y-130650000D03*
X166050000Y-130650000D03*
X163550000Y-130650000D03*
X161050000Y-130650000D03*
X158550000Y-130650000D03*
X156050000Y-130650000D03*
X153550000Y-130650000D03*
X151050000Y-130650000D03*
D22*
X171750000Y-84400000D03*
D23*
X171750000Y-79400000D03*
D24*
X149609060Y-80300000D03*
X154490940Y-80300000D03*
D25*
X146550000Y-56650000D03*
D26*
X146550000Y-54110000D03*
X149090000Y-56650000D03*
X149090000Y-54110000D03*
X151630000Y-56650000D03*
X151630000Y-54110000D03*
X154170000Y-56650000D03*
X154170000Y-54110000D03*
X156710000Y-56650000D03*
X156710000Y-54110000D03*
X159250000Y-56650000D03*
X159250000Y-54110000D03*
X161790000Y-56650000D03*
X161790000Y-54110000D03*
X164330000Y-56650000D03*
X164330000Y-54110000D03*
X166870000Y-56650000D03*
X166870000Y-54110000D03*
X169410000Y-56650000D03*
X169410000Y-54110000D03*
D27*
X137750000Y-108750000D03*
X143150000Y-78050000D03*
X144350000Y-76950000D03*
X141850000Y-79250000D03*
X137850000Y-78550000D03*
X136150000Y-78550000D03*
X137980000Y-122665000D03*
X137980000Y-128380000D03*
X146235000Y-80120000D03*
X142425000Y-83295000D03*
X142425000Y-87740000D03*
X141790000Y-91550000D03*
X141790000Y-94090000D03*
X144330000Y-94090000D03*
X149410000Y-95995000D03*
X153855000Y-95995000D03*
X141790000Y-100440000D03*
X146870000Y-100440000D03*
X151950000Y-100440000D03*
X157030000Y-100440000D03*
X141790000Y-114410000D03*
X144330000Y-116950000D03*
X148140000Y-114410000D03*
X153220000Y-114410000D03*
X158300000Y-114410000D03*
X153220000Y-122030000D03*
X158300000Y-122030000D03*
X144330000Y-125840000D03*
X141790000Y-128380000D03*
X144330000Y-130920000D03*
X141790000Y-105520000D03*
X141790000Y-110600000D03*
X144330000Y-108060000D03*
X146870000Y-105520000D03*
X149410000Y-108060000D03*
X151950000Y-105520000D03*
X154490000Y-108060000D03*
X157030000Y-105520000D03*
X150680000Y-62340000D03*
X148140000Y-59800000D03*
X144330000Y-63610000D03*
X144330000Y-58530000D03*
X144330000Y-53450000D03*
X149410000Y-75040000D03*
X151950000Y-72500000D03*
X154490000Y-75040000D03*
X157030000Y-77580000D03*
X159570000Y-75040000D03*
X162110000Y-77580000D03*
X164650000Y-75040000D03*
X167190000Y-72500000D03*
X172270000Y-72500000D03*
X157030000Y-87740000D03*
X162110000Y-92820000D03*
X159570000Y-90280000D03*
X162110000Y-87740000D03*
X167190000Y-92820000D03*
X164650000Y-90280000D03*
X167190000Y-87740000D03*
X169730000Y-90280000D03*
X172270000Y-87740000D03*
X172270000Y-92820000D03*
X172270000Y-96630000D03*
X169730000Y-99170000D03*
X172270000Y-104250000D03*
X172270000Y-111870000D03*
X172270000Y-119490000D03*
X167190000Y-124570000D03*
X164650000Y-122030000D03*
X164650000Y-114410000D03*
X169730000Y-114410000D03*
X172270000Y-124570000D03*
X141790000Y-133460000D03*
X148140000Y-133460000D03*
X153220000Y-133460000D03*
X158300000Y-133460000D03*
X163380000Y-133460000D03*
X168460000Y-133460000D03*
X173540000Y-133460000D03*
X169730000Y-122030000D03*
X174810000Y-127110000D03*
X174810000Y-122030000D03*
X174810000Y-114410000D03*
X174810000Y-106790000D03*
X174810000Y-99170000D03*
X174810000Y-90280000D03*
X174810000Y-85200000D03*
X174810000Y-80120000D03*
X174810000Y-75040000D03*
X174810000Y-64880000D03*
X174810000Y-69960000D03*
X169730000Y-69960000D03*
X169730000Y-64880000D03*
X169730000Y-59800000D03*
X173540000Y-55990000D03*
X141790000Y-66150000D03*
X141790000Y-61070000D03*
X141790000Y-55990000D03*
X141790000Y-50910000D03*
X148140000Y-50910000D03*
X153220000Y-50910000D03*
X158300000Y-50910000D03*
X163380000Y-50910000D03*
X168460000Y-50910000D03*
X173540000Y-50910000D03*
D28*
X169150000Y-67450000D03*
D29*
X152150000Y-117050000D03*
X147850000Y-121350000D03*
X150750000Y-124250000D03*
D27*
X140150000Y-93250000D03*
X140050000Y-102150000D03*
X146350000Y-108450000D03*
X151950000Y-94750000D03*
D28*
X166650000Y-70150000D03*
X155850000Y-67150000D03*
D29*
X151750000Y-123650000D03*
D27*
X140550000Y-80150000D03*
X157750000Y-93550000D03*
X146150000Y-97050000D03*
X138550000Y-94150000D03*
X162250000Y-117500000D03*
X162250000Y-110000000D03*
D28*
X166950000Y-64550000D03*
X167750000Y-64750000D03*
X166850000Y-67350000D03*
X130679998Y-77450000D03*
X143250000Y-70950000D03*
X143250000Y-68350000D03*
X146850000Y-112150000D03*
X147350000Y-112950000D03*
X149150000Y-110350000D03*
X146850000Y-119650000D03*
X149150000Y-117850000D03*
X147325001Y-120374999D03*
X137650000Y-81750000D03*
X161150000Y-118350000D03*
X161150000Y-120450000D03*
X161150000Y-110850000D03*
X161150000Y-112950000D03*
X163150000Y-71050000D03*
X162450000Y-70350000D03*
X161850000Y-69650000D03*
X162350000Y-67050000D03*
X162350000Y-66050000D03*
X163050000Y-65350000D03*
X163750000Y-64650000D03*
X164450000Y-63950000D03*
X155150000Y-70950000D03*
X155150000Y-68850000D03*
X149150000Y-89350000D03*
X148150000Y-87050000D03*
X147250000Y-86450000D03*
X148350000Y-89950000D03*
X146712002Y-84650000D03*
X149950000Y-89950000D03*
D30*
X136150000Y-78550000D02*
X137850000Y-78550000D01*
D31*
X136050000Y-120150000D02*
X137980000Y-122080000D01*
X137980000Y-122080000D02*
X137980000Y-122665000D01*
X169730000Y-59800000D02*
X169730000Y-64880000D01*
X144330000Y-94090000D02*
X141790000Y-94090000D01*
X153855000Y-95995000D02*
X149410000Y-95995000D01*
X148140000Y-114410000D02*
X146870000Y-114410000D01*
X146870000Y-114410000D02*
X144330000Y-116950000D01*
X141790000Y-128380000D02*
X144330000Y-125840000D01*
X173550000Y-95350000D02*
X173550000Y-97910000D01*
X173550000Y-97910000D02*
X174810000Y-99170000D01*
X169410000Y-54110000D02*
X172610000Y-50910000D01*
X172610000Y-50910000D02*
X173540000Y-50910000D01*
D32*
X132050000Y-86150000D02*
X131493002Y-86150000D01*
X130468003Y-85125001D02*
X129025001Y-85125001D01*
X131493002Y-86150000D02*
X130468003Y-85125001D01*
X129025001Y-85125001D02*
X128724999Y-84824999D01*
X128724999Y-84824999D02*
X128050000Y-84150000D01*
D30*
X168620000Y-63250000D02*
X168620000Y-57440000D01*
X168620000Y-57440000D02*
X169410000Y-56650000D01*
X168620000Y-66050000D02*
X168620000Y-67450000D01*
D31*
X169150000Y-67450000D02*
X168620000Y-67450000D01*
D30*
X168620000Y-67450000D02*
X168620000Y-68850000D01*
X147850000Y-121350000D02*
X152150000Y-117050000D01*
X150750000Y-124250000D02*
X147850000Y-121350000D01*
X150750000Y-124250000D02*
X150750000Y-130350000D01*
X150750000Y-130350000D02*
X151050000Y-130650000D01*
X168620000Y-63250000D02*
X168620000Y-66450000D01*
D32*
X134050000Y-80150000D02*
X134050000Y-80706998D01*
X134050000Y-80706998D02*
X133025001Y-81731997D01*
X133025001Y-81731997D02*
X133025001Y-85174999D01*
X133025001Y-85174999D02*
X132724999Y-85475001D01*
X132724999Y-85475001D02*
X132050000Y-86150000D01*
X134050000Y-116150000D02*
X133074999Y-115174999D01*
X133074999Y-115174999D02*
X129074999Y-115174999D01*
X129074999Y-115174999D02*
X128724999Y-114824999D01*
X128724999Y-114824999D02*
X128050000Y-114150000D01*
X134050000Y-110150000D02*
X133074999Y-109174999D01*
X130724999Y-109475001D02*
X130050000Y-110150000D01*
X133074999Y-109174999D02*
X131025001Y-109174999D01*
X131025001Y-109174999D02*
X130724999Y-109475001D01*
X134050000Y-110150000D02*
X134724999Y-109475001D01*
X134724999Y-109475001D02*
X136050000Y-108150000D01*
X134050000Y-116150000D02*
X134724999Y-115475001D01*
X134724999Y-115475001D02*
X136050000Y-114150000D01*
X136050000Y-126150000D02*
X135025001Y-125125001D01*
X135025001Y-125125001D02*
X135025001Y-123125001D01*
X135025001Y-123125001D02*
X134724999Y-122824999D01*
X134724999Y-122824999D02*
X134050000Y-122150000D01*
X132050000Y-128150000D02*
X133025001Y-127174999D01*
X133025001Y-127174999D02*
X135025001Y-127174999D01*
X135025001Y-127174999D02*
X135375001Y-126824999D01*
X135375001Y-126824999D02*
X136050000Y-126150000D01*
D31*
X136050000Y-120150000D02*
X135375001Y-120824999D01*
X135375001Y-120824999D02*
X134050000Y-122150000D01*
D30*
X136050000Y-98150000D02*
X138850000Y-98150000D01*
X138850000Y-98150000D02*
X140150000Y-96850000D01*
X140150000Y-93250000D02*
X140150000Y-96850000D01*
X136050000Y-98150000D02*
X140050000Y-102150000D01*
X140050000Y-102150000D02*
X146350000Y-108450000D01*
X147450000Y-94950000D02*
X151750000Y-94950000D01*
X151750000Y-94950000D02*
X151950000Y-94750000D01*
X146550000Y-64515000D02*
X146550000Y-63950000D01*
X146550000Y-63950000D02*
X146550000Y-56650000D01*
X152790736Y-64490736D02*
X152250000Y-63950000D01*
X152250000Y-63950000D02*
X146550000Y-63950000D01*
X152790736Y-64515000D02*
X152790736Y-64490736D01*
X166650000Y-70150000D02*
X165049999Y-71750001D01*
X165049999Y-71750001D02*
X160450001Y-71750001D01*
X160450001Y-71750001D02*
X156149999Y-67449999D01*
X156149999Y-67449999D02*
X155850000Y-67150000D01*
D31*
X166650000Y-70150000D02*
X166080000Y-69580000D01*
X166080000Y-69580000D02*
X166080000Y-68850000D01*
D30*
X155850000Y-67150000D02*
X155425736Y-67150000D01*
X155425736Y-67150000D02*
X152790736Y-64515000D01*
X146550000Y-65550000D02*
X146550000Y-64515000D01*
X166080000Y-66050000D02*
X166080000Y-68850000D01*
X166080000Y-63250000D02*
X166080000Y-66450000D01*
X151750000Y-123650000D02*
X152685001Y-124585001D01*
X152685001Y-124585001D02*
X161782601Y-124585001D01*
X162250000Y-123550000D02*
X162250000Y-124117602D01*
X162250000Y-124117602D02*
X161782601Y-124585001D01*
X171325000Y-127150000D02*
X164815000Y-127150000D01*
X164815000Y-127150000D02*
X162250000Y-124585000D01*
X162250000Y-124585000D02*
X162250000Y-123550000D01*
X173550000Y-130650000D02*
X173550000Y-129375000D01*
X173550000Y-129375000D02*
X171325000Y-127150000D01*
X140550000Y-80150000D02*
X140550000Y-88050000D01*
X140550000Y-88050000D02*
X146180000Y-93680000D01*
X146180000Y-93680000D02*
X147450000Y-93680000D01*
X160980000Y-108550000D02*
X160980000Y-96780000D01*
X160980000Y-96780000D02*
X157750000Y-93550000D01*
X147450000Y-93680000D02*
X157620000Y-93680000D01*
X157620000Y-93680000D02*
X157750000Y-93550000D01*
D31*
X147450000Y-93680000D02*
X147297600Y-93680000D01*
D30*
X145280000Y-65550000D02*
X145280000Y-72627120D01*
X145280000Y-72627120D02*
X137757120Y-80150000D01*
X137757120Y-80150000D02*
X137004594Y-80150000D01*
X137004594Y-80150000D02*
X136050000Y-80150000D01*
X132050000Y-80150000D02*
X133125001Y-79074999D01*
X133125001Y-79074999D02*
X134974999Y-79074999D01*
X134974999Y-79074999D02*
X135375001Y-79475001D01*
X135375001Y-79475001D02*
X136050000Y-80150000D01*
X160980000Y-116050000D02*
X160980000Y-117085000D01*
X160980000Y-117085000D02*
X160449999Y-117615001D01*
X160449999Y-117615001D02*
X160449999Y-121984999D01*
X160980000Y-122515000D02*
X160980000Y-123550000D01*
X160449999Y-121984999D02*
X160980000Y-122515000D01*
X160980000Y-108550000D02*
X160980000Y-109585000D01*
X160980000Y-115015000D02*
X160980000Y-116050000D01*
X160980000Y-109585000D02*
X160449999Y-110115001D01*
X160449999Y-110115001D02*
X160449999Y-114484999D01*
X160449999Y-114484999D02*
X160980000Y-115015000D01*
X147450000Y-96220000D02*
X146980000Y-96220000D01*
X146980000Y-96220000D02*
X146150000Y-97050000D01*
X138550000Y-91093002D02*
X138550000Y-93750000D01*
X138550000Y-93750000D02*
X138550000Y-94150000D01*
D32*
X135074999Y-93125001D02*
X137525001Y-93125001D01*
X137525001Y-93125001D02*
X138150000Y-93750000D01*
X138150000Y-93750000D02*
X138550000Y-93750000D01*
X135025001Y-95125001D02*
X137574999Y-95125001D01*
X137574999Y-95125001D02*
X138550000Y-94150000D01*
X134050000Y-94150000D02*
X135025001Y-95125001D01*
D30*
X138550000Y-80650000D02*
X138550000Y-91093002D01*
X166050000Y-95350000D02*
X164775000Y-95350000D01*
X164775000Y-95350000D02*
X163905000Y-96220000D01*
D32*
X134050000Y-94150000D02*
X135074999Y-93125001D01*
D30*
X147820000Y-71380000D02*
X138550000Y-80650000D01*
X147820000Y-65550000D02*
X147820000Y-71380000D01*
X163520000Y-108550000D02*
X163520000Y-96605000D01*
X163520000Y-96605000D02*
X164775000Y-95350000D01*
X163520000Y-116050000D02*
X163520000Y-117085000D01*
X163520000Y-117085000D02*
X163520000Y-123550000D01*
X163520000Y-116050000D02*
X163520000Y-115015000D01*
X163520000Y-115015000D02*
X163520000Y-108550000D01*
D33*
X171750000Y-84400000D02*
X171750000Y-82850000D01*
X171750000Y-82850000D02*
X168010000Y-79110000D01*
X168010000Y-79110000D02*
X168010000Y-76086840D01*
X168010000Y-76086840D02*
X168010000Y-74650000D01*
D30*
X162250000Y-117500000D02*
X162250000Y-116050000D01*
X162250000Y-110000000D02*
X162250000Y-108550000D01*
D31*
X167350000Y-63250000D02*
X167350000Y-64150000D01*
X167350000Y-64150000D02*
X166950000Y-64550000D01*
X167350000Y-66050000D02*
X167350000Y-65150000D01*
X167350000Y-65150000D02*
X167750000Y-64750000D01*
X167350000Y-68850000D02*
X167350000Y-67850000D01*
X167350000Y-67850000D02*
X166850000Y-67350000D01*
D30*
X138450000Y-77450000D02*
X130679998Y-77450000D01*
X143250000Y-70950000D02*
X143250000Y-72650000D01*
X143250000Y-72650000D02*
X138450000Y-77450000D01*
X143250000Y-70950000D02*
X143250000Y-68350000D01*
D31*
X146850000Y-112150000D02*
X137493002Y-112150000D01*
D32*
X130050000Y-112150000D02*
X131025001Y-111174999D01*
X131025001Y-111174999D02*
X136518001Y-111174999D01*
X136518001Y-111174999D02*
X137493002Y-112150000D01*
X131074999Y-113125001D02*
X137274999Y-113125001D01*
X137274999Y-113125001D02*
X137450000Y-112950000D01*
D31*
X147350000Y-112950000D02*
X137450000Y-112950000D01*
D32*
X130050000Y-114150000D02*
X131074999Y-113125001D01*
D30*
X149150000Y-110350000D02*
X149150000Y-111150000D01*
X149150000Y-111150000D02*
X147350000Y-112950000D01*
D32*
X138117991Y-118774989D02*
X138117991Y-118749989D01*
X138117991Y-118749989D02*
X136518001Y-117174999D01*
D31*
X146850000Y-119650000D02*
X146850000Y-119225736D01*
X146850000Y-119225736D02*
X146374253Y-118749989D01*
X146374253Y-118749989D02*
X145663041Y-118749989D01*
X145663041Y-118749989D02*
X138117991Y-118749989D01*
D32*
X136518001Y-117174999D02*
X131074999Y-117174999D01*
X131074999Y-117174999D02*
X130050000Y-116150000D01*
D31*
X147325001Y-120374999D02*
X147074999Y-120374999D01*
X146975001Y-120275001D02*
X138475001Y-120275001D01*
X147074999Y-120374999D02*
X146975001Y-120275001D01*
X138475001Y-120275001D02*
X137374999Y-119174999D01*
D32*
X131074999Y-119174999D02*
X137374999Y-119174999D01*
D30*
X147325001Y-120374999D02*
X149150000Y-118550000D01*
X149150000Y-118550000D02*
X149150000Y-117850000D01*
D32*
X131074999Y-119174999D02*
X130050000Y-118150000D01*
X134050000Y-84150000D02*
X135074999Y-83125001D01*
X135074999Y-83125001D02*
X136699263Y-83125001D01*
X136699263Y-83125001D02*
X137650000Y-82174264D01*
X137650000Y-82174264D02*
X137650000Y-81750000D01*
D30*
X161150000Y-120450000D02*
X161150000Y-118350000D01*
X161150000Y-110850000D02*
X161150000Y-112950000D01*
D31*
X163150000Y-71050000D02*
X161688588Y-71050000D01*
X161688588Y-71050000D02*
X149090000Y-58451412D01*
X149090000Y-58451412D02*
X149090000Y-57871314D01*
X149090000Y-57871314D02*
X149090000Y-56650000D01*
X162450000Y-70350000D02*
X162375001Y-70275001D01*
X162375001Y-70275001D02*
X161549999Y-70275001D01*
X161549999Y-70275001D02*
X151630000Y-60355002D01*
X151630000Y-60355002D02*
X151630000Y-57871314D01*
X151630000Y-57871314D02*
X151630000Y-56650000D01*
X161850000Y-69650000D02*
X154170000Y-61970000D01*
X154170000Y-61970000D02*
X154170000Y-56650000D01*
X162350000Y-67050000D02*
X162350000Y-66975002D01*
X162350000Y-66975002D02*
X156710000Y-61335002D01*
X156710000Y-61335002D02*
X156710000Y-57871314D01*
X156710000Y-57871314D02*
X156710000Y-56650000D01*
X162350000Y-66050000D02*
X162350000Y-59750000D01*
X162350000Y-59750000D02*
X159250000Y-56650000D01*
X163050000Y-65350000D02*
X163050000Y-57910000D01*
X163050000Y-57910000D02*
X161790000Y-56650000D01*
X164330000Y-56650000D02*
X164330000Y-57852081D01*
X164330000Y-57852081D02*
X163750000Y-58432081D01*
X163750000Y-58432081D02*
X163750000Y-64225736D01*
X163750000Y-64225736D02*
X163750000Y-64650000D01*
X166870000Y-56650000D02*
X166870000Y-57871314D01*
X166870000Y-57871314D02*
X164450000Y-60291314D01*
X164450000Y-60291314D02*
X164450000Y-63525736D01*
X164450000Y-63525736D02*
X164450000Y-63950000D01*
D30*
X155150000Y-70950000D02*
X155150000Y-68850000D01*
D33*
X149150000Y-89350000D02*
X149150000Y-88050000D01*
X149150000Y-88050000D02*
X148150000Y-87050000D01*
X148350000Y-89950000D02*
X147250000Y-88850000D01*
X147250000Y-88850000D02*
X147250000Y-86450000D01*
X149950000Y-89950000D02*
X149950000Y-87887998D01*
X149950000Y-87887998D02*
X146712002Y-84650000D01*
D34*
G36*
X175147197Y-50208233D02*
X175653479Y-50546519D01*
X175991766Y-51052802D01*
X176119000Y-51692452D01*
X176119000Y-132607548D01*
X175991766Y-133247198D01*
X175653479Y-133753481D01*
X175147197Y-134091767D01*
X174507552Y-134219000D01*
X142092448Y-134219000D01*
X141261461Y-134053707D01*
X140592966Y-133607033D01*
X140146294Y-132938541D01*
X139972718Y-132065916D01*
X139902332Y-131712060D01*
X150167545Y-131712060D01*
X150250884Y-131965953D01*
X150815306Y-132171590D01*
X151415458Y-132145579D01*
X151849116Y-131965953D01*
X151932455Y-131712060D01*
X151050000Y-130829605D01*
X150167545Y-131712060D01*
X139902332Y-131712060D01*
X139782417Y-131109207D01*
X139718062Y-130953840D01*
X139358225Y-130415306D01*
X149528410Y-130415306D01*
X149554421Y-131015458D01*
X149734047Y-131449116D01*
X149987940Y-131532455D01*
X150870395Y-130650000D01*
X149987940Y-129767545D01*
X149734047Y-129850884D01*
X149528410Y-130415306D01*
X139358225Y-130415306D01*
X139176130Y-130142782D01*
X139057218Y-130023869D01*
X138404804Y-129587940D01*
X150167545Y-129587940D01*
X151050000Y-130470395D01*
X151932455Y-129587940D01*
X151849116Y-129334047D01*
X151284694Y-129128410D01*
X150684542Y-129154421D01*
X150250884Y-129334047D01*
X150167545Y-129587940D01*
X138404804Y-129587940D01*
X138246160Y-129481938D01*
X138090793Y-129417582D01*
X138090788Y-129417582D01*
X137134084Y-129227282D01*
X137091636Y-129227282D01*
X137050000Y-129219000D01*
X132749275Y-129219000D01*
X132787542Y-129067147D01*
X132050000Y-128329605D01*
X131312458Y-129067147D01*
X131350725Y-129219000D01*
X128092448Y-129219000D01*
X128026993Y-129205980D01*
X128259130Y-129206183D01*
X128647394Y-129045755D01*
X128944711Y-128748957D01*
X129050060Y-128495248D01*
X129154245Y-128747394D01*
X129451043Y-129044711D01*
X129839027Y-129205816D01*
X130259130Y-129206183D01*
X130647394Y-129045755D01*
X130889455Y-128804116D01*
X130899672Y-128828781D01*
X131132853Y-128887542D01*
X131870395Y-128150000D01*
X131132853Y-127412458D01*
X130899672Y-127471219D01*
X130890543Y-127497297D01*
X130648957Y-127255289D01*
X130395248Y-127149940D01*
X130647394Y-127045755D01*
X130944711Y-126748957D01*
X131050060Y-126495248D01*
X131154245Y-126747394D01*
X131395884Y-126989455D01*
X131371219Y-126999672D01*
X131312458Y-127232853D01*
X132050000Y-127970395D01*
X132787542Y-127232853D01*
X132728781Y-126999672D01*
X132702703Y-126990543D01*
X132944711Y-126748957D01*
X133050060Y-126495248D01*
X133154245Y-126747394D01*
X133451043Y-127044711D01*
X133704752Y-127150060D01*
X133452606Y-127254245D01*
X133210545Y-127495884D01*
X133200328Y-127471219D01*
X132967147Y-127412458D01*
X132229605Y-128150000D01*
X132967147Y-128887542D01*
X133200328Y-128828781D01*
X133209457Y-128802703D01*
X133451043Y-129044711D01*
X133839027Y-129205816D01*
X134259130Y-129206183D01*
X134647394Y-129045755D01*
X134944711Y-128748957D01*
X135050060Y-128495248D01*
X135154245Y-128747394D01*
X135451043Y-129044711D01*
X135839027Y-129205816D01*
X136259130Y-129206183D01*
X136647394Y-129045755D01*
X136944711Y-128748957D01*
X137105816Y-128360973D01*
X137106183Y-127940870D01*
X136945755Y-127552606D01*
X136704116Y-127310545D01*
X136728781Y-127300328D01*
X136787542Y-127067147D01*
X136050000Y-126329605D01*
X135312458Y-127067147D01*
X135371219Y-127300328D01*
X135397297Y-127309457D01*
X135155289Y-127551043D01*
X135049940Y-127804752D01*
X134945755Y-127552606D01*
X134648957Y-127255289D01*
X134395248Y-127149940D01*
X134647394Y-127045755D01*
X134889455Y-126804116D01*
X134899672Y-126828781D01*
X135132853Y-126887542D01*
X135870395Y-126150000D01*
X136229605Y-126150000D01*
X136967147Y-126887542D01*
X137200328Y-126828781D01*
X137372522Y-126336900D01*
X137343375Y-125816566D01*
X137200328Y-125471219D01*
X136967147Y-125412458D01*
X136229605Y-126150000D01*
X135870395Y-126150000D01*
X135132853Y-125412458D01*
X134899672Y-125471219D01*
X134890543Y-125497297D01*
X134648957Y-125255289D01*
X134395248Y-125149940D01*
X134647394Y-125045755D01*
X134944711Y-124748957D01*
X135050060Y-124495248D01*
X135154245Y-124747394D01*
X135395884Y-124989455D01*
X135371219Y-124999672D01*
X135312458Y-125232853D01*
X136050000Y-125970395D01*
X136787542Y-125232853D01*
X136728781Y-124999672D01*
X136702703Y-124990543D01*
X136944711Y-124748957D01*
X137105816Y-124360973D01*
X137106183Y-123940870D01*
X136945755Y-123552606D01*
X136648957Y-123255289D01*
X136395248Y-123149940D01*
X136647394Y-123045755D01*
X136944711Y-122748957D01*
X137105816Y-122360973D01*
X137106183Y-121940870D01*
X136945755Y-121552606D01*
X136704116Y-121310545D01*
X136728781Y-121300328D01*
X136787542Y-121067147D01*
X136050000Y-120329605D01*
X135312458Y-121067147D01*
X135371219Y-121300328D01*
X135397297Y-121309457D01*
X135210545Y-121495884D01*
X135200328Y-121471219D01*
X134967147Y-121412458D01*
X134229605Y-122150000D01*
X134967147Y-122887542D01*
X135200328Y-122828781D01*
X135209457Y-122802703D01*
X135451043Y-123044711D01*
X135704752Y-123150060D01*
X135452606Y-123254245D01*
X135155289Y-123551043D01*
X135049940Y-123804752D01*
X134945755Y-123552606D01*
X134704116Y-123310545D01*
X134728781Y-123300328D01*
X134787542Y-123067147D01*
X134050000Y-122329605D01*
X133312458Y-123067147D01*
X133371219Y-123300328D01*
X133397297Y-123309457D01*
X133155289Y-123551043D01*
X133049940Y-123804752D01*
X132945755Y-123552606D01*
X132648957Y-123255289D01*
X132395248Y-123149940D01*
X132647394Y-123045755D01*
X132889455Y-122804116D01*
X132899672Y-122828781D01*
X133132853Y-122887542D01*
X133870395Y-122150000D01*
X133132853Y-121412458D01*
X132899672Y-121471219D01*
X132890543Y-121497297D01*
X132648957Y-121255289D01*
X132395248Y-121149940D01*
X132647394Y-121045755D01*
X132944711Y-120748957D01*
X133050060Y-120495248D01*
X133154245Y-120747394D01*
X133395884Y-120989455D01*
X133371219Y-120999672D01*
X133312458Y-121232853D01*
X134050000Y-121970395D01*
X134787542Y-121232853D01*
X134728781Y-120999672D01*
X134702703Y-120990543D01*
X134889455Y-120804116D01*
X134899672Y-120828781D01*
X135132853Y-120887542D01*
X135870395Y-120150000D01*
X135856253Y-120135858D01*
X136035858Y-119956253D01*
X136050000Y-119970395D01*
X136064143Y-119956253D01*
X136243748Y-120135858D01*
X136229605Y-120150000D01*
X136967147Y-120887542D01*
X137200328Y-120828781D01*
X137372522Y-120336900D01*
X137345891Y-119861483D01*
X138117205Y-120632797D01*
X138281363Y-120742484D01*
X138475001Y-120781001D01*
X146768054Y-120781001D01*
X146938742Y-120951986D01*
X147188947Y-121055881D01*
X147459866Y-121056117D01*
X147710253Y-120952660D01*
X147901988Y-120761258D01*
X148002530Y-120519128D01*
X149560829Y-118960829D01*
X149686774Y-118772339D01*
X149731000Y-118550000D01*
X149731000Y-118226595D01*
X149830882Y-117986054D01*
X149831118Y-117715135D01*
X149727661Y-117464748D01*
X149536259Y-117273013D01*
X149286054Y-117169118D01*
X149015135Y-117168882D01*
X148764748Y-117272339D01*
X148573013Y-117463741D01*
X148469118Y-117713946D01*
X148468882Y-117984865D01*
X148569000Y-118227171D01*
X148569000Y-118309342D01*
X147482024Y-119396318D01*
X147427661Y-119264748D01*
X147347859Y-119184807D01*
X147317483Y-119032098D01*
X147207796Y-118867940D01*
X146732049Y-118392193D01*
X146567891Y-118282506D01*
X146374253Y-118243989D01*
X138289615Y-118243989D01*
X136858391Y-116835127D01*
X136944711Y-116748957D01*
X137105816Y-116360973D01*
X137106183Y-115940870D01*
X136945755Y-115552606D01*
X136704116Y-115310545D01*
X136728781Y-115300328D01*
X136787542Y-115067147D01*
X136050000Y-114329605D01*
X135312458Y-115067147D01*
X135371219Y-115300328D01*
X135397297Y-115309457D01*
X135210545Y-115495884D01*
X135200328Y-115471219D01*
X134967147Y-115412458D01*
X134229605Y-116150000D01*
X134243748Y-116164143D01*
X134064143Y-116343748D01*
X134050000Y-116329605D01*
X134035858Y-116343748D01*
X133856253Y-116164143D01*
X133870395Y-116150000D01*
X133132853Y-115412458D01*
X132899672Y-115471219D01*
X132890543Y-115497297D01*
X132648957Y-115255289D01*
X132395248Y-115149940D01*
X132647394Y-115045755D01*
X132944711Y-114748957D01*
X133050060Y-114495248D01*
X133154245Y-114747394D01*
X133395884Y-114989455D01*
X133371219Y-114999672D01*
X133312458Y-115232853D01*
X134050000Y-115970395D01*
X134787542Y-115232853D01*
X134728781Y-114999672D01*
X134702703Y-114990543D01*
X134889455Y-114804116D01*
X134899672Y-114828781D01*
X135132853Y-114887542D01*
X135870395Y-114150000D01*
X135856253Y-114135858D01*
X136035858Y-113956253D01*
X136050000Y-113970395D01*
X136064143Y-113956253D01*
X136243748Y-114135858D01*
X136229605Y-114150000D01*
X136967147Y-114887542D01*
X137200328Y-114828781D01*
X137372522Y-114336900D01*
X137343375Y-113816566D01*
X137256156Y-113606001D01*
X137274999Y-113606001D01*
X137459070Y-113569387D01*
X137615117Y-113465119D01*
X137624236Y-113456000D01*
X146892877Y-113456000D01*
X146963741Y-113526987D01*
X147213946Y-113630882D01*
X147484865Y-113631118D01*
X147735252Y-113527661D01*
X147926987Y-113336259D01*
X148027529Y-113094129D01*
X149560829Y-111560829D01*
X149686774Y-111372339D01*
X149731000Y-111150000D01*
X149731000Y-110726595D01*
X149830882Y-110486054D01*
X149831118Y-110215135D01*
X149727661Y-109964748D01*
X149536259Y-109773013D01*
X149286054Y-109669118D01*
X149015135Y-109668882D01*
X148764748Y-109772339D01*
X148573013Y-109963741D01*
X148469118Y-110213946D01*
X148468882Y-110484865D01*
X148569000Y-110727171D01*
X148569000Y-110909342D01*
X147511262Y-111967080D01*
X147427661Y-111764748D01*
X147236259Y-111573013D01*
X146986054Y-111469118D01*
X146715135Y-111468882D01*
X146464748Y-111572339D01*
X146392962Y-111644000D01*
X137667239Y-111644000D01*
X136858378Y-110835140D01*
X136944711Y-110748957D01*
X137105816Y-110360973D01*
X137106183Y-109940870D01*
X136945755Y-109552606D01*
X136704116Y-109310545D01*
X136728781Y-109300328D01*
X136787542Y-109067147D01*
X136050000Y-108329605D01*
X135312458Y-109067147D01*
X135371219Y-109300328D01*
X135397297Y-109309457D01*
X135210545Y-109495884D01*
X135200328Y-109471219D01*
X134967147Y-109412458D01*
X134229605Y-110150000D01*
X134243748Y-110164143D01*
X134064143Y-110343748D01*
X134050000Y-110329605D01*
X134035858Y-110343748D01*
X133856253Y-110164143D01*
X133870395Y-110150000D01*
X133132853Y-109412458D01*
X132899672Y-109471219D01*
X132890543Y-109497297D01*
X132648957Y-109255289D01*
X132395248Y-109149940D01*
X132647394Y-109045755D01*
X132944711Y-108748957D01*
X133050060Y-108495248D01*
X133154245Y-108747394D01*
X133395884Y-108989455D01*
X133371219Y-108999672D01*
X133312458Y-109232853D01*
X134050000Y-109970395D01*
X134787542Y-109232853D01*
X134728781Y-108999672D01*
X134702703Y-108990543D01*
X134889455Y-108804116D01*
X134899672Y-108828781D01*
X135132853Y-108887542D01*
X135870395Y-108150000D01*
X136229605Y-108150000D01*
X136967147Y-108887542D01*
X137200328Y-108828781D01*
X137372522Y-108336900D01*
X137343375Y-107816566D01*
X137200328Y-107471219D01*
X136967147Y-107412458D01*
X136229605Y-108150000D01*
X135870395Y-108150000D01*
X135132853Y-107412458D01*
X134899672Y-107471219D01*
X134890543Y-107497297D01*
X134648957Y-107255289D01*
X134395248Y-107149940D01*
X134647394Y-107045755D01*
X134944711Y-106748957D01*
X135050060Y-106495248D01*
X135154245Y-106747394D01*
X135395884Y-106989455D01*
X135371219Y-106999672D01*
X135312458Y-107232853D01*
X136050000Y-107970395D01*
X136787542Y-107232853D01*
X136728781Y-106999672D01*
X136702703Y-106990543D01*
X136944711Y-106748957D01*
X137105816Y-106360973D01*
X137106183Y-105940870D01*
X136945755Y-105552606D01*
X136648957Y-105255289D01*
X136395248Y-105149940D01*
X136647394Y-105045755D01*
X136944711Y-104748957D01*
X137105816Y-104360973D01*
X137106183Y-103940870D01*
X136945755Y-103552606D01*
X136648957Y-103255289D01*
X136395248Y-103149940D01*
X136647394Y-103045755D01*
X136944711Y-102748957D01*
X137105816Y-102360973D01*
X137106183Y-101940870D01*
X136945755Y-101552606D01*
X136648957Y-101255289D01*
X136395248Y-101149940D01*
X136647394Y-101045755D01*
X136944711Y-100748957D01*
X137105816Y-100360973D01*
X137106107Y-100027765D01*
X139268964Y-102190622D01*
X139268864Y-102304669D01*
X139387514Y-102591823D01*
X139607021Y-102811714D01*
X139893968Y-102930864D01*
X140009307Y-102930965D01*
X145568964Y-108490622D01*
X145568864Y-108604669D01*
X145687514Y-108891823D01*
X145907021Y-109111714D01*
X146193968Y-109230864D01*
X146504669Y-109231136D01*
X146791823Y-109112486D01*
X147011714Y-108892979D01*
X147130864Y-108606032D01*
X147131136Y-108295331D01*
X147012486Y-108008177D01*
X146792979Y-107788286D01*
X146506032Y-107669136D01*
X146390693Y-107669035D01*
X140831036Y-102109378D01*
X140831136Y-101995331D01*
X140712486Y-101708177D01*
X140492979Y-101488286D01*
X140206032Y-101369136D01*
X140090693Y-101369035D01*
X137452658Y-98731000D01*
X138850000Y-98731000D01*
X139072339Y-98686774D01*
X139260829Y-98560829D01*
X140560829Y-97260829D01*
X140686774Y-97072339D01*
X140731000Y-96850000D01*
X140731000Y-93773552D01*
X140811714Y-93692979D01*
X140930864Y-93406032D01*
X140931136Y-93095331D01*
X140812486Y-92808177D01*
X140592979Y-92588286D01*
X140306032Y-92469136D01*
X139995331Y-92468864D01*
X139708177Y-92587514D01*
X139488286Y-92807021D01*
X139369136Y-93093968D01*
X139368864Y-93404669D01*
X139487514Y-93691823D01*
X139569000Y-93773452D01*
X139569000Y-96609342D01*
X138609342Y-97569000D01*
X136952529Y-97569000D01*
X136945755Y-97552606D01*
X136648957Y-97255289D01*
X136395248Y-97149940D01*
X136647394Y-97045755D01*
X136944711Y-96748957D01*
X137105816Y-96360973D01*
X137106183Y-95940870D01*
X136967817Y-95606001D01*
X137574999Y-95606001D01*
X137759070Y-95569387D01*
X137915117Y-95465119D01*
X138449324Y-94930912D01*
X138704669Y-94931136D01*
X138991823Y-94812486D01*
X139211714Y-94592979D01*
X139330864Y-94306032D01*
X139331136Y-93995331D01*
X139212486Y-93708177D01*
X139131000Y-93626548D01*
X139131000Y-80890658D01*
X139768909Y-80252749D01*
X139768864Y-80304669D01*
X139887514Y-80591823D01*
X139969000Y-80673452D01*
X139969000Y-88050000D01*
X140013226Y-88272339D01*
X140139171Y-88460829D01*
X145769171Y-94090829D01*
X145957661Y-94216774D01*
X146180000Y-94261000D01*
X146445051Y-94261000D01*
X146453103Y-94303790D01*
X146459196Y-94313259D01*
X146457141Y-94316266D01*
X146426536Y-94467400D01*
X146426536Y-95432600D01*
X146453103Y-95573790D01*
X146459196Y-95583259D01*
X146457141Y-95586266D01*
X146426536Y-95737400D01*
X146426536Y-95951806D01*
X146109378Y-96268964D01*
X145995331Y-96268864D01*
X145708177Y-96387514D01*
X145488286Y-96607021D01*
X145369136Y-96893968D01*
X145368864Y-97204669D01*
X145487514Y-97491823D01*
X145707021Y-97711714D01*
X145993968Y-97830864D01*
X146304669Y-97831136D01*
X146591823Y-97712486D01*
X146811714Y-97492979D01*
X146930864Y-97206032D01*
X146930965Y-97091064D01*
X148085000Y-97091064D01*
X148226190Y-97064497D01*
X148355865Y-96981054D01*
X148442859Y-96853734D01*
X148473464Y-96702600D01*
X148473464Y-95737400D01*
X148446897Y-95596210D01*
X148440804Y-95586741D01*
X148442859Y-95583734D01*
X148453538Y-95531000D01*
X151750000Y-95531000D01*
X151779949Y-95525043D01*
X151793968Y-95530864D01*
X152104669Y-95531136D01*
X152391823Y-95412486D01*
X152611714Y-95192979D01*
X152730864Y-94906032D01*
X152731136Y-94595331D01*
X152612486Y-94308177D01*
X152565391Y-94261000D01*
X157425716Y-94261000D01*
X157593968Y-94330864D01*
X157709307Y-94330965D01*
X160399000Y-97020658D01*
X160399000Y-107545051D01*
X160356210Y-107553103D01*
X160226535Y-107636546D01*
X160139541Y-107763866D01*
X160108936Y-107915000D01*
X160108936Y-109185000D01*
X160135503Y-109326190D01*
X160218946Y-109455865D01*
X160259659Y-109483683D01*
X160039170Y-109704172D01*
X159913225Y-109892662D01*
X159868999Y-110115001D01*
X159868999Y-114484999D01*
X159913225Y-114707338D01*
X160039170Y-114895828D01*
X160258998Y-115115656D01*
X160226535Y-115136546D01*
X160139541Y-115263866D01*
X160108936Y-115415000D01*
X160108936Y-116685000D01*
X160135503Y-116826190D01*
X160218946Y-116955865D01*
X160259659Y-116983683D01*
X160039170Y-117204172D01*
X159913225Y-117392662D01*
X159868999Y-117615001D01*
X159868999Y-121984999D01*
X159913225Y-122207338D01*
X160039170Y-122395828D01*
X160258998Y-122615656D01*
X160226535Y-122636546D01*
X160139541Y-122763866D01*
X160108936Y-122915000D01*
X160108936Y-124004001D01*
X152925659Y-124004001D01*
X152481079Y-123559421D01*
X152481126Y-123505233D01*
X152370073Y-123236463D01*
X152164619Y-123030650D01*
X151896043Y-122919127D01*
X151605233Y-122918874D01*
X151336463Y-123029927D01*
X151130650Y-123235381D01*
X151019127Y-123503957D01*
X151018874Y-123794767D01*
X151129927Y-124063537D01*
X151335381Y-124269350D01*
X151603957Y-124380873D01*
X151659263Y-124380921D01*
X152274172Y-124995830D01*
X152462662Y-125121775D01*
X152685001Y-125166001D01*
X161782601Y-125166001D01*
X161971724Y-125128382D01*
X164404171Y-127560829D01*
X164592661Y-127686774D01*
X164815000Y-127731000D01*
X171084342Y-127731000D01*
X172739878Y-129386536D01*
X172675000Y-129386536D01*
X172533810Y-129413103D01*
X172404135Y-129496546D01*
X172317141Y-129623866D01*
X172286536Y-129775000D01*
X172286536Y-130353630D01*
X172115405Y-129939463D01*
X171762396Y-129585836D01*
X171300930Y-129394219D01*
X170801262Y-129393783D01*
X170339463Y-129584595D01*
X169985836Y-129937604D01*
X169799779Y-130385680D01*
X169615405Y-129939463D01*
X169262396Y-129585836D01*
X168800930Y-129394219D01*
X168301262Y-129393783D01*
X167839463Y-129584595D01*
X167485836Y-129937604D01*
X167299779Y-130385680D01*
X167115405Y-129939463D01*
X166762396Y-129585836D01*
X166300930Y-129394219D01*
X165801262Y-129393783D01*
X165339463Y-129584595D01*
X164985836Y-129937604D01*
X164799779Y-130385680D01*
X164615405Y-129939463D01*
X164262396Y-129585836D01*
X163800930Y-129394219D01*
X163301262Y-129393783D01*
X162839463Y-129584595D01*
X162485836Y-129937604D01*
X162299779Y-130385680D01*
X162115405Y-129939463D01*
X161762396Y-129585836D01*
X161300930Y-129394219D01*
X160801262Y-129393783D01*
X160339463Y-129584595D01*
X159985836Y-129937604D01*
X159799779Y-130385680D01*
X159615405Y-129939463D01*
X159262396Y-129585836D01*
X158800930Y-129394219D01*
X158301262Y-129393783D01*
X157839463Y-129584595D01*
X157485836Y-129937604D01*
X157299779Y-130385680D01*
X157115405Y-129939463D01*
X156762396Y-129585836D01*
X156300930Y-129394219D01*
X155801262Y-129393783D01*
X155339463Y-129584595D01*
X154985836Y-129937604D01*
X154799779Y-130385680D01*
X154615405Y-129939463D01*
X154262396Y-129585836D01*
X153800930Y-129394219D01*
X153301262Y-129393783D01*
X152839463Y-129584595D01*
X152485836Y-129937604D01*
X152443803Y-130038831D01*
X152365953Y-129850884D01*
X152112060Y-129767545D01*
X151229605Y-130650000D01*
X152112060Y-131532455D01*
X152365953Y-131449116D01*
X152438696Y-131249454D01*
X152484595Y-131360537D01*
X152837604Y-131714164D01*
X153299070Y-131905781D01*
X153798738Y-131906217D01*
X154260537Y-131715405D01*
X154614164Y-131362396D01*
X154800221Y-130914320D01*
X154984595Y-131360537D01*
X155337604Y-131714164D01*
X155799070Y-131905781D01*
X156298738Y-131906217D01*
X156760537Y-131715405D01*
X157114164Y-131362396D01*
X157300221Y-130914320D01*
X157484595Y-131360537D01*
X157837604Y-131714164D01*
X158299070Y-131905781D01*
X158798738Y-131906217D01*
X159260537Y-131715405D01*
X159614164Y-131362396D01*
X159800221Y-130914320D01*
X159984595Y-131360537D01*
X160337604Y-131714164D01*
X160799070Y-131905781D01*
X161298738Y-131906217D01*
X161760537Y-131715405D01*
X162114164Y-131362396D01*
X162300221Y-130914320D01*
X162484595Y-131360537D01*
X162837604Y-131714164D01*
X163299070Y-131905781D01*
X163798738Y-131906217D01*
X164260537Y-131715405D01*
X164614164Y-131362396D01*
X164800221Y-130914320D01*
X164984595Y-131360537D01*
X165337604Y-131714164D01*
X165799070Y-131905781D01*
X166298738Y-131906217D01*
X166760537Y-131715405D01*
X167114164Y-131362396D01*
X167300221Y-130914320D01*
X167484595Y-131360537D01*
X167837604Y-131714164D01*
X168299070Y-131905781D01*
X168798738Y-131906217D01*
X169260537Y-131715405D01*
X169614164Y-131362396D01*
X169800221Y-130914320D01*
X169984595Y-131360537D01*
X170337604Y-131714164D01*
X170799070Y-131905781D01*
X171298738Y-131906217D01*
X171760537Y-131715405D01*
X172114164Y-131362396D01*
X172286536Y-130947277D01*
X172286536Y-131525000D01*
X172313103Y-131666190D01*
X172396546Y-131795865D01*
X172523866Y-131882859D01*
X172675000Y-131913464D01*
X174425000Y-131913464D01*
X174566190Y-131886897D01*
X174695865Y-131803454D01*
X174782859Y-131676134D01*
X174813464Y-131525000D01*
X174813464Y-129775000D01*
X174786897Y-129633810D01*
X174703454Y-129504135D01*
X174576134Y-129417141D01*
X174425000Y-129386536D01*
X174131000Y-129386536D01*
X174131000Y-129375000D01*
X174086774Y-129152661D01*
X173960829Y-128964171D01*
X171735829Y-126739171D01*
X171547339Y-126613226D01*
X171325000Y-126569000D01*
X165055658Y-126569000D01*
X163060122Y-124573464D01*
X164002600Y-124573464D01*
X164143790Y-124546897D01*
X164273465Y-124463454D01*
X164360459Y-124336134D01*
X164391064Y-124185000D01*
X164391064Y-122915000D01*
X164364497Y-122773810D01*
X164281054Y-122644135D01*
X164153734Y-122557141D01*
X164101000Y-122546462D01*
X164101000Y-117054949D01*
X164143790Y-117046897D01*
X164255521Y-116975000D01*
X164786536Y-116975000D01*
X164786536Y-118725000D01*
X164813103Y-118866190D01*
X164896546Y-118995865D01*
X165023866Y-119082859D01*
X165175000Y-119113464D01*
X166925000Y-119113464D01*
X167066190Y-119086897D01*
X167195865Y-119003454D01*
X167282859Y-118876134D01*
X167313464Y-118725000D01*
X167313464Y-118146370D01*
X167484595Y-118560537D01*
X167837604Y-118914164D01*
X168299070Y-119105781D01*
X168798738Y-119106217D01*
X169260537Y-118915405D01*
X169614164Y-118562396D01*
X169800221Y-118114320D01*
X169984595Y-118560537D01*
X170337604Y-118914164D01*
X170799070Y-119105781D01*
X171298738Y-119106217D01*
X171760537Y-118915405D01*
X171763887Y-118912060D01*
X172667545Y-118912060D01*
X172750884Y-119165953D01*
X173315306Y-119371590D01*
X173915458Y-119345579D01*
X174349116Y-119165953D01*
X174432455Y-118912060D01*
X173550000Y-118029605D01*
X172667545Y-118912060D01*
X171763887Y-118912060D01*
X172114164Y-118562396D01*
X172156197Y-118461169D01*
X172234047Y-118649116D01*
X172487940Y-118732455D01*
X173370395Y-117850000D01*
X173729605Y-117850000D01*
X174612060Y-118732455D01*
X174865953Y-118649116D01*
X175071590Y-118084694D01*
X175045579Y-117484542D01*
X174865953Y-117050884D01*
X174612060Y-116967545D01*
X173729605Y-117850000D01*
X173370395Y-117850000D01*
X172487940Y-116967545D01*
X172234047Y-117050884D01*
X172161304Y-117250546D01*
X172115405Y-117139463D01*
X171764497Y-116787940D01*
X172667545Y-116787940D01*
X173550000Y-117670395D01*
X174432455Y-116787940D01*
X174349116Y-116534047D01*
X173784694Y-116328410D01*
X173184542Y-116354421D01*
X172750884Y-116534047D01*
X172667545Y-116787940D01*
X171764497Y-116787940D01*
X171762396Y-116785836D01*
X171300930Y-116594219D01*
X170801262Y-116593783D01*
X170339463Y-116784595D01*
X169985836Y-117137604D01*
X169799779Y-117585680D01*
X169615405Y-117139463D01*
X169262396Y-116785836D01*
X168800930Y-116594219D01*
X168301262Y-116593783D01*
X167839463Y-116784595D01*
X167485836Y-117137604D01*
X167313464Y-117552723D01*
X167313464Y-116975000D01*
X167286897Y-116833810D01*
X167203454Y-116704135D01*
X167076134Y-116617141D01*
X166925000Y-116586536D01*
X165175000Y-116586536D01*
X165033810Y-116613103D01*
X164904135Y-116696546D01*
X164817141Y-116823866D01*
X164786536Y-116975000D01*
X164255521Y-116975000D01*
X164273465Y-116963454D01*
X164360459Y-116836134D01*
X164391064Y-116685000D01*
X164391064Y-115415000D01*
X164364497Y-115273810D01*
X164281054Y-115144135D01*
X164153734Y-115057141D01*
X164101000Y-115046462D01*
X164101000Y-109554949D01*
X164143790Y-109546897D01*
X164255521Y-109475000D01*
X164786536Y-109475000D01*
X164786536Y-111225000D01*
X164813103Y-111366190D01*
X164896546Y-111495865D01*
X165023866Y-111582859D01*
X165175000Y-111613464D01*
X166925000Y-111613464D01*
X167066190Y-111586897D01*
X167195865Y-111503454D01*
X167282859Y-111376134D01*
X167313464Y-111225000D01*
X167313464Y-110646370D01*
X167484595Y-111060537D01*
X167837604Y-111414164D01*
X168299070Y-111605781D01*
X168798738Y-111606217D01*
X169260537Y-111415405D01*
X169614164Y-111062396D01*
X169800221Y-110614320D01*
X169984595Y-111060537D01*
X170337604Y-111414164D01*
X170799070Y-111605781D01*
X171298738Y-111606217D01*
X171760537Y-111415405D01*
X171763887Y-111412060D01*
X172667545Y-111412060D01*
X172750884Y-111665953D01*
X173315306Y-111871590D01*
X173915458Y-111845579D01*
X174349116Y-111665953D01*
X174432455Y-111412060D01*
X173550000Y-110529605D01*
X172667545Y-111412060D01*
X171763887Y-111412060D01*
X172114164Y-111062396D01*
X172156197Y-110961169D01*
X172234047Y-111149116D01*
X172487940Y-111232455D01*
X173370395Y-110350000D01*
X173729605Y-110350000D01*
X174612060Y-111232455D01*
X174865953Y-111149116D01*
X175071590Y-110584694D01*
X175045579Y-109984542D01*
X174865953Y-109550884D01*
X174612060Y-109467545D01*
X173729605Y-110350000D01*
X173370395Y-110350000D01*
X172487940Y-109467545D01*
X172234047Y-109550884D01*
X172161304Y-109750546D01*
X172115405Y-109639463D01*
X171764497Y-109287940D01*
X172667545Y-109287940D01*
X173550000Y-110170395D01*
X174432455Y-109287940D01*
X174349116Y-109034047D01*
X173784694Y-108828410D01*
X173184542Y-108854421D01*
X172750884Y-109034047D01*
X172667545Y-109287940D01*
X171764497Y-109287940D01*
X171762396Y-109285836D01*
X171300930Y-109094219D01*
X170801262Y-109093783D01*
X170339463Y-109284595D01*
X169985836Y-109637604D01*
X169799779Y-110085680D01*
X169615405Y-109639463D01*
X169262396Y-109285836D01*
X168800930Y-109094219D01*
X168301262Y-109093783D01*
X167839463Y-109284595D01*
X167485836Y-109637604D01*
X167313464Y-110052723D01*
X167313464Y-109475000D01*
X167286897Y-109333810D01*
X167203454Y-109204135D01*
X167076134Y-109117141D01*
X166925000Y-109086536D01*
X165175000Y-109086536D01*
X165033810Y-109113103D01*
X164904135Y-109196546D01*
X164817141Y-109323866D01*
X164786536Y-109475000D01*
X164255521Y-109475000D01*
X164273465Y-109463454D01*
X164360459Y-109336134D01*
X164391064Y-109185000D01*
X164391064Y-107915000D01*
X164364497Y-107773810D01*
X164281054Y-107644135D01*
X164153734Y-107557141D01*
X164101000Y-107546462D01*
X164101000Y-101975000D01*
X164786536Y-101975000D01*
X164786536Y-103725000D01*
X164813103Y-103866190D01*
X164896546Y-103995865D01*
X165023866Y-104082859D01*
X165175000Y-104113464D01*
X166925000Y-104113464D01*
X167066190Y-104086897D01*
X167195865Y-104003454D01*
X167282859Y-103876134D01*
X167313464Y-103725000D01*
X167313464Y-103146370D01*
X167484595Y-103560537D01*
X167837604Y-103914164D01*
X168299070Y-104105781D01*
X168798738Y-104106217D01*
X169260537Y-103915405D01*
X169614164Y-103562396D01*
X169800221Y-103114320D01*
X169984595Y-103560537D01*
X170337604Y-103914164D01*
X170799070Y-104105781D01*
X171298738Y-104106217D01*
X171760537Y-103915405D01*
X171763887Y-103912060D01*
X172667545Y-103912060D01*
X172750884Y-104165953D01*
X173315306Y-104371590D01*
X173915458Y-104345579D01*
X174349116Y-104165953D01*
X174432455Y-103912060D01*
X173550000Y-103029605D01*
X172667545Y-103912060D01*
X171763887Y-103912060D01*
X172114164Y-103562396D01*
X172156197Y-103461169D01*
X172234047Y-103649116D01*
X172487940Y-103732455D01*
X173370395Y-102850000D01*
X173729605Y-102850000D01*
X174612060Y-103732455D01*
X174865953Y-103649116D01*
X175071590Y-103084694D01*
X175045579Y-102484542D01*
X174865953Y-102050884D01*
X174612060Y-101967545D01*
X173729605Y-102850000D01*
X173370395Y-102850000D01*
X172487940Y-101967545D01*
X172234047Y-102050884D01*
X172161304Y-102250546D01*
X172115405Y-102139463D01*
X171764497Y-101787940D01*
X172667545Y-101787940D01*
X173550000Y-102670395D01*
X174432455Y-101787940D01*
X174349116Y-101534047D01*
X173784694Y-101328410D01*
X173184542Y-101354421D01*
X172750884Y-101534047D01*
X172667545Y-101787940D01*
X171764497Y-101787940D01*
X171762396Y-101785836D01*
X171300930Y-101594219D01*
X170801262Y-101593783D01*
X170339463Y-101784595D01*
X169985836Y-102137604D01*
X169799779Y-102585680D01*
X169615405Y-102139463D01*
X169262396Y-101785836D01*
X168800930Y-101594219D01*
X168301262Y-101593783D01*
X167839463Y-101784595D01*
X167485836Y-102137604D01*
X167313464Y-102552723D01*
X167313464Y-101975000D01*
X167286897Y-101833810D01*
X167203454Y-101704135D01*
X167076134Y-101617141D01*
X166925000Y-101586536D01*
X165175000Y-101586536D01*
X165033810Y-101613103D01*
X164904135Y-101696546D01*
X164817141Y-101823866D01*
X164786536Y-101975000D01*
X164101000Y-101975000D01*
X164101000Y-96845658D01*
X164786536Y-96160122D01*
X164786536Y-96225000D01*
X164813103Y-96366190D01*
X164896546Y-96495865D01*
X165023866Y-96582859D01*
X165175000Y-96613464D01*
X166925000Y-96613464D01*
X167066190Y-96586897D01*
X167195865Y-96503454D01*
X167282859Y-96376134D01*
X167313464Y-96225000D01*
X167313464Y-95646370D01*
X167484595Y-96060537D01*
X167837604Y-96414164D01*
X168299070Y-96605781D01*
X168798738Y-96606217D01*
X169260537Y-96415405D01*
X169614164Y-96062396D01*
X169800221Y-95614320D01*
X169984595Y-96060537D01*
X170337604Y-96414164D01*
X170799070Y-96605781D01*
X171298738Y-96606217D01*
X171760537Y-96415405D01*
X171763887Y-96412060D01*
X172667545Y-96412060D01*
X172750884Y-96665953D01*
X173315306Y-96871590D01*
X173915458Y-96845579D01*
X174349116Y-96665953D01*
X174432455Y-96412060D01*
X173550000Y-95529605D01*
X172667545Y-96412060D01*
X171763887Y-96412060D01*
X172114164Y-96062396D01*
X172156197Y-95961169D01*
X172234047Y-96149116D01*
X172487940Y-96232455D01*
X173370395Y-95350000D01*
X173729605Y-95350000D01*
X174612060Y-96232455D01*
X174865953Y-96149116D01*
X175071590Y-95584694D01*
X175045579Y-94984542D01*
X174865953Y-94550884D01*
X174612060Y-94467545D01*
X173729605Y-95350000D01*
X173370395Y-95350000D01*
X172487940Y-94467545D01*
X172234047Y-94550884D01*
X172161304Y-94750546D01*
X172115405Y-94639463D01*
X171764497Y-94287940D01*
X172667545Y-94287940D01*
X173550000Y-95170395D01*
X174432455Y-94287940D01*
X174349116Y-94034047D01*
X173784694Y-93828410D01*
X173184542Y-93854421D01*
X172750884Y-94034047D01*
X172667545Y-94287940D01*
X171764497Y-94287940D01*
X171762396Y-94285836D01*
X171300930Y-94094219D01*
X170801262Y-94093783D01*
X170339463Y-94284595D01*
X169985836Y-94637604D01*
X169799779Y-95085680D01*
X169615405Y-94639463D01*
X169262396Y-94285836D01*
X168800930Y-94094219D01*
X168301262Y-94093783D01*
X167839463Y-94284595D01*
X167485836Y-94637604D01*
X167313464Y-95052723D01*
X167313464Y-94475000D01*
X167286897Y-94333810D01*
X167203454Y-94204135D01*
X167076134Y-94117141D01*
X166925000Y-94086536D01*
X165175000Y-94086536D01*
X165033810Y-94113103D01*
X164904135Y-94196546D01*
X164817141Y-94323866D01*
X164786536Y-94475000D01*
X164786536Y-94769000D01*
X164775000Y-94769000D01*
X164552661Y-94813226D01*
X164364171Y-94939171D01*
X163109171Y-96194171D01*
X162983226Y-96382661D01*
X162939000Y-96605000D01*
X162939000Y-107545051D01*
X162896210Y-107553103D01*
X162886741Y-107559196D01*
X162883734Y-107557141D01*
X162732600Y-107526536D01*
X161767400Y-107526536D01*
X161626210Y-107553103D01*
X161616741Y-107559196D01*
X161613734Y-107557141D01*
X161561000Y-107546462D01*
X161561000Y-96780000D01*
X161516774Y-96557661D01*
X161390829Y-96369171D01*
X158531036Y-93509378D01*
X158531136Y-93395331D01*
X158412486Y-93108177D01*
X158192979Y-92888286D01*
X157906032Y-92769136D01*
X157595331Y-92768864D01*
X157308177Y-92887514D01*
X157096321Y-93099000D01*
X148454949Y-93099000D01*
X148446897Y-93056210D01*
X148363454Y-92926535D01*
X148236134Y-92839541D01*
X148085000Y-92808936D01*
X146815000Y-92808936D01*
X146673810Y-92835503D01*
X146544135Y-92918946D01*
X146457141Y-93046266D01*
X146446462Y-93099000D01*
X146420658Y-93099000D01*
X141131000Y-87809342D01*
X141131000Y-84784865D01*
X146030884Y-84784865D01*
X146134341Y-85035252D01*
X146325743Y-85226987D01*
X146575948Y-85330882D01*
X146641994Y-85330940D01*
X147090228Y-85779173D01*
X146864748Y-85872339D01*
X146673013Y-86063741D01*
X146569118Y-86313946D01*
X146568882Y-86584865D01*
X146672339Y-86835252D01*
X146719000Y-86881994D01*
X146719000Y-88850000D01*
X146759420Y-89053205D01*
X146874526Y-89225474D01*
X147668939Y-90019887D01*
X147668882Y-90084865D01*
X147772339Y-90335252D01*
X147963741Y-90526987D01*
X148213946Y-90630882D01*
X148484865Y-90631118D01*
X148735252Y-90527661D01*
X148926987Y-90336259D01*
X149030882Y-90086054D01*
X149030930Y-90030897D01*
X149268929Y-90031104D01*
X149268882Y-90084865D01*
X149372339Y-90335252D01*
X149563741Y-90526987D01*
X149813946Y-90630882D01*
X150084865Y-90631118D01*
X150335252Y-90527661D01*
X150526987Y-90336259D01*
X150630882Y-90086054D01*
X150631118Y-89815135D01*
X150527661Y-89564748D01*
X150481000Y-89518006D01*
X150481000Y-87888003D01*
X150481001Y-87887998D01*
X150440580Y-87684793D01*
X150325474Y-87512524D01*
X150325471Y-87512522D01*
X148861976Y-86049026D01*
X162842642Y-86049026D01*
X162845291Y-86064791D01*
X163099268Y-86592036D01*
X163535680Y-86981954D01*
X164088087Y-87175184D01*
X164323000Y-87030924D01*
X164323000Y-85817000D01*
X164577000Y-85817000D01*
X164577000Y-87030924D01*
X164811913Y-87175184D01*
X165364320Y-86981954D01*
X165800732Y-86592036D01*
X166054709Y-86064791D01*
X166057358Y-86049026D01*
X165936217Y-85817000D01*
X164577000Y-85817000D01*
X164323000Y-85817000D01*
X162963783Y-85817000D01*
X162842642Y-86049026D01*
X148861976Y-86049026D01*
X148143924Y-85330974D01*
X162842642Y-85330974D01*
X162963783Y-85563000D01*
X164323000Y-85563000D01*
X164323000Y-85543000D01*
X164577000Y-85543000D01*
X164577000Y-85563000D01*
X165936217Y-85563000D01*
X166057358Y-85330974D01*
X166054709Y-85315209D01*
X165800732Y-84787964D01*
X165364320Y-84398046D01*
X165091757Y-84302704D01*
X165106057Y-84299860D01*
X165509834Y-84030065D01*
X165779629Y-83626288D01*
X165874369Y-83150000D01*
X165779629Y-82673712D01*
X165509834Y-82269935D01*
X165106057Y-82000140D01*
X164629769Y-81905400D01*
X164270231Y-81905400D01*
X163793943Y-82000140D01*
X163390166Y-82269935D01*
X163120371Y-82673712D01*
X163025631Y-83150000D01*
X163120371Y-83626288D01*
X163390166Y-84030065D01*
X163793943Y-84299860D01*
X163808243Y-84302704D01*
X163535680Y-84398046D01*
X163099268Y-84787964D01*
X162845291Y-85315209D01*
X162842642Y-85330974D01*
X148143924Y-85330974D01*
X147393063Y-84580113D01*
X147393120Y-84515135D01*
X147289663Y-84264748D01*
X147098261Y-84073013D01*
X146848056Y-83969118D01*
X146577137Y-83968882D01*
X146326750Y-84072339D01*
X146135015Y-84263741D01*
X146031120Y-84513946D01*
X146030884Y-84784865D01*
X141131000Y-84784865D01*
X141131000Y-80673552D01*
X141211714Y-80592979D01*
X141240316Y-80524096D01*
X148477294Y-80524096D01*
X148649202Y-80940146D01*
X148967240Y-81258739D01*
X149382989Y-81431373D01*
X149833156Y-81431766D01*
X150249206Y-81259858D01*
X150567799Y-80941820D01*
X150740433Y-80526071D01*
X150740434Y-80524096D01*
X153359174Y-80524096D01*
X153531082Y-80940146D01*
X153849120Y-81258739D01*
X154264869Y-81431373D01*
X154715036Y-81431766D01*
X155131086Y-81259858D01*
X155449679Y-80941820D01*
X155622313Y-80526071D01*
X155622706Y-80075904D01*
X155486559Y-79746400D01*
X163045536Y-79746400D01*
X163045536Y-81473600D01*
X163072103Y-81614790D01*
X163155546Y-81744465D01*
X163282866Y-81831459D01*
X163434000Y-81862064D01*
X165466000Y-81862064D01*
X165607190Y-81835497D01*
X165736865Y-81752054D01*
X165823859Y-81624734D01*
X165854464Y-81473600D01*
X165854464Y-79746400D01*
X165827897Y-79605210D01*
X165744454Y-79475535D01*
X165617134Y-79388541D01*
X165466000Y-79357936D01*
X163434000Y-79357936D01*
X163292810Y-79384503D01*
X163163135Y-79467946D01*
X163076141Y-79595266D01*
X163045536Y-79746400D01*
X155486559Y-79746400D01*
X155450798Y-79659854D01*
X155132760Y-79341261D01*
X154717011Y-79168627D01*
X154266844Y-79168234D01*
X153850794Y-79340142D01*
X153532201Y-79658180D01*
X153359567Y-80073929D01*
X153359174Y-80524096D01*
X150740434Y-80524096D01*
X150740826Y-80075904D01*
X150568918Y-79659854D01*
X150250880Y-79341261D01*
X149835131Y-79168627D01*
X149384964Y-79168234D01*
X148968914Y-79340142D01*
X148650321Y-79658180D01*
X148477687Y-80073929D01*
X148477294Y-80524096D01*
X141240316Y-80524096D01*
X141330864Y-80306032D01*
X141331136Y-79995331D01*
X141212486Y-79708177D01*
X140992979Y-79488286D01*
X140706032Y-79369136D01*
X140652569Y-79369089D01*
X145399027Y-74622631D01*
X166613000Y-74622631D01*
X166613000Y-74677369D01*
X166719340Y-75211978D01*
X167022172Y-75665197D01*
X167475391Y-75968029D01*
X167479000Y-75968747D01*
X167479000Y-79110000D01*
X167519420Y-79313205D01*
X167634526Y-79485474D01*
X170910588Y-82761536D01*
X170500000Y-82761536D01*
X170358810Y-82788103D01*
X170229135Y-82871546D01*
X170142141Y-82998866D01*
X170111536Y-83150000D01*
X170111536Y-85650000D01*
X170138103Y-85791190D01*
X170221546Y-85920865D01*
X170348866Y-86007859D01*
X170500000Y-86038464D01*
X173000000Y-86038464D01*
X173141190Y-86011897D01*
X173270865Y-85928454D01*
X173357859Y-85801134D01*
X173388464Y-85650000D01*
X173388464Y-83150000D01*
X173361897Y-83008810D01*
X173278454Y-82879135D01*
X173151134Y-82792141D01*
X173000000Y-82761536D01*
X172263404Y-82761536D01*
X172240580Y-82646795D01*
X172125474Y-82474526D01*
X169373951Y-79723003D01*
X170118718Y-79723003D01*
X170366499Y-80322680D01*
X170824907Y-80781888D01*
X171424151Y-81030716D01*
X172073003Y-81031282D01*
X172672680Y-80783501D01*
X173131888Y-80325093D01*
X173380716Y-79725849D01*
X173381282Y-79076997D01*
X173133501Y-78477320D01*
X172675093Y-78018112D01*
X172075849Y-77769284D01*
X171426997Y-77768718D01*
X170827320Y-78016499D01*
X170368112Y-78474907D01*
X170119284Y-79074151D01*
X170118718Y-79723003D01*
X169373951Y-79723003D01*
X168541000Y-78890052D01*
X168541000Y-75968747D01*
X168544609Y-75968029D01*
X168997828Y-75665197D01*
X169145536Y-75444137D01*
X169145536Y-75666000D01*
X169172103Y-75807190D01*
X169255546Y-75936865D01*
X169382866Y-76023859D01*
X169534000Y-76054464D01*
X171566000Y-76054464D01*
X171707190Y-76027897D01*
X171836865Y-75944454D01*
X171923859Y-75817134D01*
X171954464Y-75666000D01*
X171954464Y-73634000D01*
X171927897Y-73492810D01*
X171844454Y-73363135D01*
X171717134Y-73276141D01*
X171566000Y-73245536D01*
X169534000Y-73245536D01*
X169392810Y-73272103D01*
X169263135Y-73355546D01*
X169176141Y-73482866D01*
X169145536Y-73634000D01*
X169145536Y-73855863D01*
X168997828Y-73634803D01*
X168544609Y-73331971D01*
X168010000Y-73225631D01*
X167475391Y-73331971D01*
X167022172Y-73634803D01*
X166719340Y-74088022D01*
X166613000Y-74622631D01*
X145399027Y-74622631D01*
X148230829Y-71790829D01*
X148356774Y-71602339D01*
X148401000Y-71380000D01*
X148401000Y-68984865D01*
X154468882Y-68984865D01*
X154569000Y-69227171D01*
X154569000Y-70573405D01*
X154469118Y-70813946D01*
X154468882Y-71084865D01*
X154572339Y-71335252D01*
X154763741Y-71526987D01*
X155013946Y-71630882D01*
X155284865Y-71631118D01*
X155535252Y-71527661D01*
X155726987Y-71336259D01*
X155830882Y-71086054D01*
X155831118Y-70815135D01*
X155731000Y-70572829D01*
X155731000Y-69226595D01*
X155830882Y-68986054D01*
X155831118Y-68715135D01*
X155727661Y-68464748D01*
X155536259Y-68273013D01*
X155286054Y-68169118D01*
X155015135Y-68168882D01*
X154764748Y-68272339D01*
X154573013Y-68463741D01*
X154469118Y-68713946D01*
X154468882Y-68984865D01*
X148401000Y-68984865D01*
X148401000Y-66554949D01*
X148443790Y-66546897D01*
X148573465Y-66463454D01*
X148660459Y-66336134D01*
X148691064Y-66185000D01*
X148691064Y-64915000D01*
X148664497Y-64773810D01*
X148581054Y-64644135D01*
X148453734Y-64557141D01*
X148324644Y-64531000D01*
X152009342Y-64531000D01*
X152331047Y-64852705D01*
X152379907Y-64925829D01*
X155014907Y-67560829D01*
X155203397Y-67686774D01*
X155425736Y-67731000D01*
X155473405Y-67731000D01*
X155705871Y-67827529D01*
X160039172Y-72160830D01*
X160227662Y-72286775D01*
X160450001Y-72331001D01*
X165049999Y-72331001D01*
X165272338Y-72286775D01*
X165460828Y-72160830D01*
X166794536Y-70827122D01*
X167035252Y-70727661D01*
X167226987Y-70536259D01*
X167330882Y-70286054D01*
X167331118Y-70015135D01*
X167272581Y-69873464D01*
X167627839Y-69873464D01*
X167777701Y-70023327D01*
X168011090Y-70120000D01*
X168334250Y-70120000D01*
X168493000Y-69961250D01*
X168493000Y-68977000D01*
X168747000Y-68977000D01*
X168747000Y-69961250D01*
X168905750Y-70120000D01*
X169228910Y-70120000D01*
X169462299Y-70023327D01*
X169640927Y-69844698D01*
X169737600Y-69611309D01*
X169737600Y-69135750D01*
X169578850Y-68977000D01*
X168747000Y-68977000D01*
X168493000Y-68977000D01*
X168473000Y-68977000D01*
X168473000Y-68723000D01*
X168493000Y-68723000D01*
X168493000Y-67738750D01*
X168747000Y-67738750D01*
X168747000Y-68723000D01*
X169578850Y-68723000D01*
X169737600Y-68564250D01*
X169737600Y-68088691D01*
X169640927Y-67855302D01*
X169462299Y-67676673D01*
X169228910Y-67580000D01*
X168905750Y-67580000D01*
X168747000Y-67738750D01*
X168493000Y-67738750D01*
X168334250Y-67580000D01*
X168011090Y-67580000D01*
X167818187Y-67659903D01*
X167817483Y-67656362D01*
X167707796Y-67492204D01*
X167531031Y-67315439D01*
X167531118Y-67215135D01*
X167472581Y-67073464D01*
X167627839Y-67073464D01*
X167777701Y-67223327D01*
X168011090Y-67320000D01*
X168334250Y-67320000D01*
X168493000Y-67161250D01*
X168493000Y-66177000D01*
X168747000Y-66177000D01*
X168747000Y-67161250D01*
X168905750Y-67320000D01*
X169228910Y-67320000D01*
X169462299Y-67223327D01*
X169640927Y-67044698D01*
X169737600Y-66811309D01*
X169737600Y-66335750D01*
X169578850Y-66177000D01*
X168747000Y-66177000D01*
X168493000Y-66177000D01*
X168473000Y-66177000D01*
X168473000Y-65923000D01*
X168493000Y-65923000D01*
X168493000Y-64938750D01*
X168747000Y-64938750D01*
X168747000Y-65923000D01*
X169578850Y-65923000D01*
X169737600Y-65764250D01*
X169737600Y-65288691D01*
X169640927Y-65055302D01*
X169462299Y-64876673D01*
X169228910Y-64780000D01*
X168905750Y-64780000D01*
X168747000Y-64938750D01*
X168493000Y-64938750D01*
X168430890Y-64876640D01*
X168431118Y-64615135D01*
X168374980Y-64479270D01*
X168493000Y-64361250D01*
X168493000Y-63377000D01*
X168747000Y-63377000D01*
X168747000Y-64361250D01*
X168905750Y-64520000D01*
X169228910Y-64520000D01*
X169462299Y-64423327D01*
X169640927Y-64244698D01*
X169737600Y-64011309D01*
X169737600Y-63535750D01*
X169578850Y-63377000D01*
X168747000Y-63377000D01*
X168493000Y-63377000D01*
X168473000Y-63377000D01*
X168473000Y-63123000D01*
X168493000Y-63123000D01*
X168493000Y-62138750D01*
X168747000Y-62138750D01*
X168747000Y-63123000D01*
X169578850Y-63123000D01*
X169737600Y-62964250D01*
X169737600Y-62488691D01*
X169640927Y-62255302D01*
X169462299Y-62076673D01*
X169228910Y-61980000D01*
X168905750Y-61980000D01*
X168747000Y-62138750D01*
X168493000Y-62138750D01*
X168334250Y-61980000D01*
X168011090Y-61980000D01*
X167777701Y-62076673D01*
X167627839Y-62226536D01*
X166867400Y-62226536D01*
X166726210Y-62253103D01*
X166716741Y-62259196D01*
X166713734Y-62257141D01*
X166562600Y-62226536D01*
X165597400Y-62226536D01*
X165456210Y-62253103D01*
X165326535Y-62336546D01*
X165239541Y-62463866D01*
X165208936Y-62615000D01*
X165208936Y-63885000D01*
X165235503Y-64026190D01*
X165318946Y-64155865D01*
X165446266Y-64242859D01*
X165499000Y-64253538D01*
X165499000Y-65045051D01*
X165456210Y-65053103D01*
X165326535Y-65136546D01*
X165239541Y-65263866D01*
X165208936Y-65415000D01*
X165208936Y-66685000D01*
X165235503Y-66826190D01*
X165318946Y-66955865D01*
X165446266Y-67042859D01*
X165499000Y-67053538D01*
X165499000Y-67845051D01*
X165456210Y-67853103D01*
X165326535Y-67936546D01*
X165239541Y-68063866D01*
X165208936Y-68215000D01*
X165208936Y-69485000D01*
X165235503Y-69626190D01*
X165318946Y-69755865D01*
X165446266Y-69842859D01*
X165597400Y-69873464D01*
X165679219Y-69873464D01*
X165722204Y-69937796D01*
X165881375Y-70096967D01*
X164809341Y-71169001D01*
X163830897Y-71169001D01*
X163831118Y-70915135D01*
X163727661Y-70664748D01*
X163536259Y-70473013D01*
X163286054Y-70369118D01*
X163130984Y-70368983D01*
X163131118Y-70215135D01*
X163027661Y-69964748D01*
X162836259Y-69773013D01*
X162586054Y-69669118D01*
X162530984Y-69669070D01*
X162531118Y-69515135D01*
X162427661Y-69264748D01*
X162236259Y-69073013D01*
X161986054Y-68969118D01*
X161884622Y-68969030D01*
X154676000Y-61760408D01*
X154676000Y-57772869D01*
X154866395Y-57694200D01*
X155212983Y-57348216D01*
X155400786Y-56895935D01*
X155400787Y-56893787D01*
X155478787Y-56893787D01*
X155665800Y-57346395D01*
X156011784Y-57692983D01*
X156204000Y-57772798D01*
X156204000Y-61335002D01*
X156242517Y-61528640D01*
X156352204Y-61692798D01*
X161669035Y-67009629D01*
X161668882Y-67184865D01*
X161772339Y-67435252D01*
X161963741Y-67626987D01*
X162213946Y-67730882D01*
X162484865Y-67731118D01*
X162735252Y-67627661D01*
X162926987Y-67436259D01*
X163030882Y-67186054D01*
X163031118Y-66915135D01*
X162927661Y-66664748D01*
X162813080Y-66549968D01*
X162926987Y-66436259D01*
X163030882Y-66186054D01*
X163031017Y-66030984D01*
X163184865Y-66031118D01*
X163435252Y-65927661D01*
X163626987Y-65736259D01*
X163730882Y-65486054D01*
X163731017Y-65330984D01*
X163884865Y-65331118D01*
X164135252Y-65227661D01*
X164326987Y-65036259D01*
X164430882Y-64786054D01*
X164431017Y-64630984D01*
X164584865Y-64631118D01*
X164835252Y-64527661D01*
X165026987Y-64336259D01*
X165130882Y-64086054D01*
X165131118Y-63815135D01*
X165027661Y-63564748D01*
X164956000Y-63492962D01*
X164956000Y-61032400D01*
X171743936Y-61032400D01*
X171743936Y-63267600D01*
X171770503Y-63408790D01*
X171853946Y-63538465D01*
X171981266Y-63625459D01*
X172132400Y-63656064D01*
X174367600Y-63656064D01*
X174508790Y-63629497D01*
X174638465Y-63546054D01*
X174725459Y-63418734D01*
X174756064Y-63267600D01*
X174756064Y-61032400D01*
X174729497Y-60891210D01*
X174646054Y-60761535D01*
X174518734Y-60674541D01*
X174367600Y-60643936D01*
X172132400Y-60643936D01*
X171991210Y-60670503D01*
X171861535Y-60753946D01*
X171774541Y-60881266D01*
X171743936Y-61032400D01*
X164956000Y-61032400D01*
X164956000Y-60500906D01*
X167227796Y-58229110D01*
X167337483Y-58064952D01*
X167376000Y-57871314D01*
X167376000Y-57772869D01*
X167566395Y-57694200D01*
X167566637Y-57693958D01*
X168545647Y-57693958D01*
X168625920Y-57945259D01*
X169181279Y-58146718D01*
X169771458Y-58120315D01*
X170194080Y-57945259D01*
X170274353Y-57693958D01*
X169410000Y-56829605D01*
X168545647Y-57693958D01*
X167566637Y-57693958D01*
X167912983Y-57348216D01*
X167996181Y-57147852D01*
X168114741Y-57434080D01*
X168366042Y-57514353D01*
X169230395Y-56650000D01*
X169589605Y-56650000D01*
X170453958Y-57514353D01*
X170705259Y-57434080D01*
X170906718Y-56878721D01*
X170880315Y-56288542D01*
X170705259Y-55865920D01*
X170453958Y-55785647D01*
X169589605Y-56650000D01*
X169230395Y-56650000D01*
X168366042Y-55785647D01*
X168114741Y-55865920D01*
X168004050Y-56171060D01*
X167914200Y-55953605D01*
X167568216Y-55607017D01*
X167115935Y-55419214D01*
X166626213Y-55418787D01*
X166173605Y-55605800D01*
X165827017Y-55951784D01*
X165639214Y-56404065D01*
X165638787Y-56893787D01*
X165825800Y-57346395D01*
X166171784Y-57692983D01*
X166285514Y-57740208D01*
X164256000Y-59769722D01*
X164256000Y-58641673D01*
X164687796Y-58209877D01*
X164797483Y-58045719D01*
X164836000Y-57852081D01*
X164836000Y-57772869D01*
X165026395Y-57694200D01*
X165372983Y-57348216D01*
X165560786Y-56895935D01*
X165561213Y-56406213D01*
X165374200Y-55953605D01*
X165028216Y-55607017D01*
X164575935Y-55419214D01*
X164086213Y-55418787D01*
X163633605Y-55605800D01*
X163287017Y-55951784D01*
X163099214Y-56404065D01*
X163098787Y-56893787D01*
X163285800Y-57346395D01*
X163631784Y-57692983D01*
X163731924Y-57734565D01*
X163556000Y-57910489D01*
X163556000Y-57910000D01*
X163517483Y-57716362D01*
X163407796Y-57552204D01*
X162941784Y-57086192D01*
X163020786Y-56895935D01*
X163021213Y-56406213D01*
X162834200Y-55953605D01*
X162488216Y-55607017D01*
X162035935Y-55419214D01*
X161546213Y-55418787D01*
X161093605Y-55605800D01*
X160747017Y-55951784D01*
X160559214Y-56404065D01*
X160558787Y-56893787D01*
X160745800Y-57346395D01*
X161091784Y-57692983D01*
X161544065Y-57880786D01*
X162033787Y-57881213D01*
X162226142Y-57801734D01*
X162544000Y-58119592D01*
X162544000Y-59228408D01*
X160401784Y-57086192D01*
X160480786Y-56895935D01*
X160481213Y-56406213D01*
X160294200Y-55953605D01*
X159948216Y-55607017D01*
X159495935Y-55419214D01*
X159006213Y-55418787D01*
X158553605Y-55605800D01*
X158207017Y-55951784D01*
X158019214Y-56404065D01*
X158018787Y-56893787D01*
X158205800Y-57346395D01*
X158551784Y-57692983D01*
X159004065Y-57880786D01*
X159493787Y-57881213D01*
X159686142Y-57801734D01*
X161844000Y-59959592D01*
X161844000Y-65592877D01*
X161773013Y-65663741D01*
X161767532Y-65676942D01*
X157216000Y-61125410D01*
X157216000Y-57772869D01*
X157406395Y-57694200D01*
X157752983Y-57348216D01*
X157940786Y-56895935D01*
X157941213Y-56406213D01*
X157754200Y-55953605D01*
X157408216Y-55607017D01*
X156955935Y-55419214D01*
X156466213Y-55418787D01*
X156013605Y-55605800D01*
X155667017Y-55951784D01*
X155479214Y-56404065D01*
X155478787Y-56893787D01*
X155400787Y-56893787D01*
X155401213Y-56406213D01*
X155214200Y-55953605D01*
X154868216Y-55607017D01*
X154415935Y-55419214D01*
X153926213Y-55418787D01*
X153473605Y-55605800D01*
X153127017Y-55951784D01*
X152939214Y-56404065D01*
X152938787Y-56893787D01*
X153125800Y-57346395D01*
X153471784Y-57692983D01*
X153664000Y-57772798D01*
X153664000Y-61673410D01*
X152136000Y-60145410D01*
X152136000Y-57772869D01*
X152326395Y-57694200D01*
X152672983Y-57348216D01*
X152860786Y-56895935D01*
X152861213Y-56406213D01*
X152674200Y-55953605D01*
X152328216Y-55607017D01*
X151875935Y-55419214D01*
X151386213Y-55418787D01*
X150933605Y-55605800D01*
X150587017Y-55951784D01*
X150399214Y-56404065D01*
X150398787Y-56893787D01*
X150585800Y-57346395D01*
X150931784Y-57692983D01*
X151124000Y-57772798D01*
X151124000Y-59769820D01*
X149596000Y-58241820D01*
X149596000Y-57772869D01*
X149786395Y-57694200D01*
X150132983Y-57348216D01*
X150320786Y-56895935D01*
X150321213Y-56406213D01*
X150134200Y-55953605D01*
X149788216Y-55607017D01*
X149335935Y-55419214D01*
X148846213Y-55418787D01*
X148393605Y-55605800D01*
X148047017Y-55951784D01*
X147859214Y-56404065D01*
X147858787Y-56893787D01*
X148045800Y-57346395D01*
X148391784Y-57692983D01*
X148584000Y-57772798D01*
X148584000Y-58451412D01*
X148622517Y-58645050D01*
X148732204Y-58809208D01*
X161091997Y-71169001D01*
X160690659Y-71169001D01*
X156527122Y-67005464D01*
X156427661Y-66764748D01*
X156236259Y-66573013D01*
X155986054Y-66469118D01*
X155715135Y-66468882D01*
X155609799Y-66512405D01*
X153250425Y-64153031D01*
X153201565Y-64079907D01*
X152660829Y-63539171D01*
X152472339Y-63413226D01*
X152250000Y-63369000D01*
X147131000Y-63369000D01*
X147131000Y-57888464D01*
X147400000Y-57888464D01*
X147541190Y-57861897D01*
X147670865Y-57778454D01*
X147757859Y-57651134D01*
X147788464Y-57500000D01*
X147788464Y-55800000D01*
X147761897Y-55658810D01*
X147678454Y-55529135D01*
X147551134Y-55442141D01*
X147400000Y-55411536D01*
X145700000Y-55411536D01*
X145558810Y-55438103D01*
X145429135Y-55521546D01*
X145342141Y-55648866D01*
X145311536Y-55800000D01*
X145311536Y-57500000D01*
X145338103Y-57641190D01*
X145421546Y-57770865D01*
X145548866Y-57857859D01*
X145700000Y-57888464D01*
X145969000Y-57888464D01*
X145969000Y-64545051D01*
X145926210Y-64553103D01*
X145916741Y-64559196D01*
X145913734Y-64557141D01*
X145762600Y-64526536D01*
X144797400Y-64526536D01*
X144656210Y-64553103D01*
X144526535Y-64636546D01*
X144439541Y-64763866D01*
X144408936Y-64915000D01*
X144408936Y-66185000D01*
X144435503Y-66326190D01*
X144518946Y-66455865D01*
X144646266Y-66542859D01*
X144699000Y-66553538D01*
X144699000Y-72386462D01*
X137516462Y-79569000D01*
X136952529Y-79569000D01*
X136945755Y-79552606D01*
X136648957Y-79255289D01*
X136260973Y-79094184D01*
X135840870Y-79093817D01*
X135822900Y-79101242D01*
X135385828Y-78664170D01*
X135197338Y-78538225D01*
X134974999Y-78493999D01*
X133125001Y-78493999D01*
X132902662Y-78538225D01*
X132714172Y-78664170D01*
X132277355Y-79100987D01*
X132260973Y-79094184D01*
X131840870Y-79093817D01*
X131452606Y-79254245D01*
X131155289Y-79551043D01*
X131113464Y-79651769D01*
X131113464Y-79475000D01*
X131086897Y-79333810D01*
X131003454Y-79204135D01*
X130876134Y-79117141D01*
X130725000Y-79086536D01*
X129375000Y-79086536D01*
X129233810Y-79113103D01*
X129104135Y-79196546D01*
X129049770Y-79276112D01*
X129003454Y-79204135D01*
X128876134Y-79117141D01*
X128725000Y-79086536D01*
X127375000Y-79086536D01*
X127233810Y-79113103D01*
X127104135Y-79196546D01*
X127017141Y-79323866D01*
X126986536Y-79475000D01*
X126986536Y-80825000D01*
X127013103Y-80966190D01*
X127096546Y-81095865D01*
X127223866Y-81182859D01*
X127375000Y-81213464D01*
X127551303Y-81213464D01*
X127452606Y-81254245D01*
X127155289Y-81551043D01*
X126994184Y-81939027D01*
X126993817Y-82359130D01*
X127154245Y-82747394D01*
X127395884Y-82989455D01*
X127371219Y-82999672D01*
X127312458Y-83232853D01*
X128050000Y-83970395D01*
X128787542Y-83232853D01*
X128728781Y-82999672D01*
X128702703Y-82990543D01*
X128944711Y-82748957D01*
X129050060Y-82495248D01*
X129154245Y-82747394D01*
X129451043Y-83044711D01*
X129704752Y-83150060D01*
X129452606Y-83254245D01*
X129210545Y-83495884D01*
X129200328Y-83471219D01*
X128967147Y-83412458D01*
X128229605Y-84150000D01*
X128967147Y-84887542D01*
X129200328Y-84828781D01*
X129209457Y-84802703D01*
X129451043Y-85044711D01*
X129704752Y-85150060D01*
X129452606Y-85254245D01*
X129155289Y-85551043D01*
X129049940Y-85804752D01*
X128945755Y-85552606D01*
X128704116Y-85310545D01*
X128728781Y-85300328D01*
X128787542Y-85067147D01*
X128050000Y-84329605D01*
X127312458Y-85067147D01*
X127371219Y-85300328D01*
X127397297Y-85309457D01*
X127155289Y-85551043D01*
X126994184Y-85939027D01*
X126993817Y-86359130D01*
X127154245Y-86747394D01*
X127451043Y-87044711D01*
X127704752Y-87150060D01*
X127452606Y-87254245D01*
X127155289Y-87551043D01*
X126994184Y-87939027D01*
X126993817Y-88359130D01*
X127154245Y-88747394D01*
X127395884Y-88989455D01*
X127371219Y-88999672D01*
X127312458Y-89232853D01*
X128050000Y-89970395D01*
X128787542Y-89232853D01*
X128728781Y-88999672D01*
X128702703Y-88990543D01*
X128889455Y-88804116D01*
X128899672Y-88828781D01*
X129132853Y-88887542D01*
X129870395Y-88150000D01*
X129132853Y-87412458D01*
X128899672Y-87471219D01*
X128890543Y-87497297D01*
X128648957Y-87255289D01*
X128395248Y-87149940D01*
X128647394Y-87045755D01*
X128944711Y-86748957D01*
X129050060Y-86495248D01*
X129154245Y-86747394D01*
X129395884Y-86989455D01*
X129371219Y-86999672D01*
X129312458Y-87232853D01*
X130050000Y-87970395D01*
X130787542Y-87232853D01*
X130728781Y-86999672D01*
X130702703Y-86990543D01*
X130889455Y-86804116D01*
X130899672Y-86828781D01*
X131132853Y-86887542D01*
X131870395Y-86150000D01*
X132229605Y-86150000D01*
X132893510Y-86813905D01*
X132899672Y-86828781D01*
X132911322Y-86831717D01*
X132967147Y-86887542D01*
X133050000Y-86866663D01*
X133132853Y-86887542D01*
X133188678Y-86831717D01*
X133200328Y-86828781D01*
X133205022Y-86815373D01*
X133870395Y-86150000D01*
X133206490Y-85486095D01*
X133200328Y-85471219D01*
X133188678Y-85468283D01*
X133132853Y-85412458D01*
X133050000Y-85433337D01*
X132967147Y-85412458D01*
X132911322Y-85468283D01*
X132899672Y-85471219D01*
X132894978Y-85484627D01*
X132229605Y-86150000D01*
X131870395Y-86150000D01*
X131132853Y-85412458D01*
X130899672Y-85471219D01*
X130890543Y-85497297D01*
X130648957Y-85255289D01*
X130395248Y-85149940D01*
X130647394Y-85045755D01*
X130944711Y-84748957D01*
X131050060Y-84495248D01*
X131154245Y-84747394D01*
X131395884Y-84989455D01*
X131371219Y-84999672D01*
X131312458Y-85232853D01*
X132050000Y-85970395D01*
X132787542Y-85232853D01*
X132728781Y-84999672D01*
X132702703Y-84990543D01*
X132944711Y-84748957D01*
X133050060Y-84495248D01*
X133154245Y-84747394D01*
X133395884Y-84989455D01*
X133371219Y-84999672D01*
X133312458Y-85232853D01*
X134050000Y-85970395D01*
X134787542Y-85232853D01*
X134728781Y-84999672D01*
X134702703Y-84990543D01*
X134944711Y-84748957D01*
X135050060Y-84495248D01*
X135154245Y-84747394D01*
X135451043Y-85044711D01*
X135704752Y-85150060D01*
X135452606Y-85254245D01*
X135210545Y-85495884D01*
X135200328Y-85471219D01*
X134967147Y-85412458D01*
X134229605Y-86150000D01*
X134967147Y-86887542D01*
X135200328Y-86828781D01*
X135209457Y-86802703D01*
X135395884Y-86989455D01*
X135371219Y-86999672D01*
X135312458Y-87232853D01*
X136050000Y-87970395D01*
X136787542Y-87232853D01*
X136728781Y-86999672D01*
X136702703Y-86990543D01*
X136944711Y-86748957D01*
X137105816Y-86360973D01*
X137106183Y-85940870D01*
X136945755Y-85552606D01*
X136648957Y-85255289D01*
X136395248Y-85149940D01*
X136647394Y-85045755D01*
X136944711Y-84748957D01*
X137105816Y-84360973D01*
X137106183Y-83940870D01*
X136945755Y-83552606D01*
X136930828Y-83537653D01*
X137039381Y-83465119D01*
X137969000Y-82535500D01*
X137969000Y-92888764D01*
X137865119Y-92784883D01*
X137709072Y-92680615D01*
X137525001Y-92644001D01*
X136988293Y-92644001D01*
X137105816Y-92360973D01*
X137106183Y-91940870D01*
X136945755Y-91552606D01*
X136648957Y-91255289D01*
X136395248Y-91149940D01*
X136647394Y-91045755D01*
X136944711Y-90748957D01*
X137105816Y-90360973D01*
X137106183Y-89940870D01*
X136945755Y-89552606D01*
X136704116Y-89310545D01*
X136728781Y-89300328D01*
X136787542Y-89067147D01*
X136050000Y-88329605D01*
X135312458Y-89067147D01*
X135371219Y-89300328D01*
X135397297Y-89309457D01*
X135155289Y-89551043D01*
X135049940Y-89804752D01*
X134945755Y-89552606D01*
X134648957Y-89255289D01*
X134395248Y-89149940D01*
X134647394Y-89045755D01*
X134889455Y-88804116D01*
X134899672Y-88828781D01*
X135132853Y-88887542D01*
X135870395Y-88150000D01*
X136229605Y-88150000D01*
X136967147Y-88887542D01*
X137200328Y-88828781D01*
X137372522Y-88336900D01*
X137343375Y-87816566D01*
X137200328Y-87471219D01*
X136967147Y-87412458D01*
X136229605Y-88150000D01*
X135870395Y-88150000D01*
X135132853Y-87412458D01*
X134899672Y-87471219D01*
X134890543Y-87497297D01*
X134704116Y-87310545D01*
X134728781Y-87300328D01*
X134787542Y-87067147D01*
X134050000Y-86329605D01*
X133312458Y-87067147D01*
X133371219Y-87300328D01*
X133397297Y-87309457D01*
X133155289Y-87551043D01*
X133049940Y-87804752D01*
X132945755Y-87552606D01*
X132704116Y-87310545D01*
X132728781Y-87300328D01*
X132787542Y-87067147D01*
X132050000Y-86329605D01*
X131312458Y-87067147D01*
X131371219Y-87300328D01*
X131397297Y-87309457D01*
X131210545Y-87495884D01*
X131200328Y-87471219D01*
X130967147Y-87412458D01*
X130229605Y-88150000D01*
X130967147Y-88887542D01*
X131200328Y-88828781D01*
X131209457Y-88802703D01*
X131451043Y-89044711D01*
X131704752Y-89150060D01*
X131452606Y-89254245D01*
X131155289Y-89551043D01*
X131049940Y-89804752D01*
X130945755Y-89552606D01*
X130704116Y-89310545D01*
X130728781Y-89300328D01*
X130787542Y-89067147D01*
X130050000Y-88329605D01*
X129312458Y-89067147D01*
X129371219Y-89300328D01*
X129397297Y-89309457D01*
X129210545Y-89495884D01*
X129200328Y-89471219D01*
X128967147Y-89412458D01*
X128229605Y-90150000D01*
X128967147Y-90887542D01*
X129200328Y-90828781D01*
X129209457Y-90802703D01*
X129451043Y-91044711D01*
X129704752Y-91150060D01*
X129452606Y-91254245D01*
X129155289Y-91551043D01*
X129049940Y-91804752D01*
X128945755Y-91552606D01*
X128704116Y-91310545D01*
X128728781Y-91300328D01*
X128787542Y-91067147D01*
X128050000Y-90329605D01*
X127312458Y-91067147D01*
X127371219Y-91300328D01*
X127397297Y-91309457D01*
X127155289Y-91551043D01*
X126994184Y-91939027D01*
X126993817Y-92359130D01*
X127154245Y-92747394D01*
X127451043Y-93044711D01*
X127704752Y-93150060D01*
X127452606Y-93254245D01*
X127155289Y-93551043D01*
X126994184Y-93939027D01*
X126993817Y-94359130D01*
X127154245Y-94747394D01*
X127395884Y-94989455D01*
X127371219Y-94999672D01*
X127312458Y-95232853D01*
X128050000Y-95970395D01*
X128787542Y-95232853D01*
X128728781Y-94999672D01*
X128702703Y-94990543D01*
X128889455Y-94804116D01*
X128899672Y-94828781D01*
X129132853Y-94887542D01*
X129870395Y-94150000D01*
X129132853Y-93412458D01*
X128899672Y-93471219D01*
X128890543Y-93497297D01*
X128648957Y-93255289D01*
X128395248Y-93149940D01*
X128647394Y-93045755D01*
X128944711Y-92748957D01*
X129050060Y-92495248D01*
X129154245Y-92747394D01*
X129395884Y-92989455D01*
X129371219Y-92999672D01*
X129312458Y-93232853D01*
X130050000Y-93970395D01*
X130787542Y-93232853D01*
X130728781Y-92999672D01*
X130702703Y-92990543D01*
X130889455Y-92804116D01*
X130899672Y-92828781D01*
X131132853Y-92887542D01*
X131870395Y-92150000D01*
X132229605Y-92150000D01*
X132893510Y-92813905D01*
X132899672Y-92828781D01*
X132911322Y-92831717D01*
X132967147Y-92887542D01*
X133050000Y-92866663D01*
X133132853Y-92887542D01*
X133188678Y-92831717D01*
X133200328Y-92828781D01*
X133205022Y-92815373D01*
X133870395Y-92150000D01*
X133206490Y-91486095D01*
X133200328Y-91471219D01*
X133188678Y-91468283D01*
X133132853Y-91412458D01*
X133050000Y-91433337D01*
X132967147Y-91412458D01*
X132911322Y-91468283D01*
X132899672Y-91471219D01*
X132894978Y-91484627D01*
X132229605Y-92150000D01*
X131870395Y-92150000D01*
X131132853Y-91412458D01*
X130899672Y-91471219D01*
X130890543Y-91497297D01*
X130648957Y-91255289D01*
X130395248Y-91149940D01*
X130647394Y-91045755D01*
X130944711Y-90748957D01*
X131050060Y-90495248D01*
X131154245Y-90747394D01*
X131395884Y-90989455D01*
X131371219Y-90999672D01*
X131312458Y-91232853D01*
X132050000Y-91970395D01*
X132787542Y-91232853D01*
X132728781Y-90999672D01*
X132702703Y-90990543D01*
X132944711Y-90748957D01*
X133050060Y-90495248D01*
X133154245Y-90747394D01*
X133395884Y-90989455D01*
X133371219Y-90999672D01*
X133312458Y-91232853D01*
X134050000Y-91970395D01*
X134787542Y-91232853D01*
X134728781Y-90999672D01*
X134702703Y-90990543D01*
X134944711Y-90748957D01*
X135050060Y-90495248D01*
X135154245Y-90747394D01*
X135451043Y-91044711D01*
X135704752Y-91150060D01*
X135452606Y-91254245D01*
X135210545Y-91495884D01*
X135200328Y-91471219D01*
X134967147Y-91412458D01*
X134229605Y-92150000D01*
X134243748Y-92164143D01*
X134064143Y-92343748D01*
X134050000Y-92329605D01*
X133312458Y-93067147D01*
X133371219Y-93300328D01*
X133397297Y-93309457D01*
X133155289Y-93551043D01*
X133049940Y-93804752D01*
X132945755Y-93552606D01*
X132704116Y-93310545D01*
X132728781Y-93300328D01*
X132787542Y-93067147D01*
X132050000Y-92329605D01*
X131312458Y-93067147D01*
X131371219Y-93300328D01*
X131397297Y-93309457D01*
X131210545Y-93495884D01*
X131200328Y-93471219D01*
X130967147Y-93412458D01*
X130229605Y-94150000D01*
X130967147Y-94887542D01*
X131200328Y-94828781D01*
X131209457Y-94802703D01*
X131451043Y-95044711D01*
X131704752Y-95150060D01*
X131452606Y-95254245D01*
X131155289Y-95551043D01*
X131049940Y-95804752D01*
X130945755Y-95552606D01*
X130704116Y-95310545D01*
X130728781Y-95300328D01*
X130787542Y-95067147D01*
X130050000Y-94329605D01*
X129312458Y-95067147D01*
X129371219Y-95300328D01*
X129397297Y-95309457D01*
X129210545Y-95495884D01*
X129200328Y-95471219D01*
X128967147Y-95412458D01*
X128229605Y-96150000D01*
X128967147Y-96887542D01*
X129200328Y-96828781D01*
X129209457Y-96802703D01*
X129451043Y-97044711D01*
X129704752Y-97150060D01*
X129452606Y-97254245D01*
X129155289Y-97551043D01*
X129049940Y-97804752D01*
X128945755Y-97552606D01*
X128704116Y-97310545D01*
X128728781Y-97300328D01*
X128787542Y-97067147D01*
X128050000Y-96329605D01*
X127312458Y-97067147D01*
X127371219Y-97300328D01*
X127397297Y-97309457D01*
X127155289Y-97551043D01*
X126994184Y-97939027D01*
X126993817Y-98359130D01*
X127154245Y-98747394D01*
X127451043Y-99044711D01*
X127704752Y-99150060D01*
X127452606Y-99254245D01*
X127155289Y-99551043D01*
X126994184Y-99939027D01*
X126993817Y-100359130D01*
X127154245Y-100747394D01*
X127395884Y-100989455D01*
X127371219Y-100999672D01*
X127312458Y-101232853D01*
X128050000Y-101970395D01*
X128787542Y-101232853D01*
X128728781Y-100999672D01*
X128702703Y-100990543D01*
X128889455Y-100804116D01*
X128899672Y-100828781D01*
X129132853Y-100887542D01*
X129870395Y-100150000D01*
X129132853Y-99412458D01*
X128899672Y-99471219D01*
X128890543Y-99497297D01*
X128648957Y-99255289D01*
X128395248Y-99149940D01*
X128647394Y-99045755D01*
X128944711Y-98748957D01*
X129050060Y-98495248D01*
X129154245Y-98747394D01*
X129395884Y-98989455D01*
X129371219Y-98999672D01*
X129312458Y-99232853D01*
X130050000Y-99970395D01*
X130787542Y-99232853D01*
X130728781Y-98999672D01*
X130702703Y-98990543D01*
X130944711Y-98748957D01*
X131050060Y-98495248D01*
X131154245Y-98747394D01*
X131451043Y-99044711D01*
X131704752Y-99150060D01*
X131452606Y-99254245D01*
X131210545Y-99495884D01*
X131200328Y-99471219D01*
X130967147Y-99412458D01*
X130229605Y-100150000D01*
X130967147Y-100887542D01*
X131200328Y-100828781D01*
X131209457Y-100802703D01*
X131451043Y-101044711D01*
X131704752Y-101150060D01*
X131452606Y-101254245D01*
X131155289Y-101551043D01*
X131049940Y-101804752D01*
X130945755Y-101552606D01*
X130704116Y-101310545D01*
X130728781Y-101300328D01*
X130787542Y-101067147D01*
X130050000Y-100329605D01*
X129312458Y-101067147D01*
X129371219Y-101300328D01*
X129397297Y-101309457D01*
X129210545Y-101495884D01*
X129200328Y-101471219D01*
X128967147Y-101412458D01*
X128229605Y-102150000D01*
X128967147Y-102887542D01*
X129200328Y-102828781D01*
X129209457Y-102802703D01*
X129395884Y-102989455D01*
X129371219Y-102999672D01*
X129312458Y-103232853D01*
X130050000Y-103970395D01*
X130787542Y-103232853D01*
X130728781Y-102999672D01*
X130702703Y-102990543D01*
X130944711Y-102748957D01*
X131050060Y-102495248D01*
X131154245Y-102747394D01*
X131451043Y-103044711D01*
X131704752Y-103150060D01*
X131452606Y-103254245D01*
X131210545Y-103495884D01*
X131200328Y-103471219D01*
X130967147Y-103412458D01*
X130229605Y-104150000D01*
X130967147Y-104887542D01*
X131200328Y-104828781D01*
X131209457Y-104802703D01*
X131451043Y-105044711D01*
X131704752Y-105150060D01*
X131452606Y-105254245D01*
X131155289Y-105551043D01*
X131049940Y-105804752D01*
X130945755Y-105552606D01*
X130704116Y-105310545D01*
X130728781Y-105300328D01*
X130787542Y-105067147D01*
X130050000Y-104329605D01*
X129312458Y-105067147D01*
X129371219Y-105300328D01*
X129397297Y-105309457D01*
X129155289Y-105551043D01*
X129049940Y-105804752D01*
X128945755Y-105552606D01*
X128648957Y-105255289D01*
X128395248Y-105149940D01*
X128647394Y-105045755D01*
X128889455Y-104804116D01*
X128899672Y-104828781D01*
X129132853Y-104887542D01*
X129870395Y-104150000D01*
X129132853Y-103412458D01*
X128899672Y-103471219D01*
X128890543Y-103497297D01*
X128704116Y-103310545D01*
X128728781Y-103300328D01*
X128787542Y-103067147D01*
X128050000Y-102329605D01*
X127312458Y-103067147D01*
X127371219Y-103300328D01*
X127397297Y-103309457D01*
X127155289Y-103551043D01*
X126994184Y-103939027D01*
X126993817Y-104359130D01*
X127154245Y-104747394D01*
X127451043Y-105044711D01*
X127704752Y-105150060D01*
X127452606Y-105254245D01*
X127155289Y-105551043D01*
X126994184Y-105939027D01*
X126993817Y-106359130D01*
X127154245Y-106747394D01*
X127395884Y-106989455D01*
X127371219Y-106999672D01*
X127312458Y-107232853D01*
X128050000Y-107970395D01*
X128787542Y-107232853D01*
X128728781Y-106999672D01*
X128702703Y-106990543D01*
X128944711Y-106748957D01*
X129050060Y-106495248D01*
X129154245Y-106747394D01*
X129451043Y-107044711D01*
X129704752Y-107150060D01*
X129452606Y-107254245D01*
X129210545Y-107495884D01*
X129200328Y-107471219D01*
X128967147Y-107412458D01*
X128229605Y-108150000D01*
X128967147Y-108887542D01*
X129200328Y-108828781D01*
X129209457Y-108802703D01*
X129395884Y-108989455D01*
X129371219Y-108999672D01*
X129312458Y-109232853D01*
X130050000Y-109970395D01*
X130787542Y-109232853D01*
X130728781Y-108999672D01*
X130702703Y-108990543D01*
X130944711Y-108748957D01*
X131050060Y-108495248D01*
X131154245Y-108747394D01*
X131451043Y-109044711D01*
X131704752Y-109150060D01*
X131452606Y-109254245D01*
X131210545Y-109495884D01*
X131200328Y-109471219D01*
X130967147Y-109412458D01*
X130229605Y-110150000D01*
X130243748Y-110164143D01*
X130064143Y-110343748D01*
X130050000Y-110329605D01*
X129312458Y-111067147D01*
X129371219Y-111300328D01*
X129397297Y-111309457D01*
X129155289Y-111551043D01*
X129049940Y-111804752D01*
X128945755Y-111552606D01*
X128648957Y-111255289D01*
X128395248Y-111149940D01*
X128647394Y-111045755D01*
X128889455Y-110804116D01*
X128899672Y-110828781D01*
X129132853Y-110887542D01*
X129870395Y-110150000D01*
X129132853Y-109412458D01*
X128899672Y-109471219D01*
X128890543Y-109497297D01*
X128704116Y-109310545D01*
X128728781Y-109300328D01*
X128787542Y-109067147D01*
X128050000Y-108329605D01*
X127312458Y-109067147D01*
X127371219Y-109300328D01*
X127397297Y-109309457D01*
X127155289Y-109551043D01*
X126994184Y-109939027D01*
X126993817Y-110359130D01*
X127154245Y-110747394D01*
X127451043Y-111044711D01*
X127704752Y-111150060D01*
X127452606Y-111254245D01*
X127155289Y-111551043D01*
X126994184Y-111939027D01*
X126993817Y-112359130D01*
X127154245Y-112747394D01*
X127395884Y-112989455D01*
X127371219Y-112999672D01*
X127312458Y-113232853D01*
X128050000Y-113970395D01*
X128787542Y-113232853D01*
X128728781Y-112999672D01*
X128702703Y-112990543D01*
X128944711Y-112748957D01*
X129050060Y-112495248D01*
X129154245Y-112747394D01*
X129451043Y-113044711D01*
X129704752Y-113150060D01*
X129452606Y-113254245D01*
X129210545Y-113495884D01*
X129200328Y-113471219D01*
X128967147Y-113412458D01*
X128229605Y-114150000D01*
X128967147Y-114887542D01*
X129200328Y-114828781D01*
X129209457Y-114802703D01*
X129451043Y-115044711D01*
X129704752Y-115150060D01*
X129452606Y-115254245D01*
X129155289Y-115551043D01*
X129049940Y-115804752D01*
X128945755Y-115552606D01*
X128704116Y-115310545D01*
X128728781Y-115300328D01*
X128787542Y-115067147D01*
X128050000Y-114329605D01*
X127312458Y-115067147D01*
X127371219Y-115300328D01*
X127397297Y-115309457D01*
X127155289Y-115551043D01*
X126994184Y-115939027D01*
X126993817Y-116359130D01*
X127154245Y-116747394D01*
X127451043Y-117044711D01*
X127704752Y-117150060D01*
X127452606Y-117254245D01*
X127155289Y-117551043D01*
X126994184Y-117939027D01*
X126993817Y-118359130D01*
X127154245Y-118747394D01*
X127451043Y-119044711D01*
X127704752Y-119150060D01*
X127452606Y-119254245D01*
X127155289Y-119551043D01*
X126994184Y-119939027D01*
X126993817Y-120359130D01*
X127154245Y-120747394D01*
X127451043Y-121044711D01*
X127704752Y-121150060D01*
X127452606Y-121254245D01*
X127155289Y-121551043D01*
X126994184Y-121939027D01*
X126993817Y-122359130D01*
X127154245Y-122747394D01*
X127451043Y-123044711D01*
X127704752Y-123150060D01*
X127452606Y-123254245D01*
X127155289Y-123551043D01*
X126994184Y-123939027D01*
X126993817Y-124359130D01*
X127154245Y-124747394D01*
X127451043Y-125044711D01*
X127704752Y-125150060D01*
X127452606Y-125254245D01*
X127155289Y-125551043D01*
X126994184Y-125939027D01*
X126993817Y-126359130D01*
X127154245Y-126747394D01*
X127451043Y-127044711D01*
X127704752Y-127150060D01*
X127452606Y-127254245D01*
X127155289Y-127551043D01*
X126994184Y-127939027D01*
X126993980Y-128172806D01*
X126981000Y-128107552D01*
X126981000Y-114849275D01*
X127132853Y-114887542D01*
X127870395Y-114150000D01*
X127132853Y-113412458D01*
X126981000Y-113450725D01*
X126981000Y-108849275D01*
X127132853Y-108887542D01*
X127870395Y-108150000D01*
X127132853Y-107412458D01*
X126981000Y-107450725D01*
X126981000Y-102849275D01*
X127132853Y-102887542D01*
X127870395Y-102150000D01*
X127132853Y-101412458D01*
X126981000Y-101450725D01*
X126981000Y-96849275D01*
X127132853Y-96887542D01*
X127870395Y-96150000D01*
X127132853Y-95412458D01*
X126981000Y-95450725D01*
X126981000Y-90849275D01*
X127132853Y-90887542D01*
X127870395Y-90150000D01*
X127132853Y-89412458D01*
X126981000Y-89450725D01*
X126981000Y-84849275D01*
X127132853Y-84887542D01*
X127870395Y-84150000D01*
X127132853Y-83412458D01*
X126981000Y-83450725D01*
X126981000Y-78192448D01*
X127070173Y-77744144D01*
X127300075Y-77400073D01*
X127644143Y-77170174D01*
X128092448Y-77081000D01*
X130095844Y-77081000D01*
X129999116Y-77313946D01*
X129998880Y-77584865D01*
X130102337Y-77835252D01*
X130293739Y-78026987D01*
X130543944Y-78130882D01*
X130814863Y-78131118D01*
X131057169Y-78031000D01*
X138450000Y-78031000D01*
X138672339Y-77986774D01*
X138860829Y-77860829D01*
X143660829Y-73060829D01*
X143786774Y-72872339D01*
X143831000Y-72650000D01*
X143831000Y-71326595D01*
X143930882Y-71086054D01*
X143931118Y-70815135D01*
X143831000Y-70572829D01*
X143831000Y-68726595D01*
X143930882Y-68486054D01*
X143931118Y-68215135D01*
X143827661Y-67964748D01*
X143636259Y-67773013D01*
X143386054Y-67669118D01*
X143115135Y-67668882D01*
X142864748Y-67772339D01*
X142673013Y-67963741D01*
X142569118Y-68213946D01*
X142568882Y-68484865D01*
X142669000Y-68727171D01*
X142669000Y-70573405D01*
X142569118Y-70813946D01*
X142568882Y-71084865D01*
X142669000Y-71327171D01*
X142669000Y-72409342D01*
X139689629Y-75388713D01*
X139718062Y-75346160D01*
X139782417Y-75190793D01*
X139972718Y-74234084D01*
X139972718Y-74191636D01*
X139981000Y-74150000D01*
X139981000Y-54353787D01*
X145318787Y-54353787D01*
X145505800Y-54806395D01*
X145851784Y-55152983D01*
X146304065Y-55340786D01*
X146793787Y-55341213D01*
X147246395Y-55154200D01*
X147592983Y-54808216D01*
X147780786Y-54355935D01*
X147780787Y-54353787D01*
X147858787Y-54353787D01*
X148045800Y-54806395D01*
X148391784Y-55152983D01*
X148844065Y-55340786D01*
X149333787Y-55341213D01*
X149786395Y-55154200D01*
X150132983Y-54808216D01*
X150320786Y-54355935D01*
X150320787Y-54353787D01*
X150398787Y-54353787D01*
X150585800Y-54806395D01*
X150931784Y-55152983D01*
X151384065Y-55340786D01*
X151873787Y-55341213D01*
X152326395Y-55154200D01*
X152672983Y-54808216D01*
X152860786Y-54355935D01*
X152860787Y-54353787D01*
X152938787Y-54353787D01*
X153125800Y-54806395D01*
X153471784Y-55152983D01*
X153924065Y-55340786D01*
X154413787Y-55341213D01*
X154866395Y-55154200D01*
X155212983Y-54808216D01*
X155400786Y-54355935D01*
X155400787Y-54353787D01*
X155478787Y-54353787D01*
X155665800Y-54806395D01*
X156011784Y-55152983D01*
X156464065Y-55340786D01*
X156953787Y-55341213D01*
X157406395Y-55154200D01*
X157752983Y-54808216D01*
X157940786Y-54355935D01*
X157940787Y-54353787D01*
X158018787Y-54353787D01*
X158205800Y-54806395D01*
X158551784Y-55152983D01*
X159004065Y-55340786D01*
X159493787Y-55341213D01*
X159946395Y-55154200D01*
X160292983Y-54808216D01*
X160480786Y-54355935D01*
X160480787Y-54353787D01*
X160558787Y-54353787D01*
X160745800Y-54806395D01*
X161091784Y-55152983D01*
X161544065Y-55340786D01*
X162033787Y-55341213D01*
X162486395Y-55154200D01*
X162832983Y-54808216D01*
X163020786Y-54355935D01*
X163020787Y-54353787D01*
X163098787Y-54353787D01*
X163285800Y-54806395D01*
X163631784Y-55152983D01*
X164084065Y-55340786D01*
X164573787Y-55341213D01*
X165026395Y-55154200D01*
X165372983Y-54808216D01*
X165560786Y-54355935D01*
X165560787Y-54353787D01*
X165638787Y-54353787D01*
X165825800Y-54806395D01*
X166171784Y-55152983D01*
X166624065Y-55340786D01*
X167113787Y-55341213D01*
X167566395Y-55154200D01*
X167566637Y-55153958D01*
X168545647Y-55153958D01*
X168617852Y-55380000D01*
X168545647Y-55606042D01*
X169410000Y-56470395D01*
X170274353Y-55606042D01*
X170202148Y-55380000D01*
X170274353Y-55153958D01*
X169410000Y-54289605D01*
X168545647Y-55153958D01*
X167566637Y-55153958D01*
X167912983Y-54808216D01*
X167996181Y-54607852D01*
X168114741Y-54894080D01*
X168366042Y-54974353D01*
X169230395Y-54110000D01*
X169589605Y-54110000D01*
X170453958Y-54974353D01*
X170705259Y-54894080D01*
X170906718Y-54338721D01*
X170880315Y-53748542D01*
X170705259Y-53325920D01*
X170453958Y-53245647D01*
X169589605Y-54110000D01*
X169230395Y-54110000D01*
X168366042Y-53245647D01*
X168114741Y-53325920D01*
X168004050Y-53631060D01*
X167914200Y-53413605D01*
X167568216Y-53067017D01*
X167565868Y-53066042D01*
X168545647Y-53066042D01*
X169410000Y-53930395D01*
X170274353Y-53066042D01*
X170194080Y-52814741D01*
X169638721Y-52613282D01*
X169048542Y-52639685D01*
X168625920Y-52814741D01*
X168545647Y-53066042D01*
X167565868Y-53066042D01*
X167115935Y-52879214D01*
X166626213Y-52878787D01*
X166173605Y-53065800D01*
X165827017Y-53411784D01*
X165639214Y-53864065D01*
X165638787Y-54353787D01*
X165560787Y-54353787D01*
X165561213Y-53866213D01*
X165374200Y-53413605D01*
X165028216Y-53067017D01*
X164575935Y-52879214D01*
X164086213Y-52878787D01*
X163633605Y-53065800D01*
X163287017Y-53411784D01*
X163099214Y-53864065D01*
X163098787Y-54353787D01*
X163020787Y-54353787D01*
X163021213Y-53866213D01*
X162834200Y-53413605D01*
X162488216Y-53067017D01*
X162035935Y-52879214D01*
X161546213Y-52878787D01*
X161093605Y-53065800D01*
X160747017Y-53411784D01*
X160559214Y-53864065D01*
X160558787Y-54353787D01*
X160480787Y-54353787D01*
X160481213Y-53866213D01*
X160294200Y-53413605D01*
X159948216Y-53067017D01*
X159495935Y-52879214D01*
X159006213Y-52878787D01*
X158553605Y-53065800D01*
X158207017Y-53411784D01*
X158019214Y-53864065D01*
X158018787Y-54353787D01*
X157940787Y-54353787D01*
X157941213Y-53866213D01*
X157754200Y-53413605D01*
X157408216Y-53067017D01*
X156955935Y-52879214D01*
X156466213Y-52878787D01*
X156013605Y-53065800D01*
X155667017Y-53411784D01*
X155479214Y-53864065D01*
X155478787Y-54353787D01*
X155400787Y-54353787D01*
X155401213Y-53866213D01*
X155214200Y-53413605D01*
X154868216Y-53067017D01*
X154415935Y-52879214D01*
X153926213Y-52878787D01*
X153473605Y-53065800D01*
X153127017Y-53411784D01*
X152939214Y-53864065D01*
X152938787Y-54353787D01*
X152860787Y-54353787D01*
X152861213Y-53866213D01*
X152674200Y-53413605D01*
X152328216Y-53067017D01*
X151875935Y-52879214D01*
X151386213Y-52878787D01*
X150933605Y-53065800D01*
X150587017Y-53411784D01*
X150399214Y-53864065D01*
X150398787Y-54353787D01*
X150320787Y-54353787D01*
X150321213Y-53866213D01*
X150134200Y-53413605D01*
X149788216Y-53067017D01*
X149335935Y-52879214D01*
X148846213Y-52878787D01*
X148393605Y-53065800D01*
X148047017Y-53411784D01*
X147859214Y-53864065D01*
X147858787Y-54353787D01*
X147780787Y-54353787D01*
X147781213Y-53866213D01*
X147594200Y-53413605D01*
X147248216Y-53067017D01*
X146795935Y-52879214D01*
X146306213Y-52878787D01*
X145853605Y-53065800D01*
X145507017Y-53411784D01*
X145319214Y-53864065D01*
X145318787Y-54353787D01*
X139981000Y-54353787D01*
X139981000Y-51692448D01*
X140108233Y-51052803D01*
X140446519Y-50546521D01*
X140952802Y-50208234D01*
X141592452Y-50081000D01*
X174507552Y-50081000D01*
X175147197Y-50208233D01*
X175147197Y-50208233D01*
G37*
X175147197Y-50208233D02*
X175653479Y-50546519D01*
X175991766Y-51052802D01*
X176119000Y-51692452D01*
X176119000Y-132607548D01*
X175991766Y-133247198D01*
X175653479Y-133753481D01*
X175147197Y-134091767D01*
X174507552Y-134219000D01*
X142092448Y-134219000D01*
X141261461Y-134053707D01*
X140592966Y-133607033D01*
X140146294Y-132938541D01*
X139972718Y-132065916D01*
X139902332Y-131712060D01*
X150167545Y-131712060D01*
X150250884Y-131965953D01*
X150815306Y-132171590D01*
X151415458Y-132145579D01*
X151849116Y-131965953D01*
X151932455Y-131712060D01*
X151050000Y-130829605D01*
X150167545Y-131712060D01*
X139902332Y-131712060D01*
X139782417Y-131109207D01*
X139718062Y-130953840D01*
X139358225Y-130415306D01*
X149528410Y-130415306D01*
X149554421Y-131015458D01*
X149734047Y-131449116D01*
X149987940Y-131532455D01*
X150870395Y-130650000D01*
X149987940Y-129767545D01*
X149734047Y-129850884D01*
X149528410Y-130415306D01*
X139358225Y-130415306D01*
X139176130Y-130142782D01*
X139057218Y-130023869D01*
X138404804Y-129587940D01*
X150167545Y-129587940D01*
X151050000Y-130470395D01*
X151932455Y-129587940D01*
X151849116Y-129334047D01*
X151284694Y-129128410D01*
X150684542Y-129154421D01*
X150250884Y-129334047D01*
X150167545Y-129587940D01*
X138404804Y-129587940D01*
X138246160Y-129481938D01*
X138090793Y-129417582D01*
X138090788Y-129417582D01*
X137134084Y-129227282D01*
X137091636Y-129227282D01*
X137050000Y-129219000D01*
X132749275Y-129219000D01*
X132787542Y-129067147D01*
X132050000Y-128329605D01*
X131312458Y-129067147D01*
X131350725Y-129219000D01*
X128092448Y-129219000D01*
X128026993Y-129205980D01*
X128259130Y-129206183D01*
X128647394Y-129045755D01*
X128944711Y-128748957D01*
X129050060Y-128495248D01*
X129154245Y-128747394D01*
X129451043Y-129044711D01*
X129839027Y-129205816D01*
X130259130Y-129206183D01*
X130647394Y-129045755D01*
X130889455Y-128804116D01*
X130899672Y-128828781D01*
X131132853Y-128887542D01*
X131870395Y-128150000D01*
X131132853Y-127412458D01*
X130899672Y-127471219D01*
X130890543Y-127497297D01*
X130648957Y-127255289D01*
X130395248Y-127149940D01*
X130647394Y-127045755D01*
X130944711Y-126748957D01*
X131050060Y-126495248D01*
X131154245Y-126747394D01*
X131395884Y-126989455D01*
X131371219Y-126999672D01*
X131312458Y-127232853D01*
X132050000Y-127970395D01*
X132787542Y-127232853D01*
X132728781Y-126999672D01*
X132702703Y-126990543D01*
X132944711Y-126748957D01*
X133050060Y-126495248D01*
X133154245Y-126747394D01*
X133451043Y-127044711D01*
X133704752Y-127150060D01*
X133452606Y-127254245D01*
X133210545Y-127495884D01*
X133200328Y-127471219D01*
X132967147Y-127412458D01*
X132229605Y-128150000D01*
X132967147Y-128887542D01*
X133200328Y-128828781D01*
X133209457Y-128802703D01*
X133451043Y-129044711D01*
X133839027Y-129205816D01*
X134259130Y-129206183D01*
X134647394Y-129045755D01*
X134944711Y-128748957D01*
X135050060Y-128495248D01*
X135154245Y-128747394D01*
X135451043Y-129044711D01*
X135839027Y-129205816D01*
X136259130Y-129206183D01*
X136647394Y-129045755D01*
X136944711Y-128748957D01*
X137105816Y-128360973D01*
X137106183Y-127940870D01*
X136945755Y-127552606D01*
X136704116Y-127310545D01*
X136728781Y-127300328D01*
X136787542Y-127067147D01*
X136050000Y-126329605D01*
X135312458Y-127067147D01*
X135371219Y-127300328D01*
X135397297Y-127309457D01*
X135155289Y-127551043D01*
X135049940Y-127804752D01*
X134945755Y-127552606D01*
X134648957Y-127255289D01*
X134395248Y-127149940D01*
X134647394Y-127045755D01*
X134889455Y-126804116D01*
X134899672Y-126828781D01*
X135132853Y-126887542D01*
X135870395Y-126150000D01*
X136229605Y-126150000D01*
X136967147Y-126887542D01*
X137200328Y-126828781D01*
X137372522Y-126336900D01*
X137343375Y-125816566D01*
X137200328Y-125471219D01*
X136967147Y-125412458D01*
X136229605Y-126150000D01*
X135870395Y-126150000D01*
X135132853Y-125412458D01*
X134899672Y-125471219D01*
X134890543Y-125497297D01*
X134648957Y-125255289D01*
X134395248Y-125149940D01*
X134647394Y-125045755D01*
X134944711Y-124748957D01*
X135050060Y-124495248D01*
X135154245Y-124747394D01*
X135395884Y-124989455D01*
X135371219Y-124999672D01*
X135312458Y-125232853D01*
X136050000Y-125970395D01*
X136787542Y-125232853D01*
X136728781Y-124999672D01*
X136702703Y-124990543D01*
X136944711Y-124748957D01*
X137105816Y-124360973D01*
X137106183Y-123940870D01*
X136945755Y-123552606D01*
X136648957Y-123255289D01*
X136395248Y-123149940D01*
X136647394Y-123045755D01*
X136944711Y-122748957D01*
X137105816Y-122360973D01*
X137106183Y-121940870D01*
X136945755Y-121552606D01*
X136704116Y-121310545D01*
X136728781Y-121300328D01*
X136787542Y-121067147D01*
X136050000Y-120329605D01*
X135312458Y-121067147D01*
X135371219Y-121300328D01*
X135397297Y-121309457D01*
X135210545Y-121495884D01*
X135200328Y-121471219D01*
X134967147Y-121412458D01*
X134229605Y-122150000D01*
X134967147Y-122887542D01*
X135200328Y-122828781D01*
X135209457Y-122802703D01*
X135451043Y-123044711D01*
X135704752Y-123150060D01*
X135452606Y-123254245D01*
X135155289Y-123551043D01*
X135049940Y-123804752D01*
X134945755Y-123552606D01*
X134704116Y-123310545D01*
X134728781Y-123300328D01*
X134787542Y-123067147D01*
X134050000Y-122329605D01*
X133312458Y-123067147D01*
X133371219Y-123300328D01*
X133397297Y-123309457D01*
X133155289Y-123551043D01*
X133049940Y-123804752D01*
X132945755Y-123552606D01*
X132648957Y-123255289D01*
X132395248Y-123149940D01*
X132647394Y-123045755D01*
X132889455Y-122804116D01*
X132899672Y-122828781D01*
X133132853Y-122887542D01*
X133870395Y-122150000D01*
X133132853Y-121412458D01*
X132899672Y-121471219D01*
X132890543Y-121497297D01*
X132648957Y-121255289D01*
X132395248Y-121149940D01*
X132647394Y-121045755D01*
X132944711Y-120748957D01*
X133050060Y-120495248D01*
X133154245Y-120747394D01*
X133395884Y-120989455D01*
X133371219Y-120999672D01*
X133312458Y-121232853D01*
X134050000Y-121970395D01*
X134787542Y-121232853D01*
X134728781Y-120999672D01*
X134702703Y-120990543D01*
X134889455Y-120804116D01*
X134899672Y-120828781D01*
X135132853Y-120887542D01*
X135870395Y-120150000D01*
X135856253Y-120135858D01*
X136035858Y-119956253D01*
X136050000Y-119970395D01*
X136064143Y-119956253D01*
X136243748Y-120135858D01*
X136229605Y-120150000D01*
X136967147Y-120887542D01*
X137200328Y-120828781D01*
X137372522Y-120336900D01*
X137345891Y-119861483D01*
X138117205Y-120632797D01*
X138281363Y-120742484D01*
X138475001Y-120781001D01*
X146768054Y-120781001D01*
X146938742Y-120951986D01*
X147188947Y-121055881D01*
X147459866Y-121056117D01*
X147710253Y-120952660D01*
X147901988Y-120761258D01*
X148002530Y-120519128D01*
X149560829Y-118960829D01*
X149686774Y-118772339D01*
X149731000Y-118550000D01*
X149731000Y-118226595D01*
X149830882Y-117986054D01*
X149831118Y-117715135D01*
X149727661Y-117464748D01*
X149536259Y-117273013D01*
X149286054Y-117169118D01*
X149015135Y-117168882D01*
X148764748Y-117272339D01*
X148573013Y-117463741D01*
X148469118Y-117713946D01*
X148468882Y-117984865D01*
X148569000Y-118227171D01*
X148569000Y-118309342D01*
X147482024Y-119396318D01*
X147427661Y-119264748D01*
X147347859Y-119184807D01*
X147317483Y-119032098D01*
X147207796Y-118867940D01*
X146732049Y-118392193D01*
X146567891Y-118282506D01*
X146374253Y-118243989D01*
X138289615Y-118243989D01*
X136858391Y-116835127D01*
X136944711Y-116748957D01*
X137105816Y-116360973D01*
X137106183Y-115940870D01*
X136945755Y-115552606D01*
X136704116Y-115310545D01*
X136728781Y-115300328D01*
X136787542Y-115067147D01*
X136050000Y-114329605D01*
X135312458Y-115067147D01*
X135371219Y-115300328D01*
X135397297Y-115309457D01*
X135210545Y-115495884D01*
X135200328Y-115471219D01*
X134967147Y-115412458D01*
X134229605Y-116150000D01*
X134243748Y-116164143D01*
X134064143Y-116343748D01*
X134050000Y-116329605D01*
X134035858Y-116343748D01*
X133856253Y-116164143D01*
X133870395Y-116150000D01*
X133132853Y-115412458D01*
X132899672Y-115471219D01*
X132890543Y-115497297D01*
X132648957Y-115255289D01*
X132395248Y-115149940D01*
X132647394Y-115045755D01*
X132944711Y-114748957D01*
X133050060Y-114495248D01*
X133154245Y-114747394D01*
X133395884Y-114989455D01*
X133371219Y-114999672D01*
X133312458Y-115232853D01*
X134050000Y-115970395D01*
X134787542Y-115232853D01*
X134728781Y-114999672D01*
X134702703Y-114990543D01*
X134889455Y-114804116D01*
X134899672Y-114828781D01*
X135132853Y-114887542D01*
X135870395Y-114150000D01*
X135856253Y-114135858D01*
X136035858Y-113956253D01*
X136050000Y-113970395D01*
X136064143Y-113956253D01*
X136243748Y-114135858D01*
X136229605Y-114150000D01*
X136967147Y-114887542D01*
X137200328Y-114828781D01*
X137372522Y-114336900D01*
X137343375Y-113816566D01*
X137256156Y-113606001D01*
X137274999Y-113606001D01*
X137459070Y-113569387D01*
X137615117Y-113465119D01*
X137624236Y-113456000D01*
X146892877Y-113456000D01*
X146963741Y-113526987D01*
X147213946Y-113630882D01*
X147484865Y-113631118D01*
X147735252Y-113527661D01*
X147926987Y-113336259D01*
X148027529Y-113094129D01*
X149560829Y-111560829D01*
X149686774Y-111372339D01*
X149731000Y-111150000D01*
X149731000Y-110726595D01*
X149830882Y-110486054D01*
X149831118Y-110215135D01*
X149727661Y-109964748D01*
X149536259Y-109773013D01*
X149286054Y-109669118D01*
X149015135Y-109668882D01*
X148764748Y-109772339D01*
X148573013Y-109963741D01*
X148469118Y-110213946D01*
X148468882Y-110484865D01*
X148569000Y-110727171D01*
X148569000Y-110909342D01*
X147511262Y-111967080D01*
X147427661Y-111764748D01*
X147236259Y-111573013D01*
X146986054Y-111469118D01*
X146715135Y-111468882D01*
X146464748Y-111572339D01*
X146392962Y-111644000D01*
X137667239Y-111644000D01*
X136858378Y-110835140D01*
X136944711Y-110748957D01*
X137105816Y-110360973D01*
X137106183Y-109940870D01*
X136945755Y-109552606D01*
X136704116Y-109310545D01*
X136728781Y-109300328D01*
X136787542Y-109067147D01*
X136050000Y-108329605D01*
X135312458Y-109067147D01*
X135371219Y-109300328D01*
X135397297Y-109309457D01*
X135210545Y-109495884D01*
X135200328Y-109471219D01*
X134967147Y-109412458D01*
X134229605Y-110150000D01*
X134243748Y-110164143D01*
X134064143Y-110343748D01*
X134050000Y-110329605D01*
X134035858Y-110343748D01*
X133856253Y-110164143D01*
X133870395Y-110150000D01*
X133132853Y-109412458D01*
X132899672Y-109471219D01*
X132890543Y-109497297D01*
X132648957Y-109255289D01*
X132395248Y-109149940D01*
X132647394Y-109045755D01*
X132944711Y-108748957D01*
X133050060Y-108495248D01*
X133154245Y-108747394D01*
X133395884Y-108989455D01*
X133371219Y-108999672D01*
X133312458Y-109232853D01*
X134050000Y-109970395D01*
X134787542Y-109232853D01*
X134728781Y-108999672D01*
X134702703Y-108990543D01*
X134889455Y-108804116D01*
X134899672Y-108828781D01*
X135132853Y-108887542D01*
X135870395Y-108150000D01*
X136229605Y-108150000D01*
X136967147Y-108887542D01*
X137200328Y-108828781D01*
X137372522Y-108336900D01*
X137343375Y-107816566D01*
X137200328Y-107471219D01*
X136967147Y-107412458D01*
X136229605Y-108150000D01*
X135870395Y-108150000D01*
X135132853Y-107412458D01*
X134899672Y-107471219D01*
X134890543Y-107497297D01*
X134648957Y-107255289D01*
X134395248Y-107149940D01*
X134647394Y-107045755D01*
X134944711Y-106748957D01*
X135050060Y-106495248D01*
X135154245Y-106747394D01*
X135395884Y-106989455D01*
X135371219Y-106999672D01*
X135312458Y-107232853D01*
X136050000Y-107970395D01*
X136787542Y-107232853D01*
X136728781Y-106999672D01*
X136702703Y-106990543D01*
X136944711Y-106748957D01*
X137105816Y-106360973D01*
X137106183Y-105940870D01*
X136945755Y-105552606D01*
X136648957Y-105255289D01*
X136395248Y-105149940D01*
X136647394Y-105045755D01*
X136944711Y-104748957D01*
X137105816Y-104360973D01*
X137106183Y-103940870D01*
X136945755Y-103552606D01*
X136648957Y-103255289D01*
X136395248Y-103149940D01*
X136647394Y-103045755D01*
X136944711Y-102748957D01*
X137105816Y-102360973D01*
X137106183Y-101940870D01*
X136945755Y-101552606D01*
X136648957Y-101255289D01*
X136395248Y-101149940D01*
X136647394Y-101045755D01*
X136944711Y-100748957D01*
X137105816Y-100360973D01*
X137106107Y-100027765D01*
X139268964Y-102190622D01*
X139268864Y-102304669D01*
X139387514Y-102591823D01*
X139607021Y-102811714D01*
X139893968Y-102930864D01*
X140009307Y-102930965D01*
X145568964Y-108490622D01*
X145568864Y-108604669D01*
X145687514Y-108891823D01*
X145907021Y-109111714D01*
X146193968Y-109230864D01*
X146504669Y-109231136D01*
X146791823Y-109112486D01*
X147011714Y-108892979D01*
X147130864Y-108606032D01*
X147131136Y-108295331D01*
X147012486Y-108008177D01*
X146792979Y-107788286D01*
X146506032Y-107669136D01*
X146390693Y-107669035D01*
X140831036Y-102109378D01*
X140831136Y-101995331D01*
X140712486Y-101708177D01*
X140492979Y-101488286D01*
X140206032Y-101369136D01*
X140090693Y-101369035D01*
X137452658Y-98731000D01*
X138850000Y-98731000D01*
X139072339Y-98686774D01*
X139260829Y-98560829D01*
X140560829Y-97260829D01*
X140686774Y-97072339D01*
X140731000Y-96850000D01*
X140731000Y-93773552D01*
X140811714Y-93692979D01*
X140930864Y-93406032D01*
X140931136Y-93095331D01*
X140812486Y-92808177D01*
X140592979Y-92588286D01*
X140306032Y-92469136D01*
X139995331Y-92468864D01*
X139708177Y-92587514D01*
X139488286Y-92807021D01*
X139369136Y-93093968D01*
X139368864Y-93404669D01*
X139487514Y-93691823D01*
X139569000Y-93773452D01*
X139569000Y-96609342D01*
X138609342Y-97569000D01*
X136952529Y-97569000D01*
X136945755Y-97552606D01*
X136648957Y-97255289D01*
X136395248Y-97149940D01*
X136647394Y-97045755D01*
X136944711Y-96748957D01*
X137105816Y-96360973D01*
X137106183Y-95940870D01*
X136967817Y-95606001D01*
X137574999Y-95606001D01*
X137759070Y-95569387D01*
X137915117Y-95465119D01*
X138449324Y-94930912D01*
X138704669Y-94931136D01*
X138991823Y-94812486D01*
X139211714Y-94592979D01*
X139330864Y-94306032D01*
X139331136Y-93995331D01*
X139212486Y-93708177D01*
X139131000Y-93626548D01*
X139131000Y-80890658D01*
X139768909Y-80252749D01*
X139768864Y-80304669D01*
X139887514Y-80591823D01*
X139969000Y-80673452D01*
X139969000Y-88050000D01*
X140013226Y-88272339D01*
X140139171Y-88460829D01*
X145769171Y-94090829D01*
X145957661Y-94216774D01*
X146180000Y-94261000D01*
X146445051Y-94261000D01*
X146453103Y-94303790D01*
X146459196Y-94313259D01*
X146457141Y-94316266D01*
X146426536Y-94467400D01*
X146426536Y-95432600D01*
X146453103Y-95573790D01*
X146459196Y-95583259D01*
X146457141Y-95586266D01*
X146426536Y-95737400D01*
X146426536Y-95951806D01*
X146109378Y-96268964D01*
X145995331Y-96268864D01*
X145708177Y-96387514D01*
X145488286Y-96607021D01*
X145369136Y-96893968D01*
X145368864Y-97204669D01*
X145487514Y-97491823D01*
X145707021Y-97711714D01*
X145993968Y-97830864D01*
X146304669Y-97831136D01*
X146591823Y-97712486D01*
X146811714Y-97492979D01*
X146930864Y-97206032D01*
X146930965Y-97091064D01*
X148085000Y-97091064D01*
X148226190Y-97064497D01*
X148355865Y-96981054D01*
X148442859Y-96853734D01*
X148473464Y-96702600D01*
X148473464Y-95737400D01*
X148446897Y-95596210D01*
X148440804Y-95586741D01*
X148442859Y-95583734D01*
X148453538Y-95531000D01*
X151750000Y-95531000D01*
X151779949Y-95525043D01*
X151793968Y-95530864D01*
X152104669Y-95531136D01*
X152391823Y-95412486D01*
X152611714Y-95192979D01*
X152730864Y-94906032D01*
X152731136Y-94595331D01*
X152612486Y-94308177D01*
X152565391Y-94261000D01*
X157425716Y-94261000D01*
X157593968Y-94330864D01*
X157709307Y-94330965D01*
X160399000Y-97020658D01*
X160399000Y-107545051D01*
X160356210Y-107553103D01*
X160226535Y-107636546D01*
X160139541Y-107763866D01*
X160108936Y-107915000D01*
X160108936Y-109185000D01*
X160135503Y-109326190D01*
X160218946Y-109455865D01*
X160259659Y-109483683D01*
X160039170Y-109704172D01*
X159913225Y-109892662D01*
X159868999Y-110115001D01*
X159868999Y-114484999D01*
X159913225Y-114707338D01*
X160039170Y-114895828D01*
X160258998Y-115115656D01*
X160226535Y-115136546D01*
X160139541Y-115263866D01*
X160108936Y-115415000D01*
X160108936Y-116685000D01*
X160135503Y-116826190D01*
X160218946Y-116955865D01*
X160259659Y-116983683D01*
X160039170Y-117204172D01*
X159913225Y-117392662D01*
X159868999Y-117615001D01*
X159868999Y-121984999D01*
X159913225Y-122207338D01*
X160039170Y-122395828D01*
X160258998Y-122615656D01*
X160226535Y-122636546D01*
X160139541Y-122763866D01*
X160108936Y-122915000D01*
X160108936Y-124004001D01*
X152925659Y-124004001D01*
X152481079Y-123559421D01*
X152481126Y-123505233D01*
X152370073Y-123236463D01*
X152164619Y-123030650D01*
X151896043Y-122919127D01*
X151605233Y-122918874D01*
X151336463Y-123029927D01*
X151130650Y-123235381D01*
X151019127Y-123503957D01*
X151018874Y-123794767D01*
X151129927Y-124063537D01*
X151335381Y-124269350D01*
X151603957Y-124380873D01*
X151659263Y-124380921D01*
X152274172Y-124995830D01*
X152462662Y-125121775D01*
X152685001Y-125166001D01*
X161782601Y-125166001D01*
X161971724Y-125128382D01*
X164404171Y-127560829D01*
X164592661Y-127686774D01*
X164815000Y-127731000D01*
X171084342Y-127731000D01*
X172739878Y-129386536D01*
X172675000Y-129386536D01*
X172533810Y-129413103D01*
X172404135Y-129496546D01*
X172317141Y-129623866D01*
X172286536Y-129775000D01*
X172286536Y-130353630D01*
X172115405Y-129939463D01*
X171762396Y-129585836D01*
X171300930Y-129394219D01*
X170801262Y-129393783D01*
X170339463Y-129584595D01*
X169985836Y-129937604D01*
X169799779Y-130385680D01*
X169615405Y-129939463D01*
X169262396Y-129585836D01*
X168800930Y-129394219D01*
X168301262Y-129393783D01*
X167839463Y-129584595D01*
X167485836Y-129937604D01*
X167299779Y-130385680D01*
X167115405Y-129939463D01*
X166762396Y-129585836D01*
X166300930Y-129394219D01*
X165801262Y-129393783D01*
X165339463Y-129584595D01*
X164985836Y-129937604D01*
X164799779Y-130385680D01*
X164615405Y-129939463D01*
X164262396Y-129585836D01*
X163800930Y-129394219D01*
X163301262Y-129393783D01*
X162839463Y-129584595D01*
X162485836Y-129937604D01*
X162299779Y-130385680D01*
X162115405Y-129939463D01*
X161762396Y-129585836D01*
X161300930Y-129394219D01*
X160801262Y-129393783D01*
X160339463Y-129584595D01*
X159985836Y-129937604D01*
X159799779Y-130385680D01*
X159615405Y-129939463D01*
X159262396Y-129585836D01*
X158800930Y-129394219D01*
X158301262Y-129393783D01*
X157839463Y-129584595D01*
X157485836Y-129937604D01*
X157299779Y-130385680D01*
X157115405Y-129939463D01*
X156762396Y-129585836D01*
X156300930Y-129394219D01*
X155801262Y-129393783D01*
X155339463Y-129584595D01*
X154985836Y-129937604D01*
X154799779Y-130385680D01*
X154615405Y-129939463D01*
X154262396Y-129585836D01*
X153800930Y-129394219D01*
X153301262Y-129393783D01*
X152839463Y-129584595D01*
X152485836Y-129937604D01*
X152443803Y-130038831D01*
X152365953Y-129850884D01*
X152112060Y-129767545D01*
X151229605Y-130650000D01*
X152112060Y-131532455D01*
X152365953Y-131449116D01*
X152438696Y-131249454D01*
X152484595Y-131360537D01*
X152837604Y-131714164D01*
X153299070Y-131905781D01*
X153798738Y-131906217D01*
X154260537Y-131715405D01*
X154614164Y-131362396D01*
X154800221Y-130914320D01*
X154984595Y-131360537D01*
X155337604Y-131714164D01*
X155799070Y-131905781D01*
X156298738Y-131906217D01*
X156760537Y-131715405D01*
X157114164Y-131362396D01*
X157300221Y-130914320D01*
X157484595Y-131360537D01*
X157837604Y-131714164D01*
X158299070Y-131905781D01*
X158798738Y-131906217D01*
X159260537Y-131715405D01*
X159614164Y-131362396D01*
X159800221Y-130914320D01*
X159984595Y-131360537D01*
X160337604Y-131714164D01*
X160799070Y-131905781D01*
X161298738Y-131906217D01*
X161760537Y-131715405D01*
X162114164Y-131362396D01*
X162300221Y-130914320D01*
X162484595Y-131360537D01*
X162837604Y-131714164D01*
X163299070Y-131905781D01*
X163798738Y-131906217D01*
X164260537Y-131715405D01*
X164614164Y-131362396D01*
X164800221Y-130914320D01*
X164984595Y-131360537D01*
X165337604Y-131714164D01*
X165799070Y-131905781D01*
X166298738Y-131906217D01*
X166760537Y-131715405D01*
X167114164Y-131362396D01*
X167300221Y-130914320D01*
X167484595Y-131360537D01*
X167837604Y-131714164D01*
X168299070Y-131905781D01*
X168798738Y-131906217D01*
X169260537Y-131715405D01*
X169614164Y-131362396D01*
X169800221Y-130914320D01*
X169984595Y-131360537D01*
X170337604Y-131714164D01*
X170799070Y-131905781D01*
X171298738Y-131906217D01*
X171760537Y-131715405D01*
X172114164Y-131362396D01*
X172286536Y-130947277D01*
X172286536Y-131525000D01*
X172313103Y-131666190D01*
X172396546Y-131795865D01*
X172523866Y-131882859D01*
X172675000Y-131913464D01*
X174425000Y-131913464D01*
X174566190Y-131886897D01*
X174695865Y-131803454D01*
X174782859Y-131676134D01*
X174813464Y-131525000D01*
X174813464Y-129775000D01*
X174786897Y-129633810D01*
X174703454Y-129504135D01*
X174576134Y-129417141D01*
X174425000Y-129386536D01*
X174131000Y-129386536D01*
X174131000Y-129375000D01*
X174086774Y-129152661D01*
X173960829Y-128964171D01*
X171735829Y-126739171D01*
X171547339Y-126613226D01*
X171325000Y-126569000D01*
X165055658Y-126569000D01*
X163060122Y-124573464D01*
X164002600Y-124573464D01*
X164143790Y-124546897D01*
X164273465Y-124463454D01*
X164360459Y-124336134D01*
X164391064Y-124185000D01*
X164391064Y-122915000D01*
X164364497Y-122773810D01*
X164281054Y-122644135D01*
X164153734Y-122557141D01*
X164101000Y-122546462D01*
X164101000Y-117054949D01*
X164143790Y-117046897D01*
X164255521Y-116975000D01*
X164786536Y-116975000D01*
X164786536Y-118725000D01*
X164813103Y-118866190D01*
X164896546Y-118995865D01*
X165023866Y-119082859D01*
X165175000Y-119113464D01*
X166925000Y-119113464D01*
X167066190Y-119086897D01*
X167195865Y-119003454D01*
X167282859Y-118876134D01*
X167313464Y-118725000D01*
X167313464Y-118146370D01*
X167484595Y-118560537D01*
X167837604Y-118914164D01*
X168299070Y-119105781D01*
X168798738Y-119106217D01*
X169260537Y-118915405D01*
X169614164Y-118562396D01*
X169800221Y-118114320D01*
X169984595Y-118560537D01*
X170337604Y-118914164D01*
X170799070Y-119105781D01*
X171298738Y-119106217D01*
X171760537Y-118915405D01*
X171763887Y-118912060D01*
X172667545Y-118912060D01*
X172750884Y-119165953D01*
X173315306Y-119371590D01*
X173915458Y-119345579D01*
X174349116Y-119165953D01*
X174432455Y-118912060D01*
X173550000Y-118029605D01*
X172667545Y-118912060D01*
X171763887Y-118912060D01*
X172114164Y-118562396D01*
X172156197Y-118461169D01*
X172234047Y-118649116D01*
X172487940Y-118732455D01*
X173370395Y-117850000D01*
X173729605Y-117850000D01*
X174612060Y-118732455D01*
X174865953Y-118649116D01*
X175071590Y-118084694D01*
X175045579Y-117484542D01*
X174865953Y-117050884D01*
X174612060Y-116967545D01*
X173729605Y-117850000D01*
X173370395Y-117850000D01*
X172487940Y-116967545D01*
X172234047Y-117050884D01*
X172161304Y-117250546D01*
X172115405Y-117139463D01*
X171764497Y-116787940D01*
X172667545Y-116787940D01*
X173550000Y-117670395D01*
X174432455Y-116787940D01*
X174349116Y-116534047D01*
X173784694Y-116328410D01*
X173184542Y-116354421D01*
X172750884Y-116534047D01*
X172667545Y-116787940D01*
X171764497Y-116787940D01*
X171762396Y-116785836D01*
X171300930Y-116594219D01*
X170801262Y-116593783D01*
X170339463Y-116784595D01*
X169985836Y-117137604D01*
X169799779Y-117585680D01*
X169615405Y-117139463D01*
X169262396Y-116785836D01*
X168800930Y-116594219D01*
X168301262Y-116593783D01*
X167839463Y-116784595D01*
X167485836Y-117137604D01*
X167313464Y-117552723D01*
X167313464Y-116975000D01*
X167286897Y-116833810D01*
X167203454Y-116704135D01*
X167076134Y-116617141D01*
X166925000Y-116586536D01*
X165175000Y-116586536D01*
X165033810Y-116613103D01*
X164904135Y-116696546D01*
X164817141Y-116823866D01*
X164786536Y-116975000D01*
X164255521Y-116975000D01*
X164273465Y-116963454D01*
X164360459Y-116836134D01*
X164391064Y-116685000D01*
X164391064Y-115415000D01*
X164364497Y-115273810D01*
X164281054Y-115144135D01*
X164153734Y-115057141D01*
X164101000Y-115046462D01*
X164101000Y-109554949D01*
X164143790Y-109546897D01*
X164255521Y-109475000D01*
X164786536Y-109475000D01*
X164786536Y-111225000D01*
X164813103Y-111366190D01*
X164896546Y-111495865D01*
X165023866Y-111582859D01*
X165175000Y-111613464D01*
X166925000Y-111613464D01*
X167066190Y-111586897D01*
X167195865Y-111503454D01*
X167282859Y-111376134D01*
X167313464Y-111225000D01*
X167313464Y-110646370D01*
X167484595Y-111060537D01*
X167837604Y-111414164D01*
X168299070Y-111605781D01*
X168798738Y-111606217D01*
X169260537Y-111415405D01*
X169614164Y-111062396D01*
X169800221Y-110614320D01*
X169984595Y-111060537D01*
X170337604Y-111414164D01*
X170799070Y-111605781D01*
X171298738Y-111606217D01*
X171760537Y-111415405D01*
X171763887Y-111412060D01*
X172667545Y-111412060D01*
X172750884Y-111665953D01*
X173315306Y-111871590D01*
X173915458Y-111845579D01*
X174349116Y-111665953D01*
X174432455Y-111412060D01*
X173550000Y-110529605D01*
X172667545Y-111412060D01*
X171763887Y-111412060D01*
X172114164Y-111062396D01*
X172156197Y-110961169D01*
X172234047Y-111149116D01*
X172487940Y-111232455D01*
X173370395Y-110350000D01*
X173729605Y-110350000D01*
X174612060Y-111232455D01*
X174865953Y-111149116D01*
X175071590Y-110584694D01*
X175045579Y-109984542D01*
X174865953Y-109550884D01*
X174612060Y-109467545D01*
X173729605Y-110350000D01*
X173370395Y-110350000D01*
X172487940Y-109467545D01*
X172234047Y-109550884D01*
X172161304Y-109750546D01*
X172115405Y-109639463D01*
X171764497Y-109287940D01*
X172667545Y-109287940D01*
X173550000Y-110170395D01*
X174432455Y-109287940D01*
X174349116Y-109034047D01*
X173784694Y-108828410D01*
X173184542Y-108854421D01*
X172750884Y-109034047D01*
X172667545Y-109287940D01*
X171764497Y-109287940D01*
X171762396Y-109285836D01*
X171300930Y-109094219D01*
X170801262Y-109093783D01*
X170339463Y-109284595D01*
X169985836Y-109637604D01*
X169799779Y-110085680D01*
X169615405Y-109639463D01*
X169262396Y-109285836D01*
X168800930Y-109094219D01*
X168301262Y-109093783D01*
X167839463Y-109284595D01*
X167485836Y-109637604D01*
X167313464Y-110052723D01*
X167313464Y-109475000D01*
X167286897Y-109333810D01*
X167203454Y-109204135D01*
X167076134Y-109117141D01*
X166925000Y-109086536D01*
X165175000Y-109086536D01*
X165033810Y-109113103D01*
X164904135Y-109196546D01*
X164817141Y-109323866D01*
X164786536Y-109475000D01*
X164255521Y-109475000D01*
X164273465Y-109463454D01*
X164360459Y-109336134D01*
X164391064Y-109185000D01*
X164391064Y-107915000D01*
X164364497Y-107773810D01*
X164281054Y-107644135D01*
X164153734Y-107557141D01*
X164101000Y-107546462D01*
X164101000Y-101975000D01*
X164786536Y-101975000D01*
X164786536Y-103725000D01*
X164813103Y-103866190D01*
X164896546Y-103995865D01*
X165023866Y-104082859D01*
X165175000Y-104113464D01*
X166925000Y-104113464D01*
X167066190Y-104086897D01*
X167195865Y-104003454D01*
X167282859Y-103876134D01*
X167313464Y-103725000D01*
X167313464Y-103146370D01*
X167484595Y-103560537D01*
X167837604Y-103914164D01*
X168299070Y-104105781D01*
X168798738Y-104106217D01*
X169260537Y-103915405D01*
X169614164Y-103562396D01*
X169800221Y-103114320D01*
X169984595Y-103560537D01*
X170337604Y-103914164D01*
X170799070Y-104105781D01*
X171298738Y-104106217D01*
X171760537Y-103915405D01*
X171763887Y-103912060D01*
X172667545Y-103912060D01*
X172750884Y-104165953D01*
X173315306Y-104371590D01*
X173915458Y-104345579D01*
X174349116Y-104165953D01*
X174432455Y-103912060D01*
X173550000Y-103029605D01*
X172667545Y-103912060D01*
X171763887Y-103912060D01*
X172114164Y-103562396D01*
X172156197Y-103461169D01*
X172234047Y-103649116D01*
X172487940Y-103732455D01*
X173370395Y-102850000D01*
X173729605Y-102850000D01*
X174612060Y-103732455D01*
X174865953Y-103649116D01*
X175071590Y-103084694D01*
X175045579Y-102484542D01*
X174865953Y-102050884D01*
X174612060Y-101967545D01*
X173729605Y-102850000D01*
X173370395Y-102850000D01*
X172487940Y-101967545D01*
X172234047Y-102050884D01*
X172161304Y-102250546D01*
X172115405Y-102139463D01*
X171764497Y-101787940D01*
X172667545Y-101787940D01*
X173550000Y-102670395D01*
X174432455Y-101787940D01*
X174349116Y-101534047D01*
X173784694Y-101328410D01*
X173184542Y-101354421D01*
X172750884Y-101534047D01*
X172667545Y-101787940D01*
X171764497Y-101787940D01*
X171762396Y-101785836D01*
X171300930Y-101594219D01*
X170801262Y-101593783D01*
X170339463Y-101784595D01*
X169985836Y-102137604D01*
X169799779Y-102585680D01*
X169615405Y-102139463D01*
X169262396Y-101785836D01*
X168800930Y-101594219D01*
X168301262Y-101593783D01*
X167839463Y-101784595D01*
X167485836Y-102137604D01*
X167313464Y-102552723D01*
X167313464Y-101975000D01*
X167286897Y-101833810D01*
X167203454Y-101704135D01*
X167076134Y-101617141D01*
X166925000Y-101586536D01*
X165175000Y-101586536D01*
X165033810Y-101613103D01*
X164904135Y-101696546D01*
X164817141Y-101823866D01*
X164786536Y-101975000D01*
X164101000Y-101975000D01*
X164101000Y-96845658D01*
X164786536Y-96160122D01*
X164786536Y-96225000D01*
X164813103Y-96366190D01*
X164896546Y-96495865D01*
X165023866Y-96582859D01*
X165175000Y-96613464D01*
X166925000Y-96613464D01*
X167066190Y-96586897D01*
X167195865Y-96503454D01*
X167282859Y-96376134D01*
X167313464Y-96225000D01*
X167313464Y-95646370D01*
X167484595Y-96060537D01*
X167837604Y-96414164D01*
X168299070Y-96605781D01*
X168798738Y-96606217D01*
X169260537Y-96415405D01*
X169614164Y-96062396D01*
X169800221Y-95614320D01*
X169984595Y-96060537D01*
X170337604Y-96414164D01*
X170799070Y-96605781D01*
X171298738Y-96606217D01*
X171760537Y-96415405D01*
X171763887Y-96412060D01*
X172667545Y-96412060D01*
X172750884Y-96665953D01*
X173315306Y-96871590D01*
X173915458Y-96845579D01*
X174349116Y-96665953D01*
X174432455Y-96412060D01*
X173550000Y-95529605D01*
X172667545Y-96412060D01*
X171763887Y-96412060D01*
X172114164Y-96062396D01*
X172156197Y-95961169D01*
X172234047Y-96149116D01*
X172487940Y-96232455D01*
X173370395Y-95350000D01*
X173729605Y-95350000D01*
X174612060Y-96232455D01*
X174865953Y-96149116D01*
X175071590Y-95584694D01*
X175045579Y-94984542D01*
X174865953Y-94550884D01*
X174612060Y-94467545D01*
X173729605Y-95350000D01*
X173370395Y-95350000D01*
X172487940Y-94467545D01*
X172234047Y-94550884D01*
X172161304Y-94750546D01*
X172115405Y-94639463D01*
X171764497Y-94287940D01*
X172667545Y-94287940D01*
X173550000Y-95170395D01*
X174432455Y-94287940D01*
X174349116Y-94034047D01*
X173784694Y-93828410D01*
X173184542Y-93854421D01*
X172750884Y-94034047D01*
X172667545Y-94287940D01*
X171764497Y-94287940D01*
X171762396Y-94285836D01*
X171300930Y-94094219D01*
X170801262Y-94093783D01*
X170339463Y-94284595D01*
X169985836Y-94637604D01*
X169799779Y-95085680D01*
X169615405Y-94639463D01*
X169262396Y-94285836D01*
X168800930Y-94094219D01*
X168301262Y-94093783D01*
X167839463Y-94284595D01*
X167485836Y-94637604D01*
X167313464Y-95052723D01*
X167313464Y-94475000D01*
X167286897Y-94333810D01*
X167203454Y-94204135D01*
X167076134Y-94117141D01*
X166925000Y-94086536D01*
X165175000Y-94086536D01*
X165033810Y-94113103D01*
X164904135Y-94196546D01*
X164817141Y-94323866D01*
X164786536Y-94475000D01*
X164786536Y-94769000D01*
X164775000Y-94769000D01*
X164552661Y-94813226D01*
X164364171Y-94939171D01*
X163109171Y-96194171D01*
X162983226Y-96382661D01*
X162939000Y-96605000D01*
X162939000Y-107545051D01*
X162896210Y-107553103D01*
X162886741Y-107559196D01*
X162883734Y-107557141D01*
X162732600Y-107526536D01*
X161767400Y-107526536D01*
X161626210Y-107553103D01*
X161616741Y-107559196D01*
X161613734Y-107557141D01*
X161561000Y-107546462D01*
X161561000Y-96780000D01*
X161516774Y-96557661D01*
X161390829Y-96369171D01*
X158531036Y-93509378D01*
X158531136Y-93395331D01*
X158412486Y-93108177D01*
X158192979Y-92888286D01*
X157906032Y-92769136D01*
X157595331Y-92768864D01*
X157308177Y-92887514D01*
X157096321Y-93099000D01*
X148454949Y-93099000D01*
X148446897Y-93056210D01*
X148363454Y-92926535D01*
X148236134Y-92839541D01*
X148085000Y-92808936D01*
X146815000Y-92808936D01*
X146673810Y-92835503D01*
X146544135Y-92918946D01*
X146457141Y-93046266D01*
X146446462Y-93099000D01*
X146420658Y-93099000D01*
X141131000Y-87809342D01*
X141131000Y-84784865D01*
X146030884Y-84784865D01*
X146134341Y-85035252D01*
X146325743Y-85226987D01*
X146575948Y-85330882D01*
X146641994Y-85330940D01*
X147090228Y-85779173D01*
X146864748Y-85872339D01*
X146673013Y-86063741D01*
X146569118Y-86313946D01*
X146568882Y-86584865D01*
X146672339Y-86835252D01*
X146719000Y-86881994D01*
X146719000Y-88850000D01*
X146759420Y-89053205D01*
X146874526Y-89225474D01*
X147668939Y-90019887D01*
X147668882Y-90084865D01*
X147772339Y-90335252D01*
X147963741Y-90526987D01*
X148213946Y-90630882D01*
X148484865Y-90631118D01*
X148735252Y-90527661D01*
X148926987Y-90336259D01*
X149030882Y-90086054D01*
X149030930Y-90030897D01*
X149268929Y-90031104D01*
X149268882Y-90084865D01*
X149372339Y-90335252D01*
X149563741Y-90526987D01*
X149813946Y-90630882D01*
X150084865Y-90631118D01*
X150335252Y-90527661D01*
X150526987Y-90336259D01*
X150630882Y-90086054D01*
X150631118Y-89815135D01*
X150527661Y-89564748D01*
X150481000Y-89518006D01*
X150481000Y-87888003D01*
X150481001Y-87887998D01*
X150440580Y-87684793D01*
X150325474Y-87512524D01*
X150325471Y-87512522D01*
X148861976Y-86049026D01*
X162842642Y-86049026D01*
X162845291Y-86064791D01*
X163099268Y-86592036D01*
X163535680Y-86981954D01*
X164088087Y-87175184D01*
X164323000Y-87030924D01*
X164323000Y-85817000D01*
X164577000Y-85817000D01*
X164577000Y-87030924D01*
X164811913Y-87175184D01*
X165364320Y-86981954D01*
X165800732Y-86592036D01*
X166054709Y-86064791D01*
X166057358Y-86049026D01*
X165936217Y-85817000D01*
X164577000Y-85817000D01*
X164323000Y-85817000D01*
X162963783Y-85817000D01*
X162842642Y-86049026D01*
X148861976Y-86049026D01*
X148143924Y-85330974D01*
X162842642Y-85330974D01*
X162963783Y-85563000D01*
X164323000Y-85563000D01*
X164323000Y-85543000D01*
X164577000Y-85543000D01*
X164577000Y-85563000D01*
X165936217Y-85563000D01*
X166057358Y-85330974D01*
X166054709Y-85315209D01*
X165800732Y-84787964D01*
X165364320Y-84398046D01*
X165091757Y-84302704D01*
X165106057Y-84299860D01*
X165509834Y-84030065D01*
X165779629Y-83626288D01*
X165874369Y-83150000D01*
X165779629Y-82673712D01*
X165509834Y-82269935D01*
X165106057Y-82000140D01*
X164629769Y-81905400D01*
X164270231Y-81905400D01*
X163793943Y-82000140D01*
X163390166Y-82269935D01*
X163120371Y-82673712D01*
X163025631Y-83150000D01*
X163120371Y-83626288D01*
X163390166Y-84030065D01*
X163793943Y-84299860D01*
X163808243Y-84302704D01*
X163535680Y-84398046D01*
X163099268Y-84787964D01*
X162845291Y-85315209D01*
X162842642Y-85330974D01*
X148143924Y-85330974D01*
X147393063Y-84580113D01*
X147393120Y-84515135D01*
X147289663Y-84264748D01*
X147098261Y-84073013D01*
X146848056Y-83969118D01*
X146577137Y-83968882D01*
X146326750Y-84072339D01*
X146135015Y-84263741D01*
X146031120Y-84513946D01*
X146030884Y-84784865D01*
X141131000Y-84784865D01*
X141131000Y-80673552D01*
X141211714Y-80592979D01*
X141240316Y-80524096D01*
X148477294Y-80524096D01*
X148649202Y-80940146D01*
X148967240Y-81258739D01*
X149382989Y-81431373D01*
X149833156Y-81431766D01*
X150249206Y-81259858D01*
X150567799Y-80941820D01*
X150740433Y-80526071D01*
X150740434Y-80524096D01*
X153359174Y-80524096D01*
X153531082Y-80940146D01*
X153849120Y-81258739D01*
X154264869Y-81431373D01*
X154715036Y-81431766D01*
X155131086Y-81259858D01*
X155449679Y-80941820D01*
X155622313Y-80526071D01*
X155622706Y-80075904D01*
X155486559Y-79746400D01*
X163045536Y-79746400D01*
X163045536Y-81473600D01*
X163072103Y-81614790D01*
X163155546Y-81744465D01*
X163282866Y-81831459D01*
X163434000Y-81862064D01*
X165466000Y-81862064D01*
X165607190Y-81835497D01*
X165736865Y-81752054D01*
X165823859Y-81624734D01*
X165854464Y-81473600D01*
X165854464Y-79746400D01*
X165827897Y-79605210D01*
X165744454Y-79475535D01*
X165617134Y-79388541D01*
X165466000Y-79357936D01*
X163434000Y-79357936D01*
X163292810Y-79384503D01*
X163163135Y-79467946D01*
X163076141Y-79595266D01*
X163045536Y-79746400D01*
X155486559Y-79746400D01*
X155450798Y-79659854D01*
X155132760Y-79341261D01*
X154717011Y-79168627D01*
X154266844Y-79168234D01*
X153850794Y-79340142D01*
X153532201Y-79658180D01*
X153359567Y-80073929D01*
X153359174Y-80524096D01*
X150740434Y-80524096D01*
X150740826Y-80075904D01*
X150568918Y-79659854D01*
X150250880Y-79341261D01*
X149835131Y-79168627D01*
X149384964Y-79168234D01*
X148968914Y-79340142D01*
X148650321Y-79658180D01*
X148477687Y-80073929D01*
X148477294Y-80524096D01*
X141240316Y-80524096D01*
X141330864Y-80306032D01*
X141331136Y-79995331D01*
X141212486Y-79708177D01*
X140992979Y-79488286D01*
X140706032Y-79369136D01*
X140652569Y-79369089D01*
X145399027Y-74622631D01*
X166613000Y-74622631D01*
X166613000Y-74677369D01*
X166719340Y-75211978D01*
X167022172Y-75665197D01*
X167475391Y-75968029D01*
X167479000Y-75968747D01*
X167479000Y-79110000D01*
X167519420Y-79313205D01*
X167634526Y-79485474D01*
X170910588Y-82761536D01*
X170500000Y-82761536D01*
X170358810Y-82788103D01*
X170229135Y-82871546D01*
X170142141Y-82998866D01*
X170111536Y-83150000D01*
X170111536Y-85650000D01*
X170138103Y-85791190D01*
X170221546Y-85920865D01*
X170348866Y-86007859D01*
X170500000Y-86038464D01*
X173000000Y-86038464D01*
X173141190Y-86011897D01*
X173270865Y-85928454D01*
X173357859Y-85801134D01*
X173388464Y-85650000D01*
X173388464Y-83150000D01*
X173361897Y-83008810D01*
X173278454Y-82879135D01*
X173151134Y-82792141D01*
X173000000Y-82761536D01*
X172263404Y-82761536D01*
X172240580Y-82646795D01*
X172125474Y-82474526D01*
X169373951Y-79723003D01*
X170118718Y-79723003D01*
X170366499Y-80322680D01*
X170824907Y-80781888D01*
X171424151Y-81030716D01*
X172073003Y-81031282D01*
X172672680Y-80783501D01*
X173131888Y-80325093D01*
X173380716Y-79725849D01*
X173381282Y-79076997D01*
X173133501Y-78477320D01*
X172675093Y-78018112D01*
X172075849Y-77769284D01*
X171426997Y-77768718D01*
X170827320Y-78016499D01*
X170368112Y-78474907D01*
X170119284Y-79074151D01*
X170118718Y-79723003D01*
X169373951Y-79723003D01*
X168541000Y-78890052D01*
X168541000Y-75968747D01*
X168544609Y-75968029D01*
X168997828Y-75665197D01*
X169145536Y-75444137D01*
X169145536Y-75666000D01*
X169172103Y-75807190D01*
X169255546Y-75936865D01*
X169382866Y-76023859D01*
X169534000Y-76054464D01*
X171566000Y-76054464D01*
X171707190Y-76027897D01*
X171836865Y-75944454D01*
X171923859Y-75817134D01*
X171954464Y-75666000D01*
X171954464Y-73634000D01*
X171927897Y-73492810D01*
X171844454Y-73363135D01*
X171717134Y-73276141D01*
X171566000Y-73245536D01*
X169534000Y-73245536D01*
X169392810Y-73272103D01*
X169263135Y-73355546D01*
X169176141Y-73482866D01*
X169145536Y-73634000D01*
X169145536Y-73855863D01*
X168997828Y-73634803D01*
X168544609Y-73331971D01*
X168010000Y-73225631D01*
X167475391Y-73331971D01*
X167022172Y-73634803D01*
X166719340Y-74088022D01*
X166613000Y-74622631D01*
X145399027Y-74622631D01*
X148230829Y-71790829D01*
X148356774Y-71602339D01*
X148401000Y-71380000D01*
X148401000Y-68984865D01*
X154468882Y-68984865D01*
X154569000Y-69227171D01*
X154569000Y-70573405D01*
X154469118Y-70813946D01*
X154468882Y-71084865D01*
X154572339Y-71335252D01*
X154763741Y-71526987D01*
X155013946Y-71630882D01*
X155284865Y-71631118D01*
X155535252Y-71527661D01*
X155726987Y-71336259D01*
X155830882Y-71086054D01*
X155831118Y-70815135D01*
X155731000Y-70572829D01*
X155731000Y-69226595D01*
X155830882Y-68986054D01*
X155831118Y-68715135D01*
X155727661Y-68464748D01*
X155536259Y-68273013D01*
X155286054Y-68169118D01*
X155015135Y-68168882D01*
X154764748Y-68272339D01*
X154573013Y-68463741D01*
X154469118Y-68713946D01*
X154468882Y-68984865D01*
X148401000Y-68984865D01*
X148401000Y-66554949D01*
X148443790Y-66546897D01*
X148573465Y-66463454D01*
X148660459Y-66336134D01*
X148691064Y-66185000D01*
X148691064Y-64915000D01*
X148664497Y-64773810D01*
X148581054Y-64644135D01*
X148453734Y-64557141D01*
X148324644Y-64531000D01*
X152009342Y-64531000D01*
X152331047Y-64852705D01*
X152379907Y-64925829D01*
X155014907Y-67560829D01*
X155203397Y-67686774D01*
X155425736Y-67731000D01*
X155473405Y-67731000D01*
X155705871Y-67827529D01*
X160039172Y-72160830D01*
X160227662Y-72286775D01*
X160450001Y-72331001D01*
X165049999Y-72331001D01*
X165272338Y-72286775D01*
X165460828Y-72160830D01*
X166794536Y-70827122D01*
X167035252Y-70727661D01*
X167226987Y-70536259D01*
X167330882Y-70286054D01*
X167331118Y-70015135D01*
X167272581Y-69873464D01*
X167627839Y-69873464D01*
X167777701Y-70023327D01*
X168011090Y-70120000D01*
X168334250Y-70120000D01*
X168493000Y-69961250D01*
X168493000Y-68977000D01*
X168747000Y-68977000D01*
X168747000Y-69961250D01*
X168905750Y-70120000D01*
X169228910Y-70120000D01*
X169462299Y-70023327D01*
X169640927Y-69844698D01*
X169737600Y-69611309D01*
X169737600Y-69135750D01*
X169578850Y-68977000D01*
X168747000Y-68977000D01*
X168493000Y-68977000D01*
X168473000Y-68977000D01*
X168473000Y-68723000D01*
X168493000Y-68723000D01*
X168493000Y-67738750D01*
X168747000Y-67738750D01*
X168747000Y-68723000D01*
X169578850Y-68723000D01*
X169737600Y-68564250D01*
X169737600Y-68088691D01*
X169640927Y-67855302D01*
X169462299Y-67676673D01*
X169228910Y-67580000D01*
X168905750Y-67580000D01*
X168747000Y-67738750D01*
X168493000Y-67738750D01*
X168334250Y-67580000D01*
X168011090Y-67580000D01*
X167818187Y-67659903D01*
X167817483Y-67656362D01*
X167707796Y-67492204D01*
X167531031Y-67315439D01*
X167531118Y-67215135D01*
X167472581Y-67073464D01*
X167627839Y-67073464D01*
X167777701Y-67223327D01*
X168011090Y-67320000D01*
X168334250Y-67320000D01*
X168493000Y-67161250D01*
X168493000Y-66177000D01*
X168747000Y-66177000D01*
X168747000Y-67161250D01*
X168905750Y-67320000D01*
X169228910Y-67320000D01*
X169462299Y-67223327D01*
X169640927Y-67044698D01*
X169737600Y-66811309D01*
X169737600Y-66335750D01*
X169578850Y-66177000D01*
X168747000Y-66177000D01*
X168493000Y-66177000D01*
X168473000Y-66177000D01*
X168473000Y-65923000D01*
X168493000Y-65923000D01*
X168493000Y-64938750D01*
X168747000Y-64938750D01*
X168747000Y-65923000D01*
X169578850Y-65923000D01*
X169737600Y-65764250D01*
X169737600Y-65288691D01*
X169640927Y-65055302D01*
X169462299Y-64876673D01*
X169228910Y-64780000D01*
X168905750Y-64780000D01*
X168747000Y-64938750D01*
X168493000Y-64938750D01*
X168430890Y-64876640D01*
X168431118Y-64615135D01*
X168374980Y-64479270D01*
X168493000Y-64361250D01*
X168493000Y-63377000D01*
X168747000Y-63377000D01*
X168747000Y-64361250D01*
X168905750Y-64520000D01*
X169228910Y-64520000D01*
X169462299Y-64423327D01*
X169640927Y-64244698D01*
X169737600Y-64011309D01*
X169737600Y-63535750D01*
X169578850Y-63377000D01*
X168747000Y-63377000D01*
X168493000Y-63377000D01*
X168473000Y-63377000D01*
X168473000Y-63123000D01*
X168493000Y-63123000D01*
X168493000Y-62138750D01*
X168747000Y-62138750D01*
X168747000Y-63123000D01*
X169578850Y-63123000D01*
X169737600Y-62964250D01*
X169737600Y-62488691D01*
X169640927Y-62255302D01*
X169462299Y-62076673D01*
X169228910Y-61980000D01*
X168905750Y-61980000D01*
X168747000Y-62138750D01*
X168493000Y-62138750D01*
X168334250Y-61980000D01*
X168011090Y-61980000D01*
X167777701Y-62076673D01*
X167627839Y-62226536D01*
X166867400Y-62226536D01*
X166726210Y-62253103D01*
X166716741Y-62259196D01*
X166713734Y-62257141D01*
X166562600Y-62226536D01*
X165597400Y-62226536D01*
X165456210Y-62253103D01*
X165326535Y-62336546D01*
X165239541Y-62463866D01*
X165208936Y-62615000D01*
X165208936Y-63885000D01*
X165235503Y-64026190D01*
X165318946Y-64155865D01*
X165446266Y-64242859D01*
X165499000Y-64253538D01*
X165499000Y-65045051D01*
X165456210Y-65053103D01*
X165326535Y-65136546D01*
X165239541Y-65263866D01*
X165208936Y-65415000D01*
X165208936Y-66685000D01*
X165235503Y-66826190D01*
X165318946Y-66955865D01*
X165446266Y-67042859D01*
X165499000Y-67053538D01*
X165499000Y-67845051D01*
X165456210Y-67853103D01*
X165326535Y-67936546D01*
X165239541Y-68063866D01*
X165208936Y-68215000D01*
X165208936Y-69485000D01*
X165235503Y-69626190D01*
X165318946Y-69755865D01*
X165446266Y-69842859D01*
X165597400Y-69873464D01*
X165679219Y-69873464D01*
X165722204Y-69937796D01*
X165881375Y-70096967D01*
X164809341Y-71169001D01*
X163830897Y-71169001D01*
X163831118Y-70915135D01*
X163727661Y-70664748D01*
X163536259Y-70473013D01*
X163286054Y-70369118D01*
X163130984Y-70368983D01*
X163131118Y-70215135D01*
X163027661Y-69964748D01*
X162836259Y-69773013D01*
X162586054Y-69669118D01*
X162530984Y-69669070D01*
X162531118Y-69515135D01*
X162427661Y-69264748D01*
X162236259Y-69073013D01*
X161986054Y-68969118D01*
X161884622Y-68969030D01*
X154676000Y-61760408D01*
X154676000Y-57772869D01*
X154866395Y-57694200D01*
X155212983Y-57348216D01*
X155400786Y-56895935D01*
X155400787Y-56893787D01*
X155478787Y-56893787D01*
X155665800Y-57346395D01*
X156011784Y-57692983D01*
X156204000Y-57772798D01*
X156204000Y-61335002D01*
X156242517Y-61528640D01*
X156352204Y-61692798D01*
X161669035Y-67009629D01*
X161668882Y-67184865D01*
X161772339Y-67435252D01*
X161963741Y-67626987D01*
X162213946Y-67730882D01*
X162484865Y-67731118D01*
X162735252Y-67627661D01*
X162926987Y-67436259D01*
X163030882Y-67186054D01*
X163031118Y-66915135D01*
X162927661Y-66664748D01*
X162813080Y-66549968D01*
X162926987Y-66436259D01*
X163030882Y-66186054D01*
X163031017Y-66030984D01*
X163184865Y-66031118D01*
X163435252Y-65927661D01*
X163626987Y-65736259D01*
X163730882Y-65486054D01*
X163731017Y-65330984D01*
X163884865Y-65331118D01*
X164135252Y-65227661D01*
X164326987Y-65036259D01*
X164430882Y-64786054D01*
X164431017Y-64630984D01*
X164584865Y-64631118D01*
X164835252Y-64527661D01*
X165026987Y-64336259D01*
X165130882Y-64086054D01*
X165131118Y-63815135D01*
X165027661Y-63564748D01*
X164956000Y-63492962D01*
X164956000Y-61032400D01*
X171743936Y-61032400D01*
X171743936Y-63267600D01*
X171770503Y-63408790D01*
X171853946Y-63538465D01*
X171981266Y-63625459D01*
X172132400Y-63656064D01*
X174367600Y-63656064D01*
X174508790Y-63629497D01*
X174638465Y-63546054D01*
X174725459Y-63418734D01*
X174756064Y-63267600D01*
X174756064Y-61032400D01*
X174729497Y-60891210D01*
X174646054Y-60761535D01*
X174518734Y-60674541D01*
X174367600Y-60643936D01*
X172132400Y-60643936D01*
X171991210Y-60670503D01*
X171861535Y-60753946D01*
X171774541Y-60881266D01*
X171743936Y-61032400D01*
X164956000Y-61032400D01*
X164956000Y-60500906D01*
X167227796Y-58229110D01*
X167337483Y-58064952D01*
X167376000Y-57871314D01*
X167376000Y-57772869D01*
X167566395Y-57694200D01*
X167566637Y-57693958D01*
X168545647Y-57693958D01*
X168625920Y-57945259D01*
X169181279Y-58146718D01*
X169771458Y-58120315D01*
X170194080Y-57945259D01*
X170274353Y-57693958D01*
X169410000Y-56829605D01*
X168545647Y-57693958D01*
X167566637Y-57693958D01*
X167912983Y-57348216D01*
X167996181Y-57147852D01*
X168114741Y-57434080D01*
X168366042Y-57514353D01*
X169230395Y-56650000D01*
X169589605Y-56650000D01*
X170453958Y-57514353D01*
X170705259Y-57434080D01*
X170906718Y-56878721D01*
X170880315Y-56288542D01*
X170705259Y-55865920D01*
X170453958Y-55785647D01*
X169589605Y-56650000D01*
X169230395Y-56650000D01*
X168366042Y-55785647D01*
X168114741Y-55865920D01*
X168004050Y-56171060D01*
X167914200Y-55953605D01*
X167568216Y-55607017D01*
X167115935Y-55419214D01*
X166626213Y-55418787D01*
X166173605Y-55605800D01*
X165827017Y-55951784D01*
X165639214Y-56404065D01*
X165638787Y-56893787D01*
X165825800Y-57346395D01*
X166171784Y-57692983D01*
X166285514Y-57740208D01*
X164256000Y-59769722D01*
X164256000Y-58641673D01*
X164687796Y-58209877D01*
X164797483Y-58045719D01*
X164836000Y-57852081D01*
X164836000Y-57772869D01*
X165026395Y-57694200D01*
X165372983Y-57348216D01*
X165560786Y-56895935D01*
X165561213Y-56406213D01*
X165374200Y-55953605D01*
X165028216Y-55607017D01*
X164575935Y-55419214D01*
X164086213Y-55418787D01*
X163633605Y-55605800D01*
X163287017Y-55951784D01*
X163099214Y-56404065D01*
X163098787Y-56893787D01*
X163285800Y-57346395D01*
X163631784Y-57692983D01*
X163731924Y-57734565D01*
X163556000Y-57910489D01*
X163556000Y-57910000D01*
X163517483Y-57716362D01*
X163407796Y-57552204D01*
X162941784Y-57086192D01*
X163020786Y-56895935D01*
X163021213Y-56406213D01*
X162834200Y-55953605D01*
X162488216Y-55607017D01*
X162035935Y-55419214D01*
X161546213Y-55418787D01*
X161093605Y-55605800D01*
X160747017Y-55951784D01*
X160559214Y-56404065D01*
X160558787Y-56893787D01*
X160745800Y-57346395D01*
X161091784Y-57692983D01*
X161544065Y-57880786D01*
X162033787Y-57881213D01*
X162226142Y-57801734D01*
X162544000Y-58119592D01*
X162544000Y-59228408D01*
X160401784Y-57086192D01*
X160480786Y-56895935D01*
X160481213Y-56406213D01*
X160294200Y-55953605D01*
X159948216Y-55607017D01*
X159495935Y-55419214D01*
X159006213Y-55418787D01*
X158553605Y-55605800D01*
X158207017Y-55951784D01*
X158019214Y-56404065D01*
X158018787Y-56893787D01*
X158205800Y-57346395D01*
X158551784Y-57692983D01*
X159004065Y-57880786D01*
X159493787Y-57881213D01*
X159686142Y-57801734D01*
X161844000Y-59959592D01*
X161844000Y-65592877D01*
X161773013Y-65663741D01*
X161767532Y-65676942D01*
X157216000Y-61125410D01*
X157216000Y-57772869D01*
X157406395Y-57694200D01*
X157752983Y-57348216D01*
X157940786Y-56895935D01*
X157941213Y-56406213D01*
X157754200Y-55953605D01*
X157408216Y-55607017D01*
X156955935Y-55419214D01*
X156466213Y-55418787D01*
X156013605Y-55605800D01*
X155667017Y-55951784D01*
X155479214Y-56404065D01*
X155478787Y-56893787D01*
X155400787Y-56893787D01*
X155401213Y-56406213D01*
X155214200Y-55953605D01*
X154868216Y-55607017D01*
X154415935Y-55419214D01*
X153926213Y-55418787D01*
X153473605Y-55605800D01*
X153127017Y-55951784D01*
X152939214Y-56404065D01*
X152938787Y-56893787D01*
X153125800Y-57346395D01*
X153471784Y-57692983D01*
X153664000Y-57772798D01*
X153664000Y-61673410D01*
X152136000Y-60145410D01*
X152136000Y-57772869D01*
X152326395Y-57694200D01*
X152672983Y-57348216D01*
X152860786Y-56895935D01*
X152861213Y-56406213D01*
X152674200Y-55953605D01*
X152328216Y-55607017D01*
X151875935Y-55419214D01*
X151386213Y-55418787D01*
X150933605Y-55605800D01*
X150587017Y-55951784D01*
X150399214Y-56404065D01*
X150398787Y-56893787D01*
X150585800Y-57346395D01*
X150931784Y-57692983D01*
X151124000Y-57772798D01*
X151124000Y-59769820D01*
X149596000Y-58241820D01*
X149596000Y-57772869D01*
X149786395Y-57694200D01*
X150132983Y-57348216D01*
X150320786Y-56895935D01*
X150321213Y-56406213D01*
X150134200Y-55953605D01*
X149788216Y-55607017D01*
X149335935Y-55419214D01*
X148846213Y-55418787D01*
X148393605Y-55605800D01*
X148047017Y-55951784D01*
X147859214Y-56404065D01*
X147858787Y-56893787D01*
X148045800Y-57346395D01*
X148391784Y-57692983D01*
X148584000Y-57772798D01*
X148584000Y-58451412D01*
X148622517Y-58645050D01*
X148732204Y-58809208D01*
X161091997Y-71169001D01*
X160690659Y-71169001D01*
X156527122Y-67005464D01*
X156427661Y-66764748D01*
X156236259Y-66573013D01*
X155986054Y-66469118D01*
X155715135Y-66468882D01*
X155609799Y-66512405D01*
X153250425Y-64153031D01*
X153201565Y-64079907D01*
X152660829Y-63539171D01*
X152472339Y-63413226D01*
X152250000Y-63369000D01*
X147131000Y-63369000D01*
X147131000Y-57888464D01*
X147400000Y-57888464D01*
X147541190Y-57861897D01*
X147670865Y-57778454D01*
X147757859Y-57651134D01*
X147788464Y-57500000D01*
X147788464Y-55800000D01*
X147761897Y-55658810D01*
X147678454Y-55529135D01*
X147551134Y-55442141D01*
X147400000Y-55411536D01*
X145700000Y-55411536D01*
X145558810Y-55438103D01*
X145429135Y-55521546D01*
X145342141Y-55648866D01*
X145311536Y-55800000D01*
X145311536Y-57500000D01*
X145338103Y-57641190D01*
X145421546Y-57770865D01*
X145548866Y-57857859D01*
X145700000Y-57888464D01*
X145969000Y-57888464D01*
X145969000Y-64545051D01*
X145926210Y-64553103D01*
X145916741Y-64559196D01*
X145913734Y-64557141D01*
X145762600Y-64526536D01*
X144797400Y-64526536D01*
X144656210Y-64553103D01*
X144526535Y-64636546D01*
X144439541Y-64763866D01*
X144408936Y-64915000D01*
X144408936Y-66185000D01*
X144435503Y-66326190D01*
X144518946Y-66455865D01*
X144646266Y-66542859D01*
X144699000Y-66553538D01*
X144699000Y-72386462D01*
X137516462Y-79569000D01*
X136952529Y-79569000D01*
X136945755Y-79552606D01*
X136648957Y-79255289D01*
X136260973Y-79094184D01*
X135840870Y-79093817D01*
X135822900Y-79101242D01*
X135385828Y-78664170D01*
X135197338Y-78538225D01*
X134974999Y-78493999D01*
X133125001Y-78493999D01*
X132902662Y-78538225D01*
X132714172Y-78664170D01*
X132277355Y-79100987D01*
X132260973Y-79094184D01*
X131840870Y-79093817D01*
X131452606Y-79254245D01*
X131155289Y-79551043D01*
X131113464Y-79651769D01*
X131113464Y-79475000D01*
X131086897Y-79333810D01*
X131003454Y-79204135D01*
X130876134Y-79117141D01*
X130725000Y-79086536D01*
X129375000Y-79086536D01*
X129233810Y-79113103D01*
X129104135Y-79196546D01*
X129049770Y-79276112D01*
X129003454Y-79204135D01*
X128876134Y-79117141D01*
X128725000Y-79086536D01*
X127375000Y-79086536D01*
X127233810Y-79113103D01*
X127104135Y-79196546D01*
X127017141Y-79323866D01*
X126986536Y-79475000D01*
X126986536Y-80825000D01*
X127013103Y-80966190D01*
X127096546Y-81095865D01*
X127223866Y-81182859D01*
X127375000Y-81213464D01*
X127551303Y-81213464D01*
X127452606Y-81254245D01*
X127155289Y-81551043D01*
X126994184Y-81939027D01*
X126993817Y-82359130D01*
X127154245Y-82747394D01*
X127395884Y-82989455D01*
X127371219Y-82999672D01*
X127312458Y-83232853D01*
X128050000Y-83970395D01*
X128787542Y-83232853D01*
X128728781Y-82999672D01*
X128702703Y-82990543D01*
X128944711Y-82748957D01*
X129050060Y-82495248D01*
X129154245Y-82747394D01*
X129451043Y-83044711D01*
X129704752Y-83150060D01*
X129452606Y-83254245D01*
X129210545Y-83495884D01*
X129200328Y-83471219D01*
X128967147Y-83412458D01*
X128229605Y-84150000D01*
X128967147Y-84887542D01*
X129200328Y-84828781D01*
X129209457Y-84802703D01*
X129451043Y-85044711D01*
X129704752Y-85150060D01*
X129452606Y-85254245D01*
X129155289Y-85551043D01*
X129049940Y-85804752D01*
X128945755Y-85552606D01*
X128704116Y-85310545D01*
X128728781Y-85300328D01*
X128787542Y-85067147D01*
X128050000Y-84329605D01*
X127312458Y-85067147D01*
X127371219Y-85300328D01*
X127397297Y-85309457D01*
X127155289Y-85551043D01*
X126994184Y-85939027D01*
X126993817Y-86359130D01*
X127154245Y-86747394D01*
X127451043Y-87044711D01*
X127704752Y-87150060D01*
X127452606Y-87254245D01*
X127155289Y-87551043D01*
X126994184Y-87939027D01*
X126993817Y-88359130D01*
X127154245Y-88747394D01*
X127395884Y-88989455D01*
X127371219Y-88999672D01*
X127312458Y-89232853D01*
X128050000Y-89970395D01*
X128787542Y-89232853D01*
X128728781Y-88999672D01*
X128702703Y-88990543D01*
X128889455Y-88804116D01*
X128899672Y-88828781D01*
X129132853Y-88887542D01*
X129870395Y-88150000D01*
X129132853Y-87412458D01*
X128899672Y-87471219D01*
X128890543Y-87497297D01*
X128648957Y-87255289D01*
X128395248Y-87149940D01*
X128647394Y-87045755D01*
X128944711Y-86748957D01*
X129050060Y-86495248D01*
X129154245Y-86747394D01*
X129395884Y-86989455D01*
X129371219Y-86999672D01*
X129312458Y-87232853D01*
X130050000Y-87970395D01*
X130787542Y-87232853D01*
X130728781Y-86999672D01*
X130702703Y-86990543D01*
X130889455Y-86804116D01*
X130899672Y-86828781D01*
X131132853Y-86887542D01*
X131870395Y-86150000D01*
X132229605Y-86150000D01*
X132893510Y-86813905D01*
X132899672Y-86828781D01*
X132911322Y-86831717D01*
X132967147Y-86887542D01*
X133050000Y-86866663D01*
X133132853Y-86887542D01*
X133188678Y-86831717D01*
X133200328Y-86828781D01*
X133205022Y-86815373D01*
X133870395Y-86150000D01*
X133206490Y-85486095D01*
X133200328Y-85471219D01*
X133188678Y-85468283D01*
X133132853Y-85412458D01*
X133050000Y-85433337D01*
X132967147Y-85412458D01*
X132911322Y-85468283D01*
X132899672Y-85471219D01*
X132894978Y-85484627D01*
X132229605Y-86150000D01*
X131870395Y-86150000D01*
X131132853Y-85412458D01*
X130899672Y-85471219D01*
X130890543Y-85497297D01*
X130648957Y-85255289D01*
X130395248Y-85149940D01*
X130647394Y-85045755D01*
X130944711Y-84748957D01*
X131050060Y-84495248D01*
X131154245Y-84747394D01*
X131395884Y-84989455D01*
X131371219Y-84999672D01*
X131312458Y-85232853D01*
X132050000Y-85970395D01*
X132787542Y-85232853D01*
X132728781Y-84999672D01*
X132702703Y-84990543D01*
X132944711Y-84748957D01*
X133050060Y-84495248D01*
X133154245Y-84747394D01*
X133395884Y-84989455D01*
X133371219Y-84999672D01*
X133312458Y-85232853D01*
X134050000Y-85970395D01*
X134787542Y-85232853D01*
X134728781Y-84999672D01*
X134702703Y-84990543D01*
X134944711Y-84748957D01*
X135050060Y-84495248D01*
X135154245Y-84747394D01*
X135451043Y-85044711D01*
X135704752Y-85150060D01*
X135452606Y-85254245D01*
X135210545Y-85495884D01*
X135200328Y-85471219D01*
X134967147Y-85412458D01*
X134229605Y-86150000D01*
X134967147Y-86887542D01*
X135200328Y-86828781D01*
X135209457Y-86802703D01*
X135395884Y-86989455D01*
X135371219Y-86999672D01*
X135312458Y-87232853D01*
X136050000Y-87970395D01*
X136787542Y-87232853D01*
X136728781Y-86999672D01*
X136702703Y-86990543D01*
X136944711Y-86748957D01*
X137105816Y-86360973D01*
X137106183Y-85940870D01*
X136945755Y-85552606D01*
X136648957Y-85255289D01*
X136395248Y-85149940D01*
X136647394Y-85045755D01*
X136944711Y-84748957D01*
X137105816Y-84360973D01*
X137106183Y-83940870D01*
X136945755Y-83552606D01*
X136930828Y-83537653D01*
X137039381Y-83465119D01*
X137969000Y-82535500D01*
X137969000Y-92888764D01*
X137865119Y-92784883D01*
X137709072Y-92680615D01*
X137525001Y-92644001D01*
X136988293Y-92644001D01*
X137105816Y-92360973D01*
X137106183Y-91940870D01*
X136945755Y-91552606D01*
X136648957Y-91255289D01*
X136395248Y-91149940D01*
X136647394Y-91045755D01*
X136944711Y-90748957D01*
X137105816Y-90360973D01*
X137106183Y-89940870D01*
X136945755Y-89552606D01*
X136704116Y-89310545D01*
X136728781Y-89300328D01*
X136787542Y-89067147D01*
X136050000Y-88329605D01*
X135312458Y-89067147D01*
X135371219Y-89300328D01*
X135397297Y-89309457D01*
X135155289Y-89551043D01*
X135049940Y-89804752D01*
X134945755Y-89552606D01*
X134648957Y-89255289D01*
X134395248Y-89149940D01*
X134647394Y-89045755D01*
X134889455Y-88804116D01*
X134899672Y-88828781D01*
X135132853Y-88887542D01*
X135870395Y-88150000D01*
X136229605Y-88150000D01*
X136967147Y-88887542D01*
X137200328Y-88828781D01*
X137372522Y-88336900D01*
X137343375Y-87816566D01*
X137200328Y-87471219D01*
X136967147Y-87412458D01*
X136229605Y-88150000D01*
X135870395Y-88150000D01*
X135132853Y-87412458D01*
X134899672Y-87471219D01*
X134890543Y-87497297D01*
X134704116Y-87310545D01*
X134728781Y-87300328D01*
X134787542Y-87067147D01*
X134050000Y-86329605D01*
X133312458Y-87067147D01*
X133371219Y-87300328D01*
X133397297Y-87309457D01*
X133155289Y-87551043D01*
X133049940Y-87804752D01*
X132945755Y-87552606D01*
X132704116Y-87310545D01*
X132728781Y-87300328D01*
X132787542Y-87067147D01*
X132050000Y-86329605D01*
X131312458Y-87067147D01*
X131371219Y-87300328D01*
X131397297Y-87309457D01*
X131210545Y-87495884D01*
X131200328Y-87471219D01*
X130967147Y-87412458D01*
X130229605Y-88150000D01*
X130967147Y-88887542D01*
X131200328Y-88828781D01*
X131209457Y-88802703D01*
X131451043Y-89044711D01*
X131704752Y-89150060D01*
X131452606Y-89254245D01*
X131155289Y-89551043D01*
X131049940Y-89804752D01*
X130945755Y-89552606D01*
X130704116Y-89310545D01*
X130728781Y-89300328D01*
X130787542Y-89067147D01*
X130050000Y-88329605D01*
X129312458Y-89067147D01*
X129371219Y-89300328D01*
X129397297Y-89309457D01*
X129210545Y-89495884D01*
X129200328Y-89471219D01*
X128967147Y-89412458D01*
X128229605Y-90150000D01*
X128967147Y-90887542D01*
X129200328Y-90828781D01*
X129209457Y-90802703D01*
X129451043Y-91044711D01*
X129704752Y-91150060D01*
X129452606Y-91254245D01*
X129155289Y-91551043D01*
X129049940Y-91804752D01*
X128945755Y-91552606D01*
X128704116Y-91310545D01*
X128728781Y-91300328D01*
X128787542Y-91067147D01*
X128050000Y-90329605D01*
X127312458Y-91067147D01*
X127371219Y-91300328D01*
X127397297Y-91309457D01*
X127155289Y-91551043D01*
X126994184Y-91939027D01*
X126993817Y-92359130D01*
X127154245Y-92747394D01*
X127451043Y-93044711D01*
X127704752Y-93150060D01*
X127452606Y-93254245D01*
X127155289Y-93551043D01*
X126994184Y-93939027D01*
X126993817Y-94359130D01*
X127154245Y-94747394D01*
X127395884Y-94989455D01*
X127371219Y-94999672D01*
X127312458Y-95232853D01*
X128050000Y-95970395D01*
X128787542Y-95232853D01*
X128728781Y-94999672D01*
X128702703Y-94990543D01*
X128889455Y-94804116D01*
X128899672Y-94828781D01*
X129132853Y-94887542D01*
X129870395Y-94150000D01*
X129132853Y-93412458D01*
X128899672Y-93471219D01*
X128890543Y-93497297D01*
X128648957Y-93255289D01*
X128395248Y-93149940D01*
X128647394Y-93045755D01*
X128944711Y-92748957D01*
X129050060Y-92495248D01*
X129154245Y-92747394D01*
X129395884Y-92989455D01*
X129371219Y-92999672D01*
X129312458Y-93232853D01*
X130050000Y-93970395D01*
X130787542Y-93232853D01*
X130728781Y-92999672D01*
X130702703Y-92990543D01*
X130889455Y-92804116D01*
X130899672Y-92828781D01*
X131132853Y-92887542D01*
X131870395Y-92150000D01*
X132229605Y-92150000D01*
X132893510Y-92813905D01*
X132899672Y-92828781D01*
X132911322Y-92831717D01*
X132967147Y-92887542D01*
X133050000Y-92866663D01*
X133132853Y-92887542D01*
X133188678Y-92831717D01*
X133200328Y-92828781D01*
X133205022Y-92815373D01*
X133870395Y-92150000D01*
X133206490Y-91486095D01*
X133200328Y-91471219D01*
X133188678Y-91468283D01*
X133132853Y-91412458D01*
X133050000Y-91433337D01*
X132967147Y-91412458D01*
X132911322Y-91468283D01*
X132899672Y-91471219D01*
X132894978Y-91484627D01*
X132229605Y-92150000D01*
X131870395Y-92150000D01*
X131132853Y-91412458D01*
X130899672Y-91471219D01*
X130890543Y-91497297D01*
X130648957Y-91255289D01*
X130395248Y-91149940D01*
X130647394Y-91045755D01*
X130944711Y-90748957D01*
X131050060Y-90495248D01*
X131154245Y-90747394D01*
X131395884Y-90989455D01*
X131371219Y-90999672D01*
X131312458Y-91232853D01*
X132050000Y-91970395D01*
X132787542Y-91232853D01*
X132728781Y-90999672D01*
X132702703Y-90990543D01*
X132944711Y-90748957D01*
X133050060Y-90495248D01*
X133154245Y-90747394D01*
X133395884Y-90989455D01*
X133371219Y-90999672D01*
X133312458Y-91232853D01*
X134050000Y-91970395D01*
X134787542Y-91232853D01*
X134728781Y-90999672D01*
X134702703Y-90990543D01*
X134944711Y-90748957D01*
X135050060Y-90495248D01*
X135154245Y-90747394D01*
X135451043Y-91044711D01*
X135704752Y-91150060D01*
X135452606Y-91254245D01*
X135210545Y-91495884D01*
X135200328Y-91471219D01*
X134967147Y-91412458D01*
X134229605Y-92150000D01*
X134243748Y-92164143D01*
X134064143Y-92343748D01*
X134050000Y-92329605D01*
X133312458Y-93067147D01*
X133371219Y-93300328D01*
X133397297Y-93309457D01*
X133155289Y-93551043D01*
X133049940Y-93804752D01*
X132945755Y-93552606D01*
X132704116Y-93310545D01*
X132728781Y-93300328D01*
X132787542Y-93067147D01*
X132050000Y-92329605D01*
X131312458Y-93067147D01*
X131371219Y-93300328D01*
X131397297Y-93309457D01*
X131210545Y-93495884D01*
X131200328Y-93471219D01*
X130967147Y-93412458D01*
X130229605Y-94150000D01*
X130967147Y-94887542D01*
X131200328Y-94828781D01*
X131209457Y-94802703D01*
X131451043Y-95044711D01*
X131704752Y-95150060D01*
X131452606Y-95254245D01*
X131155289Y-95551043D01*
X131049940Y-95804752D01*
X130945755Y-95552606D01*
X130704116Y-95310545D01*
X130728781Y-95300328D01*
X130787542Y-95067147D01*
X130050000Y-94329605D01*
X129312458Y-95067147D01*
X129371219Y-95300328D01*
X129397297Y-95309457D01*
X129210545Y-95495884D01*
X129200328Y-95471219D01*
X128967147Y-95412458D01*
X128229605Y-96150000D01*
X128967147Y-96887542D01*
X129200328Y-96828781D01*
X129209457Y-96802703D01*
X129451043Y-97044711D01*
X129704752Y-97150060D01*
X129452606Y-97254245D01*
X129155289Y-97551043D01*
X129049940Y-97804752D01*
X128945755Y-97552606D01*
X128704116Y-97310545D01*
X128728781Y-97300328D01*
X128787542Y-97067147D01*
X128050000Y-96329605D01*
X127312458Y-97067147D01*
X127371219Y-97300328D01*
X127397297Y-97309457D01*
X127155289Y-97551043D01*
X126994184Y-97939027D01*
X126993817Y-98359130D01*
X127154245Y-98747394D01*
X127451043Y-99044711D01*
X127704752Y-99150060D01*
X127452606Y-99254245D01*
X127155289Y-99551043D01*
X126994184Y-99939027D01*
X126993817Y-100359130D01*
X127154245Y-100747394D01*
X127395884Y-100989455D01*
X127371219Y-100999672D01*
X127312458Y-101232853D01*
X128050000Y-101970395D01*
X128787542Y-101232853D01*
X128728781Y-100999672D01*
X128702703Y-100990543D01*
X128889455Y-100804116D01*
X128899672Y-100828781D01*
X129132853Y-100887542D01*
X129870395Y-100150000D01*
X129132853Y-99412458D01*
X128899672Y-99471219D01*
X128890543Y-99497297D01*
X128648957Y-99255289D01*
X128395248Y-99149940D01*
X128647394Y-99045755D01*
X128944711Y-98748957D01*
X129050060Y-98495248D01*
X129154245Y-98747394D01*
X129395884Y-98989455D01*
X129371219Y-98999672D01*
X129312458Y-99232853D01*
X130050000Y-99970395D01*
X130787542Y-99232853D01*
X130728781Y-98999672D01*
X130702703Y-98990543D01*
X130944711Y-98748957D01*
X131050060Y-98495248D01*
X131154245Y-98747394D01*
X131451043Y-99044711D01*
X131704752Y-99150060D01*
X131452606Y-99254245D01*
X131210545Y-99495884D01*
X131200328Y-99471219D01*
X130967147Y-99412458D01*
X130229605Y-100150000D01*
X130967147Y-100887542D01*
X131200328Y-100828781D01*
X131209457Y-100802703D01*
X131451043Y-101044711D01*
X131704752Y-101150060D01*
X131452606Y-101254245D01*
X131155289Y-101551043D01*
X131049940Y-101804752D01*
X130945755Y-101552606D01*
X130704116Y-101310545D01*
X130728781Y-101300328D01*
X130787542Y-101067147D01*
X130050000Y-100329605D01*
X129312458Y-101067147D01*
X129371219Y-101300328D01*
X129397297Y-101309457D01*
X129210545Y-101495884D01*
X129200328Y-101471219D01*
X128967147Y-101412458D01*
X128229605Y-102150000D01*
X128967147Y-102887542D01*
X129200328Y-102828781D01*
X129209457Y-102802703D01*
X129395884Y-102989455D01*
X129371219Y-102999672D01*
X129312458Y-103232853D01*
X130050000Y-103970395D01*
X130787542Y-103232853D01*
X130728781Y-102999672D01*
X130702703Y-102990543D01*
X130944711Y-102748957D01*
X131050060Y-102495248D01*
X131154245Y-102747394D01*
X131451043Y-103044711D01*
X131704752Y-103150060D01*
X131452606Y-103254245D01*
X131210545Y-103495884D01*
X131200328Y-103471219D01*
X130967147Y-103412458D01*
X130229605Y-104150000D01*
X130967147Y-104887542D01*
X131200328Y-104828781D01*
X131209457Y-104802703D01*
X131451043Y-105044711D01*
X131704752Y-105150060D01*
X131452606Y-105254245D01*
X131155289Y-105551043D01*
X131049940Y-105804752D01*
X130945755Y-105552606D01*
X130704116Y-105310545D01*
X130728781Y-105300328D01*
X130787542Y-105067147D01*
X130050000Y-104329605D01*
X129312458Y-105067147D01*
X129371219Y-105300328D01*
X129397297Y-105309457D01*
X129155289Y-105551043D01*
X129049940Y-105804752D01*
X128945755Y-105552606D01*
X128648957Y-105255289D01*
X128395248Y-105149940D01*
X128647394Y-105045755D01*
X128889455Y-104804116D01*
X128899672Y-104828781D01*
X129132853Y-104887542D01*
X129870395Y-104150000D01*
X129132853Y-103412458D01*
X128899672Y-103471219D01*
X128890543Y-103497297D01*
X128704116Y-103310545D01*
X128728781Y-103300328D01*
X128787542Y-103067147D01*
X128050000Y-102329605D01*
X127312458Y-103067147D01*
X127371219Y-103300328D01*
X127397297Y-103309457D01*
X127155289Y-103551043D01*
X126994184Y-103939027D01*
X126993817Y-104359130D01*
X127154245Y-104747394D01*
X127451043Y-105044711D01*
X127704752Y-105150060D01*
X127452606Y-105254245D01*
X127155289Y-105551043D01*
X126994184Y-105939027D01*
X126993817Y-106359130D01*
X127154245Y-106747394D01*
X127395884Y-106989455D01*
X127371219Y-106999672D01*
X127312458Y-107232853D01*
X128050000Y-107970395D01*
X128787542Y-107232853D01*
X128728781Y-106999672D01*
X128702703Y-106990543D01*
X128944711Y-106748957D01*
X129050060Y-106495248D01*
X129154245Y-106747394D01*
X129451043Y-107044711D01*
X129704752Y-107150060D01*
X129452606Y-107254245D01*
X129210545Y-107495884D01*
X129200328Y-107471219D01*
X128967147Y-107412458D01*
X128229605Y-108150000D01*
X128967147Y-108887542D01*
X129200328Y-108828781D01*
X129209457Y-108802703D01*
X129395884Y-108989455D01*
X129371219Y-108999672D01*
X129312458Y-109232853D01*
X130050000Y-109970395D01*
X130787542Y-109232853D01*
X130728781Y-108999672D01*
X130702703Y-108990543D01*
X130944711Y-108748957D01*
X131050060Y-108495248D01*
X131154245Y-108747394D01*
X131451043Y-109044711D01*
X131704752Y-109150060D01*
X131452606Y-109254245D01*
X131210545Y-109495884D01*
X131200328Y-109471219D01*
X130967147Y-109412458D01*
X130229605Y-110150000D01*
X130243748Y-110164143D01*
X130064143Y-110343748D01*
X130050000Y-110329605D01*
X129312458Y-111067147D01*
X129371219Y-111300328D01*
X129397297Y-111309457D01*
X129155289Y-111551043D01*
X129049940Y-111804752D01*
X128945755Y-111552606D01*
X128648957Y-111255289D01*
X128395248Y-111149940D01*
X128647394Y-111045755D01*
X128889455Y-110804116D01*
X128899672Y-110828781D01*
X129132853Y-110887542D01*
X129870395Y-110150000D01*
X129132853Y-109412458D01*
X128899672Y-109471219D01*
X128890543Y-109497297D01*
X128704116Y-109310545D01*
X128728781Y-109300328D01*
X128787542Y-109067147D01*
X128050000Y-108329605D01*
X127312458Y-109067147D01*
X127371219Y-109300328D01*
X127397297Y-109309457D01*
X127155289Y-109551043D01*
X126994184Y-109939027D01*
X126993817Y-110359130D01*
X127154245Y-110747394D01*
X127451043Y-111044711D01*
X127704752Y-111150060D01*
X127452606Y-111254245D01*
X127155289Y-111551043D01*
X126994184Y-111939027D01*
X126993817Y-112359130D01*
X127154245Y-112747394D01*
X127395884Y-112989455D01*
X127371219Y-112999672D01*
X127312458Y-113232853D01*
X128050000Y-113970395D01*
X128787542Y-113232853D01*
X128728781Y-112999672D01*
X128702703Y-112990543D01*
X128944711Y-112748957D01*
X129050060Y-112495248D01*
X129154245Y-112747394D01*
X129451043Y-113044711D01*
X129704752Y-113150060D01*
X129452606Y-113254245D01*
X129210545Y-113495884D01*
X129200328Y-113471219D01*
X128967147Y-113412458D01*
X128229605Y-114150000D01*
X128967147Y-114887542D01*
X129200328Y-114828781D01*
X129209457Y-114802703D01*
X129451043Y-115044711D01*
X129704752Y-115150060D01*
X129452606Y-115254245D01*
X129155289Y-115551043D01*
X129049940Y-115804752D01*
X128945755Y-115552606D01*
X128704116Y-115310545D01*
X128728781Y-115300328D01*
X128787542Y-115067147D01*
X128050000Y-114329605D01*
X127312458Y-115067147D01*
X127371219Y-115300328D01*
X127397297Y-115309457D01*
X127155289Y-115551043D01*
X126994184Y-115939027D01*
X126993817Y-116359130D01*
X127154245Y-116747394D01*
X127451043Y-117044711D01*
X127704752Y-117150060D01*
X127452606Y-117254245D01*
X127155289Y-117551043D01*
X126994184Y-117939027D01*
X126993817Y-118359130D01*
X127154245Y-118747394D01*
X127451043Y-119044711D01*
X127704752Y-119150060D01*
X127452606Y-119254245D01*
X127155289Y-119551043D01*
X126994184Y-119939027D01*
X126993817Y-120359130D01*
X127154245Y-120747394D01*
X127451043Y-121044711D01*
X127704752Y-121150060D01*
X127452606Y-121254245D01*
X127155289Y-121551043D01*
X126994184Y-121939027D01*
X126993817Y-122359130D01*
X127154245Y-122747394D01*
X127451043Y-123044711D01*
X127704752Y-123150060D01*
X127452606Y-123254245D01*
X127155289Y-123551043D01*
X126994184Y-123939027D01*
X126993817Y-124359130D01*
X127154245Y-124747394D01*
X127451043Y-125044711D01*
X127704752Y-125150060D01*
X127452606Y-125254245D01*
X127155289Y-125551043D01*
X126994184Y-125939027D01*
X126993817Y-126359130D01*
X127154245Y-126747394D01*
X127451043Y-127044711D01*
X127704752Y-127150060D01*
X127452606Y-127254245D01*
X127155289Y-127551043D01*
X126994184Y-127939027D01*
X126993980Y-128172806D01*
X126981000Y-128107552D01*
X126981000Y-114849275D01*
X127132853Y-114887542D01*
X127870395Y-114150000D01*
X127132853Y-113412458D01*
X126981000Y-113450725D01*
X126981000Y-108849275D01*
X127132853Y-108887542D01*
X127870395Y-108150000D01*
X127132853Y-107412458D01*
X126981000Y-107450725D01*
X126981000Y-102849275D01*
X127132853Y-102887542D01*
X127870395Y-102150000D01*
X127132853Y-101412458D01*
X126981000Y-101450725D01*
X126981000Y-96849275D01*
X127132853Y-96887542D01*
X127870395Y-96150000D01*
X127132853Y-95412458D01*
X126981000Y-95450725D01*
X126981000Y-90849275D01*
X127132853Y-90887542D01*
X127870395Y-90150000D01*
X127132853Y-89412458D01*
X126981000Y-89450725D01*
X126981000Y-84849275D01*
X127132853Y-84887542D01*
X127870395Y-84150000D01*
X127132853Y-83412458D01*
X126981000Y-83450725D01*
X126981000Y-78192448D01*
X127070173Y-77744144D01*
X127300075Y-77400073D01*
X127644143Y-77170174D01*
X128092448Y-77081000D01*
X130095844Y-77081000D01*
X129999116Y-77313946D01*
X129998880Y-77584865D01*
X130102337Y-77835252D01*
X130293739Y-78026987D01*
X130543944Y-78130882D01*
X130814863Y-78131118D01*
X131057169Y-78031000D01*
X138450000Y-78031000D01*
X138672339Y-77986774D01*
X138860829Y-77860829D01*
X143660829Y-73060829D01*
X143786774Y-72872339D01*
X143831000Y-72650000D01*
X143831000Y-71326595D01*
X143930882Y-71086054D01*
X143931118Y-70815135D01*
X143831000Y-70572829D01*
X143831000Y-68726595D01*
X143930882Y-68486054D01*
X143931118Y-68215135D01*
X143827661Y-67964748D01*
X143636259Y-67773013D01*
X143386054Y-67669118D01*
X143115135Y-67668882D01*
X142864748Y-67772339D01*
X142673013Y-67963741D01*
X142569118Y-68213946D01*
X142568882Y-68484865D01*
X142669000Y-68727171D01*
X142669000Y-70573405D01*
X142569118Y-70813946D01*
X142568882Y-71084865D01*
X142669000Y-71327171D01*
X142669000Y-72409342D01*
X139689629Y-75388713D01*
X139718062Y-75346160D01*
X139782417Y-75190793D01*
X139972718Y-74234084D01*
X139972718Y-74191636D01*
X139981000Y-74150000D01*
X139981000Y-54353787D01*
X145318787Y-54353787D01*
X145505800Y-54806395D01*
X145851784Y-55152983D01*
X146304065Y-55340786D01*
X146793787Y-55341213D01*
X147246395Y-55154200D01*
X147592983Y-54808216D01*
X147780786Y-54355935D01*
X147780787Y-54353787D01*
X147858787Y-54353787D01*
X148045800Y-54806395D01*
X148391784Y-55152983D01*
X148844065Y-55340786D01*
X149333787Y-55341213D01*
X149786395Y-55154200D01*
X150132983Y-54808216D01*
X150320786Y-54355935D01*
X150320787Y-54353787D01*
X150398787Y-54353787D01*
X150585800Y-54806395D01*
X150931784Y-55152983D01*
X151384065Y-55340786D01*
X151873787Y-55341213D01*
X152326395Y-55154200D01*
X152672983Y-54808216D01*
X152860786Y-54355935D01*
X152860787Y-54353787D01*
X152938787Y-54353787D01*
X153125800Y-54806395D01*
X153471784Y-55152983D01*
X153924065Y-55340786D01*
X154413787Y-55341213D01*
X154866395Y-55154200D01*
X155212983Y-54808216D01*
X155400786Y-54355935D01*
X155400787Y-54353787D01*
X155478787Y-54353787D01*
X155665800Y-54806395D01*
X156011784Y-55152983D01*
X156464065Y-55340786D01*
X156953787Y-55341213D01*
X157406395Y-55154200D01*
X157752983Y-54808216D01*
X157940786Y-54355935D01*
X157940787Y-54353787D01*
X158018787Y-54353787D01*
X158205800Y-54806395D01*
X158551784Y-55152983D01*
X159004065Y-55340786D01*
X159493787Y-55341213D01*
X159946395Y-55154200D01*
X160292983Y-54808216D01*
X160480786Y-54355935D01*
X160480787Y-54353787D01*
X160558787Y-54353787D01*
X160745800Y-54806395D01*
X161091784Y-55152983D01*
X161544065Y-55340786D01*
X162033787Y-55341213D01*
X162486395Y-55154200D01*
X162832983Y-54808216D01*
X163020786Y-54355935D01*
X163020787Y-54353787D01*
X163098787Y-54353787D01*
X163285800Y-54806395D01*
X163631784Y-55152983D01*
X164084065Y-55340786D01*
X164573787Y-55341213D01*
X165026395Y-55154200D01*
X165372983Y-54808216D01*
X165560786Y-54355935D01*
X165560787Y-54353787D01*
X165638787Y-54353787D01*
X165825800Y-54806395D01*
X166171784Y-55152983D01*
X166624065Y-55340786D01*
X167113787Y-55341213D01*
X167566395Y-55154200D01*
X167566637Y-55153958D01*
X168545647Y-55153958D01*
X168617852Y-55380000D01*
X168545647Y-55606042D01*
X169410000Y-56470395D01*
X170274353Y-55606042D01*
X170202148Y-55380000D01*
X170274353Y-55153958D01*
X169410000Y-54289605D01*
X168545647Y-55153958D01*
X167566637Y-55153958D01*
X167912983Y-54808216D01*
X167996181Y-54607852D01*
X168114741Y-54894080D01*
X168366042Y-54974353D01*
X169230395Y-54110000D01*
X169589605Y-54110000D01*
X170453958Y-54974353D01*
X170705259Y-54894080D01*
X170906718Y-54338721D01*
X170880315Y-53748542D01*
X170705259Y-53325920D01*
X170453958Y-53245647D01*
X169589605Y-54110000D01*
X169230395Y-54110000D01*
X168366042Y-53245647D01*
X168114741Y-53325920D01*
X168004050Y-53631060D01*
X167914200Y-53413605D01*
X167568216Y-53067017D01*
X167565868Y-53066042D01*
X168545647Y-53066042D01*
X169410000Y-53930395D01*
X170274353Y-53066042D01*
X170194080Y-52814741D01*
X169638721Y-52613282D01*
X169048542Y-52639685D01*
X168625920Y-52814741D01*
X168545647Y-53066042D01*
X167565868Y-53066042D01*
X167115935Y-52879214D01*
X166626213Y-52878787D01*
X166173605Y-53065800D01*
X165827017Y-53411784D01*
X165639214Y-53864065D01*
X165638787Y-54353787D01*
X165560787Y-54353787D01*
X165561213Y-53866213D01*
X165374200Y-53413605D01*
X165028216Y-53067017D01*
X164575935Y-52879214D01*
X164086213Y-52878787D01*
X163633605Y-53065800D01*
X163287017Y-53411784D01*
X163099214Y-53864065D01*
X163098787Y-54353787D01*
X163020787Y-54353787D01*
X163021213Y-53866213D01*
X162834200Y-53413605D01*
X162488216Y-53067017D01*
X162035935Y-52879214D01*
X161546213Y-52878787D01*
X161093605Y-53065800D01*
X160747017Y-53411784D01*
X160559214Y-53864065D01*
X160558787Y-54353787D01*
X160480787Y-54353787D01*
X160481213Y-53866213D01*
X160294200Y-53413605D01*
X159948216Y-53067017D01*
X159495935Y-52879214D01*
X159006213Y-52878787D01*
X158553605Y-53065800D01*
X158207017Y-53411784D01*
X158019214Y-53864065D01*
X158018787Y-54353787D01*
X157940787Y-54353787D01*
X157941213Y-53866213D01*
X157754200Y-53413605D01*
X157408216Y-53067017D01*
X156955935Y-52879214D01*
X156466213Y-52878787D01*
X156013605Y-53065800D01*
X155667017Y-53411784D01*
X155479214Y-53864065D01*
X155478787Y-54353787D01*
X155400787Y-54353787D01*
X155401213Y-53866213D01*
X155214200Y-53413605D01*
X154868216Y-53067017D01*
X154415935Y-52879214D01*
X153926213Y-52878787D01*
X153473605Y-53065800D01*
X153127017Y-53411784D01*
X152939214Y-53864065D01*
X152938787Y-54353787D01*
X152860787Y-54353787D01*
X152861213Y-53866213D01*
X152674200Y-53413605D01*
X152328216Y-53067017D01*
X151875935Y-52879214D01*
X151386213Y-52878787D01*
X150933605Y-53065800D01*
X150587017Y-53411784D01*
X150399214Y-53864065D01*
X150398787Y-54353787D01*
X150320787Y-54353787D01*
X150321213Y-53866213D01*
X150134200Y-53413605D01*
X149788216Y-53067017D01*
X149335935Y-52879214D01*
X148846213Y-52878787D01*
X148393605Y-53065800D01*
X148047017Y-53411784D01*
X147859214Y-53864065D01*
X147858787Y-54353787D01*
X147780787Y-54353787D01*
X147781213Y-53866213D01*
X147594200Y-53413605D01*
X147248216Y-53067017D01*
X146795935Y-52879214D01*
X146306213Y-52878787D01*
X145853605Y-53065800D01*
X145507017Y-53411784D01*
X145319214Y-53864065D01*
X145318787Y-54353787D01*
X139981000Y-54353787D01*
X139981000Y-51692448D01*
X140108233Y-51052803D01*
X140446519Y-50546521D01*
X140952802Y-50208234D01*
X141592452Y-50081000D01*
X174507552Y-50081000D01*
X175147197Y-50208233D01*
G36*
X129154245Y-118747394D02*
X129395884Y-118989455D01*
X129371219Y-118999672D01*
X129312458Y-119232853D01*
X130050000Y-119970395D01*
X130064143Y-119956253D01*
X130243748Y-120135858D01*
X130229605Y-120150000D01*
X130967147Y-120887542D01*
X131200328Y-120828781D01*
X131209457Y-120802703D01*
X131451043Y-121044711D01*
X131704752Y-121150060D01*
X131452606Y-121254245D01*
X131155289Y-121551043D01*
X131049940Y-121804752D01*
X130945755Y-121552606D01*
X130704116Y-121310545D01*
X130728781Y-121300328D01*
X130787542Y-121067147D01*
X130050000Y-120329605D01*
X129312458Y-121067147D01*
X129371219Y-121300328D01*
X129397297Y-121309457D01*
X129155289Y-121551043D01*
X129049940Y-121804752D01*
X128945755Y-121552606D01*
X128648957Y-121255289D01*
X128395248Y-121149940D01*
X128647394Y-121045755D01*
X128889455Y-120804116D01*
X128899672Y-120828781D01*
X129132853Y-120887542D01*
X129870395Y-120150000D01*
X129132853Y-119412458D01*
X128899672Y-119471219D01*
X128890543Y-119497297D01*
X128648957Y-119255289D01*
X128395248Y-119149940D01*
X128647394Y-119045755D01*
X128944711Y-118748957D01*
X129050060Y-118495248D01*
X129154245Y-118747394D01*
X129154245Y-118747394D01*
G37*
X129154245Y-118747394D02*
X129395884Y-118989455D01*
X129371219Y-118999672D01*
X129312458Y-119232853D01*
X130050000Y-119970395D01*
X130064143Y-119956253D01*
X130243748Y-120135858D01*
X130229605Y-120150000D01*
X130967147Y-120887542D01*
X131200328Y-120828781D01*
X131209457Y-120802703D01*
X131451043Y-121044711D01*
X131704752Y-121150060D01*
X131452606Y-121254245D01*
X131155289Y-121551043D01*
X131049940Y-121804752D01*
X130945755Y-121552606D01*
X130704116Y-121310545D01*
X130728781Y-121300328D01*
X130787542Y-121067147D01*
X130050000Y-120329605D01*
X129312458Y-121067147D01*
X129371219Y-121300328D01*
X129397297Y-121309457D01*
X129155289Y-121551043D01*
X129049940Y-121804752D01*
X128945755Y-121552606D01*
X128648957Y-121255289D01*
X128395248Y-121149940D01*
X128647394Y-121045755D01*
X128889455Y-120804116D01*
X128899672Y-120828781D01*
X129132853Y-120887542D01*
X129870395Y-120150000D01*
X129132853Y-119412458D01*
X128899672Y-119471219D01*
X128890543Y-119497297D01*
X128648957Y-119255289D01*
X128395248Y-119149940D01*
X128647394Y-119045755D01*
X128944711Y-118748957D01*
X129050060Y-118495248D01*
X129154245Y-118747394D01*
G36*
X135154245Y-102747394D02*
X135451043Y-103044711D01*
X135704752Y-103150060D01*
X135452606Y-103254245D01*
X135210545Y-103495884D01*
X135200328Y-103471219D01*
X134967147Y-103412458D01*
X134229605Y-104150000D01*
X134967147Y-104887542D01*
X135200328Y-104828781D01*
X135209457Y-104802703D01*
X135451043Y-105044711D01*
X135704752Y-105150060D01*
X135452606Y-105254245D01*
X135155289Y-105551043D01*
X135049940Y-105804752D01*
X134945755Y-105552606D01*
X134704116Y-105310545D01*
X134728781Y-105300328D01*
X134787542Y-105067147D01*
X134050000Y-104329605D01*
X133312458Y-105067147D01*
X133371219Y-105300328D01*
X133397297Y-105309457D01*
X133155289Y-105551043D01*
X133049940Y-105804752D01*
X132945755Y-105552606D01*
X132648957Y-105255289D01*
X132395248Y-105149940D01*
X132647394Y-105045755D01*
X132889455Y-104804116D01*
X132899672Y-104828781D01*
X133132853Y-104887542D01*
X133870395Y-104150000D01*
X133132853Y-103412458D01*
X132899672Y-103471219D01*
X132890543Y-103497297D01*
X132648957Y-103255289D01*
X132395248Y-103149940D01*
X132647394Y-103045755D01*
X132944711Y-102748957D01*
X133050060Y-102495248D01*
X133154245Y-102747394D01*
X133395884Y-102989455D01*
X133371219Y-102999672D01*
X133312458Y-103232853D01*
X134050000Y-103970395D01*
X134787542Y-103232853D01*
X134728781Y-102999672D01*
X134702703Y-102990543D01*
X134944711Y-102748957D01*
X135050060Y-102495248D01*
X135154245Y-102747394D01*
X135154245Y-102747394D01*
G37*
X135154245Y-102747394D02*
X135451043Y-103044711D01*
X135704752Y-103150060D01*
X135452606Y-103254245D01*
X135210545Y-103495884D01*
X135200328Y-103471219D01*
X134967147Y-103412458D01*
X134229605Y-104150000D01*
X134967147Y-104887542D01*
X135200328Y-104828781D01*
X135209457Y-104802703D01*
X135451043Y-105044711D01*
X135704752Y-105150060D01*
X135452606Y-105254245D01*
X135155289Y-105551043D01*
X135049940Y-105804752D01*
X134945755Y-105552606D01*
X134704116Y-105310545D01*
X134728781Y-105300328D01*
X134787542Y-105067147D01*
X134050000Y-104329605D01*
X133312458Y-105067147D01*
X133371219Y-105300328D01*
X133397297Y-105309457D01*
X133155289Y-105551043D01*
X133049940Y-105804752D01*
X132945755Y-105552606D01*
X132648957Y-105255289D01*
X132395248Y-105149940D01*
X132647394Y-105045755D01*
X132889455Y-104804116D01*
X132899672Y-104828781D01*
X133132853Y-104887542D01*
X133870395Y-104150000D01*
X133132853Y-103412458D01*
X132899672Y-103471219D01*
X132890543Y-103497297D01*
X132648957Y-103255289D01*
X132395248Y-103149940D01*
X132647394Y-103045755D01*
X132944711Y-102748957D01*
X133050060Y-102495248D01*
X133154245Y-102747394D01*
X133395884Y-102989455D01*
X133371219Y-102999672D01*
X133312458Y-103232853D01*
X134050000Y-103970395D01*
X134787542Y-103232853D01*
X134728781Y-102999672D01*
X134702703Y-102990543D01*
X134944711Y-102748957D01*
X135050060Y-102495248D01*
X135154245Y-102747394D01*
G36*
X136243748Y-94135858D02*
X136229605Y-94150000D01*
X136243748Y-94164143D01*
X136064143Y-94343748D01*
X136050000Y-94329605D01*
X136035858Y-94343748D01*
X135856253Y-94164143D01*
X135870395Y-94150000D01*
X135856253Y-94135858D01*
X136035858Y-93956253D01*
X136050000Y-93970395D01*
X136064143Y-93956253D01*
X136243748Y-94135858D01*
X136243748Y-94135858D01*
G37*
X136243748Y-94135858D02*
X136229605Y-94150000D01*
X136243748Y-94164143D01*
X136064143Y-94343748D01*
X136050000Y-94329605D01*
X136035858Y-94343748D01*
X135856253Y-94164143D01*
X135870395Y-94150000D01*
X135856253Y-94135858D01*
X136035858Y-93956253D01*
X136050000Y-93970395D01*
X136064143Y-93956253D01*
X136243748Y-94135858D01*
G36*
X132836673Y-81184699D02*
X133015302Y-81363327D01*
X133247136Y-81459356D01*
X133155289Y-81551043D01*
X133049940Y-81804752D01*
X132945755Y-81552606D01*
X132648957Y-81255289D01*
X132395248Y-81149940D01*
X132647394Y-81045755D01*
X132740586Y-80952725D01*
X132836673Y-81184699D01*
X132836673Y-81184699D01*
G37*
X132836673Y-81184699D02*
X133015302Y-81363327D01*
X133247136Y-81459356D01*
X133155289Y-81551043D01*
X133049940Y-81804752D01*
X132945755Y-81552606D01*
X132648957Y-81255289D01*
X132395248Y-81149940D01*
X132647394Y-81045755D01*
X132740586Y-80952725D01*
X132836673Y-81184699D01*
G36*
X134177000Y-80023000D02*
X134197000Y-80023000D01*
X134197000Y-80277000D01*
X134177000Y-80277000D01*
X134177000Y-80297000D01*
X133923000Y-80297000D01*
X133923000Y-80277000D01*
X133903000Y-80277000D01*
X133903000Y-80023000D01*
X133923000Y-80023000D01*
X133923000Y-80003000D01*
X134177000Y-80003000D01*
X134177000Y-80023000D01*
X134177000Y-80023000D01*
G37*
X134177000Y-80023000D02*
X134197000Y-80023000D01*
X134197000Y-80277000D01*
X134177000Y-80277000D01*
X134177000Y-80297000D01*
X133923000Y-80297000D01*
X133923000Y-80277000D01*
X133903000Y-80277000D01*
X133903000Y-80023000D01*
X133923000Y-80023000D01*
X133923000Y-80003000D01*
X134177000Y-80003000D01*
X134177000Y-80023000D01*
M02*
