G04 #@! TF.FileFunction,Soldermask,Bot*
%FSLAX46Y46*%
G04 Gerber Fmt 4.6, Leading zero omitted, Abs format (unit mm)*
G04 Created by KiCad (PCBNEW 4.0.4-stable) date 12/18/16 13:30:46*
%MOMM*%
%LPD*%
G01*
G04 APERTURE LIST*
%ADD10C,0.100000*%
%ADD11R,1.350000X1.350000*%
%ADD12C,1.350000*%
%ADD13R,1.270000X0.965200*%
%ADD14R,0.965200X1.270000*%
%ADD15R,2.235200X2.235200*%
%ADD16R,2.032000X2.032000*%
%ADD17O,2.032000X2.032000*%
%ADD18R,2.032000X1.727200*%
%ADD19O,2.032000X1.727200*%
%ADD20R,1.750000X1.750000*%
%ADD21C,1.750000*%
%ADD22R,2.500000X2.500000*%
%ADD23C,2.500000*%
%ADD24C,1.501140*%
%ADD25R,1.700000X1.700000*%
%ADD26C,1.700000*%
G04 APERTURE END LIST*
D10*
D11*
X134050000Y-80150000D03*
D12*
X134050000Y-82150000D03*
X134050000Y-84150000D03*
X134050000Y-86150000D03*
X134050000Y-88150000D03*
X134050000Y-90150000D03*
X134050000Y-92150000D03*
X134050000Y-94150000D03*
X134050000Y-96150000D03*
X134050000Y-98150000D03*
X134050000Y-100150000D03*
X134050000Y-102150000D03*
X134050000Y-104150000D03*
X134050000Y-106150000D03*
X134050000Y-108150000D03*
X134050000Y-110150000D03*
X134050000Y-112150000D03*
X134050000Y-114150000D03*
X134050000Y-116150000D03*
X134050000Y-118150000D03*
X134050000Y-120150000D03*
X134050000Y-122150000D03*
X134050000Y-124150000D03*
X134050000Y-126150000D03*
X134050000Y-128150000D03*
X136050000Y-80150000D03*
X136050000Y-82150000D03*
X136050000Y-84150000D03*
X136050000Y-86150000D03*
X136050000Y-88150000D03*
X136050000Y-90150000D03*
X136050000Y-92150000D03*
X136050000Y-94150000D03*
X136050000Y-96150000D03*
X136050000Y-98150000D03*
X136050000Y-100150000D03*
X136050000Y-102150000D03*
X136050000Y-104150000D03*
X136050000Y-106150000D03*
X136050000Y-108150000D03*
X136050000Y-110150000D03*
X136050000Y-112150000D03*
X136050000Y-114150000D03*
X136050000Y-116150000D03*
X136050000Y-118150000D03*
X136050000Y-120150000D03*
X136050000Y-122150000D03*
X136050000Y-124150000D03*
X136050000Y-126150000D03*
X136050000Y-128150000D03*
D13*
X147450000Y-96220000D03*
X147450000Y-94950000D03*
X147450000Y-93680000D03*
D14*
X163520000Y-116050000D03*
X162250000Y-116050000D03*
X160980000Y-116050000D03*
X163520000Y-108550000D03*
X162250000Y-108550000D03*
X160980000Y-108550000D03*
X168620000Y-63250000D03*
X167350000Y-63250000D03*
X166080000Y-63250000D03*
X168620000Y-66050000D03*
X167350000Y-66050000D03*
X166080000Y-66050000D03*
X147820000Y-65550000D03*
X146550000Y-65550000D03*
X145280000Y-65550000D03*
X168620000Y-68850000D03*
X167350000Y-68850000D03*
X166080000Y-68850000D03*
X163520000Y-123550000D03*
X162250000Y-123550000D03*
X160980000Y-123550000D03*
D11*
X128050000Y-80150000D03*
D12*
X128050000Y-82150000D03*
X128050000Y-84150000D03*
X128050000Y-86150000D03*
X128050000Y-88150000D03*
X128050000Y-90150000D03*
X128050000Y-92150000D03*
X128050000Y-94150000D03*
X128050000Y-96150000D03*
X128050000Y-98150000D03*
X128050000Y-100150000D03*
X128050000Y-102150000D03*
X128050000Y-104150000D03*
X128050000Y-106150000D03*
X128050000Y-108150000D03*
X128050000Y-110150000D03*
X128050000Y-112150000D03*
X128050000Y-114150000D03*
X128050000Y-116150000D03*
X128050000Y-118150000D03*
X128050000Y-120150000D03*
X128050000Y-122150000D03*
X128050000Y-124150000D03*
X128050000Y-126150000D03*
X128050000Y-128150000D03*
D11*
X130050000Y-80150000D03*
D12*
X130050000Y-82150000D03*
X130050000Y-84150000D03*
X130050000Y-86150000D03*
X130050000Y-88150000D03*
X130050000Y-90150000D03*
X130050000Y-92150000D03*
X130050000Y-94150000D03*
X130050000Y-96150000D03*
X130050000Y-98150000D03*
X130050000Y-100150000D03*
X130050000Y-102150000D03*
X130050000Y-104150000D03*
X130050000Y-106150000D03*
X130050000Y-108150000D03*
X130050000Y-110150000D03*
X130050000Y-112150000D03*
X130050000Y-114150000D03*
X130050000Y-116150000D03*
X130050000Y-118150000D03*
X130050000Y-120150000D03*
X130050000Y-122150000D03*
X130050000Y-124150000D03*
X130050000Y-126150000D03*
X130050000Y-128150000D03*
X132050000Y-80150000D03*
X132050000Y-82150000D03*
X132050000Y-84150000D03*
X132050000Y-86150000D03*
X132050000Y-88150000D03*
X132050000Y-90150000D03*
X132050000Y-92150000D03*
X132050000Y-94150000D03*
X132050000Y-96150000D03*
X132050000Y-98150000D03*
X132050000Y-100150000D03*
X132050000Y-102150000D03*
X132050000Y-104150000D03*
X132050000Y-106150000D03*
X132050000Y-108150000D03*
X132050000Y-110150000D03*
X132050000Y-112150000D03*
X132050000Y-114150000D03*
X132050000Y-116150000D03*
X132050000Y-118150000D03*
X132050000Y-120150000D03*
X132050000Y-122150000D03*
X132050000Y-124150000D03*
X132050000Y-126150000D03*
X132050000Y-128150000D03*
D15*
X173250000Y-62150000D03*
D16*
X170550000Y-74650000D03*
D17*
X168010000Y-74650000D03*
D18*
X164450000Y-80610000D03*
D19*
X164450000Y-83150000D03*
X164450000Y-85690000D03*
D20*
X166050000Y-117850000D03*
D21*
X168550000Y-117850000D03*
X171050000Y-117850000D03*
X173550000Y-117850000D03*
D20*
X166050000Y-110350000D03*
D21*
X168550000Y-110350000D03*
X171050000Y-110350000D03*
X173550000Y-110350000D03*
D20*
X166050000Y-95350000D03*
D21*
X168550000Y-95350000D03*
X171050000Y-95350000D03*
X173550000Y-95350000D03*
D20*
X166050000Y-102850000D03*
D21*
X168550000Y-102850000D03*
X171050000Y-102850000D03*
X173550000Y-102850000D03*
D20*
X173550000Y-130650000D03*
D21*
X171050000Y-130650000D03*
X168550000Y-130650000D03*
X166050000Y-130650000D03*
X163550000Y-130650000D03*
X161050000Y-130650000D03*
X158550000Y-130650000D03*
X156050000Y-130650000D03*
X153550000Y-130650000D03*
X151050000Y-130650000D03*
D22*
X171750000Y-84400000D03*
D23*
X171750000Y-79400000D03*
D24*
X149609060Y-80300000D03*
X154490940Y-80300000D03*
D25*
X146550000Y-56650000D03*
D26*
X146550000Y-54110000D03*
X149090000Y-56650000D03*
X149090000Y-54110000D03*
X151630000Y-56650000D03*
X151630000Y-54110000D03*
X154170000Y-56650000D03*
X154170000Y-54110000D03*
X156710000Y-56650000D03*
X156710000Y-54110000D03*
X159250000Y-56650000D03*
X159250000Y-54110000D03*
X161790000Y-56650000D03*
X161790000Y-54110000D03*
X164330000Y-56650000D03*
X164330000Y-54110000D03*
X166870000Y-56650000D03*
X166870000Y-54110000D03*
X169410000Y-56650000D03*
X169410000Y-54110000D03*
M02*
